<svg width="116" height="44" viewBox="0 0 116 44" xmlns="http://www.w3.org/2000/svg">
<path id="gg-logo-wordmark" fill-rule="evenodd" clip-rule="evenodd" d="M10.981 1C5.83569 1 1.63806 5.02745 1.63806 9.96147C1.63806 14.8955 5.83569 18.9227 10.981 18.9227C13.8246 18.9227 16.4787 17.696 18.2658 15.5891L18.6179 15.189V8.49469H11.8205V11.4283H15.6389V14.0954C14.4203 15.2955 12.7684 15.9891 10.981 15.9891C7.4875 15.9891 4.61703 13.2954 4.61703 9.96147C4.61703 6.62758 7.4875 3.93386 10.981 3.93386C12.8227 3.93386 14.583 4.68081 15.8014 6.01426L17.9951 4.04065C16.2348 2.12043 13.6622 1 10.981 1ZM36.1387 18.6294H39.3884L31.7515 1.29353H28.4205L20.7836 18.6294H24.0332L25.5771 15.1356H34.5951L36.1387 18.6294ZM30.0994 4.89411L33.3222 12.2018H26.8769L30.0994 4.89411ZM41.8253 18.6294V1.29353H44.8043V18.6294H41.8253ZM60.944 18.6294H64.7353V1.29353H61.7563V14.4421L53.1989 1.29353H49.4076V18.6294H52.3866V5.48089L60.944 18.6294ZM69.3384 18.6294V1.29353H72.3174V18.6294H69.3384ZM88.4576 18.6294H92.2489V1.29353H89.2699V14.4421L80.7125 1.29353H76.9211V18.6294H79.9001V5.48089L88.4576 18.6294ZM95.9038 9.96147C95.9038 5.02745 100.101 1 105.247 1C107.928 1 110.501 2.12043 112.261 4.04065L110.067 6.01426C108.848 4.68081 107.088 3.93386 105.247 3.93386C101.753 3.93386 98.8828 6.62758 98.8828 9.96147C98.8828 13.2954 101.753 15.9891 105.247 15.9891C107.034 15.9891 108.686 15.2955 109.905 14.0954V11.4283H106.086V8.49469H112.884V15.189L112.532 15.5891C110.744 17.696 108.09 18.9227 105.247 18.9227C100.101 18.9227 95.9038 14.8955 95.9038 9.96147ZM9.34294 25.0773C4.19763 25.0773 0 29.1048 0 34.0388C0 38.9728 4.19763 43 9.34294 43C12.1866 43 14.8406 41.7734 16.6278 39.6664L16.9798 39.2664V32.572H10.1824V35.5056H14.0009V38.1728C12.7822 39.3729 11.1304 40.0664 9.34294 40.0664C5.84944 40.0664 2.97897 37.3727 2.97897 34.0388C2.97897 30.7049 5.84944 28.0112 9.34294 28.0112C11.1846 28.0112 12.9447 28.7582 14.1633 30.0916L16.3571 28.118C14.5968 26.1978 12.0241 25.0773 9.34294 25.0773ZM34.7713 42.7068H31.2507L27.92 37.586H24.2911V42.7068H21.3121V25.3709H29.0301C32.5507 25.3709 35.3941 28.118 35.3941 31.4784C35.3941 34.1188 33.634 36.3591 31.1967 37.2125L34.7713 42.7068ZM29.0301 34.6522C30.8986 34.6522 32.4154 33.2119 32.4154 31.4784C32.4154 29.7181 30.8986 28.3047 29.0301 28.3047H24.2911V34.6522H29.0301ZM59.6577 25.3709V35.5858C59.6577 39.6664 63.1241 43 67.4031 43C71.6547 43 75.1482 39.6664 75.1482 35.5858V25.3709H72.1692V35.5858C72.1692 38.066 70.0297 40.0664 67.4031 40.0664C64.7762 40.0664 62.6367 38.066 62.6367 35.5858V25.3709H59.6577ZM94.8077 42.7068H91.0164L82.459 29.5582V42.7068H79.48V25.3709H83.2713L91.8287 38.5194V25.3709H94.8077V42.7068ZM99.411 25.3709V42.7068H106.154C111.164 42.7068 115.199 38.813 115.199 34.0388C115.199 29.2647 111.164 25.3709 106.154 25.3709H99.411ZM112.22 34.0388C112.22 37.2125 109.512 39.7729 106.154 39.7729H102.39V28.3047H106.154C109.512 28.3047 112.22 30.8917 112.22 34.0388Z" fill="#DB8043"/>
<g id="gg-logo-mark">
  <path fill-rule="evenodd" clip-rule="evenodd" d="M38.1521 37.3573C38.8396 38.6215 39.7849 39.7249 40.917 40.5981C42.8054 38.9653 45.6005 36.9052 47.6324 35.9518C50.7966 34.4672 54.1193 33.7305 57.4018 33.6666C57.413 33.572 57.4228 33.477 57.4313 33.3817C54.2272 32.6739 50.8264 32.6102 47.404 33.3097C44.7865 33.8448 42.3553 34.7849 40.1622 36.0512L38.1521 37.3573Z" fill="#50ABBD"/>
  <path fill-rule="evenodd" clip-rule="evenodd" d="M57.427 33.4304C55.3229 33.565 53.0838 33.967 50.8143 34.6597C46.6034 35.9451 43.0363 38.0016 40.5909 40.3359C42.377 41.8327 44.6787 42.7344 47.1913 42.7344C52.54 42.7344 56.9342 38.6502 57.427 33.4304Z" fill="#58A66F"/>
  <path fill-rule="evenodd" clip-rule="evenodd" d="M47.0543 30.9683C48.7501 30.9683 50.4079 31.1307 52.0134 31.44C51.5466 29.2047 49.5652 27.5254 47.1912 27.5254C44.8364 27.5254 42.8687 29.1779 42.3815 31.3862C43.8975 31.1117 45.4591 30.9683 47.0543 30.9683Z" fill="#FFEB00"/>
  <path d="M45.3657 26.1254H49.0537L47.1126 22.0881L45.3657 26.1254Z" fill="#DB8043"/>
  <path d="M41.7041 29.0896L44.3119 26.4818L40.0846 24.9995L41.7041 29.0896Z" fill="#DB8043"/>
  <path d="M50.2236 26.6371L52.8314 29.2448L54.3137 25.0175L50.2236 26.6371Z" fill="#DB8043"/>
  <path d="M56.0542 32.565L57.4578 31.8902L53.4205 30.1433V31.752C54.3178 31.9773 55.1966 32.2493 56.0542 32.565Z" fill="#DB8043"/>
  <path d="M40.9983 31.6759V30.1433L36.9609 32.0843L38.0637 32.5614C39.017 32.211 39.9963 31.9143 40.9983 31.6759Z" fill="#DB8043"/>
</g>
</svg>
