<svg width="236" height="44" viewBox="0 0 236 44" xmlns="http://www.w3.org/2000/svg">
  <g id="logo-wordmark" fill="currentColor">
    <path id="logo-wordmark-tagline" d="M118.653 42.23h-.576v-4.996h.576v4.997Zm0-6.091h-.576v-.847h.576v.847Zm-72.066-.846h4.748v.52h-2.058v6.418h-.633v-6.418h-2.057v-.52Zm5.085 4.44c0 1.356.452 2.132 1.48 2.132 1.029 0 1.48-.776 1.48-2.132s-.451-2.134-1.48-2.134c-1.028 0-1.48.778-1.48 2.134Zm3.537 0c0 1.356-.5 2.594-2.056 2.594s-2.057-1.238-2.057-2.594c0-1.356.5-2.595 2.057-2.595s2.056 1.239 2.056 2.595Zm3.165.353a1.137 1.137 0 0 1-.514.041 1.18 1.18 0 0 1-1.296-1.25 1.196 1.196 0 0 1 1.296-1.278 1.153 1.153 0 0 1 1.299 1.278 1.137 1.137 0 0 1-.785 1.209Zm-.532 3.452c-1.037 0-1.518-.337-1.518-.827 0-.43.346-.847 1.48-.847 1.498 0 1.825.406 1.825.818 0 .519-.538.856-1.787.856Zm1.536-5.747c.228-.174.513-.256.798-.23v-.52a1.467 1.467 0 0 0-1.047.443 2.015 2.015 0 0 0-1.163-.346 1.772 1.772 0 0 0-1.98 1.798 1.585 1.585 0 0 0 .722 1.306.94.94 0 0 0-.75.847c0 .423.298.576.664.651v.02c-.702.26-.876.623-.876 1.057 0 .596.463 1.182 2.182 1.182 1.72 0 2.279-.626 2.279-1.355 0-.816-.625-1.297-2.125-1.297-1.355 0-1.547-.144-1.547-.432 0-.183.144-.366.46-.481.259.099.532.151.81.154a1.7 1.7 0 0 0 1.93-1.75 1.51 1.51 0 0 0-.357-1.047Zm4.804 1.5c-.116-1.028-.565-1.682-1.44-1.692-1.018-.01-1.452 1.03-1.461 1.692h2.901Zm-2.901.46c0 1.135.472 2.113 1.606 2.113.642 0 .96-.22 1.46-1.008l.469.25a2.035 2.035 0 0 1-1.978 1.22c-1.306 0-2.133-.835-2.133-2.594 0-1.547.788-2.594 2.056-2.594 1.355 0 1.999 1.067 1.999 2.614h-3.48Zm4.728-4.15v1.633h-.748v.461h.748v3.758c0 .604.27.873 1.084.873a4.04 4.04 0 0 0 .589-.086v-.479c-.19.063-.389.098-.589.104a.445.445 0 0 1-.508-.51v-3.66h1.097v-.46h-1.097V35.6h-.576Zm2.612 6.63v-6.938h.578v2.73a2.224 2.224 0 0 1 1.71-.885c1.038 0 1.478.596 1.478 1.681v3.411h-.576v-3.353c0-.826-.25-1.278-1.019-1.278-.555 0-.89.308-1.42.793l-.173.158v3.68h-.578Zm6.938-4.632c.874.01 1.326.664 1.443 1.692h-2.903c.01-.662.443-1.701 1.46-1.692Zm.144 4.265c-1.134 0-1.604-.978-1.604-2.112h3.479c0-1.547-.644-2.614-1.999-2.614-1.269 0-2.056 1.047-2.056 2.594 0 1.759.825 2.595 2.133 2.595a2.039 2.039 0 0 0 1.98-1.22l-.472-.251c-.5.789-.817 1.008-1.461 1.008Zm3.027.367v-4.996h.576v.95h.02a1.618 1.618 0 0 1 1.44-1.047h.26v.556h-.26a1.72 1.72 0 0 0-1.46 1.712v2.825h-.576Zm2.662 0v-.864h.825v.864l-.604 1.441h-.374l.557-1.44h-.404Zm8.215-3.593a1.44 1.44 0 0 0-1.297-1.04c-.942 0-1.576.588-1.576 2.134 0 1.278.576 2.132 1.576 2.132.71 0 1.094-.393 1.498-1.035l.461.22a2.228 2.228 0 0 1-1.96 1.278c-1.4 0-2.15-1.086-2.15-2.595 0-1.72.863-2.594 2.15-2.594a1.84 1.84 0 0 1 1.826 1.355l-.528.145Zm3.411 3.227c-1.028 0-1.48-.776-1.48-2.132s.452-2.134 1.48-2.134 1.48.778 1.48 2.134c0 1.356-.452 2.132-1.48 2.132Zm0 .462c1.556 0 2.056-1.238 2.056-2.594 0-1.356-.5-2.595-2.056-2.595-1.557 0-2.056 1.239-2.056 2.595s.499 2.594 2.056 2.594Zm3.19-.096v-4.996h.576v.788a2.23 2.23 0 0 1 1.71-.885c1.038 0 1.48.596 1.48 1.681v3.411h-.576v-3.353c0-.826-.25-1.278-1.02-1.278-.556 0-.892.309-1.424.796l-.003.003-.167.152v3.68h-.576Zm5.868-.565c-.274-.15-.5-.373-.651-.646l-.422.298a2.224 2.224 0 0 0 1.931 1.01 1.551 1.551 0 0 0 1.73-1.414c0-1.082-.916-1.336-1.725-1.562-.642-.178-1.218-.338-1.218-.878 0-.605.434-.874.991-.874a1.516 1.516 0 0 1 1.297.748l.443-.307a1.851 1.851 0 0 0-1.721-.904c-.845 0-1.584.423-1.584 1.365 0 .935.811 1.153 1.582 1.36.695.186 1.357.364 1.357 1.052a1.027 1.027 0 0 1-.357.71 1.014 1.014 0 0 1-.757.241 1.65 1.65 0 0 1-.896-.199Zm6.777-2.375c-.115-1.028-.567-1.682-1.443-1.692-1.017-.01-1.45 1.03-1.459 1.692h2.902Zm-2.902.46c0 1.135.47 2.113 1.604 2.113.644 0 .96-.22 1.461-1.008l.47.25a2.04 2.04 0 0 1-1.979 1.22c-1.305 0-2.134-.835-2.134-2.594 0-1.547.788-2.594 2.057-2.594 1.355 0 1.999 1.067 1.999 2.614h-3.478Zm4.63-2.516v4.995h.578v-2.824a1.718 1.718 0 0 1 1.459-1.712h.26v-.556h-.26a1.617 1.617 0 0 0-1.441 1.048h-.018v-.951h-.578Zm2.585 0h.616l1.363 4.112h.019l1.385-4.113h.615l-1.721 4.996h-.567l-1.71-4.996Zm7.053 4.995v-4.995h.576v.788a2.218 2.218 0 0 1 1.71-.885c1.038 0 1.48.596 1.48 1.681v3.411h-.576v-3.353c0-.826-.251-1.278-1.019-1.278-.557 0-.893.308-1.423.793l-.005.005-.167.153v3.68h-.576Zm7.373-2.144a1.138 1.138 0 0 1-.514.041 1.178 1.178 0 0 1-1.218-.748 1.18 1.18 0 0 1-.078-.502 1.203 1.203 0 0 1 .354-.938 1.192 1.192 0 0 1 .942-.34 1.151 1.151 0 0 1 1.297 1.278 1.129 1.129 0 0 1-.34.944 1.134 1.134 0 0 1-.443.265Zm-.532 3.452c-1.039 0-1.518-.337-1.518-.827 0-.43.345-.847 1.479-.847 1.498 0 1.825.406 1.825.818 0 .519-.539.856-1.786.856Zm1.536-5.747a1.14 1.14 0 0 1 .799-.23v-.52a1.467 1.467 0 0 0-1.048.443 2.016 2.016 0 0 0-1.163-.346 1.771 1.771 0 0 0-1.979 1.798 1.585 1.585 0 0 0 .721 1.306.944.944 0 0 0-.75.847c0 .423.298.576.664.651v.02c-.702.26-.874.623-.874 1.057 0 .596.46 1.182 2.18 1.182 1.719 0 2.279-.626 2.279-1.355 0-.816-.626-1.297-2.126-1.297-1.355 0-1.547-.144-1.547-.432 0-.183.145-.366.461-.481.258.099.532.151.808.154a1.7 1.7 0 0 0 1.931-1.75 1.521 1.521 0 0 0-.356-1.047Zm4.498-.557v-1.633h.575v1.633h1.096v.461h-1.096v3.66a.442.442 0 0 0 .302.494.445.445 0 0 0 .207.016 2.1 2.1 0 0 0 .587-.104v.48a4.161 4.161 0 0 1-.587.086c-.815 0-1.084-.27-1.084-.874v-3.758h-.75v-.46h.75Zm2.612-1.94v6.937h.577v-3.68l.165-.151.007-.006.001-.002h.001c.529-.486.864-.793 1.42-.793.77 0 1.021.452 1.021 1.278v3.353h.576v-3.41c0-1.086-.443-1.682-1.481-1.682a2.221 2.221 0 0 0-1.71.885v-2.73h-.577Zm8.38 3.997c-.117-1.028-.567-1.682-1.443-1.692-1.017-.01-1.45 1.03-1.459 1.692h2.902Zm-2.902.46c0 1.135.47 2.113 1.604 2.113.643 0 .96-.22 1.461-1.008l.47.25a2.035 2.035 0 0 1-1.978 1.22c-1.307 0-2.135-.835-2.135-2.594 0-1.547.787-2.594 2.057-2.594 1.356 0 1.997 1.067 1.997 2.614h-3.476Zm8.622 1.822a2.012 2.012 0 0 1-.61-.601v-2.46c.49-.519.864-.913 1.499-.913 1.001 0 1.46 1.019 1.46 2.056 0 1.383-.508 2.21-1.545 2.21a2 2 0 0 1-.804-.292Zm-.61-4.339h-.577V44h.577v-2.421a1.94 1.94 0 0 0 1.567.748c1.163 0 1.97-.827 1.97-2.564 0-1.376-.712-2.625-2.009-2.625a1.729 1.729 0 0 0-1.508.865h-.02v-.768Zm5.238-1.94h-.576v6.937h.576v-6.937Zm1.603 5.716c0-.633.308-1.105 2.594-1.604v1.633c-.442.48-1.05.775-1.701.826a.819.819 0 0 1-.893-.855Zm2.614.616.077.605h.556a5.57 5.57 0 0 1-.075-.912v-2.614c0-1.106-.54-1.567-1.674-1.567a1.94 1.94 0 0 0-1.852 1.134l.384.231a1.695 1.695 0 0 1 1.45-.904c.856 0 1.143.337 1.143 1.001v.345c-2.085.461-3.199.71-3.199 2.074a1.267 1.267 0 0 0 .847 1.24c.169.06.348.083.527.068a2.618 2.618 0 0 0 1.816-.701Zm5.159-2.988a1.438 1.438 0 0 0-1.296-1.04c-.942 0-1.578.588-1.578 2.134 0 1.278.579 2.132 1.578 2.132.711 0 1.095-.393 1.497-1.035l.463.22a2.228 2.228 0 0 1-1.96 1.278c-1.403 0-2.151-1.086-2.151-2.595 0-1.72.862-2.594 2.151-2.594a1.844 1.844 0 0 1 1.825 1.355l-.529.145Zm3.392-1.04c.877.011 1.326.665 1.441 1.693h-2.901c.009-.662.443-1.701 1.46-1.692Zm.144 4.266c-1.133 0-1.604-.978-1.604-2.112h3.479c0-1.547-.643-2.614-1.999-2.614-1.269 0-2.057 1.047-2.057 2.594 0 1.759.828 2.595 2.134 2.595a2.035 2.035 0 0 0 1.978-1.22l-.469-.251c-.501.789-.818 1.008-1.462 1.008Zm2.941-.844a1.645 1.645 0 0 0 1.547.845 1.02 1.02 0 0 0 1.114-.95c0-.689-.662-.867-1.358-1.053-.77-.207-1.581-.425-1.581-1.36 0-.942.739-1.365 1.584-1.365a1.85 1.85 0 0 1 1.722.904l-.444.307a1.518 1.518 0 0 0-1.296-.748c-.558 0-.992.269-.992.874 0 .54.576.7 1.218.878.809.226 1.724.48 1.724 1.562a1.551 1.551 0 0 1-1.731 1.414 2.224 2.224 0 0 1-1.931-1.01l.424-.298Zm8.416.278h-.019l-1.373-4.064h-.635l1.738 4.92c-.278 1.028-.719 1.384-1.124 1.384a4.49 4.49 0 0 1-.576-.068v.471c.176.045.358.064.539.058.903 0 1.26-.433 1.595-1.414l1.863-5.35h-.614l-1.394 4.063Zm3.046-1.565c0 1.356.452 2.132 1.48 2.132s1.479-.776 1.479-2.132-.451-2.134-1.479-2.134-1.48.778-1.48 2.134Zm3.535 0c0 1.356-.499 2.594-2.055 2.594s-2.057-1.238-2.057-2.594c0-1.356.501-2.595 2.057-2.595s2.055 1.239 2.055 2.595Zm4.901 2.497v-4.996h-.576v3.68l-.173.158c-.529.486-.865.793-1.42.793-.77 0-1.019-.452-1.019-1.277v-3.354h-.578v3.411c0 1.086.443 1.681 1.48 1.681a2.23 2.23 0 0 0 1.71-.883v.787h.576Zm4.816-6.936h-.578v6.937h.578v-6.937Zm3.179 6.57c-1.029 0-1.481-.775-1.481-2.131 0-1.356.452-2.134 1.481-2.134 1.028 0 1.48.778 1.48 2.134 0 1.356-.452 2.132-1.48 2.132Zm0 .463c1.555 0 2.054-1.238 2.054-2.594 0-1.356-.499-2.595-2.054-2.595-1.558 0-2.057 1.239-2.057 2.595s.499 2.594 2.057 2.594Zm2.537-5.093h.615l1.364 4.113h.018l1.385-4.113h.614l-1.719 4.996h-.569l-1.708-4.996Zm6.512.365c.875.01 1.326.664 1.442 1.692h-2.901c.009-.662.441-1.701 1.459-1.692Zm.145 4.265c-1.132 0-1.604-.978-1.604-2.112h3.478c0-1.547-.645-2.614-1.998-2.614-1.267 0-2.058 1.047-2.058 2.594 0 1.759.827 2.595 2.135 2.595a2.042 2.042 0 0 0 1.979-1.22l-.471-.251c-.501.789-.817 1.008-1.461 1.008Z"/>
    <path id="logo-wordmark-title" d="M90.882 22.647a2.902 2.902 0 0 0-3.215-2.823c-2.289 0-3.308 2.14-3.308 4.16s1.458 4.943 3.77 4.943c2.02 0 2.753-1.24 2.753-2.12v-4.16Zm0-8.25c0-.918-.76-1.01-1.324-1.078-.334-.04-.6-.071-.6-.261a.266.266 0 0 1 .218-.268c1.078-.252 1.786-.617 2.299-.881.38-.195.652-.336.89-.336.145 0 .292.147.292.39V28.61c0 .292.49.487 1.291.61l.028.004c.152.019.24.03.24.213 0 .172-.635.342-1.535.342a14.61 14.61 0 0 0-1.532.195c-.198 0-.267-.195-.267-.365v-1.34h-.053a4.425 4.425 0 0 1-7.882-3.26 5.46 5.46 0 0 1 5.086-5.745 5.1 5.1 0 0 1 2.849.852v-5.719ZM50.258 26.808c0 .121-.001.236-.003.345-.014 1.187-.02 1.677 1.855 1.677 4.547 0 5.957-1.64 6.497-2.268.127-.149.206-.24.267-.24.172 0 .196.243.196.293a3.843 3.843 0 0 1-1.217 2.362c-.74.832-1.26.83-2.227.828h-.159a69.35 69.35 0 0 1-2.365-.054c-1.062-.036-2.123-.072-3.185-.043-.404.01-.817.027-1.23.046a39.86 39.86 0 0 1-1.737.051c-.22 0-.366-.051-.366-.245.03-.19.145-.236.437-.352a7.69 7.69 0 0 0 .635-.281c.63-.292.678-.974.678-2.119V14.47c0-.78-.778-1.014-1.373-1.193-.37-.111-.67-.201-.67-.389 0-.267.17-.317.488-.317.202 0 .442.015.732.034a25.31 25.31 0 0 0 1.727.064c.915 0 1.48-.043 1.864-.072.197-.015.347-.026.472-.026.316 0 .46.05.46.342 0 .19-.204.246-.475.319-.526.142-1.3.352-1.3 1.75v11.827Zm15.87-2.334-.463.096c-1.617.33-4.063.83-4.063 2.773 0 1.388.704 1.925 1.996 1.925.875 0 2.53-.682 2.53-1.972v-2.822Zm0-2.459c0-1.265-.997-2.118-2.51-2.118-1.166 0-2.116.122-2.116 1.46 0 .197.042.393.08.574.034.156.065.3.065.424 0 .27-.07.46-.532.46-.414 0-1.143-.363-1.143-.8.023-1.119 1.385-2.823 4.088-2.752 1.508 0 3.844.44 3.844 2.507v5.038c0 .1-.003.21-.007.325-.024.832-.056 1.94 1.055 1.94.049 0 .128-.012.207-.024.079-.012.157-.024.205-.024.123 0 .318 0 .318.172 0 .511-1.072.608-1.412.608a1.878 1.878 0 0 1-1.9-1.242 5.805 5.805 0 0 1-3.72 1.411c-1.584 0-2.63-.585-2.63-2.313 0-1.29.413-2.823 6.109-3.771v-1.875Zm8.687 7.082c-.624-.1-1.434-.23-1.434-1.266v-5.598a2.735 2.735 0 0 1 2.872-1.897 2.962 2.962 0 0 1 2.846 3.04v4.554c0 1.018-.432 1.18-.74 1.295-.172.064-.305.114-.305.288 0 .24.123.292.439.292.116 0 .26-.013.44-.03.31-.029.729-.068 1.312-.068.787 0 1.32.043 1.682.072.186.015.328.026.436.026.242 0 .412-.051.412-.341 0-.253-.281-.304-.626-.367-.553-.1-1.27-.23-1.27-1.266v-4.015c0-1.85-.708-4.552-3.97-4.552a5.32 5.32 0 0 0-3.529 1.802v-1.607c0-.242-.145-.389-.291-.389-.223 0-.435.124-.737.3-.455.266-1.115.653-2.331.917a.262.262 0 0 0-.218.266c0 .191.25.223.562.263.528.068 1.237.16 1.237 1.077v6.037c0 1.018-.592 1.18-1.015 1.295-.235.064-.418.114-.418.288 0 .24.121.292.437.292.094 0 .208-.01.363-.024.325-.029.83-.074 1.707-.074.916 0 1.443.041 1.812.07.2.016.353.028.498.028.366 0 .535-.051.535-.341 0-.253-.316-.304-.706-.367Zm32.183-14.173a1.685 1.685 0 0 0-.004.105v12.657c0 .893-.721 1.148-1.28 1.346-.354.126-.644.228-.644.455 0 .243.075.317.292.317 1.11-.088 2.223-.12 3.336-.096.368 0 .73.026 1.076.051.315.023.616.045.894.045.227 0 .224-.19.222-.275v-.017c0-.285-.282-.348-.632-.426-.577-.129-1.341-.3-1.341-1.57V15.102l-.002-.348c-.005-.44-.007-.654.098-.756.098-.095.29-.094.662-.091h3.695c1.55 0 1.621.722 1.673 1.264.032.326.058.587.395.587.319 0 .292-.293.269-.536l-.121-1.946c-.025-.561-.148-.708-.706-.708-.121 0-.352.006-.698.016a222.99 222.99 0 0 1-6.434.084c-1.765 0-3.131-.032-4.326-.06-.93-.02-1.756-.04-2.587-.04-.384 0-.411.51-.429.83a2.981 2.981 0 0 1-.008.12l-.269 2.361c0 .123.099.292.242.292.27 0 .328-.223.384-.44.01-.04.02-.08.032-.12l.057-.173c.389-1.196.497-1.53 1.939-1.53h3.966c.297.022.263.72.249 1.015Zm9.659 12.736c0 1.427.861 1.491 1.498 1.539.373.028.669.05.669.338 0 .216-.122.269-.393.269-.113 0-.252-.011-.439-.026-.374-.029-.937-.073-1.847-.073a19.926 19.926 0 0 0-2.239.099c-.196 0-.268-.076-.268-.221 0-.214.217-.322.469-.447.352-.176.774-.385.774-.967v-6.277c0-.918-.693-1.01-1.207-1.078-.305-.04-.547-.072-.547-.262 0-.147.195-.244.314-.268a6.794 6.794 0 0 0 2.167-.899c.307-.185.525-.316.756-.316.145 0 .293.145.293.388v1.825h.047l.052-.071.045-.064c.521-.726 1.353-1.885 2.313-1.885.511 0 1.606.634 1.606 1.095 0 .367-.584 1.096-.875 1.096-.195 0-.355-.1-.541-.214-.255-.158-.558-.345-1.065-.345a1.807 1.807 0 0 0-1.582 1.436v5.328Zm11.949-7.223c.355.042.755.089.755.604v6.354c-.047.704-1.266 1.726-2.654 1.726a2.418 2.418 0 0 1-2.36-2.75v-6.157a.529.529 0 0 0-.438-.585c-.296.008-.59.05-.877.122-.43.112-.873.16-1.316.146-.121 0-.435.024-.435.219 0 .259.253.289.535.322.354.04.754.088.754.603v5.67a3.272 3.272 0 0 0 2.216 3.103c.43.146.885.2 1.338.16a3.777 3.777 0 0 0 3.237-1.704h.047v1.34c0 .098.024.364.22.364.282-.005.561-.054.828-.147a6.648 6.648 0 0 1 1.313-.12c.391 0 .9-.028.9-.22 0-.257-.352-.318-.718-.382-.398-.069-.814-.14-.814-.47v-8.42a.527.527 0 0 0-.438-.585 3.908 3.908 0 0 0-.874.121 4.62 4.62 0 0 1-1.314.146c-.124 0-.44.024-.44.219 0 .259.253.289.535.322Zm5.426 1.749a2.947 2.947 0 0 1 .988-2.2 2.948 2.948 0 0 1 2.301-.722 5.309 5.309 0 0 1 2.384.56c.111.387.152.791.123 1.193 0 .128.003.242.007.343.013.416.02.605-.276.605-.061 0-.12-.131-.209-.328-.267-.595-.804-1.789-2.469-1.789a1.546 1.546 0 0 0-1.703 1.557c0 .803.634 1.316 3.188 2.338a2.77 2.77 0 0 1 2.021 2.895 3.333 3.333 0 0 1-3.287 3.336c-1.073 0-1.643-.28-2.065-.488-.247-.122-.444-.218-.661-.218-.535 0-.535-.026-.535-1.948a5.77 5.77 0 0 0-.003-.178c-.008-.425-.02-1.015.296-1.015.166 0 .254.31.376.737.27.949.706 2.476 2.52 2.476a1.985 1.985 0 0 0 2.002-1.19c.11-.255.166-.53.164-.807 0-1.136-.969-1.575-1.866-1.98h-.001c-.118-.054-.236-.107-.349-.161l-.342-.168h-.001c-1.239-.604-2.603-1.269-2.603-2.848Zm7.84-1.778c0 .17.171.17 1.315.17v6.575c0 2.504 1.606 2.821 2.725 2.821 1.702 0 3.018-.828 3.018-1.192 0-.196-.097-.218-.194-.218-.15 0-.294.073-.478.166a3.134 3.134 0 0 1-1.592.392 1.49 1.49 0 0 1-1.704-1.462v-7.083h3.165l.487-.875a.803.803 0 0 0 .146-.34.186.186 0 0 0-.044-.132.184.184 0 0 0-.125-.062c-.259.244-.596.39-.951.412h-2.678v-.326c.002-1.49.002-1.936-.317-1.936-.118 0-.254.196-.451.481a8.925 8.925 0 0 1-.473.639c-.591.65-1.039 1.083-1.346 1.38-.336.327-.503.489-.503.59Zm18.788 1.144c-.17.34 0 .439.314.439h4.822c.537 0 .511-.17.39-.487l-2.384-5.865c-.124-.292-.245-.292-.391 0l-2.751 5.913Zm6.574 2.433-.016-.036c-.236-.538-.389-.888-1.058-.888h-5.352c-.463 0-.901 0-1.145.511l-1.557 3.408a2.5 2.5 0 0 0-.171.85c0 1.061.668 1.18 1.173 1.27.308.054.555.098.555.337 0 .384-.261.377-.539.37l-.117-.002c-.341 0-.682-.025-1.023-.049a14.468 14.468 0 0 0-1.023-.048c-.331 0-.663.024-.992.049a12.96 12.96 0 0 1-.955.047c-.145 0-.218-.125-.218-.267 0-.203.18-.261.437-.343.39-.126.958-.308 1.34-1.145l5.815-12.41c.353-.755.624-1.347.836-1.812.651-1.425.752-1.646.992-1.646.222 0 .377.488.465.765.017.056.032.103.044.136l5.063 12.534c.313.962.721 1.891 1.217 2.773.41.63 1.036.738 1.505.82.367.062.639.109.639.376 0 .22-.173.22-.342.22-.499 0-.998-.025-1.497-.049-.499-.024-.998-.048-1.497-.048-.328 0-.657.024-.986.048-.328.024-.657.049-.985.049-.146 0-.537 0-.537-.245 0-.259.286-.355.605-.462.401-.135.855-.287.855-.804a10.06 10.06 0 0 0-.754-2.312l-.777-1.997Zm10.576 5.112c-.589-.1-1.354-.23-1.354-1.266V11.964c0-.245-.145-.39-.29-.39-.231 0-.449.131-.757.317a6.782 6.782 0 0 1-2.166.9.266.266 0 0 0-.219.266c0 .19.229.223.517.263.486.068 1.14.16 1.14 1.078v13.75c0 .66-.472.874-.822 1.034-.207.094-.371.169-.371.304 0 .221.095.32.292.32.076 0 .173-.01.306-.023.296-.03.771-.076 1.59-.076.74 0 1.318.041 1.727.07.223.016.396.028.517.028.363 0 .558-.051.558-.341 0-.253-.3-.304-.668-.367Zm4.976-1.266c0 1.035.764 1.166 1.353 1.266.368.063.667.113.667.366 0 .29-.196.342-.56.342-.12 0-.292-.012-.514-.028a22.9 22.9 0 0 0-1.727-.07c-.821 0-1.296.047-1.591.076a3.516 3.516 0 0 1-.306.022c-.194 0-.291-.098-.291-.319 0-.135.164-.21.37-.304.349-.16.82-.375.82-1.034v-13.75c0-.918-.653-1.01-1.139-1.078-.287-.04-.516-.072-.516-.263a.263.263 0 0 1 .221-.266c1.104-.258 1.726-.635 2.166-.9.306-.186.523-.317.753-.317.148 0 .294.145.294.39V27.83Zm5.256-11.026c.317 0 1.023-.972 1.023-1.265 0-.292-.706-1.29-1.023-1.29-.29 0-1.02 1.023-1.02 1.29 0 .269.73 1.265 1.02 1.265Zm-1.796 4.011c.392.068.92.16.92 1.077v5.745c0 1.453-.461 1.554-.778 1.624-.166.037-.293.065-.293.276.026.241.172.267.366.267.099 0 .247-.013.435-.03.32-.028.753-.067 1.245-.067.582 0 1.082.033 1.498.06.296.02.551.037.762.037.321 0 .466-.074.466-.267 0-.265-.335-.327-.724-.398-.546-.1-1.199-.22-1.199-.944V19.46c0-.243-.147-.39-.292-.39-.247 0-.481.152-.8.36-.401.262-.937.612-1.804.857a.261.261 0 0 0-.219.266c0 .19.185.223.417.263Zm11.948 3.658-.463.096c-1.618.33-4.066.83-4.066 2.773 0 1.388.707 1.925 1.998 1.925.878 0 2.531-.682 2.531-1.972v-2.822Zm0-2.459c0-1.265-.997-2.118-2.51-2.118-1.166 0-2.115.122-2.115 1.46 0 .197.042.393.081.574.033.156.064.3.064.424 0 .27-.074.46-.538.46-.412 0-1.142-.363-1.142-.8.026-1.119 1.388-2.823 4.09-2.752 1.51 0 3.843.44 3.843 2.507v5.038c0 .1-.003.21-.006.324-.024.832-.056 1.941 1.054 1.941.048 0 .127-.012.207-.024.08-.012.16-.024.209-.024.12 0 .316 0 .316.172 0 .511-1.072.608-1.411.608a1.879 1.879 0 0 1-1.899-1.242 5.813 5.813 0 0 1-3.725 1.411c-1.583 0-2.63-.585-2.63-2.313 0-1.29.416-2.823 6.112-3.771v-1.875Zm8.979 7.082c-.625-.1-1.436-.23-1.436-1.266v-5.598a2.745 2.745 0 0 1 2.873-1.897 2.965 2.965 0 0 1 2.849 3.04v4.554c0 1.018-.433 1.18-.743 1.295-.172.064-.305.114-.305.288 0 .24.122.292.437.292.116 0 .259-.013.44-.03.309-.029.728-.068 1.312-.068.787 0 1.318.043 1.68.072.188.015.33.026.439.026.243 0 .412-.051.412-.341 0-.253-.281-.304-.626-.367-.553-.1-1.271-.23-1.271-1.266v-4.015c0-1.85-.706-4.552-3.966-4.552a5.327 5.327 0 0 0-3.531 1.802v-1.607c0-.242-.146-.389-.293-.389-.223 0-.434.124-.736.3a7.202 7.202 0 0 1-2.33.917.26.26 0 0 0-.218.266c0 .191.249.223.563.263.528.068 1.239.16 1.239 1.077v6.037c0 1.018-.594 1.18-1.019 1.295-.235.064-.419.114-.419.288 0 .24.123.292.439.292.094 0 .209-.01.365-.024.326-.029.831-.074 1.705-.074.915 0 1.441.041 1.811.07.201.016.356.028.502.028.364 0 .534-.051.534-.341 0-.253-.317-.304-.707-.367Zm8.445-4.283a5.51 5.51 0 0 1 1.586-3.913 5.488 5.488 0 0 1 3.891-1.638c1.218 0 2.872.343 2.944.903.039.419.032.866.028 1.192l-.003.241c0 .342-.074.514-.192.514-.213 0-.443-.348-.545-.504l-.028-.042-.01-.015a3.54 3.54 0 0 0-3.021-1.486c-2.07 0-2.87 2.143-2.87 3.896a4.35 4.35 0 0 0 2.548 4.414 4.358 4.358 0 0 0 1.761.383c1.318 0 2.237-.684 2.798-1.102.245-.182.422-.314.533-.314.071 0 .197.074.197.148 0 .389-1.463 2.483-4.798 2.483a5.002 5.002 0 0 1-4.819-5.16Zm17.597-2.41c0 .367-.143.486-.485.486h-4.796c0-1.338 1.072-3.066 2.578-3.066a2.796 2.796 0 0 1 2.703 2.58Zm-1.361 6.355c-1.486 0-3.92-1.195-3.92-5.212h6.562c.501.001.741.002.741-.413a4.485 4.485 0 0 0-4.308-3.87c-3.044 0-4.772 2.604-4.772 5.722a5.015 5.015 0 0 0 4.917 4.988c2.19 0 4.308-1.754 4.308-2.313 0-.074 0-.17-.097-.17-.18 0-.39.144-.669.334-.552.375-1.371.934-2.762.934Z"/>
  </g>
  <g id="logo-mark" fill="#58a66f">
    <path id="logo-mark-background" d="M30.2 10.508c-.055-.042-.123.067-.183.085.084-.021.084.03-.003.09.054.025.108-.057.163-.069-.035-.023.059-.079.024-.106Zm-9.747-3.246c.005-.066.174-.088.156-.153.207-.009.212-.163.488-.204a2.47 2.47 0 0 1-.644.357Zm-.79.535c-.18.12-.288.32-.624.36.074-.187.644-.33.654-.512.184-.002.373-.153.306-.217.038.008.082.034.114.019.029-.028-.107-.037.002-.075.104.073.22-.113.368-.081-.297.198-.56.33-.82.506Zm-1.463 1.2-.083-.022c.015-.054.188-.054.174-.029-.06.003-.107.023-.09.05Zm-.497 1.726c-.074-.04-.209.01-.144-.047.123.05.107-.047.203-.024-.02.023-.04.045-.06.071Zm-.212-.43c-.136-.024.03-.067.047-.092.132.018-.054.04-.047.091Zm8.812-6.153c-.01.023-.1.05-.11.07-.03-.016-.165-.007-.132-.028.056.033.183-.075.242-.042Zm.58-.327c.019.014.116-.072.169-.04-.043.02.025.034-.032.052-.05-.04-.055-.003-.085.021 0-.025-.115 0-.051-.033Zm8.725-2.541c-.008.028-.123.048-.157.037a.998.998 0 0 1 .157-.037Zm.33-.056c-.108.02-.137.042-.191.03a.621.621 0 0 1 .19-.03Zm3.28.317v.01c-.046.007-.166.045-.14.019l.14-.029Zm.141-.018c-.033.017-.133.036-.115.014a.177.177 0 0 1 .115-.014Zm.287-.056c-.06.015-.127.026-.19.038.044-.03.187-.058.19-.038Zm.725-.145c-.253.059-.392.076-.58.118.19-.055.384-.095.58-.118Zm-19.439 8.983c.11-.03.18-.099.056-.147.01-.051.244-.053.12-.097.075-.027.09.017.159.01.266-.256.648-.482.757-.713-.024-.006-.033.01-.048.018-.034-.015.007-.038.024-.059.04.018.139.025.076.055.185-.12.35-.27.485-.443.116-.015.17-.071.181-.14.13-.019.209-.166.351-.202.173-.19.369-.36.582-.505.064-.044.393-.17.381-.256.576-.356.96-.674 1.724-1.093-.015-.022.024-.045.044-.07.665-.386 1.503-.852 2.151-1.222.655-.285 1.109-.561 1.716-.838.097-.042.224-.053.264-.132.421-.133.71-.304 1.135-.473.04-.016.088-.023.13-.042a41.272 41.272 0 0 1 6.35-2.038c.167-.04.363-.099.536-.142.25-.061.524-.11.78-.16-.361.108-.844.176-1.15.282-.241.048-.754.177-1.04.254a1.838 1.838 0 0 0-.36.115c-.027.006-.027-.008-.031-.014-.047.005-.067.041-.09.024-.027.008-.018.017-.018.03-.96.223-1.879.565-2.721.825-.026.013-.002.025.006.036.408-.138.82-.28 1.213-.4a.682.682 0 0 1 .131-.04 5.67 5.67 0 0 0 .242-.074c.576-.18 1.23-.378 1.861-.541a55.584 55.584 0 0 1 4.562-.954c.029-.005.014.004.017.01.176-.042.354-.072.535-.089l.012-.02c.029-.003.015.006.015.01.32-.055.706-.102 1.04-.146A43.479 43.479 0 0 1 44.642.73c.667-.09 1.084-.103 1.7-.171.13-.036.43-.077.471-.107l.12-.016c.012-.015.042-.025.15-.048-.08-.004-.067-.027.083-.044a.3.3 0 0 0-.135-.02c.088-.02.162-.055.086-.074.08-.018.107-.034.005-.033.044-.012.03-.007.075-.022-.094-.014-.128-.04-.118-.06a.813.813 0 0 1 .123-.01c.009-.008-.088 0-.094-.003.13-.047.047-.071-.01-.107-.07.004-.049-.003-.135.001.01-.006.05-.009.054-.015-.311 0-.85.03-1.31.067-.03 0-.014-.008-.011-.011a.095.095 0 0 0-.033.004c-.019.002-.037.002-.058.005-.044.017.064-.008.046.002a1.03 1.03 0 0 1-.191.007 1.05 1.05 0 0 1-.328.012 1.88 1.88 0 0 1-.239.023c-.063.003.047-.01.072-.014a.323.323 0 0 0-.128.018 1.374 1.374 0 0 0-.31 0c-.07.003-.024.012-.021.017-.033.008-.12.01-.174.018-.026-.013.123-.009.127-.021a7.61 7.61 0 0 0-.826.044c-.654.044-1.277.092-1.753.127-.05.012-.155.021-.206.033-.033.02.085 0 .103.006-.018.01-.153.014-.147.027a.347.347 0 0 0-.079-.003c.037-.009.084-.016.07-.028a3.287 3.287 0 0 0-.738.1.894.894 0 0 0-.2.03c.013-.012-.11.003-.042-.028l-.168.022a.378.378 0 0 0 .108-.003 5.096 5.096 0 0 1-.59.08c-.047.015.003.004-.004.02-.347.004-.88.11-1.3.152a.923.923 0 0 1-.14.05c-.322.02-.643.062-.96.125.006.005.03.002.029.008-.035.003-.058.002-.058-.009-.474.086-.92.194-1.497.278-.004.023.075.008.118.008a1.91 1.91 0 0 1-.213.053c-.026-.018.07-.028.042-.044-.216.033-.23.056-.41.07a1.26 1.26 0 0 1-.32.069c-.007.048.14-.023.147.009-.002.01-.133.02-.213.04-.006-.007.003-.011.02-.017-.075-.015-.014.028-.1.034-.043.002.003-.012-.04-.022-.189.03-.376.07-.56.122.013.017.098-.006.169-.02-.17.074-.355.11-.54.106.078-.007.131-.015.168-.018.024-.004.025-.01.025-.015l-.013-.02c-.177.06-.398.078-.575.149.108-.018.215-.042.32-.071a4.96 4.96 0 0 1-.78.2c.011-.01.055-.022.035-.034.024 0 .048.003.071.01.106-.046.218-.077.333-.092-.202.02-.402.057-.597.112-.01.033.107-.013.106.017-.221.059-.424.101-.593.162.04.006.08.002.116-.014-.07.03.023.021-.054.05-.021-.005-.067-.02-.118-.032-.056.021-.372.09-.313.115-.074.027-.065-.006-.08-.017-.121.044-.17.047-.328.096.027.003.05.01.059.03-.067.02-.015-.048-.108-.01.011.01.021.02.03.031a.386.386 0 0 1-.215.01c-.13.04.061.01.045.043-.073.023-.094.003-.117-.015-.04.006-.124.045-.136.027-.063.021.049.005.034.032a.715.715 0 0 0-.279.113c-.056-.015.076-.027.021-.045-.067.04-.21.04-.214.082-.14.022-.142-.02-.294.036.168.006-.161.066-.018.074-.075.036-.044-.021-.1-.003-.008-.036.137-.023.1-.06-.057.013-.155.06-.186.046-.009.03-.054.06-.134.091-.056-.018.006-.036.077-.053-.143.025-.285.06-.423.104.036.052-.171.091-.127.124-.06.01-.06-.042-.108.023-.051.008-.127.005-.05.017a.356.356 0 0 0-.084.018c-.073-.02.108-.04.038-.058-.21.046-.279.088-.51.152.024.007.06-.002.08.007.015.018-.107.036-.103.056a1.985 1.985 0 0 0-.322.05c.008.006.035.059.086.063-.102.028-.108.026-.16.065-.06.014-.05-.055.027-.055.01-.028-.015-.019-.003-.056a.228.228 0 0 0-.142.105c-.048.019-.062-.01-.118.019.05.051-.078.009-.234.092.115-.015.038.018.032.048-.062.02.015-.024-.044-.032a.771.771 0 0 0-.315.135c-.084-.014-.013-.023-.047-.054-.06.015-.086.033-.07.048-.043-.036-.244.05-.317.09.06-.008.102 0 .015.032-.06.017.01-.022-.06-.015-.044.01-.11.055-.132.035-.07.05.073-.004.085.01.029.032-.079.022-.094.057-.02-.008-.04-.019-.015-.03a.74.74 0 0 0-.228.072.112.112 0 0 1 .062.015 1.497 1.497 0 0 0-.452.121c.04.014.107 0 .089.032a.147.147 0 0 1-.113-.023c-.05.02-.096.038-.141.058.015.015.042.003.064.015-.12-.018-.298.095-.395.115-.04.056.157-.041.206-.043.012.015-.019.03-.005.044-.275.042-.33.14-.649.198-.087.023.017.04-.046.062.046.017.089-.035.036-.044.08-.02.06.037.09.047-.113-.004-.2.046-.264.012-.088.024.017.04-.047.062.026.01.07-.016.107-.028-.012.033-.081.037.014.05-.057.039-.14-.005-.188.052.034.01.026-.024.061-.013.008.054-.106.022-.138.018-.16.03-.316.116-.423.125.077.014-.06.038.018.053-.156.017-.085.047-.239.094a.424.424 0 0 1 .02-.056c-.055.048-.157.079-.265.168-.105.017-.048-.01-.081-.04-.09.034-.055.063-.027.093-.097-.014-.044.086-.215.086.012-.027.004-.05.057-.077-.146.008-.016.053-.193.074.105.026.003.082.122.057-.05.041-.072.046-.14.102-.135-.04-.192.072-.329-.008-.042.03-.001.038.043.082.007-.088.025.012.122-.027a1.708 1.708 0 0 1-.432.234c-.076-.03.01-.014.047-.042-.105-.017-.012-.049-.067-.07-.059.07-.15.06-.196.117.043.016.1-.043.145-.058.059.036-.114.077.051.062-.053.053-.092 0-.145.04.056.034-.172.07-.051.114a.211.211 0 0 1-.214-.048c-.025.015-.054.029-.083.044.09-.021.062.07.14.02a1.33 1.33 0 0 1-.29.096c.108.033-.037.038-.027.088-.044.03-.077-.042-.12.009.073-.008.048.029.078.053-.088.024-.047-.048-.12-.03-.004.025.019.045-.064.053-.04.066-.39.145-.327.222-.026.021-.151-.027-.059-.044-.09-.006-.063.017-.165.053a.172.172 0 0 0 .083-.006c.01.11-.258.095-.328.127.13.003.01.08-.131.159a.222.222 0 0 1-.168-.003.046.046 0 0 1-.04.035c-.007 0-.013 0-.02-.002-.038.03.01.047.069.065-.026.012-.03.023-.015.032-.21-.003-.22.12-.383.148.029.006.035.016.026.026-.098-.02-.067.087-.239.105.017-.047-.035-.031-.118-.059-.057.034-.03.056.029.049-.062.025-.244.065-.171.11a.096.096 0 0 1-.065-.004c.053.07.124-.06.239-.085.15.05-.177.044.02.097a.64.64 0 0 1-.186.031c-.022.016.024.025.048.037a1.291 1.291 0 0 0-.502.261c.142.04-.056.082-.147.1.144.033-.15.192-.25.124 0 .02-.017.042-.067.071a.252.252 0 0 1 .092.01c-.156.061-.165.161-.352.149.007.017-.034.04-.003.053-.038.016-.026-.012-.076-.023-.06.05-.032.06-.124.092.026.006.05.015.076.022-.236.184-.381.255-.545.387.041.034.149-.03.123.013.109-.006.066-.032.153-.062.062.01.06.027.087.041-.124.092-.412.189-.276.281-.185-.02-.288.145-.387.198.051.018.092.018.113-.007.03.013-.01.033.027.044-.083.003-.178-.01-.234.043.054-.001.12.017.146-.033.058.02-.062.077-.095.082-.053-.012-.04-.032-.093-.042a3.87 3.87 0 0 1-.3.257c.194.01-.008.077.106.098.063-.055.124-.107.184-.162.041.106-.16.163-.23.237-.018.02.17.044.187-.006.043.085-.141.074-.091.15-.1-.021-.065-.063-.071-.103a.162.162 0 0 0-.174.062c-.04-.051.103-.106-.1-.109.062-.083.138.034.177-.028-.165-.025.02-.034-.023-.074a.68.68 0 0 0-.26.163c.038.004.052-.023.09-.014-.044.06-.052.06-.193.11.088.022.183.054.22 0 .02.063-.188.061-.221.07.065.026.122.04.118.098-.023.016-.067-.001-.104-.007-.035.032.004.051-.06.09.103.014.025.058.15.069-.258.1-.172.225-.411.338.239.041.262-.219.363-.143.04.031-.045.125-.178.184.05.005.039.024.078.032-.11.002-.044.045-.159.051-.007.025.027.005.06.014-.043.057-.161.029-.2.094.031.007.062.012.095.018-.147.04-.071.153-.216.195.113.016.17-.14.326-.153.076.026-.02.082.09.101a.245.245 0 0 0-.205.146c.049.003.076-.015.123-.01-.044.07-.038.084-.163.1.096.018-.006.046.003.085.142-.059.307-.178.291-.293.073-.003.15 0 .171-.065.201.062-.328.19-.177.284-.057-.005-.089.032-.142.036.114.065.056.023.01.12a.108.108 0 0 0 .123-.06.493.493 0 0 1 .118-.01c.112.04-.035.052-.047.107.065.008.094.023.07.049.033-.008.09.006.118-.01-.044.033.145.082.228.128-.015.036-.14-.038-.127.022.03.008.06.014.092.02-.068.068-.217.112-.1.178.002-.025.29-.024.182 0 .222-.046.186-.173.386-.264.068.017-.034.062-.032.09.118.04.003-.075.168-.028.066.09-.212.136-.212.28.1-.041.19-.1.27-.171.004.075-.098.122-.037.2.056-.025.183.02.252.004.002.122-.048.147-.134.246.059.008.053.023.045.041a.092.092 0 0 0 .112-.059c.166.041-.054.083.062.124.106-.003.04-.04.11-.059a.162.162 0 0 1-.036.147l.27-.15.035.008c.078-.082.144-.174.199-.272.295-.068.338-.418.598-.487.077-.223.507-.375.637-.585.094 0 .13.036.231.012.008-.053-.07 0-.096-.01Zm1.61-4.492c-.057-.03-.122.034-.182.042.083-.008.083.026-.002.059.055.02.11-.029.16-.033-.033-.019.058-.049.025-.068Zm.448 4.443c-.06-.04-.13.065-.193.08.087-.02.087.03-.005.088.058.023.115-.054.173-.066-.037-.023.062-.077.025-.102Zm4.842-3.299c-.053-.057-.06-.001-.093.033-.001-.033-.123.012-.054-.042.02.018.129-.113.181-.071-.045.032.03.047-.034.08Zm-.909.63c-.03-.022-.177.002-.142-.031.062.044.203-.127.263-.083-.012.033-.109.08-.121.115ZM37.4 2.765c-.014.044-.141.076-.179.059a.787.787 0 0 1 .179-.06Zm.367-.09c-.12.03-.154.064-.213.05a.587.587 0 0 1 .213-.05Zm3.546.423-.003.016c-.055.01-.191.062-.16.027.052-.016.107-.028.163-.043Zm.154-.026c-.04.023-.15.051-.127.02a.14.14 0 0 1 .127-.02Zm.325-.082-.216.053c.051-.044.214-.083.216-.053Zm.816-.21c-.285.085-.443.107-.656.168.213-.077.433-.133.656-.168ZM30.641 7.882c.107-.068.243-.095.29-.21.463-.222.788-.486 1.255-.755.047-.025.099-.039.147-.07a34.093 34.093 0 0 1 7.117-3.186c.189-.061.411-.15.608-.215.28-.09.59-.16.878-.24-.414.161-.95.264-1.302.424-.27.074-.848.266-1.17.387-.143.041-.28.1-.408.176-.03.007-.027-.01-.032-.02-.051.006-.079.06-.103.036-.029.011-.018.026-.018.04-1.04.377-2.061.809-3.057 1.292-.029.016-.003.035 0 .052.46-.218.92-.437 1.36-.628-.015.006.072-.034.15-.062.076-.03.197-.083.272-.115a31.508 31.508 0 0 1 2.096-.834 40.49 40.49 0 0 1 5.142-1.403c.03-.006.014.006.014.015.197-.061.4-.102.605-.121a.117.117 0 0 1 .016-.03c.034-.006.016.009.014.016.364-.077.795-.139 1.17-.195.611-.094 1.211-.18 1.724-.23.747-.111 1.212-.113 1.902-.184.153-.048.493-.097.543-.135l.137-.018c.019-.02.055-.035.176-.063-.088-.01-.067-.043.101-.06-.006-.02-.065-.03-.145-.037.103-.023.194-.07.115-.101.092-.022.128-.047.015-.049.03-.009.058-.02.086-.031-.101-.023-.133-.062-.115-.091a.678.678 0 0 1 .136-.01c.012-.008-.095-.004-.1-.01.153-.059.067-.101.013-.156-.078.005-.052-.009-.149-.004.012-.008.056-.01.066-.018-.345-.015-.947.007-1.463.036-.034.002-.015-.01-.009-.014-.025 0-.035.002-.039.005l-.065.001c-.051.025.07-.006.05.01a.99.99 0 0 1-.212 0 .873.873 0 0 1-.366.006 1.723 1.723 0 0 1-.267.027c-.07.001.053-.017.083-.018-.03-.017-.12.012-.145.02a1.16 1.16 0 0 0-.342-.01c-.079.005-.03.018-.026.023-.042.01-.137.014-.2.021-.023-.021.138-.007.147-.026a6.77 6.77 0 0 0-.92.038c-.732.049-1.428.106-1.96.15-.056.018-.175.029-.231.047-.043.027.092-.002.112.009-.022.015-.173.015-.17.038a.199.199 0 0 0-.086-.003c.042-.013.098-.025.083-.044a3.108 3.108 0 0 0-.833.136.896.896 0 0 0-.225.044c.016-.015-.121.003-.043-.038-.062.01-.125.018-.187.026a.283.283 0 0 0 .116 0 4.329 4.329 0 0 1-.66.111c-.056.023.001.011-.008.032-.49.05-.976.125-1.457.226a1.015 1.015 0 0 1-.16.07 6.546 6.546 0 0 0-1.08.193c.007.009.033.004.031.012-.037.004-.063.004-.062-.014-.533.133-1.041.298-1.682.436-.011.033.078.007.127.007-.08.033-.16.06-.244.083-.025-.025.08-.04.056-.063-.243.051-.261.084-.462.11a1.152 1.152 0 0 1-.359.109c-.015.07.157-.036.162.008-.003.016-.151.031-.24.066-.007-.01.002-.02.024-.029-.079-.02-.018.043-.115.053-.047.006.004-.015-.04-.028a4.75 4.75 0 0 0-.632.195c.014.024.108-.01.191-.035a1.242 1.242 0 0 1-.605.174c.088-.012.147-.028.185-.034.03-.007.03-.016.03-.022l-.012-.029c-.203.094-.445.126-.646.236.122-.03.242-.067.358-.112a5.477 5.477 0 0 1-.876.325c.013-.021.062-.036.043-.054.026 0 .05.003.075.012.116-.07.243-.12.376-.15a3.22 3.22 0 0 0-.667.189c-.012.048.12-.024.115.02-.25.096-.476.168-.665.26.016.013.062.006.13-.024-.083.048.021.027-.068.077a.98.98 0 0 0-.124-.041c-.064.032-.416.15-.355.18-.082.042-.066-.003-.087-.018-.134.07-.192.075-.366.152a.061.061 0 0 1 .062.043c-.075.033-.012-.071-.114-.01.01.014.018.03.027.043-.11.04-.194.054-.235.027-.142.065.065.01.043.062-.08.033-.1.008-.123-.018-.044.012-.139.073-.151.047-.071.033.054.003.032.042a.813.813 0 0 0-.312.183c-.06-.02.084-.044.028-.066-.078.057-.233.07-.244.128-.153.041-.15-.02-.319.068.18.003-.183.11-.03.11-.082.063-.044-.027-.108.004-.004-.052.153-.043.117-.093-.065.02-.175.096-.207.077-.012.046-.062.091-.156.14-.057-.023.012-.052.09-.082a2.738 2.738 0 0 0-.466.18c.03.07-.197.142-.152.187-.063.017-.062-.06-.118.043-.056.013-.136.01-.053.024a.352.352 0 0 0-.093.03c-.076-.023.122-.063.045-.085-.231.08-.308.147-.562.254.022.008.062-.006.086.008.013.023-.121.059-.118.086-.12.018-.238.05-.35.095.007.011.034.084.085.088-.112.047-.118.046-.175.106-.068.024-.051-.08.035-.085.01-.037-.02-.027 0-.08-.112.056-.11.09-.16.163-.056.028-.069-.01-.132.032.05.074-.085.023-.259.156.126-.032.041.023.032.066-.07.035.018-.037-.045-.042-.19.094-.251.103-.35.22-.087-.016-.012-.035-.046-.08-.064.031-.097.058-.08.08-.041-.052-.267.092-.344.154.067-.016.108-.008.01.045-.064.03.013-.033-.063-.017-.047.017-.12.088-.143.062-.079.079.078-.012.09.005.03.05-.084.04-.104.095-.021-.013-.042-.027-.012-.045a.756.756 0 0 0-.25.122.097.097 0 0 1 .066.018 1.345 1.345 0 0 0-.492.217c.038.012.114-.011.09.036a.12.12 0 0 1-.12-.023c-.052.032-.103.064-.153.092.014.022.044.003.068.017-.128-.015-.325.165-.43.201-.046.088.17-.074.225-.077.01.021-.025.044-.008.062-.298.085-.361.236-.706.345-.094.044.015.056-.056.095.051.021.101-.06.045-.068.087-.035.06.05.092.065-.119-.002-.214.08-.284.036-.092.044.02.058-.051.097.029.01.076-.032.116-.054-.013.051-.089.063.014.074-.064.06-.15.006-.204.093.035.013.03-.037.065-.024.006.074-.115.041-.147.038-.172.058-.342.198-.456.222.083.01-.069.06.016.076-.166.04-.092.074-.258.157a.507.507 0 0 1 .02-.083c-.058.076-.167.13-.285.268-.113.036-.051-.01-.088-.05-.093.06-.057.098-.028.139-.105-.01-.049.127-.233.145.013-.04.004-.074.065-.12-.159.028-.021.08-.209.13.11.028 0 .119.127.07-.051.067-.077.076-.151.16-.142-.043-.207.127-.348.025-.045.05-.004.054.041.111.01-.127.026.019.133-.048a2.12 2.12 0 0 1-.466.384c-.077-.038.012-.02.05-.066-.109-.014-.01-.073-.068-.096-.062.106-.16.102-.213.19.047.019.106-.073.157-.097.06.046-.122.122.053.083-.057.083-.098.009-.153.072.056.044-.187.121-.057.174a.171.171 0 0 1-.225-.05l-.091.073c.095-.038.067.095.147.013a1.25 1.25 0 0 1-.307.173c.115.036-.04.06-.029.13-.047.048-.083-.054-.128.026.077-.018.05.036.081.068-.094.043-.048-.065-.125-.03-.005.036.018.064-.068.083-.044.1-.415.254-.347.358-.028.036-.158-.018-.063-.056-.094 0-.068.033-.172.094a.146.146 0 0 0 .084-.02c.01.162-.272.17-.345.222.137-.009.011.115-.139.247a.178.178 0 0 1-.177.013c-.001.021-.02.068-.063.058-.04.044.012.065.073.085-.028.02-.03.036-.019.048-.217.021-.23.2-.4.257.03.008.036.021.027.038-.104-.02-.068.131-.248.181.015-.072-.038-.044-.124-.072-.062.054-.033.081.03.066a1.243 1.243 0 0 0-.166.109l.056.012a.36.36 0 0 1 .115-.094c.12.046-.053.073-.049.11l.303.066a.518.518 0 0 1 .122-.064c-.027.024-.05.049-.074.073l3.366.738a22.33 22.33 0 0 1 1.622-1.544c-.014-.03.027-.07.05-.106.712-.618 1.618-1.36 2.332-1.952.71-.458 1.21-.895 1.882-1.335Zm17.894-4.039c.207-.06.42-.097.634-.111-.278.06-.428.07-.634.111Zm-.366.067c.058-.044.214-.07.21-.038-.069.014-.137.024-.21.038Zm-.223.024c.057-.027.108-.022.12-.006-.04.02-.148.04-.12.006Zm-.034.023c-.05.004-.186.048-.15.013l.157-.03-.007.017Zm-3.414-.749a.47.47 0 0 1 .209-.033c-.115.018-.153.053-.209.033Zm-.326.08a.719.719 0 0 1 .177-.05.188.188 0 0 1-.177.05Zm-9.284 3.838c-.045-.062-.054-.003-.09.033.002-.036-.116.008-.047-.047.016.022.127-.116.178-.07-.047.034.023.052-.04.084Zm-.895.638c-.027-.024-.166-.001-.13-.036.054.048.197-.127.251-.079-.014.035-.109.08-.121.115Zm-5.833 5.21c0-.102.166-.157.145-.25.204-.041.2-.276.473-.373-.25.25-.37.496-.618.623Zm28.409-9.958c.013-.009-.087-.018-.09-.024.156-.045.088-.097.055-.163-.071-.008-.047-.015-.133-.024.015-.006.054-.003.063-.01a11.459 11.459 0 0 0-1.335-.152c-.032-.005-.012-.012-.003-.02-.026-.001-.032-.001-.04.003l-.057-.007c-.053.018.065.003.043.016a.91.91 0 0 1-.194-.025.675.675 0 0 1-.331-.043 1.22 1.22 0 0 1-.252-.006c-.064-.006.05-.01.08-.006-.023-.024-.112-.004-.138.003a.846.846 0 0 0-.308-.054c-.073-.005-.032.015-.03.021-.038.006-.128-.003-.185-.001-.018-.026.125.007.138-.01a5.028 5.028 0 0 0-.849-.072 77.728 77.728 0 0 0-1.834-.068c-.054.012-.166.012-.225.024-.044.023.088.01.103.021-.023.017-.162-.001-.163.023-.028-.005-.022-.017-.078-.015.041-.008.093-.015.085-.035a2.6 2.6 0 0 0-.797.053.854.854 0 0 0-.216.023c.017-.016-.115-.011-.032-.044-.059.001-.12.006-.18.009a.272.272 0 0 0 .11.012 4.21 4.21 0 0 1-.634.048c-.056.018-.002.008-.017.032-.466.003-.93.035-1.392.094a1.126 1.126 0 0 1-.164.06 5.332 5.332 0 0 0-1.039.106c.006.006.03.006.026.014-.035.001-.057-.003-.054-.02-.522.092-1.024.224-1.647.313-.013.036.074.017.12.021a2.166 2.166 0 0 1-.24.067c-.022-.026.08-.037.06-.064a3.94 3.94 0 0 1-.448.082.997.997 0 0 1-.355.085c-.023.075.154-.026.151.022-.005.015-.148.023-.236.052-.003-.011.005-.02.027-.03-.07-.025-.024.046-.114.05-.046 0 .007-.017-.035-.035a4.02 4.02 0 0 0-.619.16c.008.025.102-.003.182-.023a1.147 1.147 0 0 1-.593.14c.085-.008.142-.02.18-.025.026-.005.03-.012.032-.021a.064.064 0 0 1-.008-.03c-.206.084-.437.1-.641.207.12-.026.238-.058.354-.097-.28.12-.572.215-.87.283.017-.021.064-.034.047-.053a.13.13 0 0 1 .067.018 1.19 1.19 0 0 1 .375-.133c-.222.025-.44.076-.65.153-.018.05.115-.016.104.03-.248.084-.467.145-.66.23.016.018.058.012.125-.017-.083.045.018.033-.073.077-.018-.007-.063-.032-.113-.051-.06.03-.407.133-.355.17-.082.04-.063-.01-.08-.027-.135.067-.187.07-.362.142.029.005.05.017.053.046-.076.032-.002-.074-.106-.014a.179.179 0 0 1 .018.049c-.107.033-.186.042-.222.012-.142.06.06.013.033.068-.077.03-.095.001-.113-.026-.044.01-.14.065-.148.04-.071.031.05.007.024.048a.813.813 0 0 0-.313.175c-.056-.024.08-.042.033-.07-.08.058-.228.064-.245.125-.148.033-.139-.03-.31.052.171.014-.18.108-.036.117-.086.06-.04-.033-.106 0 .003-.06.15-.038.122-.094-.062.017-.173.09-.204.07a.31.31 0 0 1-.16.142c-.053-.027.017-.056.092-.083-.16.007-.284.12-.46.165.023.078-.196.142-.158.192-.063.015-.053-.067-.115.037-.056.014-.133.01-.054.026a.246.246 0 0 0-.091.026c-.071-.026.12-.06.05-.086-.225.072-.306.14-.555.243.021.01.06-.005.08.01.014.025-.115.058-.116.087-.124.04-.256.025-.34.084.004.013.024.09.073.097a.357.357 0 0 0-.176.106c-.065.023-.04-.09.039-.088.014-.042-.014-.03.008-.086-.11.053-.112.088-.164.165-.054.029-.063-.012-.127.032.041.078-.083.018-.257.15.12-.03.036.028.024.073-.066.034.02-.039-.039-.048-.186.094-.245.101-.346.222-.083-.018-.01-.037-.038-.086-.064.029-.095.055-.083.082-.036-.06-.257.084-.334.146.06-.015.1-.001.007.052-.066.029.014-.036-.06-.021-.046.015-.123.089-.14.062-.08.075.075-.012.084.006.024.054-.083.038-.105.098-.02-.017-.037-.03-.009-.05a.748.748 0 0 0-.243.123.073.073 0 0 1 .06.02 1.303 1.303 0 0 0-.48.21c.039.016.111-.005.086.043a.107.107 0 0 1-.114-.028c-.05.033-.1.063-.15.095.013.022.045.003.063.018-.12-.021-.316.165-.418.201-.048.09.167-.074.217-.076.009.022-.023.046-.01.067-.288.079-.355.237-.687.343-.09.043.013.062-.055.098.045.026.095-.058.045-.07.082-.035.055.054.084.069-.114-.003-.209.08-.271.035-.09.042.015.06-.053.1.027.013.074-.032.11-.055-.013.055-.083.067.013.08-.062.064-.144 0-.2.092.033.014.032-.04.065-.02.002.076-.11.039-.142.031-.166.059-.33.203-.44.225.077.015-.067.064.01.08-.157.037-.089.078-.246.162a.677.677 0 0 1 .021-.087c-.057.08-.165.131-.28.278-.108.035-.048-.014-.08-.056-.092.062-.057.103-.033.148-.098-.017-.05.132-.224.147.015-.04.008-.077.064-.124-.151.027-.02.083-.203.134.108.029-.001.124.123.076-.053.068-.077.077-.148.168-.132-.052-.199.127-.332.016-.043.052-.004.058.04.121.012-.136.022.018.124-.053a2.071 2.071 0 0 1-.446.4c-.074-.04.013-.02.048-.07-.104-.014-.009-.073-.062-.1-.062.112-.156.104-.206.198.044.02.102-.077.152-.101.054.05-.12.128.045.09-.053.087-.09.007-.145.072.054.048-.176.125-.055.184a.158.158 0 0 1-.213-.056c-.03.024-.056.05-.086.076.094-.041.063.101.14.015a1.22 1.22 0 0 1-.293.18c.108.04-.037.062-.027.134-.044.053-.079-.059-.12.028.072-.019.044.037.075.07-.088.046-.046-.067-.12-.031-.003.04.018.07-.063.086-.043.107-.392.265-.328.375-.026.038-.15-.023-.06-.059-.09-.001-.063.033-.163.097a.132.132 0 0 0 .08-.018c.01.168-.255.174-.323.23.129-.01.01.122-.13.258-.056.029-.11.055-.168.015-.001.021-.02.071-.059.06-.038.048.012.067.07.09-.024.02-.03.036-.017.05-.206.02-.212.21-.372.27.027.007.033.022.026.038-.1-.018-.064.138-.232.19.014-.075-.034-.045-.12-.076-.056.059-.028.087.031.07-.062.046-.239.13-.165.19-.02.02-.043.004-.066.004.059.099.122-.109.236-.163.15.059-.174.09.022.148-.061.02-.116.076-.184.07-.017.025.029.033.051.047a1.449 1.449 0 0 0-.479.464c.142.044-.05.131-.139.174.144.028-.136.308-.237.219a.12.12 0 0 1-.01.05l.25.056c.044-.068.065-.14.035-.177.038.009.082.038.112.012.024-.044-.106-.04-.003-.112.104.095.207-.2.355-.175-.145.177-.281.326-.413.471l3.29.72a5.02 5.02 0 0 1 .253-.334c.057-.071.369-.292.358-.422a24.433 24.433 0 0 1 1.69-1.795c-.012-.03.028-.07.047-.108a66.62 66.62 0 0 1 2.222-1.98c.68-.456 1.173-.896 1.826-1.33.103-.067.233-.088.284-.209.446-.21.767-.473 1.228-.732.045-.027.094-.039.142-.068a27.196 27.196 0 0 1 6.989-2.86c.184-.049.405-.121.595-.171.276-.071.573-.118.853-.176-.411.135-.922.194-1.273.33-.259.054-.824.209-1.142.308-.14.035-.275.085-.403.152-.029.007-.023-.011-.026-.023-.048.004-.082.056-.1.032-.03.01-.02.024-.026.039-1.023.318-2.025.7-3 1.142-.028.016-.008.036-.005.055.45-.2.904-.402 1.338-.57.047-.02.095-.038.145-.052.074-.028.194-.073.268-.103.636-.25 1.366-.513 2.06-.715a30.17 30.17 0 0 1 4.973-.99c.032-.002.014.01.012.019.19-.042.384-.063.578-.064a.308.308 0 0 1 .02-.028c.033-.002.013.012.01.018.348-.04.756-.056 1.109-.073a22.56 22.56 0 0 1 1.614-.038c.706-.027 1.127.03 1.765.049.15-.035.469-.04.522-.073l.13-.001c.02-.02.057-.03.172-.044-.074-.02-.047-.055.107-.05 0-.018-.048-.038-.12-.056.1-.012.191-.05.13-.09.087-.014.126-.035.025-.052.048-.01.035-.006.085-.02-.084-.038-.102-.083-.077-.113a.573.573 0 0 1 .123.01Z"/>
    <path id="logo-mark-foreground" d="M10.708 12.965c.062-.009.224-.006.181-.03-.06.005-.123.01-.188.017.001.004.007.007.007.013Zm-.184.015c.048.008.178-.004.145-.028a.205.205 0 0 0-.145.028Zm-.377.034c.08-.006.165-.015.25-.021-.068-.025-.257-.01-.25.02Zm-.954.077c.337-.017.514-.046.764-.062-.256 0-.512.02-.764.062Zm32.159 3.861c.037.023.074.047.108.071.07-.078.259-.068.153-.114-.125.114-.157-.022-.261.043Zm.046-.677c-.15.074.085.03.103.104.153-.081-.07-.078-.103-.104Zm-5.984-3.012c.308.124.633.202.963.232-.04-.088-.26-.053-.266-.144-.257.065-.34-.136-.697-.088Zm4.438 1.644c.075-.021.139-.014.134.027.03-.018.06-.036.091-.06-.048-.064-.257 0-.225.033Zm-12.154-3.343c.024.025.15.028.17.054.028-.033.198-.072.146-.088-.051.065-.261-.031-.316.034Zm9.795 2.148c-.227.068-.53-.06-.482-.17-.044.028-.084.076-.129.069-.047-.029.11-.09-.04-.098-.087.134-.321-.067-.488.027.46.151.844.228 1.254.363.277.087.508.313.936.24-.183-.22-.948-.192-1.051-.43Zm-10.886-2.35c.06.01-.015.055.063.058.041-.076.065-.027.112-.008-.008-.031.14-.04.048-.062-.018.026-.176-.05-.223.011Zm-11.442-.111a1.007 1.007 0 0 0-.213.009c.027.034.177.018.213-.01Zm-.636.059c.139-.017.183.003.246-.032a.742.742 0 0 0-.246.032ZM3.165 13.178c.12-.054.245-.093.375-.116.087-.023.038.008.031.014.05-.003.156-.03.226-.043.024-.027-.153.034-.167.022a9.76 9.76 0 0 1 1.026-.255c.818-.183 1.598-.352 2.193-.482.065-.003.199-.03.265-.032.051.01-.104.03-.12.044.026.01.193-.04.193-.016a.25.25 0 0 1 .093-.035c-.048.001-.112.009-.1-.014a4.12 4.12 0 0 1 .949-.145c.083-.02.168-.03.254-.033-.019-.01.136-.038.04-.05.072-.014.143-.023.214-.036a.454.454 0 0 1-.132.037c.254-.022.506-.06.755-.114.065.003 0 .007.016.025.422-.127 1.125-.187 1.654-.284.063.01.127.014.19.012a8.486 8.486 0 0 1 1.235-.192c-.005.008-.034.012-.03.02.043-.01.07-.02.064-.035.622-.064 1.218-.088 1.958-.19.017.027-.084.036-.139.054.096.002.191-.002.286-.01.023-.031-.098-.011-.074-.042.28-.037.308-.013.532-.062.143.012.286.003.425-.028.033.063-.18.022-.175.065.006.015.174-.023.28-.024.004-.013-.008-.017-.034-.017.083-.048.032.035.14.009.054-.014-.008-.014.037-.045a6.44 6.44 0 0 1 .742-.047c-.007.027-.119.03-.214.036.237.033.48.012.707-.062-.098.021-.168.029-.214.038-.03.004-.034-.003-.037-.01a.123.123 0 0 0 .006-.031c.247.014.522-.048.773-.018a4.216 4.216 0 0 1-.425.027c.35.02.7.01 1.05-.026-.022-.012-.078-.009-.061-.033a.213.213 0 0 0-.079.041 1.577 1.577 0 0 0-.455 0c.259-.05.522-.074.785-.074.024.04-.136.024-.121.06.298-.003.567-.02.798-.007-.013.018-.066.026-.146.026.104.013-.015.034.093.045.022-.015.071-.05.127-.086.078.007.498-.018.439.033.103.01.072-.03.09-.05.167.012.23-.002.445.002-.033.016-.056.034-.056.061.09.004-.007-.068.121-.05l-.016.049a.442.442 0 0 0 .264-.063c.175.001-.068.033-.03.07.097.002.113-.03.132-.063.05-.006.17.012.178-.014.088.003-.058.022-.023.052a.907.907 0 0 1 .393.048c.062-.042-.104-.01-.048-.051.103.024.275-.026.304.024.18-.024.16-.077.372-.062-.201.073.231.03.06.09.11.024.043-.043.121-.037-.007-.053-.178.018-.154-.042.079-.008.22.02.253-.008.024.035.092.06.208.068.058-.045-.029-.045-.12-.042a3.62 3.62 0 0 1 .565-.018c-.017.08.254.053.217.113.076-.009.053-.079.142-.009.067-.008.156-.042.069.003a.35.35 0 0 1 .11-.01c.079-.05-.153-.008-.073-.058.277-.02.381.012.696.007-.026.019-.074.019-.095.043-.01.026.146.007.154.032a2.31 2.31 0 0 1 .414-.053c-.004.012-.012.089-.07.115a.446.446 0 0 1 .226.025c.081-.003.032-.093-.062-.06-.023-.033.01-.033-.023-.076a.317.317 0 0 1 .224.085c.068.004.071-.036.154-.021-.033.086.102-.017.331.034-.148.025-.038.04-.016.076.087.003-.029-.027.037-.059a.998.998 0 0 1 .451.064c.095-.05.005-.038.03-.094.08 0 .123.014.11.04.032-.064.323-.024.427 0-.076.013-.12.038.002.05.081-.002-.025-.03.063-.045.058-.003.162.032.18-.001.109.037-.09.02-.1.04-.015.058.106.002.144.043.021-.02.038-.04.001-.047.105-.012.21-.008.313.012a.11.11 0 0 0-.066.044c.2-.038.407-.041.61-.01-.04.031-.13.042-.093.075a.185.185 0 0 0 .128-.071c.069.008.135.014.198.018-.009.029-.048.026-.067.045.134-.066.408.014.533.005.08.062-.21.006-.269.023-.006.024.036.033.026.057.358-.05.473.062.89.017.115 0 0 .059.088.063-.045.041-.127-.013-.068-.044-.107.003-.053.072-.085.097.136-.051.268-.015.328-.083.118 0-.003.057.088.065-.03.023-.094.003-.145-.002.032.043.116.023.006.075.09.028.17-.06.257-.002-.035.026-.044-.021-.079.008.016.07.14-.013.176-.03.209-.02.44.036.574.009-.087.046.094.027.006.077.2-.037.126.028.336.031a.334.334 0 0 0-.048-.065c.089.043.23.044.403.123.138-.02.055-.034.08-.085.128.014.094.064.078.114.111-.055.096.095.305.033-.026-.03-.029-.067-.107-.082.181-.044.044.062.272.027-.116.074.04.11-.12.12.08.038.112.033.221.081.142-.102.27.025.393-.131.068.026.023.048-.01.122-.052-.111-.02.026-.162.011.206.08.422.13.643.148.077-.068-.02-.014-.076-.04.118-.061-.01-.069.045-.116.105.068.212.022.3.079-.047.04-.144-.02-.209-.02-.051.07.178.06-.029.102.091.048.11-.037.194-.003-.049.065.246.027.12.133a.246.246 0 0 0 .237-.144c.04.01.08.015.12.027-.119.006-.039.114-.157.076.132.023.266.03.4.02-.115.084.064.037.077.107.066.021.074-.088.15-.035-.09.018-.044.056-.067.098.118-.001.03-.08.13-.083.017.032 0 .068.104.044.032-.035-.095-.04-.062-.08.053-.062.165 0 .242-.012-.106.021-.09.065.033.077-.056.048-.148.002-.213.015.082.074.547.045.507.17.044.02.17-.087.053-.078.104-.042.086 0 .223.008a.192.192 0 0 1-.1.023c.041.15.359.028.459.045-.154.054.03.109.24.16a.254.254 0 0 0 .204-.066.066.066 0 0 0 .09.025c.061.02.01.062-.052.108.036.006.05.018.036.036.251-.082.327.077.537.05-.032.021-.033.038-.018.047.112-.065.125.089.345.05-.046-.056.025-.055.112-.123.089.021.066.06-.011.076.09.007.333-.005.265.08.03.006.054-.015.078-.029-.033.11-.184-.032-.335-.024-.158.124.237-.008.027.138a.929.929 0 0 0 .24-.03c.033.013-.018.042-.04.064a1.8 1.8 0 0 1 .739.16c-.15.105.112.087.233.076-.16.096.28.195.364.068.012.027.044.053.116.07a.29.29 0 0 0-.105.048c.22.021.28.151.503.065-.003.024.062.04.029.068.054.008.024-.028.081-.059.097.043.07.067.198.076-.028.018-.056.038-.083.057.38.155.592.194.858.303-.035.065-.197.018-.142.068-.137.031-.097-.02-.22-.026-.07.033-.056.057-.084.086.196.074.595.095.479.265.212-.095.422.085.568.118-.053.04-.1.059-.143.033-.027.027.032.04-.008.065.103-.026.212-.077.307-.029-.066.018-.137.068-.195.012-.057.05.113.08.154.072.06-.034.035-.056.097-.09.21.114.245.115.493.229-.231.083.047.095-.082.166-.102-.049-.204-.095-.307-.145.006.157.279.155.403.228.03.017-.186.12-.23.06-.012.13.207.046.184.167.11-.068.047-.112.035-.162a.208.208 0 0 1 .245.015c.023-.084-.181-.101.063-.183-.116-.084-.15.099-.226.029.184-.092-.043-.033-.012-.106a.91.91 0 0 1 .397.12c-.044.02-.074-.011-.115.015.083.062.091.06.29.074-.098.06-.196.137-.267.082.005.087.257.007.304.007-.065.057-.13.097-.094.174.033.01.08-.027.123-.049.059.03.02.072.117.097-.117.06 0 .086-.15.145.365.037.326.233.674.295-.273.142-.43-.19-.513-.054-.036.056.12.148.309.172-.06.03-.037.049-.08.074.134-.039.075.044.219.008.02.03-.032.017-.07.042.085.058.213-.024.292.05-.035.02-.068.038-.103.06.2-.004.16.171.36.173-.129.065-.278-.121-.473-.08-.082.063.066.101-.058.17a.336.336 0 0 1 .32.112c-.057.022-.099.008-.153.034.089.075.089.097.25.072-.108.06.03.055.038.114-.204-.026-.462-.121-.502-.28-.09.026-.181.056-.239-.021-.216.157.493.127.356.307.07-.026.125.009.19-.005-.103.127-.053.05.049.162a.147.147 0 0 1-.18-.032.495.495 0 0 0-.147.032c-.115.092.068.053.112.121-.077.035-.104.067-.06.088-.046.004-.108.045-.147.033.068.026-.136.163-.215.254.036.042.151-.101.166-.018-.031.021-.066.04-.102.06.116.067.32.067.21.197-.014-.032-.363.08-.22.071-.293.018-.312-.16-.601-.204-.073.045.07.07.085.106-.123.095-.041-.099-.218.022-.035.146.325.103.397.294a1.352 1.352 0 0 1-.415-.126c.034.099.181.126.148.25-.079-.012-.212.092-.304.098.057.163.133.175.286.274-.067.028-.052.05-.034.07a.126.126 0 0 1-.166-.036c-.181.115.109.091-.012.186-.133.037-.071-.039-.163-.034-.003.148.266.275.36.356-.17.062-.428-.1-.552-.169a2.165 2.165 0 0 1-.51-.366c-.396.021-.623-.425-.974-.42-.205-.262-.804-.302-1.067-.53-.114.037-.14.096-.275.1-.037-.063.084-.025.113-.048-.145.005-.266-.062-.14-.17-.037-.066-.326.019-.196-.084-.107-.008-.1.056-.188.07a5.866 5.866 0 0 1-1.281-.654c.028-.018.047 0 .07.005.031-.03-.03-.045-.06-.07-.04.04-.158.087-.065.105a2.98 2.98 0 0 1-.813-.405.255.255 0 0 1-.29-.118c-.165.024-.336-.138-.526-.133a4.582 4.582 0 0 0-.964-.447c-.098-.034-.562-.078-.59-.196-.88-.254-1.507-.53-2.644-.798.006-.03-.053-.05-.089-.075-1.001-.258-2.253-.559-3.231-.807-.936-.127-1.626-.325-2.506-.46-.137-.02-.297.011-.384-.077-.58-.02-1.016-.136-1.614-.2-.06-.005-.12.002-.182-.005a51.93 51.93 0 0 0-8.736-.315c-.225.01-.492.005-.724.014-.333.012-.693.051-1.029.077.495.01 1.115-.082 1.54-.055.317-.027 1.004-.05 1.392-.052.165-.013.33-.007.493.016.037-.004.027-.02.03-.03.06-.012.102.027.124-.003.037 0 .026.018.032.03 1.28-.062 2.569.042 3.724.076.038.003.014.03.014.047-.567-.027-1.137-.062-1.675-.074.018 0-.09-.007-.182-.005a8.051 8.051 0 0 1-.331-.005c-.79-.024-1.687-.04-2.536-.018a66.776 66.776 0 0 0-6.016.445c-.036.004-.018.01-.017.021a3.83 3.83 0 0 0-.694.083.115.115 0 0 0-.024-.022c-.038.004-.015.012-.013.02-.418.046-.909.128-1.337.191a47.69 47.69 0 0 0-1.955.328c-.853.127-1.37.268-2.148.409-.177 0-.564.056-.626.034a6.657 6.657 0 0 0-.156.024c-.023-.015-.067-.018-.206-.008.095-.035.067-.06-.12-.028.002-.02.064-.045.153-.075-.119.006-.225-.01-.143-.062-.106.004-.15-.01-.024-.046l-.102-.001c.108-.053.136-.1.112-.124a.832.832 0 0 0-.152.035c-.016-.005.105-.034.11-.041-.179-.012-.09-.076-.04-.144.087-.021.057-.024.164-.048-.017-.005-.065.007-.076 0 .38-.115 1.051-.274 1.626-.4.04-.011.015-.016.007-.018.029-.009.037-.009.044-.007.026-.006.045-.01.073-.018.062.007-.08.015-.053.024a1.43 1.43 0 0 0 .234-.065c.14-.011.277-.047.404-.106.102-.012.204-.032.304-.059.077-.018-.062.002-.096.01a.357.357 0 0 1 .164-.024Zm7.511 4.71c.058.008.209.063.171.016-.057-.014-.116-.023-.177-.035l.006.02Zm-.174-.03c.044.026.168.05.138.002-.065-.032-.123-.023-.138-.003Zm-.354-.064c.078.016.155.028.235.042-.06-.054-.238-.085-.234-.042Zm-.893-.16c.313.07.48.078.717.128a2.813 2.813 0 0 0-.717-.129ZM34.87 36.99l.042.16c.088-.069.218.054.165-.072-.145.085-.098-.118-.207-.088Zm.375-.893c-.144.013.05.087.024.198.151-.024-.01-.147-.024-.198Zm-3.16-7.451c.267.335.392.673.668.836.006-.142-.181-.21-.15-.342-.23-.047-.213-.372-.518-.494Zm2.703 4.7c.065.014.11.064.088.117l.095-.032c-.004-.116-.193-.144-.183-.085ZM26.25 22.392c.012.047.12.107.13.157.035-.034.192-.01.153-.057-.064.07-.218-.17-.283-.1Zm7.283 8c-.204-.03-.387-.373-.302-.497-.044.012-.095.057-.13.02-.026-.061.126-.06.012-.155-.127.14-.225-.264-.398-.224.3.455.567.771.826 1.183.174.275.252.712.614.848-.04-.405-.643-.788-.622-1.175Zm-8.18-8.795c.05.042-.028.07.041.112.056-.088.064-.005.1.042 0-.05.133.006.058-.065-.023.027-.138-.156-.198-.09Zm-10.367-4.755a.688.688 0 0 0-.2-.06.181.181 0 0 0 .2.06Zm-.605-.132c.133.021.174.067.234.04a.479.479 0 0 0-.234-.04Zm-10.856-.469a.883.883 0 0 1 .357-.086c.081-.009.033.021.029.029.045.006.148-.012.214-.012.021-.035-.143.017-.159-.006.32-.073.646-.116.974-.129.78-.075 1.527-.122 2.097-.16.065.014.192.008.256.023.048.03-.098.016-.115.033.023.02.184-.008.184.024.03-.007.025-.024.088-.023-.045-.01-.104-.016-.095-.045.17-.006.78-.063.907.042a.697.697 0 0 1 .248.025c-.02-.023.132-.02.036-.064.068.002.14.005.207.005a.249.249 0 0 1-.127.02c.24.037.481.05.723.042.062.024 0 .013.017.043.53-.015 1.06.01 1.587.073.034.033.127.048.18.074.397-.012.794.023 1.183.103-.006.012-.032.008-.03.021.04 0 .067-.006.064-.03.592.104 1.159.263 1.863.363.015.045-.085.022-.136.029.088.036.178.063.27.083.026-.038-.091-.046-.064-.084.167.041.337.072.508.093.125.061.261.096.4.104.023.1-.175-.032-.172.033.003.022.165.026.265.062.006-.015-.005-.027-.03-.036.083-.042.027.059.13.062.052-.003-.005-.026.042-.051.238.041.472.106.698.192-.01.039-.115.001-.205-.023.199.125.433.183.668.165-.095-.006-.16-.02-.204-.024-.029-.005-.033-.017-.033-.026.006-.014.006-.03.01-.044.245.073.487.158.723.256a2.812 2.812 0 0 1-.402-.118c.313.152.641.269.98.349-.017-.026-.073-.043-.052-.068a.129.129 0 0 0-.078.026 1.149 1.149 0 0 0-.422-.165c.19-.043.485.134.738.181.016.07-.13-.015-.121.045.276.108.527.18.74.29-.018.024-.068.014-.142-.019.094.058-.02.043.079.1.024-.012.076-.044.133-.076.068.041.46.165.398.218.092.053.07-.012.092-.036.151.084.211.086.407.175a.078.078 0 0 0-.062.067c.081.04.004-.1.12-.024-.009.02-.016.042-.025.064.124.046.213.053.255.011.16.077-.068.023-.04.092.086.043.11 0 .131-.037.049.009.156.084.166.05.079.039-.057.009-.03.063.224.068.245.153.35.23.063-.038-.094-.056-.037-.094.09.074.259.076.274.157.168.038.162-.047.35.06-.196.026.202.141.037.158.095.077.047-.047.118-.006.004-.079-.166-.047-.13-.121.07.02.195.115.228.086a.34.34 0 0 0 .175.186c.061-.038-.015-.074-.1-.109.182.006.317.153.516.209-.031.106.216.184.171.254.071.018.064-.092.132.05.06.014.15.001.06.03.036.004.07.015.103.03.08-.039-.138-.074-.054-.115.212.092.42.195.621.309-.026.017-.07-.002-.094.02-.015.034.132.074.13.111.14.05.292.028.387.103-.009.015-.034.124-.092.138.124.054.13.054.195.134.074.03.052-.122-.04-.117-.014-.056.019-.04-.005-.119.125.07.125.118.181.22.06.038.073-.02.144.038-.052.11.094.02.283.195-.135-.032-.04.04-.03.102.075.041-.02-.053.046-.066.209.12.275.128.384.289.099-.029.014-.053.05-.121.07.036.105.074.09.107.043-.08.291.109.374.19-.07-.014-.113 0-.009.072.073.034-.016-.05.067-.032.051.02.133.116.159.077.086.101-.085-.014-.1.014-.029.074.094.048.116.127.023-.023.044-.041.014-.067a.75.75 0 0 1 .272.157.087.087 0 0 0-.071.032c.199.044.383.136.537.27-.046.022-.126-.004-.1.061a.113.113 0 0 0 .13-.045c.056.044.113.086.168.124-.017.033-.052.009-.073.029.14-.034.352.211.466.258.05.123-.185-.092-.244-.095-.012.032.025.062.008.092.325.095.393.31.768.442.1.054-.018.086.058.134-.055.035-.108-.08-.049-.097-.092-.042-.066.078-.101.1.133-.009.236.103.31.035.101.056-.023.083.056.134-.034.019-.085-.039-.126-.069.014.074.094.086-.016.109.066.084.163-.005.219.12-.036.017-.032-.052-.07-.028-.007.106.123.05.16.04.188.074.368.266.492.293-.09.022.071.081-.02.11.182.044.099.101.277.209a2.212 2.212 0 0 0-.021-.118c.062.107.18.175.304.37.124.043.056-.02.095-.078.103.08.059.137.03.2.114-.023.047.18.245.194-.012-.056-.001-.106-.063-.166.172.026.018.11.222.172-.124.047-.005.174-.142.11.056.093.083.105.16.224.153-.074.218.167.377.011.046.068.001.08-.052.168-.006-.186-.027.026-.139-.065.133.201.298.38.487.529.088-.057-.012-.029-.052-.094.122-.025.016-.101.08-.142.064.15.17.14.221.263-.051.032-.111-.098-.166-.133-.066.073.13.174-.059.129.058.116.103.006.162.094-.064.067.195.164.053.249.104.079.211-.02.246-.085.034.032.062.065.096.099-.103-.052-.078.143-.16.028.093.096.203.175.324.233-.128.06.037.086.021.186.05.071.094-.083.14.03-.082-.018-.06.056-.094.105.1.06.056-.097.139-.049.003.055-.024.097.07.117.04-.034-.064-.11-.023-.145.068-.062.139.086.205.107-.095-.024-.096.044-.001.125-.063.037-.121-.074-.181-.087.042.143.433.344.35.502.029.05.176-.037.073-.085.103-.006.073.044.183.127a.126.126 0 0 1-.094-.021c-.021.233.286.228.358.304-.146-.008-.018.166.135.352.059.033.121.068.19.012.002.029.017.097.063.08.042.062-.017.097-.085.127.027.029.033.05.015.07.237.015.233.28.413.355-.033.01-.043.033-.032.055.113-.032.064.189.253.254-.013-.103.043-.065.142-.11.06.076.027.117-.04.096.067.06.265.172.177.254.023.027.05.006.074.003-.07.14-.133-.145-.257-.216-.177.092.194.12-.035.209.067.024.13.098.205.087.02.037-.032.049-.062.07a1.6 1.6 0 0 1 .521.618c-.161.065.05.182.15.235-.168.046.136.423.257.291 0 .06.022.119.062.164a.157.157 0 0 0-.104.006c.161.152.15.366.362.366-.012.034.03.089-.006.11.038.04.03-.023.087-.036.059.113.025.133.122.211-.03.01-.06.025-.09.038.223.424.368.593.521.895-.056.068-.157-.089-.14.01-.119-.031-.066-.078-.155-.155-.07.01-.07.05-.106.074.118.212.41.46.244.63.207-.013.28.353.375.482-.06.025-.103.022-.124-.037-.035.023.006.073-.038.086.09.02.197.01.246.132-.059-.014-.136.018-.152-.094-.067.038.048.174.081.188.062-.015.053-.06.115-.073.105.277.13.3.263.593-.213-.017-.013.158-.143.181-.055-.122-.106-.246-.159-.37-.073.218.13.37.19.538.013.04-.198.06-.202-.045-.07.17.131.178.056.33.115-.031.09-.125.104-.202.094-.015.15.041.177.159.056-.101-.086-.242.135-.213-.044-.183-.16.047-.183-.09.183-.02-.014-.067.044-.152.109.108.19.242.237.388-.042.003-.05-.057-.094-.045.032.135.038.136.179.27-.103.026-.214.073-.24-.043-.039.128.188.157.221.184-.077.041-.142.058-.154.185.021.033.071.009.114.001.028.076-.022.11.036.2-.114.015-.04.118-.178.118.247.254.119.497.338.782-.269.039-.213-.506-.345-.368-.053.06.014.272.136.414-.057.003-.048.046-.092.055.118.021.032.101.153.136 0 .05-.03.003-.07.015.03.129.162.09.185.234-.036.008-.07.014-.106.02.145.112.027.33.17.443-.126.015-.138-.324-.298-.376-.091.04-.007.173-.128.2a.37.37 0 0 1 .168.333c-.05-.003-.072-.045-.125-.04.026.155.015.18.14.241-.105.017-.007.091-.03.173a.846.846 0 0 1-.215-.663c-.077-.018-.158-.027-.16-.163-.234.092.29.448.097.619.065.004.086.081.14.098-.14.12-.066.042-.05.25-.08.012-.097-.066-.113-.146a.267.267 0 0 0-.12-.04c-.128.063.019.113.017.23-.07.004-.105.032-.089.085-.031-.02-.095.002-.118-.04.035.077-.18.148-.282.228.004.08.158-.051.128.071l-.104.023c.047.155.19.267.047.385.004-.05-.297-.095-.19-.025-.217-.137-.137-.392-.32-.614-.074.02.014.134.008.193-.136.06.018-.16-.167-.087-.1.175.177.316.132.615a1.314 1.314 0 0 1-.23-.398c-.024.151.065.268-.023.422-.048-.062-.195.01-.258-.033a.915.915 0 0 0 .06.53c-.063.005-.065.041-.06.078-.08.012-.09-.06-.097-.14-.186.058.03.183-.103.25-.11-.026-.028-.094-.095-.14-.077.205.045.523.067.683-.147-.006-.24-.37-.294-.53a3.655 3.655 0 0 1-.172-.778c-.289-.183-.233-.916-.486-1.1-.02-.47-.432-.843-.518-1.297-.1-.009-.145.058-.247-.007.003-.109.075.009.106-.006-.107-.071-.168-.226-.025-.312.001-.109-.247-.142-.105-.219-.075-.065-.1.026-.17.002a8.69 8.69 0 0 1-.66-1.576c.029-.012.035.024.05.042.036-.025-.003-.08-.014-.125-.05.032-.155.038-.095.109a4.224 4.224 0 0 1-.44-.982.3.3 0 0 1-.172-.313c-.136-.05-.201-.364-.35-.455a5.523 5.523 0 0 0-.568-1.11c-.062-.095-.408-.386-.387-.566a27.18 27.18 0 0 0-1.826-2.409c.016-.042-.025-.098-.047-.15a73.776 73.776 0 0 0-2.424-2.637c-.753-.6-1.29-1.185-2.011-1.753-.116-.088-.263-.11-.316-.274-.497-.274-.85-.62-1.36-.957-.054-.032-.107-.046-.16-.083a26.014 26.014 0 0 0-7.833-3.635c-.207-.058-.457-.15-.671-.212-.312-.085-.65-.139-.965-.203.463.164 1.042.226 1.435.398.296.064.933.253 1.29.377.159.041.312.106.453.19.033.01.026-.016.029-.032.057.002.092.073.113.038.034.012.023.034.026.053a24.45 24.45 0 0 1 3.369 1.441c.031.021.007.052.004.074-.505-.254-1.013-.51-1.501-.723a.816.816 0 0 0-.16-.07c-.087-.03-.22-.09-.303-.126a23.057 23.057 0 0 0-2.315-.895 28.46 28.46 0 0 0-5.63-1.154c-.034-.004-.014.01-.013.024a2.46 2.46 0 0 0-.656-.065.23.23 0 0 0-.024-.038c-.036-.002-.014.016-.01.026-.395-.04-.86-.05-1.263-.059-.656-.02-1.3-.024-1.842.008-.804-.01-1.286.084-2.02.127-.164-.038-.53-.034-.59-.076-.042-.001-.096.002-.147.003-.023-.026-.066-.04-.196-.053.087-.03.058-.074-.119-.062.002-.027.057-.054.14-.08-.113-.012-.217-.059-.143-.118-.1-.013-.144-.04-.026-.066-.056-.014-.039-.008-.098-.023.098-.056.122-.118.097-.157a.763.763 0 0 0-.145.018c-.012-.01.1-.024.105-.035-.175-.051-.098-.125-.054-.216.085-.012.054-.021.153-.038-.014-.007-.062 0-.071-.01a12.519 12.519 0 0 1 1.533-.255c.035-.007.013-.016.006-.024a.073.073 0 0 1 .042 0l.067-.01c.06.022-.074.006-.052.022.102.008.14-.033.224-.042.13.013.261-.01.38-.066.097.004.194-.002.29-.019.074-.012-.059-.012-.09-.009.025-.028.126-.004.155.003Zm7.152-.957c.062-.003.223.023.184-.01-.06-.002-.125-.005-.19-.006l.006.016Zm-.19-.007c.048.015.182.02.15-.012a.181.181 0 0 0-.15.012Zm-.382-.014c.083.006.168.006.256.01-.067-.036-.259-.042-.256-.01Zm-.968-.032c.34.023.524.013.776.026a4.18 4.18 0 0 0-.776-.026Zm29.87 10.941c.027.038.051.076.077.114.085-.073.25-.006.17-.093-.144.099-.135-.068-.247-.02Zm.227-.762c-.153.042.07.06.065.15.16-.052-.043-.11-.065-.15Zm-4.675-5.029c.334.204.514.437.834.507-.012-.11-.225-.124-.21-.23-.254.009-.278-.243-.624-.277Zm3.652 3.04c.076-.005.132.022.117.069l.098-.046c-.026-.087-.233-.068-.215-.024Zm-10.567-6.78c.017.033.136.063.153.098.03-.03.203-.04.157-.07-.063.064-.245-.092-.31-.029Zm8.727 4.787c-.225.016-.474-.21-.402-.32-.045.019-.095.064-.136.041-.036-.04.127-.07-.012-.12-.113.13-.28-.158-.46-.093.39.289.725.476 1.066.738.232.174.386.493.797.522-.107-.3-.818-.47-.853-.768Zm-9.74-5.25c.055.024-.027.057.049.08.055-.079.07-.015.11.014-.002-.038.145-.018.059-.06-.021.025-.16-.096-.218-.034Zm-11.249-2.21a1.011 1.011 0 0 0-.213-.02c.02.043.172.048.213.02Zm-.649-.026c.143 0 .186.031.251 0a.666.666 0 0 0-.25 0Zm-11.73.724c.127-.05.26-.082.396-.095.09-.015.037.012.03.02.05 0 .161-.022.23-.026.03-.03-.155.022-.167.007a8.59 8.59 0 0 1 1.069-.184c.85-.127 1.664-.233 2.284-.315.068.006.206-.01.274-.007.051.02-.107.025-.127.039.026.012.2-.026.198.001a.243.243 0 0 1 .098-.027c-.05-.003-.115-.003-.1-.028a3.79 3.79 0 0 1 .98-.053c.087-.013.175-.015.262-.007-.017-.013.143-.025.047-.052.072-.003.146-.01.219-.015a.393.393 0 0 1-.135.027 5.8 5.8 0 0 0 .778-.04c.066.012-.002.011.015.032.443-.09 1.162-.068 1.708-.107.063.018.128.03.194.036a7.36 7.36 0 0 1 1.268-.047c-.006.008-.034.008-.031.018.043-.003.07-.013.066-.03.637.015 1.238.074 1.997.067.015.033-.09.028-.146.039.095.016.192.027.289.032.028-.034-.097-.026-.068-.056.284-.002.308.028.544.01.14.034.283.044.426.032.024.074-.186-.003-.186.047.006.015.18 0 .286.015.006-.014-.006-.02-.03-.024.087-.04.024.042.137.03.056-.007-.006-.017.043-.042.25 0 .502.021.75.062-.012.03-.124.012-.221.006.231.075.478.091.717.045-.1.006-.171.005-.218.01-.032-.004-.035-.013-.035-.02a.211.211 0 0 0 .01-.034c.246.055.528.03.772.105a3.206 3.206 0 0 1-.427-.038 6.12 6.12 0 0 0 1.051.143c-.021-.018-.078-.024-.057-.05a.255.255 0 0 0-.083.034 1.435 1.435 0 0 0-.454-.073 3.7 3.7 0 0 1 .792.044c.018.05-.14.005-.13.05.297.047.566.071.796.126-.019.02-.07.02-.15.004.098.035-.023.038.082.068.027-.012.081-.045.145-.075.074.02.493.066.426.113.101.029.077-.021.097-.04.163.044.23.037.441.082a.08.08 0 0 0-.068.058c.09.02.006-.079.132-.035-.01.017-.017.033-.026.053.132.016.228.012.272-.029.176.036-.072.029-.042.079.095.018.116-.015.14-.047.053 0 .17.042.18.013.087.02-.061.016-.033.053a.836.836 0 0 1 .381.129c.068-.036-.103-.03-.038-.068.096.047.276.023.295.085.18.006.173-.06.378-.004-.21.047.221.076.041.115.107.047.052-.043.127-.02.003-.063-.18-.011-.143-.076.077.006.211.062.249.033.017.048.082.088.19.12.067-.038-.016-.056-.108-.072.188.014.375.042.559.086-.029.09.24.11.192.173.074.003.067-.08.14.018.069 0 .163-.021.067.014a.39.39 0 0 1 .11.01c.088-.042-.148-.04-.06-.081.277.031.37.086.677.145-.027.015-.075.007-.1.028-.013.03.144.037.144.067.151.018.313-.026.418.021-.008.014-.03.1-.091.117a.388.388 0 0 1 .215.075c.078.012.048-.101-.049-.083-.016-.04.017-.035-.007-.09.134.034.134.07.2.141.067.019.078-.027.156.005-.05.095.102.003.315.109-.15-.005-.045.036-.03.083.083.02-.024-.038.048-.059.228.059.3.056.427.16.1-.037.01-.042.046-.098.078.015.117.04.102.066.042-.068.316.038.412.088-.077-.001-.123.018-.007.055.079.016-.02-.037.07-.035.055.007.15.07.173.033.1.068-.09.006-.104.029-.026.063.101.022.131.08.022-.021.044-.04.01-.054a.855.855 0 0 1 .302.077.107.107 0 0 0-.076.038c.204-.003.407.037.595.117-.047.025-.133.017-.105.065a.172.172 0 0 0 .138-.055c.065.024.125.043.187.065-.016.028-.053.015-.077.034.147-.047.392.103.516.121.063.086-.204-.04-.266-.032-.01.026.033.044.013.07.354.021.443.174.856.212.11.024-.015.066.071.092-.054.036-.12-.042-.057-.067-.103-.016-.067.073-.1.094.14-.029.257.04.331-.024.112.024-.017.068.07.094-.034.02-.091-.017-.138-.032.02.053.107.051-.009.086.077.053.175-.03.245.055-.038.02-.038-.037-.077-.01.001.082.136.017.174.005.205.023.416.138.55.138-.095.033.083.053-.01.089.196.001.113.06.312.112a.643.643 0 0 0-.03-.087c.074.072.206.103.355.23.138.011.061-.025.097-.078.117.045.076.098.05.15.118-.038.067.13.281.104-.016-.038-.01-.08-.084-.115.186-.01.03.081.254.092-.129.059.013.133-.14.112.066.06.097.063.191.14.157-.081.25.093.404-.058.059.046.012.062-.038.139-.024-.142-.027.024-.156-.026.174.137.368.244.576.319.088-.062-.016-.02-.063-.062.125-.042.004-.083.07-.122.081.1.195.074.262.16-.05.033-.13-.056-.192-.071-.061.066.158.109-.048.107.073.079.11-.015.182.041-.062.063.23.092.084.181a.229.229 0 0 0 .257-.108c.037.02.071.039.11.058-.116-.02-.067.123-.167.05.117.058.243.099.372.121-.129.068.051.06.047.138.057.042.089-.082.15-.002-.091-.001-.055.055-.087.096.11.025.048-.085.142-.064.006.04-.015.079.085.077.04-.033-.079-.07-.04-.109.069-.058.16.041.235.046-.104-.002-.1.053.014.095-.067.04-.141-.033-.21-.032.064.102.508.183.44.318.037.033.18-.06.068-.079.108-.024.08.021.211.064a.175.175 0 0 1-.104 0c.006.183.334.12.422.166-.16.021 0 .13.187.24a.204.204 0 0 0 .206-.025c.004.024.03.07.078.051.05.04-.007.076-.075.112.032.017.04.033.026.048.255-.03.284.171.488.194-.033.015-.04.032-.027.048.12-.047.092.133.305.144-.027-.076.04-.058.138-.112.075.047.045.086-.03.083.081.032.31.077.226.159.024.017.055-.006.082-.014-.06.12-.165-.083-.309-.113-.177.103.224.054-.009.165.076.007.153.05.23.027.029.024-.027.044-.054.065.243.066.466.194.647.37-.166.082.081.128.193.146-.173.07.212.297.322.174.003.034.028.07.09.111a.221.221 0 0 0-.11.025c.197.086.218.246.445.205-.009.029.047.062.01.088.05.023.028-.026.09-.047.079.074.047.097.163.136-.03.015-.06.03-.092.049.309.276.493.375.708.573-.05.063-.185-.035-.148.037-.133 0-.085-.045-.195-.086-.073.021-.067.049-.1.077.16.138.518.263.366.428.222-.051.363.213.49.289-.06.035-.108.04-.141 0-.033.024.018.053-.024.072.1-.004.21-.031.287.049-.066.004-.144.042-.181-.04-.067.043.083.123.12.126.064-.024.047-.054.112-.077.123.138.252.27.387.395-.23.031.016.124-.12.169-.08-.083-.16-.166-.238-.251-.038.181.209.254.303.37.02.03-.2.087-.226.008-.044.145.176.109.123.24.116-.047.074-.113.075-.175a.17.17 0 0 1 .218.085c.042-.09-.136-.165.106-.194-.08-.127-.162.071-.212-.026.192-.057-.03-.052.018-.127.128.053.24.138.327.245-.044.012-.063-.031-.109-.012.06.093.065.094.242.165-.104.042-.213.103-.265.018-.018.103.233.079.276.095-.078.046-.145.073-.133.17.027.021.08-.008.122-.021.045.051-.002.087.08.143-.12.035-.024.098-.172.127.316.14.227.354.52.52-.281.09-.331-.335-.443-.202-.049.056.065.202.228.284-.062.018-.044.044-.09.062.131-.006.054.07.193.071.01.04-.033.008-.072.027.058.09.194.032.244.136-.034.014-.074.028-.107.04.178.051.097.245.272.302-.133.038-.215-.218-.399-.224-.09.05.03.135-.098.176a.303.303 0 0 1 .252.219c-.056.01-.087-.018-.145-.003.06.112.053.133.203.153-.112.034.012.07.003.137-.173-.086-.378-.264-.37-.458-.087.005-.18.014-.21-.092-.235.12.407.283.233.452.072-.01.11.045.171.047-.125.116-.06.045 0 .2-.084.024-.118-.03-.15-.087a.36.36 0 0 0-.141-.004c-.129.074.045.078.066.169-.077.018-.11.047-.077.083-.042-.007-.109.023-.14-.003.054.05-.166.148-.26.232.02.06.163-.073.153.027a1.566 1.566 0 0 1-.11.039c.085.11.27.163.133.283-.003-.038-.343-.01-.214.02-.267-.058-.232-.268-.48-.4-.075.032.047.1.049.147-.138.072-.013-.127-.202-.035-.07.157.262.206.276.445a1.183 1.183 0 0 1-.339-.257c.006.12.13.19.066.326-.068-.038-.214.049-.294.029.006.203.07.237.18.392-.068.013-.06.042-.05.072-.085.024-.11-.03-.136-.088-.192.084.07.133-.062.21-.126.005-.052-.063-.135-.084-.04.17.162.387.225.505-.167.026-.352-.234-.443-.343a2.36 2.36 0 0 1-.36-.558c-.356-.08-.446-.65-.76-.74-.117-.353-.644-.558-.824-.884-.113.008-.15.071-.274.042-.016-.083.083-.009.115-.027-.133-.033-.227-.14-.084-.233-.019-.084-.301-.059-.156-.146-.096-.035-.106.037-.19.034-.35-.388-.837-.71-.999-1.075.027-.013.041.01.062.023.035-.027-.018-.062-.038-.092-.048.032-.166.057-.084.101a2.876 2.876 0 0 1-.646-.667.241.241 0 0 1-.239-.205c-.155-.014-.276-.242-.453-.285a4.218 4.218 0 0 0-.785-.742c-.082-.062-.502-.224-.5-.363-.761-.5-1.283-.959-2.297-1.524.015-.035-.037-.07-.067-.106-.884-.521-2.008-1.135-2.894-1.62-.869-.34-1.495-.705-2.316-1.035-.13-.05-.29-.045-.357-.163-.556-.135-.96-.351-1.53-.537-.057-.017-.118-.02-.175-.04a36.537 36.537 0 0 0-8.57-1.8c-.226-.023-.492-.064-.726-.09-.334-.03-.699-.034-1.043-.048.496.076 1.13.06 1.55.15a20.4 20.4 0 0 1 1.398.142c.166.011.331.042.49.092.036.002.029-.015.035-.027.057-.004.095.046.12.015.035.005.026.023.03.038 1.235.163 2.461.393 3.672.688.035.012.006.038.003.056-.552-.128-1.11-.26-1.639-.363a1.267 1.267 0 0 0-.178-.032 21.208 21.208 0 0 1-.329-.062 32.638 32.638 0 0 0-2.512-.41 45.898 45.898 0 0 0-6.1-.296c-.038.002-.018.01-.015.021a3.63 3.63 0 0 0-.712.016.097.097 0 0 0-.024-.03c-.038.002-.015.013-.015.022-.428.005-.936.04-1.375.07-.716.045-1.42.096-2.018.169-.877.06-1.415.172-2.223.262-.181-.017-.579.013-.642-.014-.043.001-.106.009-.16.014-.022-.022-.067-.028-.21-.028.1-.031.073-.062-.123-.042.004-.02.07-.045.163-.073-.121-.001-.23-.028-.142-.081-.11-.005-.153-.021-.02-.052-.062-.004-.044-.003-.107-.01.116-.052.148-.102.124-.13a1.006 1.006 0 0 0-.157.024c-.017-.006.11-.027.114-.035-.183-.03-.09-.092-.03-.166.09-.015.06-.023.17-.041-.016-.006-.069.002-.078-.006.4-.098 1.1-.222 1.698-.315.041-.007.015-.013.008-.02.032-.004.04-.004.047 0a.567.567 0 0 1 .074-.016c.063.012-.08.01-.056.023a1.29 1.29 0 0 0 .245-.053c.145 0 .29-.027.425-.082.105-.004.21-.016.314-.036.082-.017-.065-.006-.101 0a.338.338 0 0 1 .172-.012Z"/>
  </g>
</svg>
