<svg xmlns="http://www.w3.org/2000/svg" width="195.80442" height="44" viewBox="0 0 195.80442 44">
  <g id="anniversary">
    <path id="years" d="M168.99344,10.57359v-.36872h.45589V8.51866a1.07555,1.07555,0,0,1-.4493.114V8.25371a.69465.69465,0,0,0,.4627-.161h.39551v2.11213h.40571v.36872Zm1.68921-.15416.20116-.30854a.77007.77007,0,0,0,.45611.151c.3753,0,.62345-.33533.64365-.85821a.96284.96284,0,0,1-.65386.26814.72312.72312,0,0,1-.791-.781.8541.8541,0,0,1,.89839-.84481c.56987,0,.95878.41571.95878,1.24372,0,.875-.48949,1.3309-1.07275,1.3309A1.06746,1.06746,0,0,1,170.68265,10.41943Zm1.29752-1.3409c-.0336-.4795-.25155-.67066-.56328-.67066a.43469.43469,0,0,0-.47929.46951c0,.25814.12057.44568.4693.44568A.80177.80177,0,0,0,171.98017,9.07853Zm.77748.8716c0-.32852.24815-.53308.59347-.68065-.29833-.14417-.4795-.29833-.4795-.60666,0-.31194.29174-.62706.83822-.62706.55967,0,.83461.31512.83461.62706,0,.27154-.17437.45909-.47929.59667.36191.15756.59326.32172.59326.69064,0,.39551-.35192.68044-.94858.68044C173.10978,10.63057,172.75765,10.349,172.75765,9.95013Zm1.48187-.0236c0-.22454-.18435-.35191-.55987-.50289-.32853.151-.50289.28834-.50289.50289,0,.22136.20775.36553.53308.36553C174.03156,10.29206,174.23952,10.15448,174.23952,9.92653ZM174.139,8.69281c0-.15736-.12419-.31492-.42911-.31492-.29514,0-.4325.144-.4325.30832,0,.20456.15756.30514.45929.42911C174.01817,8.98455,174.139,8.88057,174.139,8.69281Zm.84468,1.88078V10.52c0-.35872.124-.704.77761-1.12315.37892-.24475.52968-.36191.52968-.61686a.3451.3451,0,0,0-.3887-.35872.72729.72729,0,0,0-.58348.36552l-.31172-.21455a1.04962,1.04962,0,0,1,.91519-.52628.69249.69249,0,0,1,.77783.70383c0,.30174-.11057.52968-.58667.83142-.39572.25155-.59666.4459-.64025.62366h1.24031v.36872Zm-6.6154,25.686v-.05358c0-.35872.124-.704.77762-1.12315.37892-.24475.52968-.36191.52968-.61687a.34511.34511,0,0,0-.3887-.35872.7273.7273,0,0,0-.58348.36553l-.31173-.21455a1.04965,1.04965,0,0,1,.9152-.52628.69249.69249,0,0,1,.77783.70383c0,.30173-.11058.52968-.58667.83141-.39572.25155-.59666.4459-.64025.62367H170.098v.36871Zm2.13516-1.24031c0-.77443.36212-1.28731.98558-1.28731.62367,0,.979.51288.979,1.28731s-.35531,1.28731-.979,1.28731C170.86551,36.30663,170.50339,35.79374,170.50339,35.01932Zm1.54545,0c0-.62027-.21115-.912-.55987-.912-.36531,0-.56647.29174-.56647.912,0,.62.21455.91859.56647.91859C171.84769,35.93791,172.04884,35.63937,172.04884,35.01932Zm.76787,1.24031v-.05358c0-.35872.124-.704.77762-1.12315.37892-.24475.52968-.36191.52968-.61687a.34511.34511,0,0,0-.3887-.35872.7273.7273,0,0,0-.58348.36553l-.31173-.21455a1.04965,1.04965,0,0,1,.9152-.52628.69249.69249,0,0,1,.77783.70383c0,.30173-.11058.52968-.58667.83141-.39572.25155-.59666.4459-.64025.62367h1.24031v.36871Zm2.13195,0v-.05358c0-.35872.124-.704.77761-1.12315.37892-.24475.52968-.36191.52968-.61687a.34511.34511,0,0,0-.3887-.35872.7273.7273,0,0,0-.58348.36553l-.31172-.21455a1.04962,1.04962,0,0,1,.91519-.52628.69249.69249,0,0,1,.77783.70383c0,.30173-.11057.52968-.58667.83141-.39572.25155-.59666.4459-.64025.62367h1.24032v.36871Z" fill="#767676"/>
    <path id="lines" d="M194.44552,20.74788l-.25123.23055-.034-.03744L175.16233.23055,175.41307,0l.034.03744ZM170.00108,43.96256l.034.03744.25074-.23055L151.28784,23.059l-.034-.03744-.25124.23055Z" fill="#58a66f"/>
    <path id="forty" data-name="40" d="M172.41458,23.6195h-1.65773v-9.647h-4.95263L159.3724,23.432v3.89632H166.156v2.86343h4.60084V27.32828h2.36386A12.40786,12.40786,0,0,1,172.41458,23.6195Zm-6.25857,0h-2.62859L166.156,19.77Zm13.01756,6.99509a5.39637,5.39637,0,0,1-4.68271-2.05365q-1.49043-2.05459-1.49042-6.42013,0-4.41232,1.53767-6.51369a5.5243,5.5243,0,0,1,4.77627-2.10044,5.397,5.397,0,0,1,4.68271,2.05366Q185.48751,17.63493,185.48751,22q0,4.413-1.5372,6.51369A5.52491,5.52491,0,0,1,179.17357,30.61459Zm.07064-4.34261a.74379.74379,0,0,0,.69234-.38734,3.44376,3.44376,0,0,0,.31671-1.27944q.094-.89117.094-2.53456a24.40287,24.40287,0,0,0-.10573-2.66461,2.81,2.81,0,0,0-.34009-1.2088.76208.76208,0,0,0-.65726-.3284.77039.77039,0,0,0-.71621.37565,3.223,3.223,0,0,0-.305,1.26728q-.0821.89256-.08186,2.55888,0,1.83075.09356,2.68753a2.66466,2.66466,0,0,0,.32886,1.18494A.78224.78224,0,0,0,179.24421,26.272ZM194.84636,22a.479.479,0,1,1,.479.479A.479.479,0,0,1,194.84636,22Zm-44.24458,0a.479.479,0,1,1-.479-.479A.479.479,0,0,1,150.60178,22Z" fill="#0073ad"/>
  </g>
  <g id="logo">
    <g id="logo-wordmark" fill="currentColor">
      <path id="logo-wordmark-tagline" d="M27.40326,31.56759h2.79282v.30507H28.986v3.77527h-.37265V31.87266H27.40326ZM30.395,34.17868c0-.7976.26555-1.255.87-1.255s.87088.45742.87088,1.255c0,.79726-.2665,1.25407-.87088,1.25407s-.87-.45681-.87-1.25407m2.07937,0c0-.7976-.29358-1.52631-1.20941-1.52631-.91491,0-1.20912.72871-1.20912,1.52631,0,.79726.29421,1.526,1.20912,1.526.91583,0,1.20941-.72872,1.20941-1.526m1.5598.23176a.69509.69509,0,0,1-.76253-.73573.70339.70339,0,0,1,.76253-.751.67767.67767,0,0,1,.76345.751.66851.66851,0,0,1-.76345.73573m-.90436,1.52024c0-.25406.204-.49793.87087-.49793.8811,0,1.07365.23813,1.07365.48073,0,.305-.31624.50335-1.05132.50335-.61016,0-.8932-.19831-.8932-.48615m2.26648-3.335a.86468.86468,0,0,0-.6162.2598,1.183,1.183,0,0,0-.68376-.2034,1.04113,1.04113,0,0,0-1.16417,1.05707.93128.93128,0,0,0,.424.76858.55407.55407,0,0,0-.44087.49825c0,.24864.175.33854.38988.38382v.01146c-.41218.15237-.51451.36661-.51451.62128,0,.351.27158.69526,1.28338.69526,1.01117,0,1.33953-.36723,1.33953-.79661,0-.47975-.36724-.76348-1.249-.76348-.79727,0-.90979-.08416-.90979-.25373,0-.10808.08448-.21519.27032-.28276a1.38038,1.38038,0,0,0,.4756.0902A.99929.99929,0,0,0,35.13646,33.653a.88816.88816,0,0,0-.20944-.61652.6716.6716,0,0,1,.46924-.1355Zm.64969,1.32261c.00571-.38955.26075-1,.85942-.99459.51513.00575.77941.39018.8476.99459Zm2.04686.27159c0-.90978-.379-1.53747-1.176-1.53747-.74592,0-1.20944.61587-1.20944,1.52631,0,1.03347.48582,1.526,1.25472,1.526a1.19785,1.19785,0,0,0,1.16352-.71788l-.27606-.14761c-.29389.46447-.48037.59358-.85942.59358-.66686,0-.94419-.576-.94419-1.24291Zm.29392-1.481v.271h.44084v2.21036c0,.35611.15779.51485.63757.51485a2.41465,2.41465,0,0,0,.34618-.05132v-.28245a1.23287,1.23287,0,0,1-.34618.06153.26127.26127,0,0,1-.299-.29934V32.97978h.64522v-.271H39.1661v-.96048h-.33853v.96048Zm2.31685,2.93879V33.48309c.3733-.33948.576-.55943.93753-.55943.453,0,.59961.26585.59961.751V35.6476h.33887V33.64122c0-.6385-.25948-.98918-.87026-.98918a1.30848,1.30848,0,0,0-1.00575.52026v-1.605h-.33982V35.6476Zm2.882-1.72935c.00608-.38955.26075-1,.85942-.99459.51386.00575.78007.39018.848.99459Zm2.04654.27159c0-.90978-.379-1.53747-1.17563-1.53747-.74657,0-1.2101.61587-1.2101,1.52631,0,1.03347.48648,1.526,1.25534,1.526a1.1999,1.1999,0,0,0,1.16421-.71788l-.277-.14761c-.29359.46447-.4804.59358-.85942.59358-.66689,0-.9439-.576-.9439-1.24291Zm1.01692,1.45776V33.98615a1.01181,1.01181,0,0,1,.85909-1.00637h.1527V32.652h-.1527a.954.954,0,0,0-.84825.61591h-.01084v-.55914h-.33887V35.6476Zm1.22632-.50844v.50877h.23748l-.32738.84763h.22028l.35577-.84763v-.50877Zm5.14316-1.68985a1.08308,1.08308,0,0,0-1.07333-.79727c-.75774,0-1.26585.51452-1.26585,1.52631,0,.88749.44084,1.52664,1.26585,1.52664a1.31089,1.31089,0,0,0,1.15268-.75232l-.27159-.12976c-.23747.3784-.46349.60984-.88109.60984-.58783,0-.92764-.50241-.92764-1.2544,0-.9104.373-1.25469.92764-1.25469a.84725.84725,0,0,1,.76283.61078Zm.825.72937c0-.7976.26554-1.255.87058-1.255s.87058.45742.87058,1.255c0,.79726-.26555,1.25407-.87058,1.25407s-.87058-.45681-.87058-1.25407m2.08035,0c0-.7976-.29424-1.52631-1.20977-1.52631s-1.20974.72871-1.20974,1.52631c0,.79726.29421,1.526,1.20974,1.526s1.20977-.72872,1.20977-1.526m1.00572,1.46892V33.48309c.3736-.33948.57667-.55943.93786-.55943.45266,0,.59929.26585.59929.751V35.6476h.33981V33.64122c0-.6385-.26075-.98918-.87091-.98918a1.311,1.311,0,0,0-1.00605.52026v-.46349h-.33916V35.6476Zm2.48137-.53648a1.30842,1.30842,0,0,0,1.13548.59387.9126.9126,0,0,0,1.01754-.83138c0-1.14155-1.73-.71788-1.73-1.43514,0-.3564.25533-.51481.58241-.51481a.88579.88579,0,0,1,.7625.44088l.26075-.18107a1.08768,1.08768,0,0,0-1.01179-.53143c-.49728,0-.93212.249-.93212.803,0,1.04558,1.72906.56521,1.72906,1.41856a.60182.60182,0,0,1-.656.55914.96878.96878,0,0,1-.90916-.497ZM62.322,33.91825c.00512-.38955.25951-1,.85817-.99459.51449.00575.78069.39018.84858.99459Zm2.04529.27159c0-.90978-.379-1.53747-1.176-1.53747-.7456,0-1.20913.61587-1.20913,1.52631,0,1.03347.48677,1.526,1.25473,1.526a1.19974,1.19974,0,0,0,1.16449-.71788l-.27733-.14761c-.29362.46447-.4804.59358-.85912.59358-.66624,0-.94295-.576-.94295-1.24291Zm1.01816,1.45776V33.98615a1.01059,1.01059,0,0,1,.85752-1.00637h.153V32.652h-.153a.95207.95207,0,0,0-.8473.61591h-.01022v-.55914H65.045V35.6476Zm2.18618,0h.33345l1.01179-2.93879h-.36214l-.81414,2.41886h-.01084l-.80206-2.41886h-.36214Zm2.22124-2.93879h-.33854v2.93912h.33854Zm-.33854-.64394h.33854v-.49728h-.33854Zm1.599,3.58273V33.48309c.37359-.33948.57633-.55943.93782-.55943.45236,0,.59965.26585.59965.751V35.6476h.33883V33.64122c0-.6385-.2601-.98918-.87058-.98918a1.30936,1.30936,0,0,0-1.00572.52026v-.46349h-.3392V35.6476Zm3.6959-1.23716a.6948.6948,0,0,1-.76253-.73573.70355.70355,0,0,1,.76253-.751.67743.67743,0,0,1,.76312.751.66828.66828,0,0,1-.76312.73573m-.90437,1.52024c0-.25406.2037-.49793.87055-.49793.88175,0,1.073.23813,1.073.48073,0,.305-.31592.50335-1.05038.50335-.61045,0-.89321-.19831-.89321-.48615m2.26681-3.335a.86534.86534,0,0,0-.61652.2598,1.18382,1.18382,0,0,0-.68377-.2034,1.04054,1.04054,0,0,0-1.16384,1.05707.93216.93216,0,0,0,.42331.76858.55411.55411,0,0,0-.44055.49825c0,.24864.17533.33854.39018.38382v.01146c-.41312.15237-.51419.36661-.51419.62128,0,.351.27065.69526,1.28247.69526,1.01147,0,1.34044-.36723,1.34044-.79661,0-.47975-.36817-.76348-1.24992-.76348-.79759,0-.90979-.08416-.90979-.25373,0-.10808.08481-.21519.27065-.28276a1.3754,1.3754,0,0,0,.47527.0902A.99891.99891,0,0,0,75.85094,33.653a.8939.8939,0,0,0-.20849-.61652.67023.67023,0,0,1,.46924-.1355Zm1.73542.11317v.271H78.288v2.21036c0,.35611.1578.51485.63788.51485a2.41468,2.41468,0,0,0,.34522-.05132v-.28245a1.22629,1.22629,0,0,1-.34522.06153.26182.26182,0,0,1-.29966-.29934V32.97978h.64488v-.271H78.6262v-.96048H78.288v.96048Zm2.31656,2.93879V33.48309c.37327-.33948.57666-.55943.9372-.55943.453,0,.60024.26585.60024.751V35.6476H82.04V33.64122c0-.6385-.26013-.98918-.87025-.98918a1.311,1.311,0,0,0-1.00605.52026v-1.605h-.33981V35.6476Zm2.88268-1.72935c.00542-.38955.25947-1,.85814-.99459.51517.00575.78039.39018.84858.99459Zm2.045.27159c0-.90978-.37778-1.53747-1.175-1.53747-.7469,0-1.20977.61587-1.20977,1.52631,0,1.03347.48644,1.526,1.25566,1.526a1.198,1.198,0,0,0,1.16323-.71788l-.27672-.14761c-.29358.46447-.4804.59358-.85909.59358-.66689,0-.94327-.576-.94327-1.24291Zm2.66847-.729c.28752-.30508.50812-.53714.88142-.53714.58813,0,.85909.59929.85909,1.20912,0,.81414-.29933,1.3-.90978,1.3a1.17726,1.17726,0,0,1-.83073-.52536Zm-.33981,3.227h.33981V35.26411a1.14023,1.14023,0,0,0,.92063.44088c.68409,0,1.1594-.48678,1.1594-1.50911,0-.809-.41858-1.54384-1.18173-1.54384a1.02075,1.02075,0,0,0-.88746.50848h-.01084v-.45171H87.42Zm3.08066-1.03983h.33854V31.56759h-.33854Zm2.80842-.701a1.51953,1.51953,0,0,1-1.00034.48583.48073.48073,0,0,1-.52532-.50241c0-.37294.181-.6506,1.52566-.94419Zm.38443.70068a3.22528,3.22528,0,0,1-.04462-.53648V33.57365c0-.65-.31752-.92161-.98438-.92161a1.14337,1.14337,0,0,0-1.08991.66755l.226.13546a1.001,1.001,0,0,1,.85368-.53139c.5024,0,.67136.19828.67136.58813v.20339c-1.226.271-1.88143.4176-1.88143,1.22058a.74708.74708,0,0,0,.80872.76923,1.53573,1.53573,0,0,0,1.06758-.41313l.04528.35574Zm2.97356-2.19829a1.08422,1.08422,0,0,0-1.07366-.79727c-.75868,0-1.26552.51452-1.26552,1.52631,0,.88749.43989,1.52664,1.26552,1.52664a1.31158,1.31158,0,0,0,1.15239-.75232l-.27129-.12976c-.23781.3784-.46317.60984-.8811.60984-.58844,0-.92825-.50241-.92825-1.2544,0-.9104.37391-1.25469.92825-1.25469a.84674.84674,0,0,1,.76188.61078Zm.82435.46894c.00575-.38955.26076-1,.85943-.99459.51513.00575.77908.39018.8473.99459Zm2.04654.27159c0-.90978-.37839-1.53747-1.176-1.53747-.74563,0-1.20912.61587-1.20912,1.52631,0,1.03347.48611,1.526,1.25469,1.526a1.19846,1.19846,0,0,0,1.16355-.71788l-.27606-.14761c-.29457.46447-.48073.59358-.86007.59358-.66624,0-.94358-.576-.94358-1.24291Zm.37839.92128a1.30822,1.30822,0,0,0,1.13581.59387.91259.91259,0,0,0,1.01754-.83138c0-1.14155-1.73-.71788-1.73-1.43514,0-.3564.25468-.51481.5827-.51481a.88738.88738,0,0,1,.76254.44088l.26107-.18107a1.08911,1.08911,0,0,0-1.01244-.53143c-.49761,0-.93212.249-.93212.803,0,1.04558,1.72906.56521,1.72906,1.41856a.60144.60144,0,0,1-.65606.55914.96925.96925,0,0,1-.90946-.497Zm4.3803-2.40231h-.37294l1.02263,2.89384c-.16387.60471-.42335.81418-.66242.81418a2.53624,2.53624,0,0,1-.33792-.04019v.277a1.09644,1.09644,0,0,0,.31686.03411c.53045,0,.74054-.25438.93848-.831l1.09533-3.1479h-.36087l-.82054,2.39082h-.01083Zm2.61014,1.46987c0-.7976.2665-1.255.87059-1.255.60536,0,.87025.45742.87025,1.255,0,.79726-.26489,1.25407-.87025,1.25407-.60409,0-.87059-.45681-.87059-1.25407m2.07971,0c0-.7976-.29327-1.52631-1.20912-1.52631-.91426,0-1.20847.72871-1.20847,1.52631,0,.79726.29421,1.526,1.20847,1.526.91585,0,1.20912-.72872,1.20912-1.526m2.54446-1.46987v2.1648c-.37359.33854-.577.55914-.9375.55914-.45236,0-.59961-.26523-.59961-.751V32.70881H109.654v2.00668c0,.63852.26045.9895.8709.9895a1.31158,1.31158,0,0,0,1.00605-.51994v.46255h.33857V32.70881Zm2.83075,2.93912h.33951V31.56759h-.33951Zm1.33949-1.46925c0-.7976.2662-1.255.87029-1.255.60533,0,.87087.45742.87087,1.255,0,.79726-.26554,1.25407-.87087,1.25407-.60409,0-.87029-.45681-.87029-1.25407m2.0797,0c0-.7976-.29358-1.52631-1.20941-1.52631-.91491,0-1.20883.72871-1.20883,1.52631,0,.79726.29392,1.526,1.20883,1.526.91583,0,1.20941-.72872,1.20941-1.526m3.256-.26043c.00574-.38955.25951-1,.85752-.99459.51579.00575.781.39018.84923.99459Zm2.04558.27159c0-.90978-.37869-1.53747-1.17468-1.53747-.74592,0-1.21071.61587-1.21071,1.52631,0,1.03347.48709,1.526,1.25566,1.526a1.20113,1.20113,0,0,0,1.1645-.71788l-.278-.14761c-.29391.46447-.47942.59358-.85876.59358-.66657,0-.9436-.576-.9436-1.24291Zm-4.01306,1.45776h.33406l1.01052-2.93879h-.36021l-.81479,2.41886h-.01084l-.802-2.41886H118.064Z"/>
      <path id="logo-wordmark-title" d="M29.56265,26.57619c0,.84571-.11507,1.18966,1.089,1.18966,3.307,0,3.79344-1.47561,3.979-1.47561.10074,0,.11539.14314.11539.17183a2.2623,2.2623,0,0,1-.71628,1.38953c-.45807.51547-.77366.48743-1.403.48743-1.08893,0-2.17724-.087-3.26489-.05739-.57125.01338-1.17374.05739-1.74564.05739-.12943,0-.21485-.0303-.21485-.14442.02807-.1715.17118-.14313.63023-.372.37105-.17212.3988-.57284.3988-1.24639V19.31827c0-.74467-1.20148-.64361-1.20148-.93084,0-.15682.09979-.18678.28722-.18678.30061,0,.74275.05866,1.446.05866.81541,0,1.15842-.05866,1.37393-.05866.18616,0,.27126.03.27126.20147,0,.3296-1.04463-.02869-1.04463,1.21738Zm9.33506.28751c0,.75869-.97451,1.15941-1.48932,1.15941-.75868,0-1.17406-.31559-1.17406-1.13231,0-1.25916,1.7472-1.48773,2.66338-1.6876Zm0-2.00445c-3.35035.55819-3.59324,1.45935-3.59324,2.21836,0,1.0166.61587,1.36085,1.54668,1.36085a3.41765,3.41765,0,0,0,2.18938-.82975,1.10282,1.10282,0,0,0,1.11635.73032c.20052,0,.83137-.05739.83137-.358,0-.10106-.11571-.10106-.18743-.10106-.05677,0-.18522.02837-.24293.02837-.7437,0-.61587-.84411-.61587-1.33186v-2.964c0-1.21614-1.37455-1.47372-2.26139-1.47372-1.59006-.0427-2.39147.95953-2.40485,1.61781,0,.25725.42843.47084.67227.47084.27195,0,.314-.11256.314-.27035,0-.15809-.08546-.372-.08546-.58718,0-.78705.55819-.8588,1.2445-.8588.88942,0,1.47659.50081,1.47659,1.24549Zm4.26556-.97419a1.60891,1.60891,0,0,1,1.6892-1.11635,1.74282,1.74282,0,0,1,1.67483,1.78866v2.679c0,.93084-.61493.64329-.61493.93084,0,.14154.07175.17184.25759.17184.18681,0,.48742-.05739,1.03092-.05739.70162,0,1.05962.05739,1.2461.05739.14249,0,.24228-.0303.24228-.20118,0-.38666-1.11573.02934-1.11573-.96045V24.81622c0-1.08863-.41632-2.67775-2.3347-2.67775a3.13211,3.13211,0,0,0-2.07556,1.05962v-.94452c0-.14314-.08575-.22951-.17121-.22951-.32959,0-.61522.45775-1.80488.716a.15416.15416,0,0,0-.12754.15718c0,.3009,1.058-.07142,1.058.78767v3.55149c0,.93084-.84378.64329-.84378.93084,0,.14154.07139.17184.25693.17184.1715,0,.45775-.05739,1.21773-.05739.83073,0,1.11635.05739,1.3599.05739.2142,0,.31432-.0303.31432-.20118,0-.38666-1.25949.02934-1.25949-.96045Zm10.29457,2.69113c0,.51641-.43,1.24607-1.61908,1.24607-1.3599,0-2.218-1.71818-2.218-2.90657,0-1.1881.60027-2.44759,1.94645-2.44759a1.70637,1.70637,0,0,1,1.89067,1.66018Zm0-3.93658a2.99833,2.99833,0,0,0-1.67519-.50143,3.21193,3.21193,0,0,0-2.99236,3.379,2.60314,2.60314,0,0,0,4.6366,1.919h.03095v.7877c0,.09946.0411.21453.15779.21453a8.53875,8.53875,0,0,1,.90055-.11507c.52885,0,.90244-.09946.90244-.20082,0-.11444-.05768-.11444-.15684-.12754-.47209-.07233-.76-.18743-.76-.35861V17.84426c0-.14379-.08543-.22954-.17118-.22954-.3293,0-.77305.4584-1.876.71631a.15515.15515,0,0,0-.12812.15681c0,.30094,1.13133-.07171,1.13133.788Zm9.47723,4.45266c0,.8588-1.13071.71533-1.13071,1.05929,0,.14346.04272.18747.1715.18747a19.19847,19.19847,0,0,1,1.96111-.05739c.4144,0,.81607.05739,1.1597.05739.14281,0,.13008-.12881.13008-.17184,0-.44407-1.15973.02742-1.15973-1.17533V19.69092c0-.75995-.072-.70227.57255-.70227h2.04588c1.46064,0,.688,1.08863,1.21709,1.08863.18714,0,.17151-.17278.15812-.31624l-.07139-1.14439c-.01466-.3293-.08673-.4157-.41505-.4157-.28657,0-1.6041.058-4.19511.058-1.84667,0-2.94931-.058-4.067-.058-.25628,0-.24257.388-.25628.55819l-.15874,1.38953c0,.07175.058.17183.14281.17183.18806,0,.20082-.18521.24417-.32962.2582-.78673.28627-1.00223,1.17406-1.00223h2.3331c.20148.015.1438.55913.1438.65892Zm5.6844-3.14918a1.06071,1.06071,0,0,1,.92989-.84476c.51546,0,.672.3296.94485.3296.17212,0,.51513-.42971.51513-.64584,0-.27126-.64423-.64362-.94452-.64362-.60121,0-1.117.77272-1.4176,1.18778h-.02775V22.25357c0-.14314-.087-.22922-.17245-.22922-.32992,0-.61587.45746-1.71949.71566-.07012.014-.18456.07143-.18456.15718,0,.3009,1.03125-.07142,1.03125.78767v3.69271c0,.58721-.73064.53044-.73064.83232,0,.08513.04272.12914.15717.12914a11.81512,11.81512,0,0,1,1.31684-.05739c.80268,0,1.146.05739,1.34524.05739.15907,0,.23082-.0303.23082-.1578,0-.45811-1.27418.22726-1.27418-1.10394Zm7.47244,2.97767c-.028.41444-.74464,1.01627-1.56071,1.01627A1.42385,1.42385,0,0,1,73.142,26.3186v-3.621A.31149.31149,0,0,0,72.885,22.353a2.33805,2.33805,0,0,0-.51579.07233,2.69869,2.69869,0,0,1-.77367.08575c-.07171,0-.2566.014-.2566.12849,0,.34461.75868,0,.75868.54415v3.33566a1.91905,1.91905,0,0,0,2.08992,1.919,2.22254,2.22254,0,0,0,1.90434-1.00223h.02742v.78737c0,.058.014.21486.12976.21486a1.55871,1.55871,0,0,0,.48611-.08638,3.90029,3.90029,0,0,1,.77337-.07044c.22951,0,.52917-.01658.52917-.13008,0-.31494-.90022-.12845-.90022-.5011V22.69761a.31219.31219,0,0,0-.25823-.34457,2.33053,2.33053,0,0,0-.51448.07233,2.7033,2.7033,0,0,1-.77338.08575c-.07266,0-.2582.014-.2582.12849,0,.34461.75868,0,.75868.54415ZM78.83978,23.857c0,1.01594.95888,1.38826,1.73222,1.77494.57255.27224,1.30381.50143,1.30381,1.25884A1.17,1.17,0,0,1,80.602,28.06519c-1.54766,0-1.38953-1.88907-1.70418-1.88907-.21387,0-.1718.459-.1718.70129,0,1.13072,0,1.1457.31432,1.1457.34523,0,.60278.41535,1.60344.41535a1.95974,1.95974,0,0,0,1.934-1.96206,1.63064,1.63064,0,0,0-1.189-1.70353c-1.50209-.60121-1.87474-.9028-1.87474-1.37491a.91.91,0,0,1,1.00066-.91615c1.30444,0,1.43256,1.24578,1.576,1.24578.21547,0,.15779-.17151.15779-.55754a2.03086,2.03086,0,0,0-.07172-.702,3.12209,3.12209,0,0,0-1.40262-.32963A1.72989,1.72989,0,0,0,78.83978,23.857m5.38477,2.92191c0,1.47307.94485,1.65923,1.60283,1.65923,1.00157,0,1.77494-.48742,1.77494-.701,0-.11477-.05676-.12878-.11382-.12878-.24417,0-.4587.32832-1.21741.32832a.87435.87435,0,0,1-1.0019-.85941v-4.1661h1.8607l.28689-.51448a.4821.4821,0,0,0,.08576-.20085.10738.10738,0,0,0-.09979-.11379.89524.89524,0,0,1-.55914.24259H85.26919c0-1.03062.01338-1.3309-.18711-1.3309-.11415,0-.257.314-.54321.65827-.72937.802-1.08831,1.04529-1.08831,1.15908,0,.10008.10074.10008.774.10008Zm11.89612-6.77336c.08605-.17122.15714-.17122.22919,0l1.40357,3.45072c.07077.1862.08608.28595-.23017.28595H94.68743c-.18489,0-.28465-.05738-.18489-.25755ZM98.82643,26.09a5.955,5.955,0,0,1,.44407,1.36022c0,.54477-.85913.401-.85913.74435,0,.14442.22955.14442.3153.14442.386,0,.77334-.05739,1.1597-.05739.58685,0,1.17406.05739,1.76058.05739.10012,0,.20148,0,.20148-.12914,0-.35861-.83008-.0427-1.26138-.70319a9.0961,9.0961,0,0,1-.71534-1.63119L96.89336,18.5022c-.04237-.11477-.14184-.52982-.29963-.52982-.18616,0-.23016.22857-1.07492,2.03319L92.09834,27.3065c-.37265.81607-1.04529.57314-1.04529.87473,0,.08383.04306.1578.12816.1578.372,0,.76-.05739,1.146-.05739.40036,0,.80138.05739,1.20272.05739.18587,0,.38606.04175.38606-.21646,0-.37138-1.01626.05866-1.01626-.94487a1.49942,1.49942,0,0,1,.09975-.50078l.91651-2.00449c.14344-.30061.401-.30061.67388-.30061h3.14823c.402,0,.48709.21551.63118.54354Zm4.9675-8.24611c0-.14314-.08575-.22951-.17085-.22951-.32995,0-.6162.4587-1.71887.71628a.15688.15688,0,0,0-.1291.15685c0,.30155.97419-.07142.97419.78832v8.08831c0,.61653-.7013.57252-.7013.78738,0,.13008.05609.18747.17213.18747.14281,0,.4144-.05739,1.11507-.05739.67326,0,1.11795.05739,1.31975.05739.21358,0,.32835-.0303.32835-.20118,0-.38666-1.18937.02934-1.18937-.96045Zm3.723,0c0-.14314-.08575-.22951-.17183-.22951-.3293,0-.61554.4587-1.71788.71628a.15654.15654,0,0,0-.12976.15685c0,.30155.97324-.07142.97324.78832v8.08831c0,.61653-.69973.57252-.69973.78738,0,.13008.05677.18747.17121.18747.14311,0,.4144-.05739,1.11635-.05739.6726,0,1.11762.05739,1.31717.05739.21485,0,.329-.0303.329-.20118,0-.38666-1.18774.02934-1.18774-.96045Zm3.69333,2.1036c0-.17151-.41472-.75836-.60056-.75836-.17088,0-.60089.60184-.60089.75836,0,.15812.43.745.60089.745.18584,0,.60056-.57255.60056-.745m-1.117,7.11637c0,1.30317-.62925.75836-.62925,1.11762.01465.1422.10138.15751.21452.15751.15845,0,.53015-.05739.98856-.05739.58717,0,1.03092.05739,1.32993.05739.18808,0,.27351-.044.27351-.15751,0-.37392-1.13133-.05895-1.13133-.78832V22.25357c0-.14314-.08576-.22922-.17183-.22922-.32836,0-.61587.45746-1.53107.716a.15557.15557,0,0,0-.12976.15685c0,.3009.78672-.07142.78672.78767Zm6.48712-.2002c0,.75869-.97226,1.15941-1.48932,1.15941-.759,0-1.17439-.31559-1.17439-1.13231,0-1.25916,1.74625-1.48773,2.66371-1.6876Zm0-2.00445c-3.351.55819-3.59517,1.45935-3.59517,2.21836,0,1.0166.61558,1.36085,1.54736,1.36085a3.419,3.419,0,0,0,2.19062-.82975,1.10418,1.10418,0,0,0,1.117.73032c.19955,0,.83008-.05739.83008-.358,0-.10106-.11572-.10106-.18551-.10106-.05772,0-.18809.02837-.2445.02837-.74308,0-.61684-.84411-.61684-1.33186v-2.964c0-1.21614-1.37234-1.47372-2.26078-1.47372-1.5894-.0427-2.39081.95953-2.40547,1.61781,0,.25725.42938.47084.67166.47084.27318,0,.31591-.11256.31591-.27035,0-.15809-.0848-.372-.0848-.58718,0-.78705.55848-.8588,1.2445-.8588.88971,0,1.47594.50081,1.47594,1.24549Zm4.43735-.97419a1.61078,1.61078,0,0,1,1.68953-1.11635,1.7439,1.7439,0,0,1,1.67581,1.78866v2.679c0,.93084-.6162.64329-.6162.93084,0,.14154.07142.17184.25693.17184.18587,0,.48648-.05739,1.03031-.05739.70224,0,1.05863.05739,1.2461.05739.14376,0,.24257-.0303.24257-.20118,0-.38666-1.11508.02934-1.11508-.96045V24.81622c0-1.08863-.41567-2.67775-2.33376-2.67775a3.13282,3.13282,0,0,0-2.07621,1.05962v-.94452c0-.14314-.08637-.22951-.17212-.22951-.329,0-.61587.45775-1.804.716a.15465.15465,0,0,0-.12845.15718c0,.3009,1.06024-.07142,1.06024.78767v3.55149c0,.93084-.84538.64329-.84538.93084,0,.14154.072.17184.25755.17184.17248,0,.45905-.05739,1.21712-.05739.83134,0,1.11634.05739,1.36084.05739.21453,0,.31431-.0303.31431-.20118,0-.38666-1.26014.02934-1.26014-.96045Zm5.81194,1.518a2.94246,2.94246,0,0,0,2.83457,3.03539c1.96209,0,2.82183-1.23175,2.82183-1.46064,0-.04368-.07335-.087-.11542-.087-.21486,0-.84411.832-1.95919.832a2.56125,2.56125,0,0,1-2.53523-2.82056c0-1.0322.47084-2.292,1.68825-2.292a2.08173,2.08173,0,0,1,1.77717.8747c.04113.05644.19827.32962.34334.32962.06946,0,.11313-.102.11313-.30188,0-.18616.014-.52851-.01527-.84348-.04208-.3296-1.01437-.53078-1.7316-.53078a3.236,3.236,0,0,0-3.22158,3.2646m7.24421-1.131c0-.78738.63085-1.804,1.51642-1.804a1.64228,1.64228,0,0,1,1.59006,1.51707c0,.2158-.08478.2869-.28563.2869Zm3.80875.3857c.329,0,.48677.015.48677-.2426a2.63661,2.63661,0,0,0-2.533-2.277c-1.79088,0-2.80777,1.53267-2.80777,3.366a2.9505,2.9505,0,0,0,2.8929,2.93432,3.0545,3.0545,0,0,0,2.533-1.36085c0-.04367,0-.09979-.05641-.09979-.31559,0-.78643.745-2.01849.745-.87346,0-2.30572-.702-2.30572-3.06506Z"/>
    </g>
    <g id="logo-mark" fill="#58a66f">
      <path id="logo-mark-background" d="M17.7641,16.98833c-.03252-.02487-.07237.03953-.10808.05.04974-.01274.04942.01785-.00128.05291.03157.014.06408-.03313.096-.0408-.02105-.01306.03379-.04623.01339-.06216m-5.73288-1.90979c.00192-.03888.10168-.05132.09117-.08925.12241-.00574.1243-.096.2869-.12051a1.43692,1.43692,0,0,1-.37807.20976m-.466.31559c-.10521.0695-.16863.18776-.36661.211.044-.1103.38-.19383.38508-.30093.10776-.0016.21966-.0899.18013-.1275.022.00447.04811.01913.06662.01018.0172-.01593-.06248-.021.00127-.043.06121.04208.1294-.06662.21708-.04815-.17565.11637-.3293.19351-.48357.29839m-.86007.70449-.0491-.01211c.00989-.03251.11092-.03219.103-.01658-.036.00127-.06281.01276-.05386.02869m-.292,1.01594c-.044-.02327-.12306.00542-.08481-.02742.072.02968.06343-.02771.11954-.01433-.01178.01306-.02327.02677-.03473.04175m-.12434-.25373c-.08033-.01276.01786-.03891.02742-.05262.07714.00989-.03189.02266-.02742.05262m5.18269-3.61877c-.00607.01338-.059.02967-.06473.0424-.01688-.00956-.09721-.00477-.07746-.0172.03316.01975.10742-.04462.14219-.0252m.3417-.1922c.01084.00858.06822-.04208.09884-.02295-.02487.01113.01528.02008-.0185.03026-.02932-.02357-.03284-.00189-.05.01244-.00032-.01466-.06727.00065-.03029-.01975m5.13232-1.49474c-.00509.0172-.0727.028-.09339.02262a.48541.48541,0,0,1,.09339-.02262m.19318-.03252c-.06313.01084-.07971.02455-.11157.01753a.349.349,0,0,1,.11157-.01753m1.9302.18679-.00033.00574c-.02775.00382-.09724.02615-.08288.01084.02677-.00542.05513-.0115.08321-.01658m.08288-.01084c-.02008.00956-.07874.02073-.06823.00734a.10853.10853,0,0,1,.06823-.00734m.168-.03313c-.03506.00858-.07394.015-.11158.022.02582-.0172.1103-.03345.11158-.022m.42654-.08546c-.14823.03444-.23049.04465-.34047.0692a2.15384,2.15384,0,0,1,.34047-.0692M12.312,16.8637c.06441-.0169.10649-.05771.03284-.0864.00575-.03.14379-.03059.07077-.05706.045-.01593.05292.00989.09372.00542.15652-.15016.38192-.28275.44567-.41822-.01469-.00415-.01978.00541-.02935.01018-.01912-.00861.00513-.02232.01466-.03473.0236.01051.08226.01466.04466.03186a1.12013,1.12013,0,0,0,.285-.26043c.06949-.00861.10041-.04178.1071-.08258.07651-.01113.12306-.09688.20659-.11856a1.87979,1.87979,0,0,1,.34269-.29678c.03665-.0255.23078-.10042.22409-.15016.33916-.21038.56456-.3972,1.01369-.64362-.00924-.0124.014-.02676.02614-.04143.39083-.226.88335-.5008,1.26491-.71885.38541-.167.65191-.32992,1.00957-.49252.05772-.02451.132-.03091.1546-.07713.24867-.07873.41825-.17914.66754-.27795.02484-.01022.05164-.014.07648-.02582a24.27879,24.27879,0,0,1,3.73577-1.19828c.09786-.02393.21325-.05739.31526-.08419.14663-.03506.30857-.0631.459-.094-.21292.06437-.49633.10423-.67642.1667-.14219.02837-.44312.10362-.612.14951a1.08013,1.08013,0,0,0-.21169.06728c-.01625.00349-.01527-.00385-.01815-.008-.02742.0032-.03953.02393-.05356.01469-.015.00382-.00924.00924-.00924.01626-.56521.13132-1.10584.33246-1.60155.48582-.01528.00764-.00127.015.00385.02135.2397-.08128.482-.16449.71275-.23464a.44955.44955,0,0,1,.07779-.02422c.03986-.01084.10394-.03059.14281-.043.33792-.10648.72333-.22348,1.09406-.31912.86771-.219,1.65126-.386,2.68346-.561.01658-.00222.00829.00222.00989.00669a2.01916,2.01916,0,0,1,.31431-.05259l.00764-.01211c.01721-.00192.00924.00349.00924.00637.18871-.03251.41505-.06059.61143-.08641.31846-.04335.63275-.08317.90084-.11.39211-.05291.6382-.06088,1-.10041.07619-.02167.25279-.0459.277-.06313.01818-.00284.04687-.00636.07077-.00924.007-.00858.02487-.015.08768-.028-.04655-.0032-.03921-.01658.04909-.02614a.1814.1814,0,0,0-.07939-.01244c.05165-.01179.09565-.03186.05037-.0424.04717-.01084.06375-.021.0032-.02008.02615-.007.01753-.00447.044-.01273-.0548-.00862-.07521-.0236-.06917-.03637a.707.707,0,0,1,.07175-.00509c.006-.00414-.051,0-.05484-.00192.07651-.02739.028-.04143-.00574-.06277-.04081.00221-.0287-.00226-.07939.00062.00607-.00317.02934-.00477.03222-.0083-.183,0-.49986.01786-.7708.03859-.01785.00033-.00861-.00382-.00639-.00607l-.02008.00254-.03346.00258c-.02615.00957.037-.00447.02677.00128a.617.617,0,0,1-.11223.00414.59154.59154,0,0,1-.19285.00669,1.0338,1.0338,0,0,1-.14056.01433c-.03731.00128.02677-.00669.04208-.008a.17435.17435,0,0,0-.07492.01021.80378.80378,0,0,0-.18267-.00032c-.0408.00222-.01465.00764-.01211.00986-.01978.0048-.07077.00639-.10266.01054-.01527-.00767.072-.00512.07462-.01211a4.5382,4.5382,0,0,0-.48582.02582c-.38509.02549-.75072.05451-1.03092.07426-.02967.00735-.09117.01306-.12114.02008-.02007.01149.05,0,.06088.0032-.01084.006-.09022.00829-.087.01625a.19.19,0,0,0-.04622-.00192c.022-.0051.04877-.00957.04113-.01688a1.979,1.979,0,0,0-.43418.05866.53248.53248,0,0,0-.11666.01785c.00669-.00672-.06568.00128-.02553-.016-.03313.00513-.066.00829-.09881.01244a.21836.21836,0,0,0,.06313-.00189,2.83794,2.83794,0,0,1-.34683.04684c-.02742.00956.0019.00382-.00254.01276-.204.00222-.518.06408-.76443.08925a.52857.52857,0,0,1-.08193.02934,4.01856,4.01856,0,0,0-.56521.07394c.00414.00287.01756.00127.01723.00414-.0204.00222-.03378.00128-.03378-.00574-.27959.051-.54259.11444-.88048.16387-.00319.01338.04273.00476.06885.00476a.98543.98543,0,0,1-.125.03124c-.01531-.01051.04018-.0156.02422-.02582-.12685.01978-.13452.03317-.241.04146a.73017.73017,0,0,1-.18746.04015c-.00444.0284.081-.01339.08575.00512-.00095.00571-.07874.01146-.12528.0239-.00382-.00382.00127-.00637.01149-.01019-.044-.00927-.008.01655-.05866.0204-.0255.00127.00192-.007-.0236-.01342a3.056,3.056,0,0,0-.3296.07205c.00764.00989.05739-.00317.09947-.01146a.77206.77206,0,0,1-.31752.06215c.04687-.00382.07746-.00923.09881-.01116.014-.00222.01564-.006.01564-.008l-.00862-.01212c-.10456.03477-.234.04528-.33789.08736a1.76166,1.76166,0,0,0,.189-.04208,3.00469,3.00469,0,0,1-.45938.11889c.00607-.00637.03189-.01339.0201-.0207a.16677.16677,0,0,1,.04208.00571.73913.73913,0,0,1,.1954-.05353,1.93087,1.93087,0,0,0-.3513.066c-.00477.01912.06346-.0083.0628.00924-.12972.03476-.24926.05993-.34905.095a.1158.1158,0,0,0,.06885-.008c-.04143.01752.01338.0124-.03219.02963-.01276-.00287-.0392-.01211-.06949-.0188-.03284.01273-.21868.05354-.18457.0679-.04273.0156-.03763-.00385-.04687-.00989-.07077.02549-.10041.02742-.19318.05579.01658.00188.02964.006.03538.01752-.03887.01178-.00891-.028-.0628-.00479a.12473.12473,0,0,1,.01691.01723.23091.23091,0,0,1-.12656.007c-.07586.02262.036.00509.02582.02455-.04273.01273-.05484.00189-.06822-.00895-.0236.00353-.07266.02648-.07968.01626-.03731.01211.02869.00192.01913.01785a.43424.43424,0,0,0-.16292.06695c-.03346-.00894.04433-.01564.01243-.02614-.04047.02262-.12335.02392-.12685.04782-.08193.01306-.08353-.01178-.17248.02073.09852.00444-.09466.03953-.01113.04429-.044.02135-.02553-.01273-.059-.00127-.00479-.02167.081-.01466.05961-.03538-.03411.00669-.09117.03443-.109.02647-.006.01815-.03218.03538-.07906.05419-.03313-.01084.00258-.022.045-.03222a1.96049,1.96049,0,0,0-.249.06218c.02072.03-.101.05354-.07492.07266-.03538.00513-.03538-.02516-.06277.01371-.031.00415-.07492.00226-.03.00956a.196.196,0,0,0-.04909.01023c-.04335-.01117.06375-.023.02167-.0335-.12306.02648-.16321.052-.3.089.01468.00476.03571-.00033.04814.00476.00829.01055-.06342.02106-.06087.03255a1.13421,1.13421,0,0,0-.18969.02931c.00447.00381.0204.03444.05037.03793a.18768.18768,0,0,0-.09434.03761c-.03509.00829-.02935-.03314.01655-.03252.00574-.01593-.00957-.01113-.00157-.03284a.135.135,0,0,0-.08386.06218c-.02869.01019-.03571-.00639-.06949.01019.029.03029-.04655.00513-.13769.05419.06692-.00891.02229.01116.01848.0284-.03634.01178.00956-.01436-.0255-.01851a.45962.45962,0,0,0-.18489.07939c-.04975-.008-.008-.014-.02807-.0319-.03506.00862-.05066.01913-.04208.02807-.02487-.021-.14281.02965-.18489.05387.03572-.00509.05866,0,.0083.01785-.03572.01052.00509-.01308-.03506-.00829-.02615.0051-.06535.03219-.07812.02073-.04047.02869.04306-.0032.05.00477.01691.02007-.04589.01309-.05513.03411-.01211-.00477-.02389-.01084-.00891-.0172a.41759.41759,0,0,0-.13357.04207.06739.06739,0,0,1,.03633.00862.89855.89855,0,0,0-.26588.07139c.023.00829.06251,0,.05168.01818a.08485.08485,0,0,1-.06568-.01276c-.02964.01178-.05706.022-.08353.03378.00861.0083.02487.00193.03763.0083-.07015-.01052-.17535.05643-.23209.06822-.02356.03316.09245-.0239.12114-.02455.00637.00829-.01146.0172-.00255.02517-.16194.02487-.19383.08321-.38254.1167-.05066.01338.01022.02294-.02742.036.02742.01051.05292-.0204.022-.02549.04622-.01179.03476.021.05291.028-.06662-.00317-.11827.0268-.15587.00669-.05131.014.01084.02265-.02677.03665.01466.00673.04081-.00985.06278-.0172-.00732.01946-.04812.02263.00829.02964-.03412.02295-.0819-.00254-.1106.03062.01943.006.01561-.01371.03568-.00734.00447.03124-.06248.01338-.08095.01051-.09437.01785-.18616.06855-.24929.074.04527.00734-.03506.02262.01054.03091-.0915.00989-.04942.02775-.14.05451a.15288.15288,0,0,1,.01083-.03186c-.03186.02837-.09179.0459-.15492.09787-.06248.01051-.02837-.00575-.04844-.02295-.05229.02007-.03156.037-.01564.05481-.05705-.00859-.02582.05036-.12655.05036.007-.0156.00258-.02964.03382-.04556-.08641.00508-.00957.03091-.11412.04367.06248.015.00156.04877.07266.03411-.02964.0239-.04335.02644-.08288.05961-.07906-.02361-.11317.0424-.19351-.00447-.02484.01818-.00062.022.0252.04749.00448-.05131.01531.00767.07172-.0156a.95233.95233,0,0,1-.25406.13739c-.044-.01691.00669-.00734.02742-.02425-.06091-.00986-.00734-.02866-.03953-.04143-.03411.0408-.08735.03474-.1151.06885.02582.00989.05834-.02517.08576-.03346.03411.021-.06692.04527.03.036-.03124.03157-.05419-.00062-.08477.023.03218.021-.102.04175-.03062.0679a.12572.12572,0,0,1-.12528-.0284c-.01561.00927-.03219.01658-.04939.0252.05259-.01243.03633.04113.0816.01211a.77422.77422,0,0,1-.16961.05644c.06313.01942-.022.02262-.01593.05226-.02614.01753-.04589-.02549-.07142.00509.04338-.00414.02935.01626.04655.0303-.052.01465-.02742-.028-.07077-.01659-.00189.01436.01084.02648-.0376.0303-.0236.0392-.23017.08608-.19253.131-.01469.01243-.08833-.01564-.03411-.02582-.05262-.00353-.038.01018-.09724.03123a.11071.11071,0,0,0,.04909-.00353c.00575.06474-.15238.05612-.19253.0746.07587.0016.00542.04687-.07778.09342a.1312.1312,0,0,1-.09885-.00225.0275.0275,0,0,1-.03506.02073c-.02327.01658.00575.02709.04081.03793-.01531.00669-.01848.01338-.00989.01818-.123-.0016-.1291.07109-.22409.087.0169.00414.01978.00989.015.0153-.05833-.01116-.03921.05132-.14056.06248.00986-.02774-.0204-.0188-.0695-.03506-.03411.02008-.01818.03281.01655.02866-.036.015-.1431.03859-.10008.06506a.06036.06036,0,0,1-.03888-.00255c.03219.04143.07332-.03476.14089-.05069.088.03029-.10423.02677.01149.058a.39152.39152,0,0,1-.109.01818c-.01211.00956.014.014.02869.021a.77011.77011,0,0,0-.29551.1543c.08383.02328-.03346.04783-.087.05834.08481.01975-.08862.11317-.146.073,0,.01181-.01083.0252-.04047.04207a.15682.15682,0,0,1,.05451.00607c-.0915.03571-.09659.09437-.20784.08765.00542.00956-.01913.02327-.00127.03094-.022.00957-.01469-.00767-.04433-.01371-.03538.02964-.01847.03572-.07331.05419.01531.00414.03.00924.045.01244-.139.109-.22442.1511-.32069.22729.02422.0207.08735-.01753.07205.00891.0644-.0032.03953-.01913.08989-.03666.03666.0051.036.01626.05226.02422-.073.05419-.24289.11063-.16321.16482-.10837-.01244-.16863.08542-.22824.11666.03095.01084.05484.01117.06761-.00382.01782.00734-.00607.01881.01527.0252-.04876.00222-.10455-.00542-.13768.02582.03251-.00127.07077.01018.08637-.01912.03411.01145-.03633.04524-.05579.04749-.03058-.0064-.02327-.01819-.05546-.02422-.07269.07139-.0883.07648-.1766.1511.11412.00571-.00319.04491.0631.05736.03764-.03154.0727-.0631.10841-.09532.0239.06248-.09437.0963-.13517.14-.01022.01113.09946.02582.109-.00352.0255.05-.0816.043-.05291.08829-.05931-.01243-.03826-.03793-.04208-.06055a.0941.0941,0,0,0-.10233.03666c-.02393-.031.06088-.06314-.05833-.06473.03633-.0491.081.01978.1036-.01655-.09629-.014.01179-.01946-.01243-.04338a.38719.38719,0,0,0-.15336.096c.022.00287.02967-.014.05262-.008-.02582.03473-.03062.03473-.11284.0647.051.01244.1071.03123.12877-.00062.01211.03666-.11063.03568-.13005.04142.03826.01531.072.02328.0695.05739-.01342.00924-.03953-.00033-.06186-.00382-.01975.0188.0032.03-.03444.05259.06026.00829.01469.03443.0883.0408-.15267.05866-.10168.1323-.24224.19925.14121.0239.15394-.12881.21325-.0848.02423.01847-.0268.074-.1052.10837.03124.0032.0236.014.04655.0188-.065.001-.0255.02648-.09278.03062-.00541.01371.01531.00222.03539.00734-.02615.03408-.09564.01688-.11794.05547.01848.00414.03633.00731.05579.01083-.08641.02422-.04175.08957-.12721.11507.067.00924.10073-.0835.19191-.09052.04462.015-.01212.04812.05291.06023a.14276.14276,0,0,0-.12049.08513c.0287.0016.0443-.00862.07205-.00608-.02582.04179-.02233.0491-.09565.05932.05612.01051-.00381.02644.00128.05.08353-.03506.18012-.10488.17216-.1731.04207-.00128.08764,0,.09975-.03728.11892.036-.19253.11124-.10357.16605-.03412-.00222-.0523.01884-.08354.02171.0663.03793.03252.01338.00637.07077a.063.063,0,0,0,.07175-.0351.28691.28691,0,0,1,.06946-.006c.066.02357-.02069.03-.028.0628.03891.00444.05546.01371.04146.02837.01942-.00415.05258.00414.06852-.00575-.02517.01881.08607.04877.13517.07492-.00957.02135-.08288-.02135-.07524.014.01785.00444.03571.00731.05484.01178-.04019.03953-.12848.06535-.059.10423.001-.01466.17056-.014.10648.00065.131-.02807.10965-.10233.22729-.15557.03953.00894-.01978.03633-.01851.05324.06888.02294.00128-.045.09819-.01721.03891.05291-.1243.08-.1243.16478a.56649.56649,0,0,0,.15907-.10041c.0016.04368-.05739.07175-.02266.118.0335-.01469.10841.01145.14856.00189.00065.07236-.028.0864-.07841.14441.03412.00447.03092.01338.02615.02389a.05314.05314,0,0,0,.06564-.0344c.09819.02389-.03186.04939.03666.07331.06281-.00225.02455-.02422.06535-.03443a.09769.09769,0,0,1-.02167.08575l.15972-.088.01942.00447a.78079.78079,0,0,0,.1167-.15972c.17438-.03986.19954-.2461.35254-.28723.04528-.13037.29806-.21994.37425-.3433.05549,0,.07619.021.13645.00669.00447-.03094-.04081,0-.05772-.00542m.94743-2.64265c-.0335-.01757-.07172.02135-.10743.02549.04909-.00414.04909.01466-.00065.03473.03189.01149.06375-.0172.09437-.02007-.01979-.01051.03378-.0287.01371-.04015m.26362,2.614c-.03633-.02265-.07652.03793-.11412.04782.05229-.01181.05229.01753-.00255.05132.03412.01371.06823-.03222.10169-.03953-.02135-.01339.03633-.04463.015-.05961m2.84733-1.94041c-.03062-.03411-.03444-.0003-.05422.01978-.00062-.01978-.07267.007-.03186-.02488.01178.01084.07618-.06629.10677-.04175-.02709.01848.01691.02742-.02069.04685m-.5343.37075c-.01753-.01309-.1039.00128-.08317-.01818.036.0255.11855-.07524.15459-.04972-.00734.02041-.0644.04783-.07142.0679M21.99936,12.433c-.008.02582-.08353.04432-.10488.03411a.51042.51042,0,0,1,.10488-.03411m.21551-.05226c-.06983.01655-.09055.03695-.12528.02869a.34043.34043,0,0,1,.12528-.02869m2.08541.24769-.00189.01019c-.03157.00476-.11158.03665-.0931.01563.03062-.00956.06215-.01691.095-.02582m.09117-.01531c-.02357.014-.08862.03026-.07491.01146a.08569.08569,0,0,1,.07491-.01146m.19129-.04782c-.04146.01116-.08481.02072-.12754.03157.03062-.02582.12626-.04943.12754-.03157m.47942-.12368c-.167.04971-.25948.0631-.38509.09913a2.02284,2.02284,0,0,1,.38509-.09913M18.023,15.44355c.06343-.04048.14344-.05579.17151-.12369.27159-.13037.46222-.28532.73828-.44374.02709-.01563.05738-.0236.08605-.0408a20.08259,20.08259,0,0,1,4.1862-1.87474c.11059-.03633.24162-.0883.357-.12655.16576-.05387.34748-.09467.51706-.14154-.2442.095-.55848.15557-.7657.24962-.15874.04367-.49859.15714-.68791.2279a1.077,1.077,0,0,0-.241.10329c-.01721.0048-.01531-.006-.01786-.01113-.03091.00349-.04655.0344-.06088.021-.01691.00669-.01084.015-.01084.02294a18.99158,18.99158,0,0,0-1.79789.76029c-.01753.00924-.00225.02138,0,.03062.27-.12783.54063-.25759.79948-.36916-.00829.00353.0427-.02007.08892-.03666.04466-.01786.11572-.04814.15972-.06724.38095-.16579.81512-.34494,1.23272-.49095a23.756,23.756,0,0,1,3.02455-.8253c.01785-.00382.00829.0032.00829.00829a1.83519,1.83519,0,0,1,.35574-.07078.06077.06077,0,0,1,.01022-.01752c.0188-.00349.00858.00509.00763.00989.21424-.0456.468-.08193.6889-.1151.35861-.05546.7118-.10612,1.01339-.13482.43862-.06662.71279-.06662,1.11889-.109.08958-.02808.2901-.05644.31942-.07906.02232-.00353.05258-.00669.08065-.01051.01052-.01244.03219-.02073.103-.03731-.05164-.00575-.03888-.02488.05993-.03571-.00382-.01117-.03826-.01659-.08542-.021.06087-.01371.11346-.04081.06757-.05961.05418-.01342.07524-.02807.00894-.0284a.45407.45407,0,0,0,.051-.0188c-.05993-.01339-.07841-.03634-.06822-.05386a.39717.39717,0,0,1,.08-.00509c.00735-.00513-.05513-.00255-.05833-.00608.08957-.03505.03891-.05928.00734-.09211-.04589.00316-.03029-.00448-.08767-.00193.00767-.00509.03349-.006.03825-.01084-.20274-.00891-.55659.00415-.86.02106-.0201.00094-.00829-.00513-.00479-.00829a.04924.04924,0,0,0-.0239.00316c-.01149,0-.02295,0-.03764.00131-.03025.01338.04146-.00385.02935.00509a.57922.57922,0,0,1-.12434,0,.51925.51925,0,0,1-.21547.00349,1.03785,1.03785,0,0,1-.1578.01593c-.04112.00033.03154-.00923.04877-.01113-.01723-.00956-.06949.00764-.0848.01306a.68617.68617,0,0,0-.20082-.00669c-.04622.0032-.01851.01083-.01531.01338-.02487.00637-.081.008-.11732.01309-.01465-.01309.08066-.00512.08608-.015a3.8654,3.8654,0,0,0-.54193.02135c-.43033.02869-.83964.06247-1.15206.088-.03379.01084-.10328.01723-.13642.02836-.02487.01531.05419-.00127.06565.00448-.01273.00923-.10168.00923-.09914.02294a.10391.10391,0,0,0-.05066-.00222c.02455-.00767.05735-.01436.04877-.0252a1.806,1.806,0,0,0-.49.08.48237.48237,0,0,0-.1323.02585c.00894-.00956-.07139.00095-.02517-.02265-.03633.00637-.07364.01084-.1103.015a.15568.15568,0,0,0,.06885,0,2.59291,2.59291,0,0,1-.38953.066c-.03251.01338.00127.006-.00447.01815a8.442,8.442,0,0,0-.85687.133.63942.63942,0,0,1-.09437.0408,3.72487,3.72487,0,0,0-.635.11442c.00414.00447.01913.00192.0188.007-.02262.00226-.03793.00193-.03666-.00858-.31431.07841-.61332.17532-.99012.256-.006.02011.04655.0048.07492.0048a1.10671,1.10671,0,0,1-.14314.04844c-.01466-.01466.04753-.02357.03284-.03728a2.5224,2.5224,0,0,1-.27191.065.68158.68158,0,0,1-.211.06408c-.00829.04142.09244-.02106.09564.00476-.00254.00957-.08924.01913-.14186.03891-.0035-.0064.00225-.01116.01436-.01658-.04655-.0115-.01084.02487-.06757.03124-.02775.00316.00255-.00862-.0236-.01691a2.8,2.8,0,0,0-.37138.11477c.00829.014.06375-.00607.1119-.02105a.72872.72872,0,0,1-.35512.10266c.05066-.00735.08605-.01626.10838-.01978.0172-.00415.0172-.00957.01785-.01273a.06736.06736,0,0,1-.00734-.01724c-.11889.05484-.2617.074-.37967.139a1.70689,1.70689,0,0,0,.21041-.06662,3.16077,3.16077,0,0,1-.51578.19191c.00829-.01306.037-.02135.02549-.03252a.13806.13806,0,0,1,.044.007.75866.75866,0,0,1,.22122-.08735,1.93005,1.93005,0,0,0-.39207.1103c-.007.029.07012-.01338.06757.01211-.14663.05706-.27988.09851-.39083.15332.00956.008.03633.00255.07586-.01433-.04844.028.01244.01531-.03953.04463-.01306-.00448-.04207-.01531-.07331-.02361-.03728.01851-.2445.08768-.20911.10587-.04783.02516-.03826-.00193-.05037-.01055-.07936.0408-.11285.04433-.2158.0899a.0364.0364,0,0,1,.03666.02454c-.044.02008-.0067-.04174-.06758-.00476a.23238.23238,0,0,1,.01593.02484c-.06473.0236-.11284.03189-.13772.01531-.08353.03826.03826.00607.0255.03633-.0475.0204-.05895.00513-.07234-.00953-.02647.006-.08226.04175-.089.02739-.04208.01912.03186.0016.01848.02487a.48017.48017,0,0,0-.18362.1071c-.03506-.01178.04942-.02611.01658-.03887-.04527.03411-.13706.04142-.14343.07524-.08928.02422-.088-.01117-.18747.04015.10616.00159-.1071.06473-.01752.06473-.04877.03633-.02582-.01564-.06343.00222-.0032-.03062.08957-.0255.06822-.05419-.03763.01146-.10295.05579-.12179.04462-.00669.02677-.037.05357-.09117.08256-.0344-.01339.00669-.03059.05164-.04812a1.59658,1.59658,0,0,0-.27351.10583c.01786.04142-.11507.08383-.08892.11-.037.00989-.03633-.03506-.06917.02488-.03251.00829-.08033.007-.03124.01433a.20276.20276,0,0,0-.05549.01818c-.0443-.01371.0727-.03732.0268-.05005-.13579.04718-.18074.08638-.3309.14918.014.0051.03731-.00319.051.00448.00826.01367-.07077.03538-.06888.05066a.95431.95431,0,0,0-.20718.05578c.00509.0067.0207.04975.051.052-.06568.02774-.06982.02709-.10328.06248-.03953.01466-.03-.0475.0204-.04971.00574-.02295-.01084-.01626,0-.04721-.06568.03284-.065.052-.09372.09565-.03284.01658-.0408-.006-.07779.01913.02935.04367-.05.01276-.15237.09149.07429-.0188.02393.01339.01913.03921-.04081.01974.01021-.02262-.02677-.0255-.11157.05608-.14761.06088-.20529.13005-.05164-.00891-.00734-.021-.02742-.04717-.03764.01753-.05673.03346-.04782.04717-.0236-.03124-.1562.05357-.20147.0899.03858-.00862.0628-.00415.00607.02709-.03858.01786.008-.01975-.03666-.00989-.02807.00989-.07142.05164-.08513.03666-.04622.04528.04622-.00731.05357.00254.01658.02935-.04975.02328-.06154.05579-.01211-.00826-.02487-.0156-.00763-.02709a.476.476,0,0,0-.14667.07269.05386.05386,0,0,1,.03924.01052.77838.77838,0,0,0-.28977.12688c.02262.00734.06692-.00637.05419.02135a.07173.07173,0,0,1-.07237-.01306c-.03.01913-.05994.037-.08957.05386.008.01309.02676.00193.04015.01051-.07554-.00953-.19061.0963-.25214.1183-.02742.05066.09976-.04433.131-.04622.0064.0124-.014.02611-.00444.03727-.1747.04942-.21169.13834-.41473.20275-.05516.02582.00924.03251-.03284.05578.02932.01244.05928-.03538.02677-.04047.0507-.02008.03539.02964.05419.03825-.07077-.00065-.12685.0475-.167.022-.05514.02553.01149.03382-.0303.05677.01659.00636.044-.01851.0679-.03251-.008.03058-.05259.03793.00829.04429-.03695.03571-.08862.00288-.11986.05517.01978.00669.01756-.02266.03763-.01436.00382.04335-.0676.02392-.08607.02167-.10136.03411-.20082.11732-.26843.13136.0491.006-.03953.03567.00957.044-.09786.02361-.05386.04368-.15205.09245a.368.368,0,0,1,.01276-.04877c-.03506.04433-.09913.07652-.168.1578-.06692.02105-.03059-.0067-.05164-.02932-.05546.03506-.03411.05736-.0172.0819-.06153-.00669-.028.07462-.13707.08481.008-.02262.00317-.043.03826-.0695-.09343.01593-.01211.04655-.12274.07586.06535.016,0,.06983.07554.04113-.03124.03859-.04623.04433-.08957.094-.08321-.02582-.12147.07524-.20464.01371-.0271.02964-.00255.03251.02389.06662.00637-.07459.01531.01019.07841-.029a1.21533,1.21533,0,0,1-.27413.226c-.04561-.02168.00763-.01146.03-.0392-.0647-.00764-.007-.04208-.04018-.05546-.037.06182-.095.0596-.125.11157.0268.01116.06186-.04306.09183-.05771.03443.02807-.07172.07171.03058.04909-.03346.04877-.05706.00575-.08892.04208.03284.02614-.1103.072-.03411.10328a.10268.10268,0,0,1-.13263-.02964l-.05291.0424c.05611-.02265.03891.05579.08608.00829a.76171.76171,0,0,1-.18042.101c.06692.022-.0236.03571-.01723.07684-.028.028-.04844-.03189-.07521.01531.04524-.01054.03.021.04717.04015-.05419.02582-.02807-.03887-.073-.01785-.00287.021.01084.03763-.04018.04815-.02615.059-.24417.14983-.20435.21071-.01625.022-.09244-.01022-.037-.03252-.05481,0-.0395.01946-.10136.05513a.08614.08614,0,0,0,.04972-.01112c.00607.09466-.15969.09943-.20209.13.07968-.00509.00607.06823-.08288.14569a.1033.1033,0,0,1-.10361.00763c-.001.01277-.01273.03954-.03728.03412-.0236.02582.00731.03793.0427.04975-.01593.01178-.01815.021-.01019.028-.12815.01211-.13517.11761-.23653.15143.01848.00414.0223.0124.01655.022-.0612-.01113-.04015.07812-.146.10649.00892-.04241-.022-.02517-.07269-.04241-.03633.03189-.01975.04815.01723.03921a.77926.77926,0,0,0-.09756.06378l.03283.00731a.21606.21606,0,0,1,.0679-.05484c.07015.02615-.03124.04241-.02837.06408l.17787.03826a.29285.29285,0,0,1,.07205-.03633c-.01626.014-.02964.02836-.044.04273l1.97991.43385a12.89958,12.89958,0,0,1,.95441-.90822c-.00859-.01753.01563-.0411.02934-.06248.41822-.3637.95121-.8001,1.37136-1.14824.41825-.269.71249-.52659,1.10681-.78512m10.526-2.37522a1.71062,1.71062,0,0,1,.37294-.066c-.16448.03506-.25184.04143-.37294.066m-.21486.03859c.03314-.0252.125-.04081.12369-.022l-.12369.022m-.132.01465c.03379-.01625.064-.013.07077-.00447-.0236.01182-.08735.02393-.07077.00447M28.183,13.134c-.03.00317-.10968.02964-.08862.00829.03029-.00574.06022-.01211.09179-.01723L28.183,13.134m-2.00831-.43928a.284.284,0,0,1,.12306-.01977c-.06887.01021-.09055.03124-.12306.01977m-.19253.04623a.42643.42643,0,0,1,.10391-.029c-.01113.0252-.08416.04018-.10391.029m-5.46034,2.2579c-.02709-.03666-.03284-.00225-.05291.01975.001-.022-.06823.00382-.0287-.02742.01055.01211.07557-.06852.10488-.0411-.02742.01942.01339.03026-.02327.04877m-.52659.37552c-.01629-.01437-.0979-.00127-.07684-.02167.03189.029.116-.07492.1479-.04623-.008.0204-.06437.04717-.07106.0679m-3.43134,3.06407c.00033-.05993.09819-.09211.08546-.147.11954-.02422.117-.16194.27762-.219-.14565.14663-.2174.29166-.36308.36595m16.71059-5.85688c.00767-.0051-.05036-.01051-.05291-.014.09182-.02644.05229-.05673.03218-.09594-.04175-.0048-.02709-.00923-.07808-.01465.00891-.00353.03186-.0016.037-.00542a6.83128,6.83128,0,0,0-.78516-.08961c-.0188-.00284-.00669-.00731-.00192-.01113-.015-.00127-.01815-.00127-.02263.00128l-.03411-.00415c-.03091.01051.03859.0016.02455.00891a.49512.49512,0,0,1-.11285-.01466.4002.4002,0,0,1-.19539-.02487.71508.71508,0,0,1-.14889-.0035c-.037-.00381.03062-.00606.04782-.00381-.01338-.014-.06629-.00193-.081.00222a.50557.50557,0,0,0-.18169-.03219c-.043-.00254-.0188.00829-.01721.01273-.02294.0032-.07458-.00254-.10935-.0016-.01084-.015.07426.0048.08161-.00542a3.008,3.008,0,0,0-.49888-.04174c-.40134-.02135-.78548-.03219-1.07907-.04016-.03219.007-.09848.007-.13227.014-.02553.01342.05164.00513.0599.01277-.01273.00957-.095-.00127-.09561.01339-.016-.00317-.01276-.01052-.0459-.00924.02422-.00415.05448-.00862.05-.0204a1.53123,1.53123,0,0,0-.46895.0309.4709.4709,0,0,0-.12652.01371c.00985-.00923-.06793-.006-.01884-.02614-.03538.00065-.07077.0032-.10615.00542a.16207.16207,0,0,0,.06408.00669,2.36709,2.36709,0,0,1-.373.0284c-.03284.01146-.001.00542-.00956.01942a6.73507,6.73507,0,0,0-.81927.05484.61031.61031,0,0,1-.09564.03506,3.17739,3.17739,0,0,0-.6114.06281c.00382.00381.01786.0032.01528.008-.02008.00065-.03379-.00189-.03186-.01178-.30668.05451-.60187.13132-.96812.18455-.008.02136.04335.00957.06979.01212a1.20344,1.20344,0,0,1-.14089.03953c-.01276-.01531.0475-.02167.03474-.03761a2.4063,2.4063,0,0,1-.26265.04812.593.593,0,0,1-.20881.04975c-.014.04462.08989-.01564.08862.01338-.00287.00924-.08735.01339-.13867.03029-.00221-.0064.00288-.01181.01594-.0169-.04176-.01561-.014.02647-.06823.02869-.02611.00065.0048-.00989-.02007-.02073a2.399,2.399,0,0,0-.36342.0947c.00382.01465.05961-.00255.10649-.014a.669.669,0,0,1-.34843.08193c.04942-.00414.0832-.01181.10553-.01371.0156-.00287.01815-.008.01848-.01276a.05.05,0,0,1-.00382-.01786c-.12147.04975-.25759.05932-.37712.12147a1.92359,1.92359,0,0,0,.20751-.05673,2.96353,2.96353,0,0,1-.51132.16638c.00956-.01212.03764-.01976.02742-.03154a.07764.07764,0,0,1,.03953.01084.71938.71938,0,0,1,.2206-.07811,1.69591,1.69591,0,0,0-.38283.09022c-.00989.02931.06757-.00894.06215.01786-.146.04971-.27512.0851-.388.13514.00862.01021.03411.00669.07269-.00986-.0488.02644.01052.01942-.0424.04524-.01084-.00444-.03764-.0188-.06695-.03026-.03571.01815-.23907.07808-.20878.10041-.04815.02357-.03637-.00574-.04626-.016-.0803.03923-.11092.04113-.21355.08353a.03171.03171,0,0,1,.03124.02709c-.04465.01851-.001-.044-.06251-.00861a.139.139,0,0,1,.01087.02807c-.06313.02073-.11.02582-.1307.00764-.08353.03633.03506.00862.01943.04047-.04558.01724-.05641.00066-.06725-.01527-.0252.00541-.08193.03855-.0867.02422-.04146.01785.02931.0032.01433.02771a.47464.47464,0,0,0-.18456.10266c-.03251-.01465.04782-.02516.01975-.0408-.04717.03379-.1342.037-.14376.07237-.08768.01975-.08161-.01786-.18267.03186.10106.00767-.1055.0628-.02135.0679-.05.03538-.02265-.01943-.06153,0,.00127-.03474.08768-.022.07172-.05481-.037.00986-.103.05353-.12049.0408a.17564.17564,0,0,1-.094.0835c-.03059-.01593.00989-.03346.05419-.04909-.09467.00542-.167.07015-.27032.09691.01338.04688-.116.08386-.0931.1135-.0376.00859-.03186-.03891-.06819.02168-.03254.00829-.07778.00542-.03189.01531a.17358.17358,0,0,0-.05356.01527c-.04143-.01527.072-.03505.03-.05066-.13325.04237-.17976.08288-.32643.14281.01244.00637.03571-.00257.04721.00637.00731.01466-.06823.03378-.06888.05131-.07266.02295-.14983.01466-.2002.0491.00258.00764.014.05323.04368.05706a.21482.21482,0,0,0-.10423.06215c-.03826.01342-.023-.05194.0236-.051.00829-.0252-.00829-.01785.00444-.05069-.06437.03124-.0663.05164-.09626.09724-.03219.01655-.03761-.008-.07459.01786.0236.04589-.04844.01083-.15111.088.07045-.01658.02106.01687.014.04429-.03953.0188.01178-.02356-.023-.02869-.10968.05484-.14408.059-.20372.1307-.04939-.01083-.00571-.02229-.02262-.05131-.037.0172-.05612.03251-.04844.04844-.02168-.03473-.15143.04975-.197.08608.03568-.00829.05895-.00127.00476.03091-.0392.016.008-.022-.03571-.01273-.02644.00891-.07171.05164-.08223.03633-.04622.04462.0443-.00764.04972.00349.014.03222-.0491.02266-.06153.05739-.01146-.00986-.0223-.0172-.00542-.02869a.44572.44572,0,0,0-.14376.07175.04151.04151,0,0,1,.03571.0124.772.772,0,0,0-.28242.12339c.02294.00989.06532-.00287.05066.02517a.06279.06279,0,0,1-.06695-.01688c-.029.01942-.05961.037-.08892.05608.008.01342.02677.00225.0376.01055-.07011-.01212-.18616.09688-.24514.11858-.02866.05321.09724-.04367.12721-.04494.00476.013-.014.02709-.00575.03953-.16958.04589-.20878.13928-.40421.20209-.05292.02422.00767.03571-.03284.05768.0268.015.05644-.03506.0268-.04081.04811-.02134.03218.03062.04877.04019-.0663-.00193-.12242.04687-.15875.01975-.05356.02487.00892.03538-.03124.059.01593.008.04335-.0188.065-.03186-.00767.03186-.0491.03855.007.04717-.03666.037-.08481.00033-.1167.05386.01913.008.01785-.02389.038-.01243.00095.04527-.06535.0236-.08353.01912-.09786.03444-.19413.11925-.25918.13231.04593.00861-.03888.0376.00639.04749-.09309.02135-.05229.04528-.14535.09466a.39374.39374,0,0,1,.01273-.05164c-.03379.0472-.09689.07779-.16449.1642-.06437.01974-.02869-.00862-.04749-.03317-.05419.03633-.03346.06059-.02008.087-.05739-.00957-.028.07746-.1307.08608.00891-.02328.00382-.045.037-.0727-.089.016-.01116.04877-.11859.07873.06248.01757-.0016.07365.07172.045-.03157.04019-.04524.045-.08732.09819-.07779-.02931-.11637.07459-.19478.01051-.02615.0303-.00193.03316.023.0711.007-.08.01371.01084.07331-.03124a1.21178,1.21178,0,0,1-.262.23464c-.04433-.023.00731-.01182.028-.04081-.06153-.00829-.00575-.04273-.037-.05833-.03634.065-.09085.06088-.12049.11568.02615.01182.05993-.04524.08863-.05927.03186.02931-.07015.07524.02738.05258-.03186.05135-.05353.00448-.08575.04241.03222.02869-.10295.07364-.03218.109a.092.092,0,0,1-.125-.03345c-.01786.01433-.03316.02931-.051.04462.05513-.02422.037.0596.08161.00861a.68262.68262,0,0,1-.17183.10583c.06375.02357-.02135.03666-.01593.07936-.02553.03123-.04622-.03411-.0711.016.0427-.01054.02742.02262.045.04175-.05131.02709-.0268-.03986-.07015-.01818-.00222.02265.01054.0408-.03728.05037-.0252.06313-.23111.15524-.19318.22125-.01531.02167-.088-.01342-.035-.03571-.053-.00033-.03764.0204-.09565.05768a.07336.07336,0,0,0,.04717-.01146c.0048.09946-.1511.10295-.19063.13514.07589-.00444.00542.07237-.07681.15238-.03219.01691-.06473.03254-.09819.00894-.00127.01276-.01149.04208-.03473.03539-.02233.028.00669.03985.0408.05291-.014.01178-.01756.02135-.00956.02964-.12114.01084-.125.12306-.21871.15845.016.00382.01978.01243.01531.02262-.05928-.01117-.03793.08128-.13707.11157.00862-.044-.0204-.02677-.07077-.04463-.03251.03412-.01625.051.01848.04176-.03568.02677-.14027.07684-.09688.11062-.01117.01244-.0252.00288-.03859.00288.03473.058.07172-.06408.13867-.09565.088.03473-.10266.05324.01338.0867-.03633.01211-.06917.04433-.1087.04146-.01018.015.01626.01942.03029.02771a.8376.8376,0,0,0-.2818.2729c.08353.02549-.02931.07746-.08226.102.08419.01688-.07968.18107-.13929.12845a.06924.06924,0,0,1-.00669.03l.14791.03251c.02549-.03982.03825-.08161.02007-.10423.02266.00575.04815.023.066.00735.01466-.02582-.06185-.0236-.00159-.066.06153.05644.12146-.11666.2091-.10262-.08575.1039-.16576.19157-.24256.27668l1.93431.42429c.04018-.05768.08575-.11954.14921-.197.03346-.04174.21674-.17117.211-.24831a14.45047,14.45047,0,0,1,.99427-1.05517c-.00673-.01753.01527-.04208.02738-.06437.39178-.37105.89993-.8148,1.30637-1.16417.40006-.26875.69013-.52758,1.07427-.78294.06026-.03888.13677-.051.16736-.1227.263-.12369.45076-.278.72169-.43037.02742-.01563.0555-.02262.08354-.0392a16.03817,16.03817,0,0,1,4.11125-1.68378c.1087-.02774.23813-.07077.35035-.10011.16257-.04208.33662-.0695.5011-.103-.241.07874-.5419.1135-.74784.19384-.15238.03153-.48517.12208-.67166.18136a1.1374,1.1374,0,0,0-.23813.08862c-.01593.0048-.01276-.00574-.01465-.013-.0287.00287-.04782.03313-.05932.01847-.0172.00607-.01211.014-.01465.02328a15.21072,15.21072,0,0,0-1.76539.67165c-.01625.00957-.00447.02168-.00254.03251.26457-.11731.53172-.2362.78737-.335a.78653.78653,0,0,1,.08481-.03157c.044-.016.11412-.0424.15779-.05992.37455-.14634.804-.30156,1.212-.42015a17.77878,17.77878,0,0,1,2.92541-.58208c.01785-.00193.00829.00476.00763.01051a1.59349,1.59349,0,0,1,.33919-.037.10293.10293,0,0,1,.01146-.0172c.01913-.00127.008.00669.00607.01084.205-.02328.44469-.03317.65191-.04306.33854-.01753.67068-.02836.94994-.022.41505-.01563.66241.01785,1.03826.028.08765-.02007.27541-.02294.30636-.04207.021-.00128.05066-.00066.0768-.00128.01179-.01116.03346-.01785.10107-.0252-.044-.0124-.02742-.03218.06375-.02964,0-.01116-.02935-.02229-.07044-.03345.05767-.007.11186-.0287.07553-.05292.05164-.00829.07459-.02073.01466-.03062a.40167.40167,0,0,0,.05036-.01146c-.04909-.02232-.06022-.04876-.04589-.06662a.3522.3522,0,0,1,.07331.00637"/>
      <path id="logo-mark-foreground" d="M6.29834,18.434c.03633-.006.13165-.00349.10648-.01847-.03571.00316-.07237.006-.11095.00985l.00447.00862M6.19,18.4426c.028.00444.10488-.00255.08477-.01691A.11617.11617,0,0,0,6.19,18.4426m-.22126.01942c.04721-.00349.09627-.00924.146-.0124-.03921-.014-.15046-.00513-.146.0124m-.56168.0456c.19827-.01021.30286-.02709.44982-.03633a2.7122,2.7122,0,0,0-.44982.03633m18.9162,2.271c.02265.01371.04338.02807.06378.04208.04143-.04652.15238-.04016.09019-.0679-.07364.0679-.09244-.01244-.154.02582m.02742-.39847c-.08892.04368.05037.01785.06058.0612.0899-.04716-.04145-.04589-.06058-.0612M20.83137,18.609a2.017,2.017,0,0,0,.5655.1355c-.023-.05069-.15237-.03091-.15557-.08415-.15173.03793-.20082-.08034-.40993-.05135m2.60949.96622c.04433-.01211.08226-.00763.07972.01659.0172-.01149.0344-.022.05291-.03477-.02869-.03825-.1511,0-.13263.01818M16.29263,17.609c.014.015.08735.01688.09946.03252.01655-.02011.11634-.04335.08605-.052-.03059.03858-.15427-.0188-.18551.01945m5.76092,1.26364c-.13358.04015-.31112-.03572-.2837-.09947-.0252.01561-.0491.044-.07586.03983-.02742-.01688.06535-.05194-.023-.05768-.051.07906-.18933-.03891-.28752.01625.27031.08863.497.13387.73763.21293.16259.052.29966.18459.55117.14187-.10775-.12878-.55816-.11285-.61874-.25373M15.65,17.48976c.03571.00607-.00859.03283.03764.03444.02356-.0443.03825-.01532.06564-.00447-.00477-.01848.08288-.0239.02869-.03568-.01051.01495-.1039-.03062-.132.00571m-6.72969-.0647a.60039.60039,0,0,0-.125.00509c.01531.02073.10361.01116.125-.00509m-.37454.03473c.0816-.01018.10772.00193.145-.01913a.44.44,0,0,0-.145.01913M1.86128,18.55894a.93892.93892,0,0,1,.22093-.06822c.05164-.01339.02167.00352.01847.00767.029-.00226.09117-.01753.13263-.02488.01338-.01531-.0899.02008-.09819.01244a5.6874,5.6874,0,0,1,.60311-.14888c.48138-.10805.9404-.20751,1.29043-.28436.03855-.00156.11634-.0172.15587-.01912.03.00574-.06153.01756-.0711.02647.01531.00509.1135-.02389.1135-.00989a.14393.14393,0,0,1,.05484-.02073c-.02775.00131-.06568.00607-.05866-.00764a2.421,2.421,0,0,1,.55787-.08542.74634.74634,0,0,1,.14917-.01946c-.00989-.006.081-.02229.02488-.02931.04142-.00829.08288-.01371.125-.02138a.25258.25258,0,0,1-.07716.02233,3.49472,3.49472,0,0,0,.44374-.06823c.03826.00192,0,.00509.00957.01531.24864-.07426.66209-.11.97324-.16671a.65029.65029,0,0,0,.11219.007,5.078,5.078,0,0,1,.72584-.11347c-.00254.00448-.0204.007-.01782.01211.0255-.00574.0411-.01116.03761-.0204.3653-.03731.716-.052,1.15206-.11222.00956.01625-.05.02138-.08226.03156a1.33225,1.33225,0,0,0,.168-.006c.014-.01818-.05739-.00574-.04335-.02392.16481-.022.18107-.008.31366-.03666a.823.823,0,0,0,.249-.01688c.01975.03728-.10583.01339-.10328.03855.00447.00862.10328-.01371.16514-.014.00254-.00767-.00386-.01022-.01978-.01022.04909-.028.01847.0204.08287.00575.03124-.00829-.00541-.00829.02106-.02648a3.68727,3.68727,0,0,1,.43673-.028c-.00448.01626-.06983.01786-.12627.02168a.94854.94854,0,0,0,.41633-.03666c-.05768.01277-.09881.0172-.12623.02233-.01753.00222-.01975-.00225-.021-.00513a.0806.0806,0,0,0,.00349-.01942c.14441.008.307-.02774.45458-.01022-.10168.01022-.15463.01437-.25024.01593a3.83482,3.83482,0,0,0,.6178-.01527c-.01276-.007-.04593-.00542-.03636-.01978a.12363.12363,0,0,0-.0459.02422.93133.93133,0,0,0-.26777.00032,2.41737,2.41737,0,0,1,.46095-.04367c.01466.02265-.07968.014-.07077.03506.17565-.00157.33345-.01241.46989-.00444-.008.01116-.03923.01593-.08608.01527.06088.00829-.00956.02041.05484.0268.01212-.00894.04143-.02934.07459-.05069.0459.00447.29264-.01019.25821.01978.06055.00571.04269-.01786.05291-.02967.09852.007.13579-.00095.2614.0016-.01978.00894-.03316.01978-.03316.03538.05291.00225-.00382-.03985.072-.029l-.01018.0284a.25183.25183,0,0,0,.15554-.03731c.10361.00127-.03953.02008-.0172.0424.05673.00062.06629-.0185.0768-.0376.03062-.00385.10107.00669.10554-.00829.05164.00157-.03444.01306-.014.03058a.53524.53524,0,0,1,.23144.02805c.03633-.02452-.06121-.00572-.028-.03026.06022.01465.16194-.01466.17849.01465.10586-.014.09437-.04527.21871-.03666-.11827.04335.13579.01786.03633.05386.06407.01277.02422-.02611.07077-.02262-.00448-.03124-.10554.01051-.09117-.02454.04654-.00477.12942.01116.14855-.00477.01466.02008.05452.03473.12271.03982.03411-.02644-.01626-.02644-.07107-.02454a2.13611,2.13611,0,0,1,.3328-.01117c-.00957.04753.1495.03127.1275.06728.045-.00542.03156-.04622.08415-.00542.03891-.00509.09183-.02455.04018.0016a.22892.22892,0,0,1,.065-.00542c.04622-.03029-.08957-.00542-.04273-.03476.16259-.01146.22314.00669.40869.00447-.01466.01116-.04335.01116-.05612.02487-.00509.01561.0867.00415.09055.01881a1.3661,1.3661,0,0,1,.2445-.03157c-.00287.008-.008.05324-.04113.06822a.25792.25792,0,0,1,.13263.015c.04749-.00222.01847-.05484-.03666-.036-.01342-.0188.00669-.0191-.01342-.04364a.18513.18513,0,0,1,.13168.04938c.03953.00255.04143-.02167.09052-.01273-.01975.05131.05928-.00927.19445.02135-.0867.01338-.02229.02262-.00891.044.051.0019-.01723-.016.0223-.03476a.58708.58708,0,0,1,.2646.037c.05641-.029.00255-.02232.0172-.05451.04717-.00033.072.00764.06568.023.01847-.03793.18965-.01371.25056,0-.04465.008-.07142.02265.00062.02934.04845-.00127-.014-.01658.03826-.02582.03346-.00225.09437.01848.10521-.001.06437.02233-.05324.01149-.05866.02393-.00924.03379.06248.00062.08448.0255.01244-.01212.022-.0239.001-.02805a.6132.6132,0,0,1,.18423.0067.06519.06519,0,0,0-.03888.02611A1.02989,1.02989,0,0,1,15.912,17.478c-.0236.01752-.07589.02294-.05484.04334a.10888.10888,0,0,0,.07587-.04207c.03953.0048.07906.00764.11637.01084-.00542.0172-.0287.01436-.03986.02676.07939-.03887.24.008.31432.00225.04655.03634-.12434.00349-.1594.01371-.00254.014.02233.01881.01593.03346.21042-.02931.278.03666.52408.00989.06757-.00032-.00065.03474.05164.037-.02742.02455-.07524-.00735-.0408-.0252-.06313.0016-.03091.04145-.0491.05673.07972-.03026.15685-.00924.19256-.04877.06979,0-.0013.03379.05164.03793-.01756.01309-.05549.0016-.08545-.00094.0185.0252.06822.01338.00385.04335.05291.01753.09975-.03411.15107-.00033-.0207.01436-.02612-.01273-.04622.00415.00894.04051.08193-.0067.10266-.01688.12306-.01211.25915.0204.33886.00447-.05164.02772.05484.01593.00349.04524.11638-.021.07365.01691.19733.01913a.25306.25306,0,0,0-.02869-.03887c.05229.02516.13517.02644.23718.07236.08095-.01116.03186-.01978.04782-.05007.07394.008.05481.03793.04524.06728.06568-.03251.05644.05546.17918.01913-.01531-.01724-.01658-.03921-.06313-.0475.1071-.02615.02582.03666.16067.01593-.06885.043.02294.0644-.07077.07012.04687.02232.06567.01978.13.04815.08292-.06121.15813.01371.23144-.07779.03953.015.01338.029-.00636.072-.03-.06564-.01211.01564-.095.00669a1.38788,1.38788,0,0,0,.37741.08673c.04528-.04018-.01146-.008-.04462-.02294.06949-.03637-.00575-.04113.02742-.06888.0612.03986.12368.01309.17532.04687-.02676.02295-.08448-.01149-.12273-.01149-.02964.04081.10553.03506-.01655.059.0532.029.06469-.02106.11379-.00193-.02869.03891.14536.01659.07139.07874a.14665.14665,0,0,0,.13866-.08416c.02455.0048.04688.00862.07143.01531-.07077.0035-.02393.06725-.09277.04463a.93138.93138,0,0,0,.23525.01149c-.06822.04971.03761.02229.045.0631.03953.01309.043-.05132.0883-.02041-.05353.01055-.02615.03317-.03953.05772.0695-.00066.01818-.04717.07619-.04848.00989.01884.00065.03953.06153.02582.0188-.02069-.05546-.02451-.03633-.04749.03091-.03568.09688.00032.14281-.007-.06248.01306-.05291.03888.0188.04557-.03284.028-.0864.00065-.12528.00891.04844.04368.32163.02713.29773.10012.02615.01211.10074-.05164.03124-.04622.06186-.02423.05037,0,.132.00509a.11572.11572,0,0,1-.05994.01276c.0252.08863.21231.0172.27032.02677-.09052.03156.01786.06408.14219.094a.14617.14617,0,0,0,.11921-.03858.03879.03879,0,0,0,.05292.01436c.03636.01244.00574.03728-.03.06375.02105.00382.02869.01084.02167.02073.14667-.0475.19129.04622.315.03026-.0188.01149-.02007.02167-.01021.02709.065-.03793.073.0523.20212.03-.0268-.03346.01528-.03281.0663-.07266.05229.01273.03826.03538-.00637.04429.05194.0051.19508-.00254.15555.0472.01785.00382.03189-.00894.04622-.01723-.01942.06535-.10838-.01815-.19795-.014-.09182.07267.14027-.00385.01658.08128a.5396.5396,0,0,0,.14089-.01723c.01978.00734-.01018.02393-.0236.03731a1.05565,1.05565,0,0,1,.43483.094c-.088.06183.06565.051.13707.04528-.09437.05608.16449.11412.2142.04015.007.01593.02582.03124.0692.04018a.182.182,0,0,0-.0628.02866c.12943.01309.16511.089.29581.038-.0016.01433.03666.02324.01723.04015.03219.00476.014-.01658.04812-.03473.05673.02484.0408.03949.11637.04429-.01658.01116-.03316.02262-.04877.03411.22282.09118.34778.1138.5043.17787-.02011.03794-.11637.01052-.08386.04019-.08033.01847-.05673-.01149-.12878-.01564-.0408.02008-.03316.03444-.04942.05132.11572.04335.34971.05578.28148.15557.12434-.05579.248.04972.33443.0695-.031.02454-.05964.03444-.08419.01975-.01688.01531.01884.0236-.00414.03793.05963-.015.12371-.04525.17979-.01655-.0392.01018-.08063.03953-.11412.00636-.03378.02932.0663.04717.09055.04241.03506-.01946.01975-.03284.05674-.05292.123.06663.14376.06757.28944.1342-.13579.04942.028.05644-.04782.09819-.06055-.0287-.12016-.05644-.18009-.08576.00287.09277.16321.09212.23587.1342.01819.01083-.109.07015-.13514.036-.00669.07649.12209.02677.1087.09754.06535-.03953.02772-.065.02041-.095a.1228.1228,0,0,1,.14408.00891c.01339-.04971-.10648-.05993.03728-.10742-.06819-.04972-.08765.05738-.13354.01723.1087-.05451-.02426-.01945-.00607-.0628a.53511.53511,0,0,1,.233.07077c-.0252.01083-.04335-.0067-.0676.00829.04909.03727.05357.03632.17023.04367-.05673.036-.11474.08063-.15681.04812.00284.052.15139.00414.17914.00414-.03891.03444-.07652.05706-.05546.10266.01975.006.04717-.01563.07266-.02807.03411.01691.01084.04178.06888.05611-.06888.03506-.00066.051-.08768.08576.21391.02167.19063.13706.39527.1734-.16034.08385-.25213-.1122-.30123-.03219-.02167.03349.06983.08768.18107.10168-.03509.01724-.02105.02807-.04593.04368.07779-.023.04368.0252.12816.00447.01244.0172-.0188.00956-.0408.02422.04942.03443.1256-.014.17183.02935-.02073.01178-.04048.02262-.06088.03506.117-.00193.09434.102.21133.10262-.07492.03793-.16351-.07171-.27828-.04749-.0475.03731.03888.06026-.03379.09946a.19918.19918,0,0,1,.18776.06662c-.03284.01309-.05706.0048-.09022.02008.05259.04466.05259.05644.14761.04273-.06346.03411.01753.03156.02262.06629-.11986-.0153-.27224-.07109-.29486-.16383-.05389.01433-.10743.03252-.14125-.01276-.12684.09244.2901.07426.20947.18074.04081-.01531.07426.00509.11154-.00317-.06022.07489-.03091.02932.029.09529a.08674.08674,0,0,1-.10583-.01848.285.285,0,0,0-.08607.01848c-.06823.05422.03953.031.06535.07142-.045.02073-.06088.03859-.03539.05132-.02615.00254-.0628.02709-.08637.0188.04015.016-.08.09692-.12623.15016.022.02487.08892-.05928.09786-.01052-.01913.01212-.03923.023-.06058.03539.06884.03888.18936.03888.12368.116-.008-.01942-.21325.04622-.12972.04146-.17183.01018-.18332-.09438-.35355-.12019-.0427.02679.0424.0408.05036.06218-.072.05641-.02451-.058-.12812.01339-.021.08575.19125.06055.23333.17212a.79008.79008,0,0,1-.24417-.07266c.0204.05673.10645.07266.087.14663-.04622-.00735-.12434.05419-.17885.05738.03444.09594.07841.10329.168.16129-.03924.01691-.03029.02931-.01883.04146a.07428.07428,0,0,1-.09816-.02138c-.10713.06727.06375.05291-.00735.10968-.07811.02167-.04175-.02328-.09564-.02073-.00157.08735.1559.16227.21136.21-.09946.03637-.25184-.05993-.3245-.09975a1.25839,1.25839,0,0,1-.29966-.21551c-.23271.01243-.36661-.24929-.57317-.247-.12114-.1543-.47306-.17758-.62733-.3121-.0676.02168-.08291.05706-.16194.05932-.02138-.03764.04906-.01469.0663-.02808-.08543.00288-.15652-.03665-.08226-.10073-.02168-.03823-.19126.01211-.11474-.04877-.06375-.00477-.05993.03284-.11157.04113a3.44621,3.44621,0,0,1-.753-.38444c.01658-.01083.02742,0,.04145.00288.01786-.01818-.01818-.02713-.03538-.0408-.02422.02323-.0931.05065-.03859.06087a1.75476,1.75476,0,0,1-.47782-.2378.15156.15156,0,0,1-.17121-.06982c-.09721.01466-.19762-.081-.30919-.07874a2.74271,2.74271,0,0,0-.56681-.262c-.05736-.02011-.33025-.04622-.34745-.11542-.518-.14951-.88557-.31079-1.55533-.46924.00385-.01848-.03026-.03-.05226-.044-.58878-.1527-1.32451-.329-1.90023-.47466-.55052-.07524-.95666-.191-1.47369-.271-.08066-.01116-.17565.007-.2254-.04462-.34173-.01244-.598-.08-.95059-.11732-.03473-.00414-.07077.00066-.1071-.00414a30.53365,30.53365,0,0,0-5.138-.18457c-.13262.0051-.28947.00255-.42589.00764-.19572.007-.40741.03062-.60536.0456.29105.006.65635-.04782.905-.03221.18747-.01561.59136-.02932.81959-.03124a1.31277,1.31277,0,0,1,.29007.00956c.02171-.00222.01629-.01084.01756-.01687.03568-.00735.05993.01527.07331-.00226.021,0,.015.01022.01816.01819.75326-.03666,1.51132.02487,2.19094.044.02171.00156.00767.0172.00767.02771-.33279-.01625-.66878-.03633-.98564-.044.01083,0-.0523-.00287-.10587-.00258-.0548.00128-.14248-.00029-.19507-.00254-.46542-.01433-.992-.0239-1.49125-.01084-1.16322.03506-2.19858.1071-3.53968.26173-.021.00222-.01021.00574-.00861.01211a2.37139,2.37139,0,0,0-.409.04877l-.014-.01277c-.022.00287-.00924.0067-.008.01117-.24576.02807-.53459.07586-.78577.1135-.41029.06215-.81163.1259-1.15079.19252-.5008.07524-.80523.15718-1.264.24035-.10393,0-.33119.03255-.36723.0204-.02517.0032-.06088.00895-.09179.01371-.014-.00891-.03924-.01051-.12146-.00509.05611-.0204.03985-.03444-.0711-.01593.00222-.01149.03858-.02677.09085-.04462-.07012.00414-.1326-.00575-.08416-.036-.06248.00225-.08862-.00509-.014-.02677-.03441,0-.02484,0-.06056-.00065.06314-.03186.08066-.05928.06663-.07364a.60476.60476,0,0,0-.0899.02105c-.00862-.00254.06215-.01974.0644-.02389-.10488-.008-.05324-.04466-.0236-.08513.05132-.01179.03346-.01371.09659-.028-.00956-.00288-.03825.00414-.044,0,.22253-.06761.6178-.16067.95633-.23624.02295-.006.0083-.008.00382-.00924a.05511.05511,0,0,1,.02615-.00476l.04273-.01051c.03633.00411-.0475.00923-.03124.01433a.74677.74677,0,0,0,.13707-.03826.70181.70181,0,0,0,.23813-.06215,1.36117,1.36117,0,0,0,.17881-.03444c.04466-.01051-.037.00065-.0564.00509a.20256.20256,0,0,1,.09626-.01338m4.41793,2.77114c.03444.00382.12306.03571.10106.008-.03411-.00735-.06887-.01338-.10426-.01978l.0032.01182m-.102-.0188c.02615.0156.09946.029.081.00189-.03823-.01946-.072-.01338-.081-.00189m-.20849-.03764c.04593.00956.09056.0169.13838.02553-.03571-.03222-.13932-.05037-.13838-.02553m-.52532-.094c.18489.04146.28276.04623.42142.07525a1.65687,1.65687,0,0,0-.42142-.07525M20.51164,32.566c.00829.03187.0156.06281.02454.0934.05132-.04015.12816.03251.09721-.04175-.08575.04939-.05768-.06888-.12175-.05165m.22089-.526c-.0851.00862.02869.0523.01341.1167.08892-.01371-.00574-.08543-.01341-.1167m-1.85972-4.38222c.15812.197.23078.39563.39337.4919.00382-.08354-.1068-.12369-.08767-.20115-.13645-.02807-.12561-.219-.3057-.29075m1.59068,2.76478c.03825.00858.0644.0376.05164.06884.01851-.0067.03538-.01146.05611-.0188-.00255-.06885-.11444-.08448-.10775-.05m-5.022-6.4428c.007.02739.07012.06277.07648.09179.01978-.02073.11285-.00637.08928-.03378-.03666.04145-.12753-.09946-.16576-.058m4.28309,4.70483c-.11987-.01756-.227-.22-.17663-.29264-.02677.007-.05674.03411-.07649.01243-.01531-.036.07332-.03508.006-.09116-.07426.0819-.1323-.15591-.233-.132.176.26777.33282.4536.4852.69588.10233.16161.1479.41822.36083.49855-.02295-.23842-.37807-.46317-.36592-.69108m-4.811-5.17312c.02964.02517-.01658.04175.02422.06568.03284-.052.03728-.00288.05866.02483,0-.0293.07779.00321.03379-.03854-.01306.01658-.08161-.09117-.11667-.052M8.81509,20.71421a.40936.40936,0,0,0-.117-.03477c.01273.03477.09434.0507.117.03477M8.459,20.637c.07844.01244.10267.0392.13867.023a.27544.27544,0,0,0-.13867-.023m-6.38508-.27573a.5218.5218,0,0,1,.20977-.0507c.04844-.00509.01913.01211.0172.01659.02647.00352.0867-.00637.12623-.00637.01276-.02073-.08477.00858-.09372-.00382a3.07938,3.07938,0,0,1,.57318-.07557c.4584-.04462.89829-.073,1.233-.09433.03826.008.11285.00411.15045.013.02807.01786-.058.00989-.06757.01913.014.01179.10837-.00352.10837.01466.01756-.00477.01469-.014.0523-.01339-.02677-.00607-.06183-.00923-.05674-.02676.10074-.0032.45935-.03666.53427.02549a.41325.41325,0,0,1,.14568.01371c-.01178-.01309.07714-.01182.02073-.03666.04015.00033.08223.0019.12176.00255a.1507.1507,0,0,1-.074.01211,2.25763,2.25763,0,0,0,.42462.0236c.037.014,0,.008.00956.02644a6.36832,6.36832,0,0,1,.93433.04208c.02011.02007.07492.02807.10616.044a2.94954,2.94954,0,0,1,.69493.06026c-.00317.007-.01848.00444-.01721.0121.0239,0,.03953-.00286.03732-.0169.3481.06121.68184.1543,1.09656.213.00862.02677-.05037.01306-.08.0172a.93482.93482,0,0,0,.15875.04877c.01468-.022-.05419-.02742-.03794-.04877a2.61958,2.61958,0,0,0,.29839.05452.61384.61384,0,0,0,.23588.06055c.01309.05866-.103-.01848-.10168.01978.00192.01306.09786.01466.15619.03633.0032-.00891-.00254-.01593-.01753-.02167.04877-.02422.016.03473.07619.03633.03124-.0016-.00316-.01466.02487-.02964a2.21659,2.21659,0,0,1,.41058.11285c-.00636.02294-.06757.00065-.12113-.01371a.63915.63915,0,0,0,.39337.09786c-.05546-.00415-.09437-.01244-.12048-.01433-.016-.0032-.01883-.01022-.01945-.016a.1367.1367,0,0,0,.00669-.02485,4.47346,4.47346,0,0,1,.42461.14951,1.6428,1.6428,0,0,1-.23591-.06888,2.78473,2.78473,0,0,0,.57634.20562c-.00985-.0156-.04269-.02484-.03058-.04048a.08082.08082,0,0,0-.0459.015.6757.6757,0,0,0-.24867-.09626c.11288-.02549.28533.07874.43418.10616.01022.04113-.07648-.00862-.07077.02709.1626.06248.30985.10517.43546.16957-.01051.014-.03986.00925-.08416-.01083.05546.03444-.01149.02549.04717.05866.01339-.00637.044-.02549.07779-.044.04018.02359.271.09691.23431.12815.05386.03124.04175-.00764.05386-.02167.08862.04971.12466.051.23907.10361a.04433.04433,0,0,0-.036.03858c.04749.02389.00255-.05866.0711-.014-.00513.01244-.01022.02488-.01469.03855.07207.02582.125.03128.14953.00575.09467.0456-.04018.01338-.02327.05484.05037.02422.06408,0,.07681-.02233.02869.00513.09084.04942.09753.029.04688.02294-.03346.00509-.01753.03761.13136.03985.14409.0896.20562.13451.03666-.02229-.05513-.03313-.02135-.05448.05226.043.15173.044.161.09245.09848.02167.095-.02775.20558.03568-.11507.01469.11924.08193.022.09215.05611.04524.02775-.02742.0695-.00353.00222-.04622-.09787-.02771-.07681-.07077.04142.01117.11506.06761.13452.05037a.19852.19852,0,0,0,.10328.109c.03568-.02233-.00894-.04335-.05866-.06408.10648.00414.18616.0899.30283.12274-.01848.0628.12815.109.10041.15012.04178.00989.03764-.05448.07746.02869.03636.00829.088.00127.03571.01786a.16888.16888,0,0,1,.06026.01818c.04749-.023-.08033-.044-.03157-.06757a3.8,3.8,0,0,1,.366.18169c-.01531.00989-.04146-.0016-.05611.01084-.00829.021.07746.044.07684.066.08161.02993.17118.01593.22758.06055-.00541.00924-.02069.073-.05353.08066.07237.03252.07619.03219.11445.07968.04335.01691.03-.072-.02426-.06917-.00826-.03345.01149-.0236-.00254-.06917.074.04048.07331.06917.10648.12878.03505.022.04273-.01178.0848.02167-.03029.065.05481.01309.16638.1151-.079-.01851-.02357.02324-.01847.05961.04462.02422-.01149-.03062.028-.03826.12306.06982.16194.07492.22539.16958.058-.0172.00859-.03124.03-.0711.0411.02073.0615.04339.05226.06379.02582-.04782.17118.0631.2206.11157-.04113-.00894-.06662,0-.00607.04142.04368.02073-.00891-.02931.04018-.01912.02964.01178.07779.06982.09307.04622.05036.05931-.05-.008-.05863.00734-.01723.0443.05481.029.06819.07521.01342-.01306.02582-.02451.008-.03888a.42975.42975,0,0,1,.15969.09212.05092.05092,0,0,0-.04143.0188.71886.71886,0,0,1,.31621.15878c-.02644.01244-.07393-.00255-.05866.03571a.0663.0663,0,0,0,.07652-.02615c.03316.0255.06662.05.09881.07266-.01019.01946-.03059.00513-.043.01691.08128-.01912.20751.12463.27384.15173.02931.07237-.10841-.05386-.14282-.05546-.007.01851.01433.03665.00415.05386.19125.05578.23111.18267.45171.2598.05863.03189-.01087.05037.03346.07877-.03157.021-.06313-.04655-.02775-.05644-.05419-.02517-.03888.04527-.05993.05866.07811-.00542.139.06055.18267.02073.05928.03218-.01339.04876.03284.07935-.0204.01054-.05037-.02389-.07459-.0411.00829.04335.05578.05-.00957.06343.03953.05.09594-.00222.12943.07139-.02138.00989-.01883-.03153-.04145-.01655-.00382.06248.07269.029.09437.02327.1103.043.21612.1562.28944.1718-.05291.014.04208.04782-.01211.06535.1071.02582.05768.05931.16289.12241-.00288-.022-.0067-.04462-.01179-.06949.03568.06312.10518.1036.17849.21805.07335.02487.03317-.01178.05579-.04655.06091.04782.03476.08128.01756.11765.06757-.01277.028.1071.14438.11444a.14071.14071,0,0,0-.03728-.09757c.10074.01563.01019.06535.13038.10168-.07237.02713-.00222.10266-.08321.06473.03251.05386.04909.06154.09437.132.0899-.04368.12783.09786.22089.00574.02837.04015.0016.0475-.02964.09881-.00382-.10935-.01593.01564-.0816-.03793a1.36118,1.36118,0,0,0,.28562.31145c.05229-.03412-.00636-.01786-.03-.05612.07143-.01465.009-.05928.04783-.08255.037.088.09881.08128.12877.15427-.02931.01913-.0647-.05833-.09688-.07776-.03953.04208.07586.102-.03477.07492.0335.06917.06026.00382.0947.05513-.03731.04081.11539.09692.03091.14729.06153.04589.12431-.01211.14569-.05037.01913.01913.03633.03793.05578.05865-.06025-.03028-.04622.08351-.09437.01594a.6576.6576,0,0,0,.191.13739c-.07524.03539.02168.05069.01273.10965.02935.04145.05546-.04939.08161.01785-.04782-.01083-.0344.03284-.05481.06088.05863.03571.03314-.05641.08161-.028.00189.03124-.01436.05612.0408.06823.02423-.01979-.037-.06441-.01341-.08576.03985-.03571.08161.05132.12146.06375-.0564-.015-.05706.0255-.00094.074-.03732.0204-.07143-.044-.10711-.052.02517.08415.255.20274.20686.29551.01691.029.10234-.02171.0424-.04975.06059-.00414.04273.02582.10743.07459a.0761.0761,0,0,1-.05481-.01211c-.01308.13645.16736.13423.21006.17787-.08608-.00414-.00989.09786.07906.20722.03506.0204.072.0408.11285.00764.00065.0169.01021.05706.037.0472.0239.03665-.01022.0564-.05037.07459.01626.01658.01881.02964.00891.0408.139.00924.13645.16481.24228.20943-.01913.00575-.02484.01913-.01848.03157.06695-.01819.037.11092.14918.14918-.008-.06026.02549-.03826.08321-.06375.03538.04429.01625.06884-.02328.05611.03953.03568.1562.101.10456.1495.01276.01561.02934.00317.04335.00128-.04237.08255-.07776-.08543-.15111-.12656-.10455.05353.1135.07044-.021.12241.03953.014.07652.05768.12019.05164.01241.02168-.01818.028-.036.04048a.9473.9473,0,0,1,.30636.364c-.09532.03858.02964.10713.0883.13772-.09881.02807.07968.24929.1511.17245a.14.14,0,0,0,.03633.09532.09037.09037,0,0,0-.06088.00414c.09466.08957.0883.21456.21326.21456-.00764.02041.0169.05321-.00382.06565.022.0236.01785-.014.051-.02168.03444.0663.015.07844.07143.12467-.01724.00636-.03506.014-.05292.022.13132.24868.21675.34811.3073.52663-.03378.03986-.09277-.05226-.08255.0064-.07015-.01851-.03859-.04655-.0915-.09215-.0408.00542-.04145.029-.06248.04367.0695.125.24162.27.14344.36978.12178-.00731.16448.20849.22125.284-.037.01564-.06121.01309-.07365-.021-.0201.01339.00415.04241-.02138.0507.05295.01145.11543.00571.14442.07713-.03539-.008-.08.01051-.08958-.05516-.03953.022.028.102.0475.11.03666-.00829.03091-.03509.0679-.04273.0612.16256.07651.176.1543.34905-.12561-.00986-.00829.0931-.08415.10681-.03252-.07237-.06248-.14474-.09343-.21806-.04237.12783.07652.21773.1119.31625.00735.02483-.116.03568-.11921-.0268-.0408.10139.07713.10553.03346.19478.06728-.01815.05291-.07365.06153-.11827.05419-.00924.08735.02393.10328.09339.03317-.06022-.05037-.1431.07939-.12623-.02615-.10742-.09277.02808-.10775-.05226.10775-.01243-.008-.03985.02582-.0899a.55325.55325,0,0,1,.13961.22886c-.0255.0016-.02931-.03408-.05481-.02644.01848.07874.022.07968.10485.1578-.06023.01625-.12525.04367-.14056-.02422-.02327.07491.11.09179.12972.1087-.04524.02294-.08382.03313-.09084.1071.01211.02007.04207.00574.06629.00192.01786.044-.01211.06375.02233.11729-.06695.00829-.02422.0692-.10583.06887.146.14951.07077.29294.2002.46-.15812.02356-.12561-.29712-.20339-.21616-.03092.03509.00767.16037.08066.24387-.03412.0016-.029.02647-.05517.03222.0695.0124.01913.05895.0899.07968.00065.03-.01786.0016-.04081.00924.01819.07524.09565.05291.109.13739-.02167.00447-.04142.008-.06215.01149.08448.066.01593.19445.09914.26108-.07332.00923-.081-.19031-.17533-.22126-.05291.02393-.0032.10172-.07459.11732a.21521.21521,0,0,1,.09881.196c-.02931-.00127-.0424-.02677-.074-.02389.015.09117.00895.10582.08321.14248-.0631.00924-.00477.05325-.01753.10107a.49519.49519,0,0,1-.12717-.38956c-.04528-.01022-.09278-.01626-.09343-.09626-.13834.05451.16991.26394.05611.36435.03826.00222.0507.04812.08226.05768-.08226.07015-.03825.02455-.03.147-.04622.00669-.05644-.03855-.06506-.08543a.14893.14893,0,0,0-.07012-.02327c-.07651.03636.01052.06568.00957.13485-.04175.0016-.06313.01851-.05259.05-.01851-.01146-.05676.00127-.06917-.0239.01975.04557-.10586.0867-.16641.13452.00254.04655.09306-.03061.07524.04175-.02073.00415-.04146.0083-.06091.01339.02709.09117.1119.1575.02709.22634.00258-.02964-.17372-.05546-.11219-.015-.12688-.08-.07939-.23046-.18744-.36149-.04334.01244.0083.07936.00415.11412-.07939.03571.01051-.094-.09786-.05164-.058.10328.10455.18616.07775.36243a.77879.77879,0,0,1-.13514-.234c-.014.08928.03826.1575-.01338.2474-.02869-.03571-.11539.00637-.15238-.01913a.54207.54207,0,0,0,.03568.31207c-.03695.00254-.03822.02392-.03506.0456-.04749.00764-.05259-.03571-.05738-.08193-.10965.03378.01723.108-.06056.14695-.0644-.01563-.0172-.05516-.05611-.08193A.91878.91878,0,0,0,19.554,34.04c-.087-.00414-.14249-.21835-.17343-.31177a2.24652,2.24652,0,0,1-.10169-.45742c-.16895-.10775-.13644-.53972-.28435-.64714-.01273-.27636-.25467-.49634-.30569-.76283-.05866-.00575-.0851.03378-.14442-.00415.00128-.06407.04335.0051.06186-.00382-.06313-.04175-.09913-.13292-.01469-.18361.001-.06375-.14536-.08354-.06182-.12816-.045-.03825-.05866.015-.09979.001a5.10542,5.10542,0,0,1-.38793-.927c.01688-.00764.01942.014.02866.02488.02171-.01593-.00189-.04783-.008-.07365-.029.01848-.09147.02168-.05546.06343a2.46305,2.46305,0,0,1-.25948-.577.177.177,0,0,1-.10106-.18362c-.08034-.03094-.11794-.21485-.20591-.2678a3.22743,3.22743,0,0,0-.33377-.65315c-.037-.05644-.24006-.22794-.22762-.33377a16.26907,16.26907,0,0,0-1.07489-1.41695c.00985-.0252-.014-.05739-.02742-.08768-.42749-.496-.98088-1.08639-1.4259-1.55082-.4431-.35291-.75806-.69686-1.18265-1.03224-.0676-.051-.15463-.06469-.18554-.16033-.29264-.16129-.50015-.36531-.80043-.56329-.031-.0188-.06281-.02709-.09372-.04906A15.28662,15.28662,0,0,0,7.481,21.61632c-.12209-.0344-.26839-.08862-.395-.125-.18267-.04939-.38094-.08161-.56648-.1186.27162.09565.6127.13263.84349.23337.1747.0376.54895.14855.75868.22122a1.0404,1.0404,0,0,1,.26649.11222c.01979.00572.01531-.00957.01724-.01851.03313.001.05353.04241.06662.02233.01943.00731.01371.01946.015.03124a14.38332,14.38332,0,0,1,1.98183.84731c.01816.01211.00445.03029.00222.044-.29678-.14954-.59579-.30093-.88269-.4256a.55819.55819,0,0,0-.095-.04142c-.05-.01818-.12848-.05291-.17725-.07427A13.77469,13.77469,0,0,0,7.95437,21.798,16.76388,16.76388,0,0,0,4.642,21.11966c-.01945-.00284-.00767.00542-.007.014a1.46557,1.46557,0,0,0-.38509-.03728.18093.18093,0,0,0-.01466-.023c-.02135-.00128-.00829.00894-.007.01531-.23205-.02422-.50462-.029-.7421-.03411-.38606-.01179-.76475-.01466-1.08321.00414-.47339-.006-.75708.04943-1.18777.074a3.51,3.51,0,0,1-.34843-.044c-.02357-.00062-.05579.00065-.08637.0016-.01339-.01531-.03761-.023-.11478-.03059.0507-.01818.03444-.04367-.07011-.03669.00062-.01625.03444-.03219.08288-.04749-.06663-.00731-.12816-.03473-.08416-.06917-.05931-.008-.0848-.0239-.0153-.03953a.56549.56549,0,0,1-.058-.01339c.058-.03283.072-.06884.05673-.09211a.41349.41349,0,0,0-.0848.01116c-.00732-.00575.05866-.01469.06185-.02073-.10266-.03062-.05738-.07426-.03189-.12688.04942-.00764.03189-.01244.08957-.02262-.008-.0048-.036,0-.04175-.00637a7.49979,7.49979,0,0,1,.9015-.14983c.02073-.00352.00829-.00956.00385-.014a.05328.05328,0,0,1,.02484,0c.01338-.00128.02488-.00477.03953-.00608.036.01342-.044.00386-.03.01309.05931.00477.0816-.01945.131-.02392a.43645.43645,0,0,0,.22377-.03953.74994.74994,0,0,0,.17056-.01084c.04335-.00731-.03473-.00731-.05357-.00477.01531-.01753.07524-.00349.09182.00128m4.20657-.56361c.03634-.00128.132.01371.109-.00571-.036-.001-.074-.0032-.11222-.00415l.00319.00986m-.11219-.00383c.02866.009.10772.01183.08892-.0073a.10447.10447,0,0,0-.08892.0073m-.22412-.008c.04942.00288.09851.00288.15015.00608-.03858-.02168-.15143-.02488-.15015-.00608m-.569-.0188c.19987.01338.3073.007.45586.015a2.49833,2.49833,0,0,0-.45586-.015m17.56936,6.43545c.01593.02233.03062.044.0456.06662.04972-.04237.147-.00349.09943-.05386-.08477.05771-.079-.04015-.145-.01276m.13357-.44786c-.09022.02484.04081.03539.03761.088.095-.03091-.0239-.065-.03761-.088m-2.74975-2.95825c.19634.11987.30217.25694.49091.29774-.00734-.06441-.1323-.073-.12368-.13485-.14983.00477-.16387-.14346-.36723-.16289m2.14916,1.78739c.04433-.00226.07651.01368.0676.0408.01943-.00894.03761-.01658.058-.02647-.01531-.05132-.13674-.04018-.12561-.01433m-6.21677-3.98761c.01021.01946.08033.03732.08989.05805.01786-.01851.11987-.02393.09277-.04113-.03793.03727-.14441-.05452-.18266-.01692m5.13359,2.81544c-.13263.01022-.27926-.123-.23653-.18743-.0268.01021-.05546.037-.07939.02421-.02167-.02421.0743-.04109-.00731-.07076-.0676.07684-.16547-.09339-.27035-.05481.22922.16991.42589.28021.62609.43386.13707.102.227.29038.46924.30664-.06343-.17627-.48135-.27573-.50175-.45171m-5.72968-3.08829c.03251.01432-.01531.03411.02931.04716.03219-.04557.04048-.00891.065.008-.00189-.022.08448-.01018.03477-.03473-.01342.015-.0947-.05612-.1291-.0204M9.0481,19.02469a.56092.56092,0,0,0-.12558-.01244c.01241.02582.102.028.12558.01244m-.38124-.01659c.08288.00062.10965.0188.14758.00062a.38911.38911,0,0,0-.14758-.00062m-6.89992.42622a.9144.9144,0,0,1,.23268-.05579c.05295-.00862.022.00764.01691.01113.02931,0,.09564-.0124.13645-.015.01658-.0172-.09183.01371-.09885.00415a5.06321,5.06321,0,0,1,.62864-.10805c.5008-.0743.97993-.13707,1.34364-.18456.04051.00284.12113-.007.16132-.00448.03.01117-.06281.01466-.07492.02263.01531.00767.11761-.01531.11667.00065a.1657.1657,0,0,1,.058-.016c-.029-.00157-.06757-.00157-.059-.01626a2.185,2.185,0,0,1,.576-.03091.63542.63542,0,0,1,.15431-.00382c-.00989-.00862.08448-.01593.02742-.03091.04269-.00255.0867-.00542.1291-.00957a.22571.22571,0,0,1-.07874.01593,3.267,3.267,0,0,0,.45681-.02295c.03887.00732-.00066.00637.00858.01881.2614-.05259.6838-.04015,1.00543-.06376a.66521.66521,0,0,0,.11382.0223,4.35753,4.35753,0,0,1,.74625-.028c-.0032.00415-.02106.00447-.01913.01051.02549-.00189.04208-.00764.03986-.01815.37392.00924.72839.0443,1.17468.03953.00829.02007-.05357.01688-.0867.023a1.22173,1.22173,0,0,0,.17023.01913c.01655-.01913-.05676-.015-.04018-.03284.16736-.00095.18107.01688.32006.00574a.7881.7881,0,0,0,.25119.01913c.014.04365-.10965-.0016-.10965.02772.00317.00894.10517,0,.16831.00894.00381-.008-.0035-.01149-.01786-.01436.051-.0239.01436.02487.081.01785.03251-.00414-.00386-.00989.02484-.02516a2.93585,2.93585,0,0,1,.44087.03633c-.00669.01847-.073.00731-.12976.00382a.84055.84055,0,0,0,.42146.02647c-.059.00349-.10074.00284-.12816.00542-.01913-.0016-.0204-.00669-.0204-.01117l.00542-.02007c.14441.03186.31111.0172.45487.0612a1.84391,1.84391,0,0,1-.25118-.022,3.5653,3.5653,0,0,0,.61841.08478c-.01273-.01084-.04651-.01466-.0344-.029a.13578.13578,0,0,0-.0491.01942.86071.86071,0,0,0-.26649-.04364,2.19484,2.19484,0,0,1,.46637.02644c.01051.02935-.08288.00222-.07714.02935.17435.02771.33312.04142.46764.07393-.00989.01211-.0408.01211-.088.00287.05865.01979-.01306.022.04909.03953.01531-.007.04749-.02614.08481-.04429.04335.01273.29009.03855.25118.06662.059.01688.04528-.01244.05677-.02425.09626.02709.13514.02233.25882.0488a.04779.04779,0,0,0-.0392.03473c.05258.01116.00352-.04717.07746-.02135a.29065.29065,0,0,0-.01531.03154.22171.22171,0,0,0,.16067-.01753c.102.02167-.0427.01753-.0255.0472.05612.01083.06885-.00927.08288-.02808.03124,0,.09881.0252.10583.00768.05007.01243-.03633.00891-.01913.03186a.485.485,0,0,1,.22347.07556c.04019-.02167-.06025-.01818-.02262-.04051.05608.02713.16256.01371.17405.04975.10583.00349.10074-.03476.2225-.0016-.12431.02775.1291.04462.0236.06757.06342.02742.03-.02517.07459-.01211.00192-.03633-.10616-.007-.08416-.04524.04557.00382.12463.03666.14663.02007.00957.02837.04783.05164.11223.07012.0395-.02262-.00989-.03284-.0644-.04175a2.02786,2.02786,0,0,1,.329.05069c-.01691.05259.14154.06536.11284.101.044.00226.03953-.04684.08288.01084.04019,0,.095-.01211.03953.00829a.23662.23662,0,0,1,.06441.00575c.05164-.02488-.087-.0223-.03509-.0475.16194.0188.21805.0507.39847.08542-.01655.009-.04463.00383-.0599.01659-.007.01658.08575.02168.08575.03953.08892.01051.18391-.01564.24544.01211-.00476.008-.01818.059-.05357.06885a.22638.22638,0,0,1,.12656.044c.04593.00764.02869-.05961-.029-.04877-.00927-.0239.01019-.02073-.00447-.05291.07939.02007.07939.04175.11827.08349.03953.01084.0456-.01625.09149.00288-.02869.05516.05961.00127.18522.06346-.08735-.00288-.02615.02134-.01724.04844.04848.01211-.014-.02168.02808-.03379.13452.03379.17659.03251.25086.094.0596-.022.00607-.02521.02742-.058.04556.00894.06884.023.06025.03923.02484-.03985.18489.02263.24228.05164-.0456-.001-.073.01114-.00447.03186.04654.01022-.01117-.02072.04113-.02007.0328.00414.08829.04145.1023.01945.05836.03983-.05419.0035-.0615.01721-.01531.03633.0596.013.07746.04654.01273-.01243.02549-.0236.00542-.03123a.50609.50609,0,0,1,.17787.04462.065.065,0,0,0-.045.02233.862.862,0,0,1,.34938.06917c-.02742.015-.07809.00956-.06154.03825a.09776.09776,0,0,0,.08132-.03316c.03822.01465.07331.02644.11092.03888-.01022.01658-.03124.00894-.04623.02072.0867-.028.23049.06059.30381.0711.0376.05-.11986-.02487-.15623-.01946-.00542.015.01884.02615.00735.04113.20881.01244.26045.10263.50335.12529.065.01338-.00829.03855.04207.05324-.03189.02167-.07044-.02426-.03378-.03826-.06059-.00989-.0392.04175-.05931.05513.08226-.01753.15175.023.19576-.014.06564.014-.01022.0392.04047.05513-.01945.01179-.05291-.01051-.081-.01913.01181.03092.06345.02935-.00542.05.04593.03124.10328-.01753.14441.03221-.022.01212-.02262-.02073-.04557-.00512.00095.04815.07968.01022.1023.00225.12114.01339.2442.08128.32359.08128-.05549.02008.04971.03124-.0064.0523.11605.00156.067.03567.18394.066a.29073.29073,0,0,0-.01753-.05069c.044.04208.12176.06059.20911.13518.081.00669.036-.01466.05739-.0459.06822.02644.044.05768.02869.08765.0695-.02262.03953.07713.16576.06153-.01022-.02262-.00636-.0475-.05-.0679.10932-.00542.01815.04877.1495.05484-.07524.03441.00764.07808-.08288.065.03921.03567.05768.0376.11285.0835.09307-.04877.14758.05389.2378-.03474.03473.0271.00735.03666-.022.08161-.014-.08353-.01593.014-.09212-.01531a1.202,1.202,0,0,0,.33887.18776c.052-.03633-.00924-.01179-.03731-.03633.07429-.02487.0032-.04909.0408-.07237.04877.05993.1151.044.15525.09467-.02964.01912-.07714-.03314-.11317-.04208-.03633.03891.09244.06375-.028.06313.04269.04622.06407-.00862.10648.02422-.03637.0376.13481.05419.04939.1071a.1343.1343,0,0,0,.1511-.06408c.022.01117.04208.02265.06473.03477-.06822-.01244-.03924.072-.09819.02931a.81443.81443,0,0,0,.21933.07077c-.07652.03986.02993.03444.02738.08131.03317.02455.0523-.04814.0883-.00127-.05386-.00065-.0328.03153-.05131.05608.06568.015.02869-.05.08353-.03793.00415.02393-.00862.04655.05037.0456.02389-.01978-.04622-.04113-.023-.06375.03888-.03444.09372.02451.13707.02677-.06088-.00095-.05866.03091.00829.05611-.03891.02389-.08321-.01913-.12241-.01913.03728.05993.29773.10772.2582.18678.02135.01978.10616-.03441.03921-.04622.06407-.014.04749.01309.12463.03793a.11075.11075,0,0,1-.06121,0c.00287.10743.196.0711.248.09757-.09372.01243,0,.07648.1103.14154a.11928.11928,0,0,0,.12049-.01531c.00319.014.0185.04142.04654.02964.03.0236-.00382.045-.04429.066.0188.01019.02327.01975.0156.029.14983-.01753.16641.10012.2869.11383-.01943.00825-.02357.01847-.01655.02866.07073-.02772.0548.07844.18041.08418-.01691-.04433.02262-.03382.08034-.06535.04527.02677.02676.05-.01691.04844.04749.01881.18139.04557.13292.09339.014.00957.03156-.00349.04782-.00829-.03568.07077-.09688-.04844-.18169-.06629-.10393.05993.132.03251-.00509.09691.04462.00415.0899.029.13514.01658.01724.01371-.01593.02485-.03186.037a.89124.89124,0,0,1,.38124.21835c-.09881.04814.0472.07491.11349.08575-.10233.04175.124.17532.18871.10168.00193.02073.01691.0424.05292.066a.1435.1435,0,0,0-.065.01433c.11637.05037.12878.14536.26268.12114-.0051.0172.02742.03666.00574.052.0287.01244.01658-.01531.05226-.02775.04655.04368.02808.05676.0963.08a.559.559,0,0,0-.05422.02807c.18172.16256.2901.2206.41633.33694-.029.0376-.10871-.02008-.08732.02262-.07812,0-.0491-.02709-.11416-.05131-.04335.01276-.03949.029-.05862.04589.09372.081.30475.15493.21485.25184.131-.03058.21358.125.28785.17023-.03506.02008-.06314.0236-.08256,0-.01913.014.01019.03092-.014.0424.05865-.00254.124-.0188.16863.0287-.03888.00189-.08383.02455-.10616-.02328-.03953.02488.04845.07237.07077.074.037-.015.02742-.03284.06568-.04593.09434.10936.11347.117.22791.23209-.13644.01913.00862.07332-.07077.09976-.04749-.04909-.09371-.09816-.13994-.14725-.02262.10645.12241.14885.17787.21772.01277.01721-.11728.051-.13226.00445-.02583.08513.10295.06345.07171.14153.06884-.02836.04335-.06724.04462-.1039a.10064.10064,0,0,1,.12816.04972c.02487-.052-.08033-.09721.06182-.11379-.04716-.0743-.095.0424-.1243-.015.11285-.03349-.01785-.03124.01117-.07429a.4886.4886,0,0,1,.19187.14408c-.02582.00734-.03728-.0188-.064-.007.03506.05353.03823.05447.14249.09688-.06153.02487-.12594.05961-.1559.01054-.01084.06056.13644.04652.16132.05546-.045.02742-.08513.04335-.07844.10041.01658.01244.04753-.00415.073-.01243.02677.02964-.001.05131.04684.08353-.07139.021-.01465.058-.102.07521.18616.08258.1339.20849.30668.306-.16576.0523-.19478-.19762-.26075-.11953-.029.03316.03823.11953.1342.16736-.03666.01051-.02582.02614-.05357.03665.07717-.00414.03222.04113.11382.04179.0067.02262-.01912.00443-.04273.01592.03474.05292.11507.01913.14442.08034-.02008.008-.04306.0156-.06346.02295.10488.03058.05738.14408.16037.17852-.07811.02135-.12626-.12881-.23525-.13231-.0523.02932.01815.0794-.05772.10329a.17986.17986,0,0,1,.14918.12878c-.03313.00607-.05193-.01052-.086-.0019.03538.0663.03123.07874.11983.0899-.06663.021.00639.04142.00192.08128-.10168-.051-.22282-.15557-.2174-.269-.05164.00255-.10648.00731-.12368-.05484-.13867.07139.23907.1667.13707.26584.04207-.00542.06535.0268.10073.02742-.074.06855-.03538.0268-.00065.118-.04906.014-.06885-.01691-.08892-.05069a.20171.20171,0,0,0-.08255-.0032c-.07525.044.02676.04655.0392.09979-.0456.01084-.065.02771-.0456.04942-.02422-.00542-.06375.01306-.08223-.00258.03186.02967-.09757.08768-.15238.13677.01179.03474.09562-.04367.0899.01531-.0204.00764-.04207.01655-.06473.02328.05.06437.15845.09655.07844.1667-.00225-.022-.20179-.00669-.12655.01146-.15623-.0344-.13645-.15776-.28213-.23525-.045.01945.02774.05865.02869.087-.081.0424-.00735-.07521-.11827-.021-.04145.09244.15365.12114.16194.26108a.68538.68538,0,0,1-.19892-.15045c.0032.07044.07586.11219.03888.19158-.04015-.02139-.12652.02869-.174.01752.00414.11827.0408.13929.10648.22984-.04015.00829-.03473.02517-.02932.0427-.05036.01436-.065-.01753-.08033-.05132-.1135.0491.04208.07844-.037.12369-.07332.00225-.03-.03761-.07841-.05-.02426.09979.09531.22823.13259.2974-.09881.015-.20783-.13834-.26075-.20209a1.36207,1.36207,0,0,1-.21136-.32835c-.21071-.04684-.26235-.38283-.44756-.4348-.06917-.20816-.37934-.32835-.48485-.52055-.06629.00476-.088.04207-.16132.02487-.00956-.0491.0491-.00513.06761-.01564-.07746-.01945-.13325-.08226-.0491-.13674-.01116-.05007-.17757-.03509-.09244-.08673-.05579-.0204-.06186.02265-.11095.0204-.20624-.22824-.49281-.41789-.58718-.6318.01563-.00829.0236.006.03571.01306.021-.01658-.01022-.03633-.022-.05481-.02837.01943-.09852.03473-.04972.0599a1.71241,1.71241,0,0,1-.38032-.39174.14339.14339,0,0,1-.14026-.12147c-.09179-.00829-.16256-.14248-.26682-.16674a2.44836,2.44836,0,0,0-.46125-.437c-.04782-.03665-.29518-.13135-.29456-.21358-.44724-.29424-.75454-.56393-1.35034-.89578.0083-.02069-.02167-.04175-.03953-.0631-.52088-.306-1.18137-.66722-1.70225-.95346-.51131-.19954-.87985-.41443-1.36277-.60758-.07684-.03-.17056-.02742-.20943-.09629-.32836-.07874-.56521-.20624-.90088-.31621-.03349-.00924-.06822-.01149-.10266-.02328a21.43769,21.43769,0,0,0-5.04111-1.05834c-.13263-.01338-.28915-.03761-.42684-.05291-.1967-.01753-.41156-.02008-.61332-.028.29133.04429.66336.03407.91135.08731.18936.00927.5955.05165.82247.08354a1.25207,1.25207,0,0,1,.28817.05451c.02167.00127.01752-.00894.0204-.01626.03444-.00225.05611.02742.07109.00924.0207.00287.01561.01371.01688.022a20.45856,20.45856,0,0,1,2.16069.40484c.02007.007.00316.02265.00127.03316-.32453-.07556-.65223-.15365-.964-.21358a.90134.90134,0,0,0-.10484-.01913c-.05422-.00894-.13932-.0252-.19289-.03571-.45775-.09117-.9799-.18394-1.47849-.24162A27.02589,27.02589,0,0,0,4.50459,19.8c-.022.00095-.01054.00669-.00924.01244a2.15745,2.15745,0,0,0-.41952.00858.0527.0527,0,0,0-.01339-.01753c-.02232.00226-.00894.008-.00894.01309-.25181.00317-.55019.02455-.8084.04143-.42207.02647-.83519.05706-1.18777.09945-.51579.03507-.83232.10107-1.307.15366-.10648-.00924-.34046.00862-.37807-.00764-.02487.00062-.06215.00477-.09372.00764-.01338-.01179-.03953-.01593-.12433-.01593.05993-.01851.04335-.03666-.072-.02455.0032-.01149.04207-.02709.09659-.04305C.10739,20.02691.043,20.01066.095,19.97909c-.06375-.00192-.08928-.01178-.01211-.03-.03636-.00255-.0252-.00128-.06248-.00575.06822-.03.087-.05993.073-.07681a.53611.53611,0,0,0-.09244.01466c-.00989-.00415.0644-.01658.06727-.02073C-.03957,19.843.01462,19.806.05033,19.762c.05291-.008.0344-.01211.09975-.0236-.00923-.00382-.03982.00127-.04495-.00349.23464-.05772.64587-.13041.99841-.1846.02393-.00444.009-.00891.00448-.01146.01847-.0032.0236-.0032.02742-.00127a.29133.29133,0,0,1,.044-.00862c.037.00669-.04782.00575-.03317.01244a.68257.68257,0,0,0,.14344-.03029A.65848.65848,0,0,0,1.54,19.46236a1.15836,1.15836,0,0,0,.18521-.02106c.04782-.00956-.03793-.00316-.05928.00033a.19649.19649,0,0,1,.10106-.00731" />
    </g>
  </g>
</svg>
