<svg xmlns="http://www.w3.org/2000/svg" width="195.80442" height="44" viewBox="0 0 195.80442 44">
  <g id="anniversary">
    <path id="years" d="M169 10.57v-.37h.45V8.52a1.08 1.08 0 0 1-.45.11v-.38a.7.7 0 0 0 .46-.16h.4v2.11h.4v.37Zm1.68-.15.2-.3a.77.77 0 0 0 .46.14c.38 0 .62-.33.64-.86a.96.96 0 0 1-.65.27.72.72 0 0 1-.8-.78.85.85 0 0 1 .9-.84c.58 0 .97.41.97 1.24 0 .87-.5 1.33-1.08 1.33a1.07 1.07 0 0 1-.64-.2Zm1.3-1.34c-.03-.48-.25-.67-.56-.67a.43.43 0 0 0-.48.47c0 .26.12.44.47.44a.8.8 0 0 0 .57-.24Zm.78.87c0-.33.25-.53.6-.68-.3-.14-.49-.3-.49-.6 0-.32.3-.63.84-.63.56 0 .83.31.83.62 0 .27-.17.46-.47.6.36.16.59.32.59.69 0 .4-.35.68-.95.68s-.95-.28-.95-.68Zm1.48-.02c0-.23-.18-.36-.56-.5-.33.14-.5.28-.5.5 0 .22.2.36.53.36.32 0 .53-.14.53-.36Zm-.1-1.24c0-.15-.13-.31-.43-.31s-.43.14-.43.3c0 .21.15.31.46.44.28-.14.4-.24.4-.43Zm.84 1.88v-.05c0-.36.13-.7.78-1.12.38-.25.53-.37.53-.62a.35.35 0 0 0-.39-.36.73.73 0 0 0-.58.37l-.31-.22a1.05 1.05 0 0 1 .91-.52.7.7 0 0 1 .78.7c0 .3-.11.53-.59.83-.4.25-.6.45-.64.62h1.24v.37Zm-6.61 25.69v-.05c0-.36.12-.7.78-1.13.37-.24.53-.36.53-.61a.35.35 0 0 0-.4-.36.73.73 0 0 0-.58.36l-.3-.21a1.05 1.05 0 0 1 .9-.53.7.7 0 0 1 .78.7c0 .3-.1.54-.58.84-.4.25-.6.44-.64.62h1.24v.37Zm2.13-1.24c0-.78.37-1.29.99-1.29s.98.51.98 1.29-.36 1.29-.98 1.29-.99-.52-.99-1.3Zm1.55 0c0-.62-.21-.91-.56-.91-.37 0-.57.29-.57.9 0 .63.22.93.57.93.36 0 .56-.3.56-.92Zm.77 1.24v-.05c0-.36.12-.7.77-1.13.38-.24.53-.36.53-.61a.35.35 0 0 0-.38-.36.73.73 0 0 0-.59.36l-.31-.21a1.05 1.05 0 0 1 .92-.53.7.7 0 0 1 .77.7c0 .3-.1.54-.58.84-.4.25-.6.44-.64.62h1.24v.37Zm2.13 0v-.05c0-.36.12-.7.78-1.13.38-.24.53-.36.53-.61a.35.35 0 0 0-.4-.36.73.73 0 0 0-.58.36l-.3-.21a1.05 1.05 0 0 1 .9-.53.7.7 0 0 1 .79.7c0 .3-.12.54-.6.84-.39.25-.59.44-.63.62h1.24v.37Z" fill="#767676"/>
    <path id="lines" d="m194.45 20.75-.26.23-.03-.04-19-20.7.25-.24.04.04ZM170 43.96l.04.04.25-.23-19-20.71-.04-.04-.25.23Z" fill="#58a66f"/>
    <path id="forty" data-name="40" d="M172.41 23.62h-1.65v-9.65h-4.96l-6.43 9.46v3.9h6.79v2.86h4.6v-2.86h2.36a12.4 12.4 0 0 1-.7-3.71Zm-6.25 0h-2.63l2.63-3.85Zm13.01 7a5.4 5.4 0 0 1-4.68-2.06Q173 26.51 173 22.14q0-4.41 1.54-6.51a5.52 5.52 0 0 1 4.77-2.1 5.4 5.4 0 0 1 4.69 2.05q1.49 2.05 1.49 6.42 0 4.41-1.54 6.51a5.52 5.52 0 0 1-4.78 2.1Zm.07-4.35a.74.74 0 0 0 .7-.39 3.44 3.44 0 0 0 .31-1.27q.1-.9.1-2.54a24.4 24.4 0 0 0-.1-2.66 2.81 2.81 0 0 0-.35-1.21.76.76 0 0 0-.66-.33.77.77 0 0 0-.71.37 3.22 3.22 0 0 0-.3 1.27q-.09.9-.09 2.56 0 1.83.1 2.69a2.66 2.66 0 0 0 .32 1.18.78.78 0 0 0 .68.33Zm15.6-4.27a.48.48 0 1 1 .49.48.48.48 0 0 1-.48-.48Zm-44.24 0a.48.48 0 1 1-.48-.48.48.48 0 0 1 .48.48Z" fill="#0073ad"/>
  </g>
  <g id="logo">
    <g id="logo-wordmark" fill="currentColor">
      <path id="logo-wordmark-tagline" d="M27.4 31.57h2.8v.3h-1.21v3.78h-.38v-3.78h-1.2Zm3 2.6c0-.79.26-1.25.87-1.25s.87.46.87 1.26-.27 1.25-.88 1.25-.87-.45-.87-1.25m2.08 0c0-.8-.29-1.53-1.2-1.53-.92 0-1.21.73-1.21 1.53s.29 1.52 1.2 1.52c.92 0 1.21-.72 1.21-1.52m1.56.23a.7.7 0 0 1-.76-.74.7.7 0 0 1 .76-.75.68.68 0 0 1 .77.75.67.67 0 0 1-.77.74m-.9 1.52c0-.25.2-.5.87-.5.88 0 1.07.24 1.07.48 0 .3-.31.5-1.05.5-.6 0-.89-.2-.89-.48m2.27-3.33a.86.86 0 0 0-.62.26 1.18 1.18 0 0 0-.68-.2 1.04 1.04 0 0 0-1.17 1.05.93.93 0 0 0 .43.77.55.55 0 0 0-.44.5c0 .24.17.33.39.38v.01c-.42.15-.52.37-.52.62 0 .35.27.7 1.28.7 1.02 0 1.34-.37 1.34-.8 0-.48-.36-.76-1.25-.76-.8 0-.9-.09-.9-.26 0-.1.08-.21.27-.28a1.38 1.38 0 0 0 .47.1 1 1 0 0 0 1.14-1.04.89.89 0 0 0-.21-.61.67.67 0 0 1 .47-.14Zm.65 1.32c0-.4.26-1 .86-1 .51 0 .77.4.84 1Zm2.04.27c0-.91-.38-1.54-1.17-1.54-.75 0-1.21.62-1.21 1.53 0 1.03.48 1.52 1.25 1.52a1.2 1.2 0 0 0 1.17-.71l-.28-.15c-.3.46-.48.6-.86.6-.67 0-.94-.58-.94-1.25Zm.3-1.48v.27h.44v2.21c0 .36.16.52.64.52a2.41 2.41 0 0 0 .34-.06v-.28a1.23 1.23 0 0 1-.34.06.26.26 0 0 1-.3-.3v-2.15h.64v-.27h-.64v-.96h-.34v.96Zm2.31 2.94v-2.17c.38-.34.58-.56.94-.56.45 0 .6.27.6.75v1.98h.34v-2c0-.65-.26-1-.87-1a1.3 1.3 0 0 0-1 .52v-1.6h-.35v4.08Zm2.89-1.73c0-.4.26-1 .86-1 .5 0 .78.4.84 1Zm2.04.27c0-.91-.38-1.54-1.17-1.54-.75 0-1.21.62-1.21 1.53 0 1.03.48 1.52 1.25 1.52a1.2 1.2 0 0 0 1.17-.71l-.28-.15c-.3.46-.48.6-.86.6-.67 0-.94-.58-.94-1.25Zm1.02 1.46v-1.66a1.01 1.01 0 0 1 .86-1.01h.15v-.33h-.15a.95.95 0 0 0-.85.62h-.01v-.56h-.34v2.94Zm1.23-.51v.5h.23l-.32.86H48l.35-.85v-.51Zm5.14-1.7a1.08 1.08 0 0 0-1.07-.79c-.76 0-1.27.52-1.27 1.53 0 .89.44 1.53 1.27 1.53a1.31 1.31 0 0 0 1.15-.76l-.27-.13c-.24.38-.47.61-.88.61-.6 0-.93-.5-.93-1.25 0-.91.37-1.26.93-1.26a.85.85 0 0 1 .76.61Zm.82.74c0-.8.27-1.26.87-1.26s.87.46.87 1.26-.26 1.25-.87 1.25-.87-.45-.87-1.25m2.08 0c0-.8-.29-1.53-1.2-1.53s-1.22.73-1.22 1.53.3 1.52 1.21 1.52 1.21-.72 1.21-1.52m1.01 1.47v-2.17c.37-.34.58-.56.94-.56.45 0 .6.27.6.75v1.98h.34v-2c0-.65-.26-1-.87-1a1.31 1.31 0 0 0-1.01.52v-.46h-.34v2.94Zm2.48-.54a1.3 1.3 0 0 0 1.14.6.91.91 0 0 0 1.01-.84c0-1.14-1.73-.71-1.73-1.43 0-.36.26-.52.59-.52a.89.89 0 0 1 .76.44l.26-.18a1.09 1.09 0 0 0-1.01-.53c-.5 0-.93.25-.93.8 0 1.05 1.72.57 1.72 1.42a.6.6 0 0 1-.65.56.97.97 0 0 1-.91-.5Zm2.91-1.2c0-.38.26-1 .86-.99.51 0 .78.4.85 1Zm2.05.28c0-.91-.38-1.54-1.18-1.54-.74 0-1.2.62-1.2 1.53 0 1.03.48 1.52 1.25 1.52a1.2 1.2 0 0 0 1.16-.7l-.28-.15c-.29.46-.48.6-.86.6-.66 0-.94-.58-.94-1.25Zm1.02 1.46v-1.66a1.01 1.01 0 0 1 .85-1.01h.16v-.33h-.16a.95.95 0 0 0-.84.62h-.01v-.56h-.34v2.94Zm2.18 0h.34l1-2.94h-.36l-.8 2.42h-.02l-.8-2.42h-.36Zm2.22-2.94h-.34v2.94h.34Zm-.34-.65h.34v-.5h-.34Zm1.6 3.59v-2.17c.38-.34.58-.56.94-.56.45 0 .6.27.6.75v1.98h.34v-2c0-.65-.26-1-.87-1a1.3 1.3 0 0 0-1 .52v-.46h-.35v2.94Zm3.7-1.24a.7.7 0 0 1-.76-.74.7.7 0 0 1 .76-.75.68.68 0 0 1 .76.75.67.67 0 0 1-.76.74m-.9 1.52c0-.25.2-.5.87-.5.88 0 1.07.24 1.07.48 0 .3-.32.5-1.05.5-.61 0-.9-.2-.9-.48m2.27-3.33a.87.87 0 0 0-.61.26 1.18 1.18 0 0 0-.69-.2 1.04 1.04 0 0 0-1.16 1.05.93.93 0 0 0 .42.77.55.55 0 0 0-.44.5c0 .24.18.33.39.38v.01c-.41.15-.51.37-.51.62 0 .35.27.7 1.28.7s1.34-.37 1.34-.8c0-.48-.37-.76-1.25-.76-.8 0-.91-.09-.91-.26 0-.1.08-.21.27-.28a1.38 1.38 0 0 0 .48.1 1 1 0 0 0 1.13-1.04.9.9 0 0 0-.2-.61.67.67 0 0 1 .46-.14Zm1.74.1v.28h.44v2.21c0 .36.16.52.64.52a2.41 2.41 0 0 0 .34-.06v-.28a1.23 1.23 0 0 1-.34.06.26.26 0 0 1-.3-.3v-2.15h.64v-.27h-.64v-.96h-.34v.96Zm2.31 2.95v-2.17c.38-.34.58-.56.94-.56.45 0 .6.27.6.75v1.98h.34v-2c0-.65-.26-1-.87-1a1.31 1.31 0 0 0-1 .52v-1.6h-.35v4.08Zm2.89-1.73c0-.4.26-1 .85-1 .52 0 .78.4.85 1Zm2.04.27c0-.91-.38-1.54-1.17-1.54-.75 0-1.21.62-1.21 1.53 0 1.03.48 1.52 1.25 1.52a1.2 1.2 0 0 0 1.17-.71l-.28-.15c-.3.46-.48.6-.86.6-.67 0-.94-.58-.94-1.25Zm2.67-.73c.29-.3.5-.54.88-.54.59 0 .86.6.86 1.21 0 .82-.3 1.3-.91 1.3a1.18 1.18 0 0 1-.83-.52Zm-.34 3.23h.34v-1.43a1.14 1.14 0 0 0 .92.44c.68 0 1.16-.48 1.16-1.5 0-.81-.42-1.55-1.18-1.55a1.02 1.02 0 0 0-.89.51h-.01v-.45h-.34Zm3.08-1.04h.34v-4.08h-.34Zm2.8-.7a1.52 1.52 0 0 1-1 .48.48.48 0 0 1-.52-.5c0-.37.18-.65 1.53-.94Zm.4.7a3.23 3.23 0 0 1-.05-.54v-1.54c0-.65-.32-.92-.99-.92a1.14 1.14 0 0 0-1.09.67l.23.14a1 1 0 0 1 .85-.54c.5 0 .68.2.68.6v.2c-1.23.27-1.89.41-1.89 1.22a.75.75 0 0 0 .81.76 1.54 1.54 0 0 0 1.07-.4l.05.35Zm2.97-2.2a1.08 1.08 0 0 0-1.08-.8c-.76 0-1.26.52-1.26 1.53 0 .89.44 1.53 1.26 1.53a1.31 1.31 0 0 0 1.16-.76l-.28-.13c-.23.38-.46.61-.88.61-.59 0-.92-.5-.92-1.25 0-.91.37-1.26.92-1.26a.85.85 0 0 1 .77.61Zm.82.47c0-.4.26-1 .86-1 .52.01.78.4.85 1Zm2.05.27c0-.91-.38-1.54-1.18-1.54-.74 0-1.2.62-1.2 1.53 0 1.03.48 1.52 1.25 1.52a1.2 1.2 0 0 0 1.16-.71l-.28-.15c-.29.46-.48.6-.86.6-.66 0-.94-.58-.94-1.25Zm.38.92a1.3 1.3 0 0 0 1.13.6.91.91 0 0 0 1.02-.84c0-1.14-1.73-.71-1.73-1.43 0-.36.25-.52.58-.52a.89.89 0 0 1 .76.44l.27-.18a1.09 1.09 0 0 0-1.02-.53c-.5 0-.93.25-.93.8 0 1.05 1.73.57 1.73 1.42a.6.6 0 0 1-.66.56.97.97 0 0 1-.9-.5Zm4.38-2.4h-.38l1.03 2.9c-.17.6-.43.8-.67.8a2.54 2.54 0 0 1-.33-.03v.27a1.1 1.1 0 0 0 .31.04c.53 0 .74-.26.94-.83l1.1-3.15h-.36l-.82 2.39h-.02Zm2.6 1.47c0-.8.27-1.26.88-1.26.6 0 .87.46.87 1.26s-.27 1.25-.87 1.25-.87-.45-.87-1.25m2.08 0c0-.8-.3-1.53-1.21-1.53-.92 0-1.21.73-1.21 1.53s.3 1.52 1.2 1.52c.92 0 1.22-.72 1.22-1.52m2.54-1.47v2.16c-.37.34-.58.56-.94.56-.45 0-.6-.26-.6-.75v-1.97h-.34v2c0 .64.26 1 .87 1a1.31 1.31 0 0 0 1.01-.52v.46h.34V32.7Zm2.83 2.94h.34v-4.08h-.34Zm1.34-1.47c0-.8.27-1.26.87-1.26s.87.46.87 1.26-.26 1.25-.87 1.25c-.6 0-.87-.45-.87-1.25m2.08 0c0-.8-.3-1.53-1.2-1.53-.92 0-1.22.73-1.22 1.53s.3 1.52 1.21 1.52c.92 0 1.21-.72 1.21-1.52m3.26-.26c0-.4.26-1 .85-1 .52.01.79.4.85 1Zm2.04.27c0-.91-.38-1.54-1.17-1.54-.75 0-1.21.62-1.21 1.53 0 1.03.48 1.52 1.25 1.52a1.2 1.2 0 0 0 1.17-.71l-.28-.15c-.3.46-.48.6-.86.6-.67 0-.94-.58-.94-1.25Zm-4.01 1.46h.33l1.01-2.94h-.36l-.81 2.42h-.01l-.8-2.42h-.37Z"/>
      <path id="logo-wordmark-title" d="M29.56 26.58c0 .84-.11 1.19 1.1 1.19 3.3 0 3.79-1.48 3.97-1.48.1 0 .12.14.12.17a2.26 2.26 0 0 1-.72 1.4c-.46.5-.77.48-1.4.48-1.1 0-2.18-.09-3.27-.06-.57.02-1.17.06-1.74.06-.13 0-.22-.03-.22-.15.03-.17.17-.14.63-.37.37-.17.4-.57.4-1.24v-7.26c0-.75-1.2-.65-1.2-.93 0-.16.1-.19.29-.19.3 0 .74.06 1.44.06.82 0 1.16-.06 1.38-.06.18 0 .27.03.27.2 0 .33-1.05-.03-1.05 1.22Zm9.34.28c0 .76-.98 1.16-1.5 1.16-.75 0-1.17-.31-1.17-1.13 0-1.26 1.75-1.49 2.67-1.69Zm0-2c-3.35.56-3.6 1.46-3.6 2.22 0 1.01.62 1.36 1.55 1.36a3.42 3.42 0 0 0 2.2-.83 1.1 1.1 0 0 0 1.1.73c.2 0 .84-.06.84-.36 0-.1-.12-.1-.19-.1l-.24.03c-.75 0-.62-.85-.62-1.33V23.6c0-1.21-1.37-1.47-2.26-1.47-1.59-.04-2.4.96-2.4 1.62 0 .25.42.47.67.47.27 0 .31-.12.31-.27 0-.16-.08-.37-.08-.59 0-.79.55-.86 1.24-.86.9 0 1.48.5 1.48 1.25Zm4.26-.97a1.6 1.6 0 0 1 1.7-1.12 1.74 1.74 0 0 1 1.67 1.79v2.68c0 .93-.62.64-.62.93 0 .14.07.17.26.17s.49-.06 1.03-.06c.7 0 1.06.06 1.25.06.14 0 .24-.03.24-.2 0-.39-1.12.03-1.12-.96v-2.36c0-1.1-.41-2.68-2.33-2.68a3.13 3.13 0 0 0-2.08 1.06v-.95c0-.14-.08-.23-.17-.23-.33 0-.61.46-1.8.72a.15.15 0 0 0-.13.16c0 .3 1.06-.07 1.06.78v3.56c0 .93-.85.64-.85.93 0 .14.08.17.26.17.17 0 .46-.06 1.22-.06.83 0 1.11.06 1.36.06.21 0 .31-.03.31-.2 0-.39-1.26.03-1.26-.96Zm10.3 2.69c0 .51-.43 1.24-1.62 1.24-1.36 0-2.22-1.72-2.22-2.9 0-1.2.6-2.45 1.95-2.45a1.7 1.7 0 0 1 1.89 1.66Zm0-3.94a3 3 0 0 0-1.68-.5 3.21 3.21 0 0 0-2.99 3.38 2.6 2.6 0 0 0 4.64 1.92h.03v.78c0 .1.04.22.16.22a8.54 8.54 0 0 1 .9-.12c.53 0 .9-.1.9-.2 0-.11-.06-.11-.16-.13-.47-.07-.76-.18-.76-.35v-9.8c0-.14-.08-.23-.17-.23-.33 0-.77.46-1.88.72a.16.16 0 0 0-.12.16c0 .3 1.13-.07 1.13.79Zm9.48 4.45c0 .86-1.14.72-1.14 1.06 0 .15.05.19.18.19a19.2 19.2 0 0 1 1.96-.06c.41 0 .81.06 1.16.06.14 0 .13-.13.13-.17 0-.45-1.16.02-1.16-1.18v-7.3c0-.76-.07-.7.57-.7h2.05c1.46 0 .68 1.09 1.21 1.09.19 0 .17-.18.16-.32L68 18.62c-.02-.33-.09-.42-.42-.42-.28 0-1.6.06-4.2.06-1.84 0-2.94-.06-4.06-.06-.25 0-.24.39-.25.56l-.16 1.39c0 .07.06.17.14.17.19 0 .2-.18.24-.33.26-.79.29-1 1.18-1h2.33c.2.01.15.56.15.66Zm5.68-3.15a1.06 1.06 0 0 1 .93-.84c.51 0 .67.33.94.33.18 0 .52-.43.52-.65 0-.27-.64-.64-.95-.64-.6 0-1.11.77-1.41 1.19h-.03v-1.08c0-.14-.09-.23-.17-.23-.33 0-.62.46-1.72.72-.07.01-.19.07-.19.16 0 .3 1.03-.07 1.03.78v3.7c0 .58-.73.53-.73.83 0 .09.05.13.16.13a11.82 11.82 0 0 1 1.32-.06c.8 0 1.14.06 1.34.06.16 0 .23-.03.23-.16 0-.46-1.27.23-1.27-1.1Zm7.47 2.98c-.03.42-.74 1.02-1.56 1.02a1.42 1.42 0 0 1-1.39-1.62V22.7a.31.31 0 0 0-.25-.35 2.34 2.34 0 0 0-.52.08 2.7 2.7 0 0 1-.77.08c-.08 0-.26.02-.26.13 0 .34.76 0 .76.54v3.34a1.92 1.92 0 0 0 2.09 1.92 2.22 2.22 0 0 0 1.9-1h.03v.78c0 .06.01.22.13.22a1.56 1.56 0 0 0 .49-.09 3.9 3.9 0 0 1 .77-.07c.23 0 .53-.02.53-.13 0-.31-.9-.13-.9-.5V22.7a.31.31 0 0 0-.26-.35 2.33 2.33 0 0 0-.52.08 2.7 2.7 0 0 1-.77.08c-.07 0-.26.02-.26.13 0 .34.76 0 .76.54Zm2.75-3.06c0 1.01.96 1.39 1.73 1.77.57.27 1.3.5 1.3 1.26a1.17 1.17 0 0 1-1.27 1.18c-1.55 0-1.39-1.9-1.7-1.9-.22 0-.17.47-.17.7 0 1.14 0 1.15.31 1.15.35 0 .6.42 1.6.42a1.96 1.96 0 0 0 1.94-1.96 1.63 1.63 0 0 0-1.2-1.7c-1.5-.6-1.87-.91-1.87-1.38a.91.91 0 0 1 1-.92c1.3 0 1.44 1.25 1.58 1.25.22 0 .16-.17.16-.56a2.03 2.03 0 0 0-.07-.7 3.12 3.12 0 0 0-1.4-.33 1.73 1.73 0 0 0-1.94 1.72m5.38 2.92c0 1.47.95 1.66 1.6 1.66 1 0 1.78-.49 1.78-.7 0-.12-.05-.13-.11-.13-.25 0-.46.33-1.22.33a.87.87 0 0 1-1-.86V22.9h1.86l.29-.51a.48.48 0 0 0 .08-.2.1.1 0 0 0-.1-.12.9.9 0 0 1-.56.24h-1.57c0-1.03.01-1.33-.19-1.33-.11 0-.25.32-.54.66-.73.8-1.09 1.05-1.09 1.16 0 .1.1.1.77.1ZM96.12 20c.09-.18.16-.18.23 0l1.4 3.45c.07.18.09.28-.23.28H94.7c-.19 0-.29-.06-.19-.26Zm2.7 6.08a5.96 5.96 0 0 1 .45 1.36c0 .54-.86.4-.86.74 0 .15.23.15.32.15.38 0 .77-.06 1.16-.06.58 0 1.17.06 1.76.06.1 0 .2 0 .2-.13 0-.36-.83-.04-1.26-.7a9.1 9.1 0 0 1-.72-1.63L96.9 18.5c-.04-.11-.14-.53-.3-.53-.18 0-.23.23-1.07 2.04l-3.42 7.3c-.37.81-1.05.57-1.05.87 0 .09.05.16.13.16.37 0 .76-.06 1.15-.06.4 0 .8.06 1.2.06.19 0 .39.04.39-.22 0-.37-1.02.06-1.02-.94a1.5 1.5 0 0 1 .1-.5l.92-2c.14-.3.4-.3.67-.3h3.15c.4 0 .49.2.63.54Zm4.97-8.25c0-.14-.08-.23-.17-.23-.33 0-.61.46-1.72.72a.16.16 0 0 0-.12.16c0 .3.97-.07.97.79v8.08c0 .62-.7.58-.7.8 0 .12.05.18.17.18.14 0 .41-.06 1.12-.06.67 0 1.11.06 1.31.06.22 0 .33-.03.33-.2 0-.39-1.19.03-1.19-.96Zm3.73 0c0-.14-.09-.23-.17-.23-.33 0-.62.46-1.72.72a.16.16 0 0 0-.13.16c0 .3.97-.07.97.79v8.08c0 .62-.7.58-.7.8 0 .12.06.18.17.18.15 0 .42-.06 1.12-.06.67 0 1.12.06 1.32.06.21 0 .32-.03.32-.2 0-.39-1.18.03-1.18-.96Zm3.69 2.1c0-.16-.41-.75-.6-.75-.17 0-.6.6-.6.76 0 .16.43.74.6.74.19 0 .6-.57.6-.74m-1.12 7.11c0 1.3-.63.76-.63 1.12.02.14.1.16.22.16.16 0 .53-.06.99-.06.58 0 1.03.06 1.33.06.19 0 .27-.05.27-.16 0-.37-1.13-.06-1.13-.79v-5.14c0-.14-.09-.23-.17-.23-.33 0-.62.46-1.53.72a.16.16 0 0 0-.13.16c0 .3.78-.07.78.78Zm6.49-.2c0 .76-.97 1.16-1.49 1.16-.76 0-1.17-.31-1.17-1.13 0-1.26 1.74-1.49 2.66-1.69Zm0-2c-3.35.56-3.6 1.46-3.6 2.22 0 1.01.62 1.36 1.55 1.36a3.42 3.42 0 0 0 2.2-.83 1.1 1.1 0 0 0 1.11.73c.2 0 .83-.06.83-.36 0-.1-.12-.1-.19-.1l-.24.03c-.74 0-.62-.85-.62-1.33V23.6c0-1.21-1.37-1.47-2.26-1.47-1.59-.04-2.39.96-2.4 1.62 0 .25.43.47.67.47.27 0 .31-.12.31-.27 0-.16-.08-.37-.08-.59 0-.79.56-.86 1.24-.86.9 0 1.48.5 1.48 1.25Zm4.44-.97a1.61 1.61 0 0 1 1.69-1.12 1.74 1.74 0 0 1 1.67 1.79v2.68c0 .93-.61.64-.61.93 0 .14.07.17.25.17.19 0 .49-.06 1.03-.06.7 0 1.06.06 1.25.06.14 0 .24-.03.24-.2 0-.39-1.11.03-1.11-.96v-2.36c0-1.1-.42-2.68-2.34-2.68a3.13 3.13 0 0 0-2.07 1.06v-.95c0-.14-.09-.23-.17-.23-.33 0-.62.46-1.8.72a.15.15 0 0 0-.14.16c0 .3 1.06-.07 1.06.78v3.56c0 .93-.84.64-.84.93 0 .14.07.17.26.17.17 0 .45-.06 1.21-.06.83 0 1.12.06 1.36.06.22 0 .32-.03.32-.2 0-.39-1.26.03-1.26-.96Zm5.81 1.51a2.94 2.94 0 0 0 2.83 3.04c1.97 0 2.83-1.23 2.83-1.46 0-.05-.08-.09-.12-.09-.21 0-.84.83-1.96.83a2.56 2.56 0 0 1-2.53-2.82c0-1.03.47-2.29 1.68-2.29a2.08 2.08 0 0 1 1.78.87c.04.06.2.33.34.33.07 0 .12-.1.12-.3 0-.18.01-.53-.02-.84-.04-.33-1.01-.53-1.73-.53a3.24 3.24 0 0 0-3.22 3.26m7.24-1.13c0-.79.63-1.8 1.52-1.8a1.64 1.64 0 0 1 1.59 1.52c0 .21-.08.28-.29.28Zm3.81.39c.33 0 .49.01.49-.24a2.64 2.64 0 0 0-2.53-2.28c-1.8 0-2.81 1.53-2.81 3.36a2.95 2.95 0 0 0 2.9 2.94 3.05 3.05 0 0 0 2.52-1.36c0-.05 0-.1-.05-.1-.32 0-.79.74-2.02.74-.87 0-2.3-.7-2.3-3.06Z"/>
    </g>
    <g id="logo-mark" fill="#58a66f">
      <path id="logo-mark-background" d="M17.76 16.99c-.03-.03-.07.04-.1.05.05-.01.05.02 0 .05.03.02.06-.03.1-.04-.03-.01.02-.05 0-.06m-5.73-1.91c0-.04.1-.05.1-.1.11 0 .12-.09.28-.11a1.44 1.44 0 0 1-.38.2m-.46.32c-.11.07-.17.2-.37.22.04-.12.38-.2.38-.3.11 0 .22-.1.18-.13.03 0 .05.02.07 0 .02 0-.06-.01 0-.04.06.05.13-.06.22-.04-.18.11-.33.19-.48.3m-.86.7-.05-.01c0-.04.1-.04.1-.02-.04 0-.06.01-.05.03m-.3 1.01c-.04-.02-.12.01-.08-.02.07.03.06-.03.12-.02a.67.67 0 0 0-.04.04m-.12-.25c-.08-.01.02-.04.03-.05.07 0-.04.02-.03.05m5.18-3.62c0 .02-.06.03-.06.04-.02 0-.1 0-.08-.01.03.02.1-.05.14-.03m.34-.19c.01 0 .07-.04.1-.02-.02 0 .02.02-.02.03-.03-.03-.03 0-.05.01 0-.02-.06 0-.03-.02m5.14-1.5c0 .02-.08.03-.1.03a.49.49 0 0 1 .1-.02m.19-.04c-.06.01-.08.03-.11.02a.35.35 0 0 1 .1-.02m1.94.19-.08.02.08-.02m.08-.01c-.02 0-.08.02-.07 0a.1.1 0 0 1 .07 0m.17-.03-.11.02c.02-.02.1-.04.11-.02m.43-.09-.34.07a2.15 2.15 0 0 1 .34-.07M12.3 16.86c.07-.01.1-.05.03-.08.01-.03.15-.03.08-.06.04-.02.05.01.09 0 .16-.14.38-.28.44-.41h-.02c-.02 0 0-.01.01-.03.02.01.08.02.04.03a1.12 1.12 0 0 0 .29-.26c.07 0 .1-.04.1-.08.08 0 .13-.1.21-.12a1.88 1.88 0 0 1 .35-.3c.03-.02.23-.1.22-.14.34-.21.56-.4 1.01-.65l.03-.04 1.27-.72c.38-.16.65-.33 1-.49.06-.02.14-.03.16-.08.25-.08.42-.18.67-.28.02 0 .05 0 .07-.02a24.28 24.28 0 0 1 3.74-1.2l.31-.08.46-.1c-.21.07-.5.1-.67.17l-.62.15a1.08 1.08 0 0 0-.2.07l-.02-.01c-.03 0-.04.02-.06.01v.02c-.57.13-1.11.33-1.6.48-.02.01-.01.02 0 .03.23-.09.48-.17.7-.24a.45.45 0 0 1 .09-.02l.14-.05c.34-.1.72-.22 1.1-.31a32.6 32.6 0 0 1 2.68-.57v.01a2.02 2.02 0 0 1 .32-.05v-.01h.02l.6-.08c.33-.05.64-.09.9-.11.4-.06.65-.06 1-.1.09-.03.26-.05.29-.07h.07c0-.02.02-.02.08-.03-.04 0-.03-.02.05-.03a.18.18 0 0 0-.08-.01c.06-.02.1-.04.05-.05.05 0 .07-.02 0-.02h.05l-.07-.04a.7.7 0 0 1 .07-.01h-.05c.08-.03.03-.04 0-.06h-.09l.04-.01-.77.04c-.02 0-.01 0-.01-.01h-.05.02a.62.62 0 0 1-.11.01.6.6 0 0 1-.2 0 1.03 1.03 0 0 1-.13.02h.04a.17.17 0 0 0-.08 0 .8.8 0 0 0-.18 0c-.04 0-.01.01-.01.01l-.1.01h.07a4.54 4.54 0 0 0-.48.02l-1.04.07-.12.02h.06c0 .01-.09.01-.08.02a.19.19 0 0 0-.05 0c.02 0 .05-.01.04-.02a1.98 1.98 0 0 0-.43.06.53.53 0 0 0-.12.02s-.06 0-.02-.02l-.1.02a.22.22 0 0 0 .06 0 2.84 2.84 0 0 1-.35.04c-.02.01 0 0 0 .01-.2 0-.52.07-.76.1a.53.53 0 0 1-.09.02 4.02 4.02 0 0 0-.56.08h.02-.04l-.88.16c0 .01.04 0 .07 0a.99.99 0 0 1-.12.03c-.02 0 .04-.01.02-.02l-.24.04a.73.73 0 0 1-.19.04c0 .03.08-.01.09 0l-.13.03.01-.01c-.04-.01 0 .02-.06.02l-.02-.01a3.06 3.06 0 0 0-.33.07l.1-.01a.77.77 0 0 1-.32.06l.1-.01.02-.01-.01-.01c-.1.03-.23.04-.34.08a1.76 1.76 0 0 0 .2-.04 3 3 0 0 1-.47.12s.03-.01.02-.02a.17.17 0 0 1 .04 0 .74.74 0 0 1 .2-.05 1.93 1.93 0 0 0-.35.07c0 .02.06 0 .06 0l-.35.1a.12.12 0 0 0 .07 0c-.04.01.01 0-.03.02l-.07-.01c-.03 0-.22.05-.19.06-.04.02-.03 0-.04 0l-.2.05c.02 0 .03 0 .04.02-.04 0-.01-.03-.06 0a.12.12 0 0 1 .01.01.23.23 0 0 1-.12 0c-.08.03.03.01.02.03-.04.01-.05 0-.07 0-.02 0-.07.02-.08 0-.03.02.03.01.02.03a.43.43 0 0 0-.16.06c-.03 0 .05-.01.01-.02-.04.02-.12.02-.12.05-.09 0-.09-.02-.18.02.1 0-.1.04 0 .04-.05.02-.03-.01-.07 0 0-.02.08-.02.06-.04-.03.01-.09.04-.1.03-.01.02-.04.04-.08.05-.04 0 0-.02.04-.03a1.96 1.96 0 0 0-.25.06c.02.03-.1.06-.07.08-.04 0-.04-.03-.07.01-.03 0-.07 0-.03.01a.2.2 0 0 0-.05.01c-.04-.01.07-.02.03-.03-.13.02-.17.05-.3.09h.04c.01.01-.06.02-.06.03a1.13 1.13 0 0 0-.19.03s.02.04.05.04a.19.19 0 0 0-.09.04c-.04 0-.03-.04.02-.03v-.04a.14.14 0 0 0-.09.06l-.07.01c.03.04-.05.01-.14.06.07-.01.03.01.02.03-.03 0 .01-.02-.02-.02a.46.46 0 0 0-.19.08c-.05-.01 0-.02-.03-.03-.03 0-.05.02-.04.02-.02-.02-.14.03-.18.06.03 0 .06 0 0 .02-.03 0 .01-.02-.03-.01-.03 0-.07.03-.08.02-.04.03.05 0 .05 0 .02.02-.04.02-.05.04-.02 0-.03-.01-.01-.02a.42.42 0 0 0-.14.04.07.07 0 0 1 .04.01.9.9 0 0 0-.27.07c.03.01.07 0 .06.02a.08.08 0 0 1-.07-.01l-.08.03.03.01c-.07-.01-.17.06-.23.07-.02.03.1-.03.12-.03v.03c-.16.02-.2.08-.38.12-.05 0 0 .02-.03.03.03.01.05-.02.02-.02.05-.02.04.02.06.02-.07 0-.12.03-.16.01-.05.01.01.02-.03.04l.07-.02c-.01.02-.05.02 0 .03-.03.02-.08 0-.1.03h.03c0 .02-.06 0-.08 0-.1.02-.19.07-.25.08.04 0-.04.02.01.03-.1 0-.05.03-.14.05a.15.15 0 0 1 .01-.03c-.03.03-.1.05-.15.1-.07 0-.03 0-.05-.02-.05.02-.03.03-.02.05-.05 0-.02.05-.12.05 0-.01 0-.03.03-.04-.09 0-.01.03-.11.04.06.01 0 .05.07.03l-.09.06c-.07-.02-.1.05-.19 0-.02.02 0 .02.03.05 0-.06.01 0 .07-.02a.95.95 0 0 1-.26.14c-.04-.02.01-.01.03-.03-.06 0 0-.03-.04-.04-.03.04-.09.04-.11.07.02.01.06-.02.08-.03.04.02-.06.04.03.03-.03.04-.05 0-.08.03.03.02-.1.04-.03.06a.13.13 0 0 1-.13-.02l-.05.02c.06-.01.04.04.08.01a.77.77 0 0 1-.17.06c.07.02-.02.02-.01.05-.03.02-.05-.02-.07 0 .04 0 .03.02.04.04-.05.01-.02-.03-.07-.02 0 .02.01.03-.03.03-.03.04-.23.09-.2.13-.01.01-.09-.01-.03-.02-.05 0-.04 0-.1.03a.11.11 0 0 0 .05 0c0 .06-.15.05-.2.07.08 0 .01.05-.07.1a.13.13 0 0 1-.1-.01.03.03 0 0 1-.03.02c-.03.02 0 .03.04.04-.02 0-.02.01-.01.02-.13 0-.13.07-.23.08.02 0 .02.01.02.02-.06-.01-.04.05-.14.06 0-.03-.02-.02-.07-.03-.04.02-.02.03.01.03-.03.01-.14.03-.1.06a.06.06 0 0 1-.03 0c.03.04.07-.04.14-.05.08.03-.1.02 0 .05a.4.4 0 0 1-.1.02c-.01.01.01.02.03.02a.77.77 0 0 0-.3.16c.09.02-.03.05-.08.06.08.02-.1.11-.15.07l-.04.04a.16.16 0 0 1 .05 0c-.09.04-.1.1-.2.1 0 0-.02.02 0 .03-.03 0-.02-.01-.05-.02-.04.03-.02.04-.07.06h.04c-.14.12-.22.16-.32.24.03.02.09-.02.07 0 .07 0 .04-.01.1-.03.03 0 .03.02.05.02-.08.06-.25.11-.17.17-.1-.01-.17.08-.23.11.03.02.06.02.07 0 .02 0 0 .02.02.03-.05 0-.1 0-.14.02.03 0 .07.01.09-.02.03.01-.04.05-.06.05-.03 0-.02-.02-.06-.02l-.17.15c.11 0 0 .04.06.05l.1-.1c.03.07-.09.1-.13.15 0 .01.1.02.11 0 .03.05-.08.04-.05.08-.06 0-.04-.03-.04-.06a.1.1 0 0 0-.1.04c-.03-.03.06-.06-.06-.06.03-.05.08.01.1-.02-.1-.02.01-.02-.01-.04a.39.39 0 0 0-.15.1c.02 0 .02-.02.05-.02-.03.04-.03.04-.12.07.06.01.11.03.13 0 .02.03-.1.03-.13.04.04.01.08.02.07.06h-.06c-.02.01 0 .02-.03.04.06.01.01.04.09.05-.16.05-.1.13-.25.2.14.02.16-.13.22-.09.02.02-.03.07-.1.1l.04.03c-.07 0-.03.02-.1.03h.04c-.03.04-.1.02-.12.06l.06.01c-.09.03-.04.1-.13.12.07 0 .1-.09.2-.1.04.02-.02.05.05.07a.14.14 0 0 0-.12.08h.07c-.03.04-.03.04-.1.05.06.02 0 .03 0 .05.09-.03.18-.1.17-.17.05 0 .1 0 .1-.04.12.04-.19.12-.1.17l-.08.02c.06.04.03.02 0 .07a.06.06 0 0 0 .08-.03.29.29 0 0 1 .07 0c.06.02-.03.02-.03.05.04 0 .05.02.04.03h.07c-.03.02.08.05.13.07 0 .02-.08-.02-.07.02h.05c-.04.05-.13.07-.06.11h.1c.14-.03.12-.1.24-.15.04 0-.02.03-.02.05.07.02 0-.04.1-.02.04.06-.13.08-.13.17a.57.57 0 0 0 .16-.1c0 .04-.06.07-.02.12.03-.02.1 0 .15 0 0 .07-.03.08-.08.14.03 0 .03.02.02.03a.05.05 0 0 0 .07-.04c.1.03-.03.05.04.07.06 0 .02-.02.06-.03a.1.1 0 0 1-.02.09l.16-.1.02.01a.78.78 0 0 0 .12-.16c.17-.04.2-.24.35-.28.04-.13.3-.22.37-.35.06 0 .08.02.14 0 0-.02-.04 0-.06 0m.95-2.64c-.03-.02-.07.02-.1.03.04 0 .04.01 0 .03.02.01.06-.02.09-.02-.02 0 .03-.03.01-.04m.26 2.61c-.03-.02-.07.04-.11.05.05 0 .05.02 0 .05.03.02.06-.03.1-.04-.02 0 .03-.04.01-.06m2.85-1.94c-.03-.03-.03 0-.05.02 0-.02-.08.01-.04-.02.02.01.08-.07.11-.04-.03.02.02.03-.02.04m-.53.38c-.02-.02-.1 0-.09-.02.04.02.12-.08.16-.05-.01.02-.07.05-.07.07M22 12.43c0 .03-.08.05-.1.04a.51.51 0 0 1 .1-.04m.21-.05c-.06.02-.09.04-.12.03a.34.34 0 0 1 .12-.03m2.09.25c-.03.01-.11.05-.1.02l.1-.02m.1-.02c-.03.02-.1.03-.08.01a.09.09 0 0 1 .07 0m.2-.05c-.05 0-.1.02-.13.03.03-.03.12-.05.12-.03m.48-.13-.38.1a2.02 2.02 0 0 1 .38-.1m-7.04 3c.07-.04.15-.05.17-.12.28-.13.47-.29.74-.44l.09-.04a20.08 20.08 0 0 1 4.19-1.88l.35-.13.52-.14c-.25.1-.56.16-.77.25l-.68.23a1.08 1.08 0 0 0-.25.1h-.01c-.03 0-.05.03-.06.01-.02.01-.02.02-.02.03a19 19 0 0 0-1.8.76v.03l.8-.37.1-.04.16-.07c.38-.16.81-.34 1.23-.49a23.76 23.76 0 0 1 3.02-.82h.01a1.84 1.84 0 0 1 .36-.06.06.06 0 0 1 0-.02h.01l.7-.1c.35-.06.7-.11 1-.14.45-.07.72-.07 1.13-.11.09-.03.29-.06.31-.08l.09-.01.1-.04c-.05 0-.04-.02.06-.03 0-.02-.04-.02-.09-.02.06-.02.12-.05.07-.06.05-.02.08-.03.01-.03a.45.45 0 0 0 .05-.02c-.06-.02-.08-.04-.07-.06a.4.4 0 0 1 .08 0h-.06c.1-.04.04-.07.01-.1h-.09l.04-.01c-.2-.01-.55 0-.86.02-.02 0 0 0 0 0a.05.05 0 0 0-.03 0 .4.4 0 0 0-.03 0h.02a.58.58 0 0 1-.12 0 .52.52 0 0 1-.21 0 1.04 1.04 0 0 1-.16.02l.05-.01c-.02-.01-.07 0-.09.01a.69.69 0 0 0-.2 0h-.01c-.03.02-.09.02-.12.02-.02-.01.08 0 .08-.01a3.87 3.87 0 0 0-.54.02l-1.15.09-.14.02c-.02.02.06 0 .07 0-.01.02-.1.02-.1.03a.1.1 0 0 0-.05 0c.02 0 .06-.01.05-.03a1.8 1.8 0 0 0-.5.08.48.48 0 0 0-.12.03s-.08 0-.03-.02l-.11.01a.16.16 0 0 0 .07 0 2.6 2.6 0 0 1-.39.07c-.03.01 0 0 0 .02a8.44 8.44 0 0 0-.86.13.64.64 0 0 1-.1.04 3.72 3.72 0 0 0-.63.12h.02-.04c-.31.07-.61.17-.99.25 0 .02.05 0 .08 0a1.1 1.1 0 0 1-.15.05c-.01-.01.05-.02.04-.03a2.52 2.52 0 0 1-.28.06.68.68 0 0 1-.2.06c-.02.05.09-.02.09 0s-.1.03-.14.05l.01-.02c-.05-.01-.01.03-.07.03l-.02-.01a2.8 2.8 0 0 0-.37.11c0 .01.06 0 .11-.02a.73.73 0 0 1-.35.1l.1-.02.02-.01a.07.07 0 0 1 0-.02c-.12.06-.27.08-.39.14a1.7 1.7 0 0 0 .21-.07 3.16 3.16 0 0 1-.51.2c0-.02.04-.02.02-.04a.14.14 0 0 1 .05.01.76.76 0 0 1 .22-.09 1.93 1.93 0 0 0-.4.11c0 .03.08 0 .08.02l-.4.15.08-.01c-.05.02.01.01-.04.04l-.07-.02c-.04.01-.25.08-.21.1-.05.03-.04 0-.05 0l-.22.08a.04.04 0 0 1 .04.03c-.05.02 0-.05-.07 0a.23.23 0 0 1 .02.02c-.07.02-.12.03-.14.01-.08.04.04 0 .02.04-.04.02-.05 0-.07-.01-.02 0-.08.04-.09.03-.04.01.04 0 .02.02a.48.48 0 0 0-.18.1c-.04 0 .05-.02.01-.03-.04.03-.13.04-.14.07-.09.03-.09 0-.19.04.11 0-.1.07-.01.07-.05.04-.03-.02-.07 0 0-.03.1-.02.07-.05-.04 0-.1.05-.12.04 0 .03-.04.06-.1.08-.03 0 .02-.03.06-.04a1.6 1.6 0 0 0-.27.1c.01.04-.12.09-.1.11-.03.01-.03-.03-.06.03-.03 0-.08 0-.03.01a.2.2 0 0 0-.06.02c-.04-.01.07-.04.03-.05-.14.05-.18.09-.33.15h.05c0 .02-.07.04-.07.05a.95.95 0 0 0-.2.06s.01.05.04.05c-.06.03-.07.03-.1.06-.04.02-.03-.04.02-.05v-.04c-.07.03-.06.05-.1.1-.03 0-.03-.01-.07.01.03.05-.05.01-.15.1.07-.03.02 0 .02.03-.04.02 0-.02-.03-.02-.11.05-.15.06-.2.13-.06-.01-.01-.02-.03-.05-.04.02-.06.03-.05.05-.03-.03-.16.05-.2.09.04-.01.06 0 0 .02-.04.02.01-.02-.03 0-.03 0-.07.05-.09.03-.04.05.05 0 .05 0 .02.03-.04.03-.06.06 0 0-.02-.02 0-.03a.48.48 0 0 0-.15.07.05.05 0 0 1 .04.02.78.78 0 0 0-.3.12c.03 0 .08 0 .06.02a.07.07 0 0 1-.07-.01l-.09.05c0 .02.03 0 .04.01-.07 0-.19.1-.25.12-.03.05.1-.04.13-.04v.03c-.18.05-.22.14-.42.2-.05.03.01.04-.03.06.03.02.06-.03.02-.04.06-.02.04.03.06.04-.07 0-.13.05-.17.02-.05.03.01.04-.03.06l.07-.03c0 .03-.05.03 0 .04-.03.04-.08 0-.11.06.02 0 .02-.03.04-.02 0 .05-.07.03-.1.02-.1.04-.2.12-.26.13.05.01-.04.04.01.05-.1.02-.05.04-.15.1a.37.37 0 0 1 .01-.06c-.03.05-.1.08-.17.16-.06.02-.03 0-.05-.03-.05.04-.03.06-.02.08-.06 0-.02.08-.13.09 0-.02 0-.05.04-.07-.1.01-.02.04-.13.07.07.02 0 .07.08.05l-.1.09c-.07-.03-.11.07-.2.01-.02.03 0 .04.03.07 0-.08.01.01.08-.03a1.22 1.22 0 0 1-.28.23c-.04-.03.01-.02.03-.04-.06-.01 0-.04-.04-.06-.03.06-.1.06-.12.11.02.01.06-.04.09-.05.03.02-.07.07.03.04-.03.05-.06.01-.09.05.03.02-.11.07-.03.1a.1.1 0 0 1-.14-.03l-.05.04c.06-.02.04.06.09.01a.76.76 0 0 1-.18.1c.06.02-.03.04-.02.08-.03.03-.05-.03-.08.01.05 0 .03.03.05.04-.05.03-.03-.03-.07-.01 0 .02 0 .03-.04.04-.03.06-.25.15-.2.22-.02.02-.1-.01-.04-.04-.06 0-.04.02-.1.06a.09.09 0 0 0 .05-.01c0 .1-.16.1-.2.13.07 0 0 .07-.09.14a.1.1 0 0 1-.1.01c0 .01-.02.04-.04.03-.02.03 0 .04.04.05-.01.02-.02.03 0 .03-.14.01-.14.12-.24.15.01 0 .02.02.01.03-.06-.02-.04.07-.14.1 0-.04-.03-.02-.08-.04-.03.03-.02.05.02.04a.78.78 0 0 0-.1.06l.04.01a.22.22 0 0 1 .06-.05c.07.02-.03.04-.02.06l.17.04a.3.3 0 0 1 .08-.04l-.05.04 1.98.44a12.9 12.9 0 0 1 .96-.91c-.01-.02.01-.04.02-.06.42-.37.96-.8 1.38-1.15.41-.27.7-.53 1.1-.79m10.53-2.37a1.71 1.71 0 0 1 .37-.07l-.37.07m-.22.04c.04-.03.13-.04.13-.02l-.13.02m-.13.01c.04-.01.07-.01.07 0-.02 0-.08.02-.07 0m-.02.01c-.03 0-.1.03-.09.01l.1-.01m-2.02-.44a.28.28 0 0 1 .13-.02c-.07.02-.1.04-.13.02m-.19.05a.43.43 0 0 1 .1-.03c0 .03-.08.04-.1.03M20.52 15c-.03-.04-.03 0-.05.02 0-.02-.07 0-.03-.03.01.01.08-.07.1-.04-.02.02.02.03-.02.05m-.52.37c-.02-.01-.1 0-.08-.02.03.03.11-.07.15-.04-.01.02-.07.04-.07.06m-3.44 3.07c0-.06.1-.1.09-.15.12-.02.12-.16.28-.22-.15.15-.22.3-.37.37m16.71-5.86-.05-.01c.1-.03.05-.06.03-.1l-.07-.01h.03a6.83 6.83 0 0 0-.78-.1c-.02 0 0 0 0 0h-.03l-.03-.01h.02a.5.5 0 0 1-.1 0 .4.4 0 0 1-.2-.03.72.72 0 0 1-.15 0c-.04-.01.03-.01.04-.01h-.08a.5.5 0 0 0-.18-.03c-.04 0-.02 0-.02.01h-.1.08a3 3 0 0 0-.5-.05l-1.08-.04-.13.02c-.03.01.05 0 .06.01l-.1.01h-.05c.03 0 .06-.01.05-.03a1.53 1.53 0 0 0-.46.04.47.47 0 0 0-.13 0s-.07 0-.02-.02h-.1a.16.16 0 0 0 .06.01 2.37 2.37 0 0 1-.37.03c-.04.01 0 0-.01.02a6.74 6.74 0 0 0-.82.06.61.61 0 0 1-.1.03 3.18 3.18 0 0 0-.61.07h.01-.03l-.97.18c0 .02.05 0 .07 0a1.2 1.2 0 0 1-.14.05c0-.02.05-.02.04-.04a2.4 2.4 0 0 1-.26.05.6.6 0 0 1-.21.05c-.02.04.09-.02.09.01 0 .01-.1.01-.14.03l.01-.02c-.04-.01-.01.03-.07.03-.02 0 0 0-.02-.02a2.4 2.4 0 0 0-.36.1c0 .01.06 0 .1-.02a.67.67 0 0 1-.34.09l.1-.02.02-.01a.05.05 0 0 1 0-.02c-.12.05-.26.06-.38.12a1.92 1.92 0 0 0 .21-.05 2.96 2.96 0 0 1-.51.16c0-.01.04-.02.03-.03a.08.08 0 0 1 .04.01.72.72 0 0 1 .22-.08 1.7 1.7 0 0 0-.39.1c0 .02.07-.02.07.01l-.4.14.08-.01c-.05.02.01.02-.04.04l-.07-.03c-.04.02-.24.08-.2.1-.06.03-.04 0-.05-.01-.08.04-.12.04-.22.08a.03.03 0 0 1 .03.03c-.04.02 0-.05-.06-.01a.14.14 0 0 1 .01.03c-.06.02-.1.02-.13 0-.08.04.04.01.02.04-.05.02-.06 0-.07-.01-.02 0-.08.04-.08.02-.05.02.03 0 .01.03a.47.47 0 0 0-.18.1c-.04-.01.04-.02.02-.04-.05.04-.14.04-.15.08-.09.02-.08-.02-.18.03.1 0-.1.06-.02.07-.05.03-.02-.02-.06 0 0-.04.08-.03.07-.06-.04.01-.1.05-.12.04a.18.18 0 0 1-.1.08c-.03-.01.01-.03.06-.04-.1 0-.17.07-.27.1.01.04-.12.08-.1.1-.03.01-.03-.03-.06.03-.04 0-.08 0-.04.01a.17.17 0 0 0-.05.02c-.04-.02.07-.04.03-.05-.13.04-.18.08-.33.14h.05c0 .02-.07.04-.07.06-.07.02-.15.01-.2.05 0 0 .02.05.05.05a.21.21 0 0 0-.1.07c-.05.01-.03-.06.02-.05v-.06c-.06.04-.07.06-.1.1-.03.02-.03 0-.07.02.02.05-.05.01-.15.09.07-.02.02.01.01.04-.04.02.01-.02-.02-.03-.11.06-.14.06-.2.13-.05 0-.01-.02-.03-.05l-.05.05c-.02-.03-.15.05-.2.09.04-.01.07 0 .01.03-.04.01.01-.02-.03-.01-.03 0-.08.05-.09.03-.04.05.05 0 .05 0 .02.04-.05.03-.06.06 0 0-.02-.01 0-.03a.45.45 0 0 0-.15.08.04.04 0 0 1 .04 0 .77.77 0 0 0-.28.13c.02.01.06 0 .05.03a.06.06 0 0 1-.07-.02l-.09.06h.04c-.07 0-.19.1-.25.12-.02.06.1-.04.13-.04v.04c-.17.05-.21.14-.4.2-.06.03 0 .04-.04.06.02.01.05-.04.02-.04.05-.02.04.03.05.04-.06 0-.12.05-.16.02-.05.02.01.03-.03.06l.07-.03c0 .03-.05.03 0 .04-.03.04-.08 0-.11.06.02 0 .02-.03.04-.02 0 .05-.07.03-.09.02-.1.04-.2.12-.26.14.05 0-.03.03.01.04-.1.02-.05.05-.14.1a.4.4 0 0 1 0-.05c-.03.04-.09.07-.16.16-.06.02-.03 0-.04-.03-.06.03-.04.06-.02.08-.06 0-.03.08-.13.09 0-.02 0-.04.03-.07-.09.01 0 .05-.12.08.07.01 0 .07.08.04l-.1.1c-.07-.03-.1.07-.19.01-.02.03 0 .03.03.07 0-.08.01.01.07-.03a1.21 1.21 0 0 1-.26.23c-.05-.02 0 0 .03-.04-.07 0-.01-.04-.04-.05-.04.06-.1.06-.12.11.02.01.06-.04.09-.06.03.03-.07.08.02.05-.03.06-.05 0-.08.05.03.03-.1.07-.03.1a.1.1 0 0 1-.13-.03l-.05.05c.06-.03.04.06.08 0a.68.68 0 0 1-.17.11c.06.02-.02.04-.02.08-.02.03-.04-.03-.07.02.05-.01.03.02.05.04-.05.03-.03-.04-.07-.02 0 .02 0 .04-.04.05-.02.06-.23.16-.2.22 0 .02-.08-.01-.03-.03-.05 0-.04.02-.1.05a.07.07 0 0 0 .05 0c0 .1-.15.1-.19.13.08 0 0 .07-.07.15-.04.02-.07.03-.1 0 0 .02-.01.05-.04.04-.02.03.01.04.04.06v.03c-.13 0-.13.12-.22.16.01 0 .02 0 .01.02-.06-.01-.04.08-.14.1.01-.03-.02-.02-.07-.04-.03.04-.01.06.02.05-.03.02-.14.07-.1.1 0 .02-.02.01-.03.01.03.06.07-.06.14-.1.08.04-.1.06 0 .1-.03 0-.06.04-.1.03-.01.02.02.02.03.03a.84.84 0 0 0-.28.27c.08.03-.03.08-.08.1.08.02-.08.19-.14.13a.07.07 0 0 1-.01.03l.15.04c.02-.04.04-.09.02-.1h.06c.02-.03-.06-.02 0-.07.06.06.12-.11.21-.1l-.24.28 1.93.42.15-.2c.04-.04.22-.17.21-.24a14.45 14.45 0 0 1 1-1.06l.03-.06c.39-.37.9-.82 1.3-1.17.4-.27.7-.53 1.08-.78.06-.04.13-.05.16-.12.27-.13.45-.28.72-.43l.09-.04a16.04 16.04 0 0 1 4.11-1.69l.35-.1.5-.1c-.24.08-.54.11-.75.2a9 9 0 0 0-.67.18 1.14 1.14 0 0 0-.24.08h-.01c-.03 0-.05.02-.06.01-.02 0-.01.01-.02.02a15.21 15.21 0 0 0-1.76.67c-.02.01 0 .03 0 .04l.78-.34a.79.79 0 0 1 .09-.03l.16-.06c.37-.15.8-.3 1.2-.42a17.78 17.78 0 0 1 2.93-.58h.01a1.6 1.6 0 0 1 .34-.03.1.1 0 0 1 .01-.02c.02 0 .01.01 0 .02.21-.03.45-.04.66-.05.34-.01.67-.03.95-.02.42-.02.66.02 1.04.03.09-.02.27-.02.3-.04h.08c.01-.02.04-.02.1-.03-.04-.01-.02-.03.07-.03l-.07-.03c.05-.01.1-.03.07-.06.05 0 .08-.02.02-.03a.4.4 0 0 0 .05 0c-.05-.03-.06-.06-.05-.07a.35.35 0 0 1 .07 0"/>
      <path id="logo-mark-foreground" d="M6.3 18.43c.03 0 .13 0 .1-.01h-.1v.01m-.11.01c.03 0 .1 0 .08-.01a.12.12 0 0 0-.08.01m-.22.02.14-.01c-.03-.01-.15 0-.14.01m-.56.05.45-.04a2.71 2.71 0 0 0-.45.04m18.91 2.27.07.04c.04-.05.15-.04.09-.07-.08.07-.1-.01-.16.03m.03-.4c-.09.04.05.02.06.06.1-.05-.04-.04-.06-.06m-3.52-1.77a2.02 2.02 0 0 0 .57.13c-.03-.05-.16-.03-.16-.08-.15.04-.2-.08-.4-.05m2.6.97c.05-.02.08-.01.08.01l.05-.03c-.03-.04-.15 0-.13.02M16.3 17.6l.1.03c.02-.02.12-.04.09-.05-.03.04-.16-.02-.19.02m5.76 1.26c-.13.04-.3-.03-.28-.1-.03.02-.05.05-.08.04-.02-.01.07-.05-.02-.05-.05.07-.19-.04-.29.01.27.09.5.14.74.21.16.06.3.19.55.15-.1-.13-.56-.12-.62-.26m-6.4-1.38c.04 0 0 .03.04.03.02-.04.04-.01.06 0 0-.02.09-.02.03-.04 0 .02-.1-.03-.13.01m-6.73-.06a.6.6 0 0 0-.12 0c.01.02.1.01.12 0m-.37.03c.08-.01.1 0 .14-.02a.44.44 0 0 0-.14.02m-6.69 1.1a.94.94 0 0 1 .22-.07h.02c.03 0 .1 0 .13-.02l-.1.02a5.69 5.69 0 0 1 .6-.15l1.3-.29.15-.02c.03 0-.06.02-.07.03l.12-.01a.14.14 0 0 1 .05-.02h-.06a2.42 2.42 0 0 1 .56-.1.75.75 0 0 1 .15-.01c-.01 0 .08-.03.03-.03l.12-.02a.25.25 0 0 1-.08.02 3.5 3.5 0 0 0 .45-.07c.03 0 0 0 0 .02.25-.08.67-.11.98-.17a.65.65 0 0 0 .11 0 5.08 5.08 0 0 1 .73-.1h-.02c.03 0 .04 0 .04-.02.36-.03.71-.05 1.15-.1l-.08.02a1.33 1.33 0 0 0 .17 0c0-.02-.06 0-.05-.03.17-.02.18 0 .32-.03a.82.82 0 0 0 .24-.02c.02.04-.1.01-.1.04l.17-.02H9.1c.05-.03.01.01.08 0 .03 0 0 0 .02-.03a3.69 3.69 0 0 1 .44-.02l-.13.02a.95.95 0 0 0 .42-.04l-.13.02h-.02a.08.08 0 0 0 0-.02c.15 0 .31-.03.46-.01l-.25.01a3.83 3.83 0 0 0 .62-.01c-.02 0-.05 0-.04-.02a.12.12 0 0 0-.05.02.93.93 0 0 0-.26 0 2.42 2.42 0 0 1 .46-.04c.01.02-.08.01-.07.04.17 0 .33-.02.47 0h-.09c.06.01-.01.03.05.03.02 0 .05-.03.08-.05.04 0 .3 0 .26.02.06 0 .04-.02.05-.03h.26c-.02.01-.03.02-.03.04.05 0 0-.04.07-.03l-.01.03a.25.25 0 0 0 .16-.04c.1 0-.04.02-.02.04.06 0 .06-.01.08-.03l.1-.01c.05 0-.03.01-.01.03a.54.54 0 0 1 .23.03c.03-.03-.06 0-.03-.03.06.01.16-.02.18.01.1-.01.1-.04.22-.04-.12.05.13.02.03.06.07.01.03-.03.07-.02 0-.04-.1 0-.09-.03h.15c.02.02.06.03.12.04.04-.03-.01-.03-.07-.03a2.14 2.14 0 0 1 .34-.01c-.01.05.15.03.12.07.05 0 .04-.05.09 0 .04-.01.09-.03.04 0a.23.23 0 0 1 .06-.01c.05-.03-.09 0-.04-.04h.4c0 .02-.03.02-.05.03 0 .02.09 0 .1.02a1.37 1.37 0 0 1 .24-.03s-.01.05-.04.07a.26.26 0 0 1 .13.01c.05 0 .02-.05-.04-.03-.01-.02.01-.02-.01-.05a.19.19 0 0 1 .13.05c.04 0 .04-.02.1-.01-.03.05.05 0 .19.02-.1.01-.03.02-.01.05.05 0-.02-.02.02-.04a.59.59 0 0 1 .26.04c.06-.03 0-.02.02-.06.05 0 .07.01.07.03.02-.04.19-.02.25 0-.05 0-.07.02 0 .03.05 0-.02-.02.04-.03.03 0 .1.02.1 0 .07.02-.05.01-.06.02 0 .04.07 0 .09.03.01-.01.02-.03 0-.03a.61.61 0 0 1 .18 0 .07.07 0 0 0-.04.03 1.03 1.03 0 0 1 .36 0c-.02.02-.07.02-.05.04a.1.1 0 0 0 .07-.04l.12.01c0 .02-.03.01-.04.03.08-.04.24 0 .31 0 .05.04-.12 0-.16.01 0 .02.03.02.02.04.21-.03.28.03.52 0 .07 0 0 .04.06.04-.03.03-.08 0-.04-.02-.07 0-.04.04-.05.05.08-.03.15 0 .19-.04.07 0 0 .03.05.03-.02.02-.06 0-.09 0 .02.03.07.02 0 .05.06.01.1-.04.16 0-.02.01-.03-.02-.05 0 .01.04.09 0 .1-.02.13 0 .27.02.35 0-.06.04.05.02 0 .05.12-.02.07.02.2.02a.25.25 0 0 0-.03-.04c.05.03.13.03.23.08.09-.02.04-.02.05-.05.08 0 .06.03.05.06.06-.03.05.06.18.02-.02-.02-.02-.04-.07-.05.11-.02.03.04.16.02-.06.04.03.06-.07.07l.13.05c.09-.06.16.01.23-.08.04.02.02.03 0 .07-.03-.06-.01.02-.1 0a1.39 1.39 0 0 0 .38.1c.05-.04-.01-.01-.04-.03.07-.03 0-.04.02-.07.06.04.13.02.18.05-.03.02-.09-.01-.12-.01-.03.04.1.03-.02.06.05.03.06-.02.11 0-.03.04.15.01.08.08a.15.15 0 0 0 .13-.09l.08.02c-.08 0-.03.06-.1.04a.93.93 0 0 0 .24.01c-.07.05.04.03.04.07.04 0 .05-.06.1-.02-.06 0-.04.03-.05.05.07 0 .02-.04.08-.05 0 .02 0 .04.06.03.02-.02-.06-.02-.04-.05.03-.03.1 0 .15 0-.07 0-.06.03.01.04-.03.03-.08 0-.12.01.05.04.32.03.3.1.02.01.1-.05.03-.05.06-.02.05 0 .13.01a.12.12 0 0 1-.06.01c.03.1.21.02.27.03-.09.03.02.06.14.1a.15.15 0 0 0 .12-.05.04.04 0 0 0 .05.02c.04.01.01.04-.03.06.03 0 .03.01.03.02.14-.04.19.05.31.03-.02.02-.02.03 0 .03.06-.04.06.05.2.03-.03-.03 0-.03.06-.07.05.01.04.03 0 .04.05 0 .19 0 .15.05.02 0 .03 0 .05-.02-.02.07-.11-.02-.2-.01-.1.07.14 0 .01.08a.54.54 0 0 0 .14-.02c.02.01 0 .03-.02.04a1.06 1.06 0 0 1 .44.1c-.1.06.06.04.13.04-.1.06.17.11.22.04 0 .02.02.03.07.04a.18.18 0 0 0-.07.03c.13.01.17.09.3.04 0 .01.04.02.02.04.03 0 .01-.02.04-.04.06.03.05.04.12.05-.02 0-.03.02-.05.03.23.1.35.11.5.18-.01.04-.11 0-.08.04-.08.02-.05-.01-.13-.02-.04.02-.03.04-.05.05.12.05.35.06.29.16.12-.06.24.05.33.07-.03.02-.06.03-.08.02-.02.01.02.02 0 .04.05-.02.12-.05.17-.02-.04.01-.08.04-.11 0-.04.04.06.05.09.05l.05-.05.3.13c-.14.05.02.06-.05.1l-.18-.09c0 .1.16.1.23.14.02 0-.1.07-.13.03 0 .08.12.03.1.1.07-.04.03-.07.03-.1a.12.12 0 0 1 .14.01c.01-.05-.1-.06.04-.1-.07-.05-.09.05-.14.01.11-.05-.02-.02 0-.06a.54.54 0 0 1 .23.07l-.07.01c.05.04.06.04.17.04-.05.04-.11.08-.15.05 0 .05.15 0 .18 0-.04.04-.08.06-.06.1.02.01.05 0 .07-.02.04.02.01.04.07.06-.07.03 0 .05-.09.08.22.02.2.14.4.18-.16.08-.25-.12-.3-.04-.02.04.07.1.18.1-.04.02-.02.03-.05.05.08-.02.05.02.13 0 .01.02-.02.01-.04.03.05.03.13-.02.17.03l-.06.03c.12 0 .1.1.21.1-.07.04-.16-.07-.27-.04-.05.03.03.06-.04.1a.2.2 0 0 1 .19.06c-.03.02-.06 0-.1.02.06.05.06.06.16.05-.07.03.01.03.02.06-.12-.01-.27-.07-.3-.16-.05.01-.1.03-.14-.01-.12.09.3.07.21.18.04-.02.08 0 .11 0-.06.07-.03.02.03.09a.09.09 0 0 1-.1-.02.28.28 0 0 0-.09.02c-.07.05.04.03.07.07-.05.02-.06.04-.04.05-.03 0-.06.03-.09.02.04.02-.08.1-.12.15.02.03.09-.06.1-.01l-.06.04c.06.03.18.03.12.11 0-.02-.21.05-.13.04-.17.01-.18-.1-.35-.12-.05.03.04.04.05.06-.08.06-.03-.05-.13.02-.02.08.19.06.23.17a.79.79 0 0 1-.24-.07c.02.05.1.07.08.14-.04 0-.12.06-.17.06.03.1.07.1.16.16-.04.02-.03.03-.02.04a.07.07 0 0 1-.1-.02c-.1.07.07.06 0 .11-.08.02-.04-.02-.1-.02 0 .09.16.16.21.21-.1.04-.25-.06-.32-.1a1.26 1.26 0 0 1-.3-.21c-.23 0-.37-.25-.57-.25-.12-.15-.48-.18-.63-.31-.07.02-.08.05-.16.06-.02-.04.05-.02.06-.03-.08 0-.15-.04-.08-.1-.02-.04-.19.01-.11-.05-.07 0-.06.03-.11.04a3.45 3.45 0 0 1-.76-.38c.02-.02.03 0 .04 0 .02-.02-.01-.03-.03-.04-.03.02-.1.05-.04.06a1.75 1.75 0 0 1-.48-.24.15.15 0 0 1-.17-.07c-.1.02-.2-.08-.3-.08a2.74 2.74 0 0 0-.57-.26c-.06-.02-.33-.05-.35-.12-.52-.14-.89-.3-1.56-.46 0-.02-.03-.03-.05-.05l-1.9-.47c-.55-.08-.96-.2-1.47-.27-.08-.02-.18 0-.23-.05-.34-.01-.6-.08-.95-.12h-.1a30.53 30.53 0 0 0-5.14-.18h-.43l-.6.05c.29 0 .65-.05.9-.03.19-.02.6-.03.82-.03a1.31 1.31 0 0 1 .29 0l.02-.01c.03 0 .06.01.07 0l.02.01c.75-.03 1.5.03 2.19.05.02 0 0 .02 0 .03l-.98-.05h-.3a39.53 39.53 0 0 0-5.03.25h-.01a2.37 2.37 0 0 0-.4.06l-.02-.01h-.01l-.79.12-1.15.2c-.5.07-.8.15-1.26.23-.1 0-.33.04-.37.02l-.09.02H.34c.05-.03.04-.04-.07-.02 0-.02.04-.03.09-.05-.07 0-.13 0-.09-.03-.06 0-.08-.01-.01-.03H.2c.06-.03.08-.06.07-.08a.6.6 0 0 0-.1.03l.07-.03c-.1 0-.05-.04-.02-.08.05-.02.03-.02.1-.03H.26c.22-.07.62-.16.96-.24.02 0 0 0 0 0a.06.06 0 0 1 .03-.01l.04-.01c.03 0-.05 0-.03.01a.75.75 0 0 0 .13-.04.7.7 0 0 0 .24-.06 1.36 1.36 0 0 0 .18-.03h-.06a.2.2 0 0 1 .1-.01m4.42 2.77c.03 0 .12.04.1 0l-.1-.01v.01m-.1-.02c.02.02.1.03.08 0-.04-.02-.07-.01-.08 0m-.21-.04.14.03c-.04-.03-.14-.05-.14-.03m-.53-.09.42.07a1.66 1.66 0 0 0-.42-.07M20.5 32.56l.03.09c.05-.04.12.03.1-.04-.1.05-.06-.07-.13-.05m.22-.53c-.08 0 .03.05.02.12.08-.02-.01-.09-.02-.12m-1.86-4.38c.16.2.23.4.4.49 0-.08-.11-.12-.1-.2-.13-.03-.12-.22-.3-.3m1.6 2.77c.03.01.06.04.05.07l.05-.02c0-.07-.11-.08-.1-.05m-5.03-6.44c0 .03.07.06.08.1.02-.03.11-.01.09-.04-.04.04-.13-.1-.17-.06m4.28 4.7c-.12-.01-.22-.22-.17-.29-.03 0-.06.04-.08.01-.01-.03.07-.03 0-.09-.07.09-.12-.15-.23-.13.18.27.34.45.49.7.1.16.15.42.36.5-.02-.24-.38-.47-.37-.7m-4.8-5.17c.02.03-.02.04.02.07.03-.05.04 0 .06.02 0-.03.07 0 .03-.04-.01.02-.08-.09-.12-.05m-6.1-2.8a.4.4 0 0 0-.11-.03c.01.03.1.05.12.03m-.36-.07c.08 0 .1.04.14.02a.28.28 0 0 0-.14-.02m-6.39-.28a.52.52 0 0 1 .21-.05c.05 0 .02.01.02.02h.13c.01-.03-.09 0-.1-.01a3.08 3.08 0 0 1 .58-.08l1.23-.1c.04.02.11.01.15.02.03.02-.06.01-.07.02l.11.01.05-.01c-.02 0-.06 0-.05-.03.1 0 .46-.03.53.03a.41.41 0 0 1 .15.01c-.02-.01.07 0 .02-.03h.12a.15.15 0 0 1-.08.01 2.26 2.26 0 0 0 .43.02c.04.02 0 .01 0 .03a6.37 6.37 0 0 1 .94.04l.1.05a2.95 2.95 0 0 1 .7.06h-.01.03c.35.05.69.15 1.1.2.01.03-.05.02-.08.02a.93.93 0 0 0 .16.05c.01-.02-.05-.03-.04-.05a2.62 2.62 0 0 0 .3.06.61.61 0 0 0 .24.06c0 .06-.1-.02-.1.02l.15.03-.02-.02c.05-.02.02.04.08.04.03 0 0-.02.02-.03a2.22 2.22 0 0 1 .41.11c0 .02-.06 0-.12-.01a.64.64 0 0 0 .4.1l-.12-.02-.02-.01a.14.14 0 0 0 0-.03 4.47 4.47 0 0 1 .43.15 1.64 1.64 0 0 1-.24-.07 2.78 2.78 0 0 0 .58.2c-.01 0-.04-.02-.03-.03a.08.08 0 0 0-.05.01.68.68 0 0 0-.25-.1c.12-.02.29.08.44.11 0 .04-.08 0-.07.03.16.06.3.1.43.17l-.08-.01c.05.03-.01.02.05.06l.07-.05c.04.03.27.1.24.13.05.03.04 0 .05-.02.09.05.13.05.24.1a.04.04 0 0 0-.04.04c.05.02 0-.06.08-.01l-.02.04c.07.02.13.03.15 0 .1.05-.04.01-.02.06.05.02.06 0 .07-.03.03 0 .1.05.1.03.05.03-.03 0-.02.04.14.04.15.09.21.13.04-.02-.06-.03-.02-.05.05.04.15.04.16.1.1.01.1-.04.2.03-.11.01.12.08.03.09.05.05.02-.03.07 0 0-.05-.1-.03-.08-.07.04 0 .11.06.13.05a.2.2 0 0 0 .1.1c.04-.02 0-.04-.05-.06.1 0 .18.1.3.12-.02.07.13.11.1.15.04.01.04-.05.08.03.04.01.09 0 .04.02a.17.17 0 0 1 .06.02c.04-.02-.08-.05-.04-.07a3.8 3.8 0 0 1 .37.18l-.06.01c0 .02.08.05.08.07.08.03.17.02.23.06 0 .01-.02.07-.06.08.08.03.08.03.12.08.04.02.03-.07-.03-.07 0-.03.02-.02 0-.07.08.04.08.07.1.13.04.02.05-.01.1.02-.04.07.05.02.16.12-.08-.02-.02.02-.02.06.05.02-.01-.03.03-.04.12.07.16.07.22.17.06-.02.01-.03.03-.07.05.02.07.04.06.06.02-.05.17.06.22.11-.04 0-.07 0 0 .04.04.03-.02-.02.03-.01.03 0 .08.07.1.04.05.06-.06 0-.06 0-.02.05.05.04.06.08.02 0 .03-.02.01-.03a.43.43 0 0 1 .16.09.05.05 0 0 0-.04.02.72.72 0 0 1 .32.15c-.03.02-.08 0-.06.04a.07.07 0 0 0 .07-.03l.1.08c0 .02-.03 0-.04.01.08-.01.2.13.27.16.03.07-.1-.06-.14-.06 0 .02.02.04 0 .05.2.06.24.19.46.26.06.04-.01.05.03.08-.03.02-.06-.04-.03-.05-.05-.03-.04.04-.06.06.08-.01.14.06.19.02.06.03-.02.04.03.08-.02 0-.05-.03-.08-.05.01.05.06.05 0 .07.03.05.1 0 .12.07-.02 0-.01-.03-.04-.02 0 .06.08.03.1.03.1.04.21.15.29.17-.06.01.04.05-.02.06.11.03.06.06.17.13l-.01-.07c.03.06.1.1.17.21.08.03.04 0 .06-.04.06.04.03.08.02.11.06 0 .03.11.14.12a.14.14 0 0 0-.04-.1c.1.02.01.07.13.1-.07.03 0 .1-.08.07l.1.13c.09-.04.12.1.22 0 .03.05 0 .05-.03.1 0-.1-.02.02-.08-.03a1.36 1.36 0 0 0 .28.3c.05-.03 0-.01-.03-.05.07-.01.01-.06.05-.08.04.09.1.08.13.15-.03.02-.07-.05-.1-.07-.04.04.08.1-.03.07.03.07.06 0 .1.06-.05.04.1.1.02.14.06.05.13 0 .15-.05l.05.06c-.06-.03-.04.09-.1.02a.66.66 0 0 0 .2.13c-.08.04.02.06.01.11.03.05.06-.04.08.02-.04 0-.03.04-.05.06.06.04.03-.05.08-.02 0 .03-.01.05.04.06.03-.02-.04-.06-.01-.08.04-.04.08.05.12.06-.06-.01-.06.03 0 .08-.04.02-.07-.05-.1-.06.02.09.25.2.2.3.02.03.1-.02.04-.05.06 0 .04.03.1.07a.08.08 0 0 1-.05 0c0 .13.17.13.21.17-.08 0 0 .1.08.2.04.03.07.05.12.01 0 .02 0 .06.03.05.03.04 0 .06-.05.08.02.01.02.03.01.04.14 0 .14.16.24.2-.02.01-.02.03-.02.04.07-.02.04.1.15.15 0-.06.03-.04.09-.07.03.05.01.07-.03.06.04.04.16.1.1.15h.05c-.04.08-.08-.09-.15-.13-.1.06.11.07-.02.13.04.01.08.05.12.05.01.02-.02.03-.04.04a.95.95 0 0 1 .31.36c-.1.04.03.11.09.14-.1.03.08.25.15.17a.14.14 0 0 0 .04.1.09.09 0 0 0-.06 0c.09.1.08.22.2.22 0 .02.03.05 0 .06.03.03.02-.01.06-.02.03.07.01.08.07.13a.86.86 0 0 0-.06.02l.31.52c-.03.04-.1-.05-.08.01-.07-.02-.04-.05-.1-.1-.03.01-.03.04-.06.05.07.13.25.27.15.37.12 0 .16.21.22.29-.04.01-.06 0-.07-.03-.02.02 0 .05-.03.06.06 0 .12 0 .15.07-.04 0-.08.01-.1-.05-.03.02.04.1.06.1.03 0 .03-.03.06-.04l.16.35c-.13 0 0 .1-.08.11l-.1-.22c-.04.13.08.22.11.32.01.02-.11.03-.12-.03-.04.1.08.1.04.2.07-.02.05-.08.06-.12.05-.01.09.02.1.1.04-.07-.05-.15.08-.13-.02-.11-.1.02-.1-.06.1 0-.01-.04.02-.09a.55.55 0 0 1 .14.23c-.03 0-.03-.03-.06-.02.02.07.03.08.11.15-.06.02-.13.05-.14-.02-.02.07.1.1.13.1-.05.03-.09.04-.1.12.02.02.05 0 .07 0 .02.04 0 .06.03.11-.07.01-.03.07-.1.07.14.15.06.3.2.46-.17.03-.13-.3-.21-.21-.03.03 0 .16.08.24-.04 0-.03.03-.06.03.07.02.02.06.1.08 0 .03-.02 0-.05.01.02.08.1.05.11.14l-.06.01c.08.07.01.2.1.26-.08.01-.08-.19-.18-.22-.05.02 0 .1-.07.12a.22.22 0 0 1 .1.2c-.03 0-.05-.03-.08-.03.02.1.01.1.09.14-.07.01 0 .06-.02.1a.5.5 0 0 1-.13-.39c-.04 0-.1-.01-.1-.1-.13.06.18.27.06.37.04 0 .05.05.09.06-.09.07-.04.02-.03.15-.05 0-.06-.04-.07-.09a.15.15 0 0 0-.07-.02c-.08.03.01.06.01.13-.04 0-.06.02-.05.05-.02 0-.06 0-.07-.02.02.04-.1.09-.17.13 0 .05.1-.03.08.05h-.06c.02.1.1.17.02.24 0-.03-.17-.06-.1-.02-.13-.08-.09-.23-.2-.36-.04.01.01.08 0 .11-.07.04.02-.1-.09-.05-.06.1.1.19.08.36a.78.78 0 0 1-.14-.23c-.01.09.04.16-.01.25-.03-.04-.12 0-.15-.02a.54.54 0 0 0 .03.31c-.03 0-.03.02-.03.05-.05 0-.05-.04-.06-.09-.1.04.02.11-.06.15-.06-.02-.02-.05-.06-.08a.92.92 0 0 0 .04.4c-.08 0-.14-.22-.17-.31a2.25 2.25 0 0 1-.1-.46c-.17-.1-.14-.54-.29-.65 0-.27-.25-.5-.3-.76-.06 0-.09.03-.15 0 0-.07.05 0 .07 0-.07-.05-.1-.14-.02-.2 0-.05-.14-.07-.06-.12-.05-.04-.06.02-.1 0a5.1 5.1 0 0 1-.39-.92c.02-.01.02 0 .03.02.02-.02 0-.05 0-.07-.04.01-.1.02-.06.06a2.46 2.46 0 0 1-.26-.58.18.18 0 0 1-.1-.18c-.08-.03-.12-.22-.2-.27a3.23 3.23 0 0 0-.34-.65c-.04-.06-.24-.23-.23-.34a16.27 16.27 0 0 0-1.08-1.41c.01-.03 0-.06-.02-.09-.43-.5-.98-1.09-1.43-1.55-.44-.35-.76-.7-1.18-1.03-.07-.05-.16-.07-.19-.16-.29-.16-.5-.37-.8-.57l-.1-.05a15.29 15.29 0 0 0-4.6-2.13c-.12-.04-.27-.1-.4-.13-.18-.05-.37-.08-.56-.12.27.1.61.14.84.24.18.03.55.14.76.22a1.04 1.04 0 0 1 .27.11c.02 0 .01-.01.02-.02.03 0 .05.04.06.02.02.01.02.02.02.03a14.38 14.38 0 0 1 1.98.85c.02.01 0 .03 0 .05l-.88-.43a.56.56 0 0 0-.1-.04c-.05-.02-.13-.05-.17-.08a13.77 13.77 0 0 0-1.37-.52 16.76 16.76 0 0 0-3.3-.68c-.03 0-.02 0-.02.01a1.47 1.47 0 0 0-.38-.03.18.18 0 0 0-.01-.03c-.03 0-.01.01-.01.02-.23-.03-.5-.03-.74-.04H2.4c-.47 0-.75.06-1.18.08a3.51 3.51 0 0 1-.35-.04H.78l-.11-.03c.05-.02.03-.04-.07-.04 0-.01.03-.03.08-.04-.07-.01-.13-.04-.09-.07-.06-.01-.08-.03-.01-.04a.57.57 0 0 1-.06-.02c.06-.03.07-.07.06-.09a.41.41 0 0 0-.09.01l.06-.02c-.1-.03-.05-.07-.03-.13l.1-.02H.56a7.5 7.5 0 0 1 .9-.15c.02 0 .01-.01 0-.02a.05.05 0 0 1 .03 0h.04-.03c.06.01.08-.01.13-.01a.44.44 0 0 0 .23-.04.75.75 0 0 0 .17-.02h-.06c.02-.02.08 0 .1 0m4.2-.56h.1l-.1-.01m-.11 0c.03.01.1.02.09 0a.1.1 0 0 0-.1 0m-.22 0h.15c-.03-.02-.15-.02-.15 0m-.56-.02.45.01a2.5 2.5 0 0 0-.45-.01m17.56 6.43.05.07c.05-.04.15 0 .1-.05-.09.05-.08-.04-.15-.02m.14-.45c-.1.03.04.04.04.1.1-.04-.03-.07-.04-.1m-2.75-2.95c.2.12.3.25.49.3 0-.07-.13-.08-.12-.14-.15 0-.17-.14-.37-.16m2.15 1.78c.04 0 .07.02.07.04l.05-.02c-.01-.05-.13-.04-.12-.02m-6.22-3.98c.01.02.08.03.1.05 0-.01.11-.02.08-.04-.03.04-.14-.05-.18-.01m5.13 2.81c-.13.01-.27-.12-.23-.19-.03.01-.06.04-.08.03-.02-.03.07-.04 0-.07-.08.07-.17-.1-.28-.06.23.17.43.28.63.44.13.1.22.29.47.3-.07-.17-.49-.27-.5-.45m-5.74-3.09c.04.02-.01.04.03.05.04-.05.04 0 .07 0 0-.01.08 0 .03-.03-.01.02-.1-.05-.13-.02m-6.61-1.3a.56.56 0 0 0-.13 0c.01.02.1.02.13 0M8.66 19c.08 0 .1.02.14 0a.39.39 0 0 0-.14 0m-6.9.42a.91.91 0 0 1 .23-.05c.05-.01.02 0 .02.01l.13-.02c.02-.01-.09.02-.1 0a5.06 5.06 0 0 1 .63-.1l1.35-.18h.16l-.08.01h.12a.17.17 0 0 1 .06-.01c-.03 0-.07 0-.06-.02a2.19 2.19 0 0 1 .57-.03.64.64 0 0 1 .16 0c-.01-.01.08-.02.03-.03l.13-.01a.23.23 0 0 1-.08.01 3.27 3.27 0 0 0 .45-.02c.04 0 0 0 .01.02.26-.05.69-.04 1-.06a.67.67 0 0 0 .12.02 4.36 4.36 0 0 1 .75-.03l-.02.01c.02 0 .04 0 .04-.02.37.01.73.05 1.17.04.01.02-.05.02-.08.02a1.22 1.22 0 0 0 .17.02c.01-.02-.06-.01-.04-.03.16 0 .18.02.32 0a.79.79 0 0 0 .25.03c.01.04-.11 0-.11.02l.17.01-.02-.01c.05-.03.01.02.08.02.03 0 0-.01.02-.03a2.94 2.94 0 0 1 .44.04c0 .02-.07 0-.12 0a.84.84 0 0 0 .42.03H9.9v-.03c.15.03.31.02.46.06a1.84 1.84 0 0 1-.25-.02 3.57 3.57 0 0 0 .62.09c-.02-.02-.05-.02-.04-.03a.14.14 0 0 0-.05.02.86.86 0 0 0-.26-.05 2.2 2.2 0 0 1 .46.03c.01.03-.08 0-.08.03.18.03.34.04.47.07h-.09c.06.02 0 .03.05.04l.09-.04c.04.01.29.04.25.07.06.01.04-.02.06-.03.1.03.13.02.26.05a.05.05 0 0 0-.04.04c.05 0 0-.05.07-.03a.3.3 0 0 0-.01.04.22.22 0 0 0 .16-.02c.1.02-.04.02-.03.05.06 0 .07-.01.09-.03.03 0 .1.02.1 0 .05.02-.03.01-.02.04a.48.48 0 0 1 .23.07c.04-.02-.06-.02-.03-.04.06.03.17.02.18.05.1 0 .1-.03.22 0-.12.03.13.05.02.07.07.03.03-.03.08-.01 0-.04-.1-.01-.09-.05.05 0 .13.04.15.02.01.03.05.05.11.07.04-.02 0-.03-.06-.04a2.03 2.03 0 0 1 .33.05c-.02.05.14.07.11.1.04 0 .04-.05.08.01.04 0 .1-.01.04.01a.24.24 0 0 1 .07 0c.05-.02-.09-.02-.04-.04.16.02.22.05.4.08-.02.01-.04 0-.06.02 0 .02.09.02.09.04.09.01.18-.02.24.01 0 .01-.02.06-.05.07a.23.23 0 0 1 .13.04c.04.01.02-.05-.03-.04v-.06c.07.02.07.05.11.09.04 0 .05-.02.1 0-.04.05.05 0 .18.06-.1 0-.03.02-.02.05.05.01-.01-.02.03-.03.13.03.17.03.25.1.06-.03 0-.03.03-.07.04.01.06.03.06.04.02-.04.18.03.24.05-.05 0-.07.02 0 .04.04 0-.02-.02.03-.02.04 0 .1.04.1.02.07.04-.05 0-.05.01-.02.04.06.02.07.05.02-.01.03-.02 0-.03a.5.5 0 0 1 .19.04.07.07 0 0 0-.05.03.86.86 0 0 1 .35.06c-.03.02-.08.01-.06.04a.1.1 0 0 0 .08-.03l.11.04c0 .02-.03 0-.04.02.08-.03.23.06.3.07.04.05-.12-.02-.16-.02 0 .02.02.03.01.04.2.01.26.1.5.13.07.01 0 .04.05.05-.04.02-.07-.02-.04-.04-.06 0-.04.04-.06.06.08-.02.15.02.2-.02.06.02-.01.04.04.06-.02.01-.05-.01-.08-.02.01.03.06.03 0 .05.04.03.1-.02.14.03-.03.01-.03-.02-.05 0 0 .04.08 0 .1 0 .12.01.25.08.33.08-.06.02.05.03 0 .05.1 0 .06.04.17.07a.3.3 0 0 0-.01-.05c.04.04.12.06.2.13.09 0 .04-.01.06-.04.07.02.05.05.03.08.07-.02.04.08.17.07-.01-.03 0-.05-.05-.07.1 0 .02.05.15.05-.08.04 0 .08-.09.07l.12.08c.1-.05.15.06.24-.03.03.02 0 .03-.03.08-.01-.09-.01.01-.09-.02a1.2 1.2 0 0 0 .34.2c.05-.05 0-.02-.04-.05.08-.02 0-.04.04-.07.05.06.12.05.16.1-.03.02-.08-.04-.11-.05-.04.04.09.07-.03.07.04.04.06-.01.1.02-.03.04.14.06.05.1a.13.13 0 0 0 .15-.05c.03 0 .05.02.07.03-.07-.01-.04.07-.1.03a.81.81 0 0 0 .22.07c-.08.04.03.03.03.08.03.03.05-.05.09 0-.06 0-.04.03-.06.06.07.01.03-.05.09-.04 0 .02-.01.04.05.04.02-.02-.05-.04-.02-.06.03-.03.09.02.13.03-.06 0-.06.03.01.05-.04.03-.08-.02-.12-.02.04.06.3.11.26.19.02.02.1-.03.04-.05.06-.01.04.02.12.04a.11.11 0 0 1-.06 0c0 .11.2.07.25.1-.1.01 0 .08.1.14a.12.12 0 0 0 .13-.01c0 .01.02.04.04.03.03.02 0 .04-.04.06.02.01.02.02.02.03.15-.02.16.1.28.11-.02.01-.02.02-.01.03.07-.02.05.08.18.09-.02-.05.02-.04.08-.07.04.03.02.05-.02.05.05.02.18.05.13.1l.05-.01c-.03.07-.1-.05-.18-.07-.1.06.13.03 0 .1.04 0 .08.03.13.01.02.02-.02.03-.03.04a.9.9 0 0 1 .38.22c-.1.05.05.07.11.08-.1.05.13.18.2.1 0 .03 0 .05.04.07a.14.14 0 0 0-.06.02c.12.05.13.14.26.12 0 .01.03.03 0 .05.04.01.02-.02.06-.03.05.04.03.06.1.08a.56.56 0 0 0-.06.03c.18.16.3.22.42.34-.03.03-.11-.02-.09.02-.08 0-.05-.03-.11-.05-.05.01-.04.03-.06.04.1.08.3.16.21.26.13-.04.22.12.3.17-.04.02-.07.02-.1 0-.01 0 .02.03 0 .04.05 0 .12-.02.16.03-.04 0-.08.02-.1-.03-.04.03.05.08.07.08.03-.02.02-.04.06-.05l.23.23c-.14.02.01.08-.07.1l-.14-.14c-.02.1.12.14.18.21.01.02-.12.05-.13 0-.03.1.1.07.07.15.07-.03.04-.07.04-.1a.1.1 0 0 1 .13.05c.03-.06-.08-.1.06-.12-.05-.07-.1.04-.12-.01.11-.04-.02-.03 0-.08a.49.49 0 0 1 .2.15c-.02 0-.04-.02-.06-.01.03.05.04.05.14.1-.06.02-.13.06-.16 0 0 .07.14.05.16.06-.04.03-.08.05-.07.1.01.02.04 0 .07-.01.03.03 0 .05.05.08-.08.02-.02.06-.1.08.18.08.13.2.3.3-.16.06-.2-.2-.26-.11-.03.03.04.12.13.16-.03.01-.02.03-.05.04.08 0 .03.04.11.04.01.02-.01 0-.04.02.04.05.12.02.15.08l-.07.02c.1.03.06.14.16.18-.07.02-.12-.13-.23-.13-.05.03.02.08-.06.1a.18.18 0 0 1 .15.13h-.09c.04.06.03.08.12.09-.06.02.01.04 0 .08-.1-.05-.22-.16-.21-.27-.05 0-.1 0-.13-.06-.13.08.24.17.14.27.04 0 .07.03.1.03-.07.07-.03.02 0 .12-.05.01-.07-.02-.09-.06a.2.2 0 0 0-.08 0c-.08.05.03.05.04.1-.05.01-.07.03-.05.05h-.08c.03.03-.1.09-.15.14.01.03.1-.05.09.01l-.07.02c.05.07.16.1.08.17 0-.02-.2 0-.12.01-.16-.03-.14-.16-.29-.23-.04.02.03.06.03.08-.08.05 0-.07-.12-.02-.04.1.16.12.17.26a.69.69 0 0 1-.2-.15c0 .07.07.12.04.2-.04-.03-.13.02-.18.01 0 .12.04.14.1.23-.03.01-.03.03-.02.04-.05.02-.07-.01-.08-.05-.11.05.04.08-.04.13-.07 0-.03-.04-.08-.05-.02.1.1.23.14.3-.1.01-.21-.14-.26-.2a1.36 1.36 0 0 1-.22-.34c-.2-.04-.26-.38-.44-.43-.07-.2-.38-.33-.49-.52-.06 0-.09.04-.16.02 0-.05.05 0 .07-.01-.08-.02-.14-.08-.05-.14-.01-.05-.18-.03-.1-.09-.05-.02-.06.03-.1.02-.21-.22-.5-.41-.6-.63.02 0 .03 0 .04.02.02-.02 0-.04-.02-.06-.03.02-.1.04-.05.06a1.71 1.71 0 0 1-.38-.39.14.14 0 0 1-.14-.12c-.09-.01-.16-.14-.27-.17a2.45 2.45 0 0 0-.46-.44c-.04-.03-.3-.13-.3-.2-.44-.3-.75-.57-1.34-.9 0-.03-.02-.05-.04-.07L15.2 22c-.51-.2-.88-.42-1.37-.6-.07-.04-.17-.04-.2-.1-.33-.08-.57-.21-.9-.32l-.1-.02a21.44 21.44 0 0 0-5.05-1.06l-.43-.06-.61-.02c.3.04.66.03.91.08.19.01.6.05.82.09a1.25 1.25 0 0 1 .3.05l.01-.02c.04 0 .06.03.07.01.02 0 .02.02.02.03a20.46 20.46 0 0 1 2.16.4c.02 0 0 .02 0 .03-.32-.07-.65-.15-.96-.2a.9.9 0 0 0-.1-.03l-.2-.03c-.46-.1-.98-.19-1.48-.25a27.03 27.03 0 0 0-3.59-.17c-.02 0 0 0 0 .01a2.16 2.16 0 0 0-.42.01.05.05 0 0 0-.02-.02c-.02 0 0 .01 0 .02a21.83 21.83 0 0 0-2 .14c-.52.03-.83.1-1.31.15H.27l-.12-.01c.06-.02.05-.04-.07-.03 0-.01.04-.03.1-.04-.07 0-.14-.02-.08-.05-.07 0-.1-.01-.02-.03H.02c.07-.04.09-.07.07-.08a.54.54 0 0 0-.09.01l.07-.02c-.11-.02-.06-.05-.02-.1l.1-.02H.11c.23-.06.64-.14 1-.19.02 0 0 0 0-.01h.03a.3.3 0 0 1 .04-.01c.04 0-.05 0-.03.01a.68.68 0 0 0 .14-.03.66.66 0 0 0 .25-.05 1.16 1.16 0 0 0 .19-.02h-.06a.2.2 0 0 1 .1 0"/>
    </g>
  </g>
</svg>
