<svg width="64" height="44" viewBox="0 0 64 44" fill="none" xmlns="http://www.w3.org/2000/svg">
<g id="logo-mark">
  <path d="M33.6443 11.7064C33.582 11.6593 33.5062 11.7805 33.4388 11.8007C33.5331 11.7772 33.5331 11.8344 33.4354 11.9018C33.496 11.9288 33.5567 11.8378 33.6173 11.8243C33.5786 11.7991 33.683 11.7367 33.6443 11.7064V11.7064ZM22.7851 8.09006C22.7901 8.01595 22.9788 7.99237 22.9586 7.91994C23.1893 7.90984 23.1944 7.73803 23.5026 7.69255C23.2847 7.86017 23.0428 7.99417 22.7851 8.09006V8.09006ZM21.9042 8.68633C21.7037 8.8194 21.5841 9.04342 21.2102 9.08722C21.2927 8.87835 21.9277 8.72002 21.9378 8.51621C22.1433 8.51453 22.3539 8.34609 22.2798 8.27535C22.3219 8.28377 22.3707 8.3124 22.4061 8.29556C22.4381 8.26524 22.2865 8.25513 22.4078 8.21302C22.524 8.29387 22.6537 8.0867 22.8188 8.12207C22.487 8.34272 22.1956 8.48926 21.9042 8.68633V8.68633ZM20.2754 10.022L20.1827 9.99846C20.1996 9.93783 20.3916 9.93783 20.3764 9.96646C20.3091 9.96983 20.2568 9.99173 20.2754 10.022ZM19.7212 11.9456C19.6387 11.9018 19.4888 11.9557 19.5612 11.8934C19.6976 11.949 19.6808 11.8412 19.7869 11.8664C19.765 11.8917 19.7431 11.917 19.7212 11.9456ZM19.4854 11.4656C19.3338 11.4403 19.5191 11.3914 19.5376 11.3645C19.6841 11.3847 19.477 11.4083 19.4854 11.4656ZM29.3019 4.61183C29.2902 4.63709 29.1908 4.66741 29.179 4.69099C29.147 4.67246 28.9954 4.68257 29.0324 4.65899C29.0948 4.69604 29.2363 4.57477 29.3019 4.61183ZM29.9487 4.248C29.969 4.26316 30.0768 4.16715 30.1357 4.20252C30.0886 4.22442 30.1643 4.24126 30.1003 4.26147C30.0448 4.216 30.0397 4.25811 30.006 4.28506C30.006 4.25642 29.878 4.28506 29.9487 4.248ZM39.6676 1.41656C39.6592 1.44856 39.5312 1.47046 39.4924 1.45867C39.5497 1.44014 39.6082 1.42606 39.6676 1.41656V1.41656ZM40.0348 1.35424C39.9152 1.37614 39.8832 1.4014 39.8226 1.38793C39.8911 1.36572 39.9627 1.35435 40.0348 1.35424V1.35424ZM43.6899 1.70796V1.71975C43.6377 1.72649 43.5046 1.7686 43.5333 1.73996C43.5838 1.72986 43.6377 1.71807 43.6899 1.70796ZM43.8465 1.68775C43.8095 1.70627 43.6983 1.72817 43.7185 1.70291C43.7583 1.68363 43.8034 1.67829 43.8465 1.68775V1.68775ZM44.1666 1.62542C44.0992 1.64227 44.0251 1.65406 43.9543 1.66753C44.0032 1.63385 44.1632 1.60353 44.1666 1.62542ZM44.9734 1.46372C44.6921 1.52941 44.5371 1.54794 44.3283 1.59511C44.5393 1.53366 44.7551 1.48971 44.9734 1.46372V1.46372ZM23.3191 11.4706C23.4403 11.4386 23.5195 11.3611 23.3814 11.3072C23.3915 11.25 23.6526 11.2483 23.5145 11.1994C23.5987 11.1691 23.6138 11.218 23.6913 11.2095C23.9878 10.9249 24.4139 10.6739 24.5352 10.4162C24.5082 10.4095 24.4981 10.428 24.4813 10.4364C24.4442 10.4196 24.4897 10.3943 24.5082 10.3707C24.552 10.3909 24.6632 10.3977 24.5925 10.4313C24.7993 10.2987 24.9822 10.1318 25.1331 9.93783C25.2628 9.92098 25.3218 9.85866 25.3353 9.78118C25.4801 9.76097 25.5677 9.59758 25.726 9.55716C25.9191 9.34455 26.1368 9.15569 26.3745 8.99458C26.4453 8.94573 26.8125 8.80424 26.799 8.70992C27.4407 8.3124 27.8686 7.95868 28.7192 7.49211C28.7023 7.46685 28.7461 7.44158 28.768 7.41295C29.5092 6.98343 30.4423 6.46464 31.1649 6.05197C31.8942 5.73531 32.3995 5.42706 33.0767 5.11882C33.1845 5.07166 33.326 5.05987 33.3698 4.97228C33.8397 4.82406 34.1614 4.63372 34.6347 4.44507C34.6802 4.42654 34.7324 4.41981 34.7796 4.39791C37.0726 3.45144 39.4384 2.69211 41.854 2.12737C42.0392 2.08357 42.2582 2.01788 42.4502 1.96904C42.7282 1.90166 43.0347 1.84776 43.3194 1.79049C42.9168 1.91177 42.3795 1.98757 42.0392 2.10547C41.7697 2.15937 41.1987 2.30254 40.8804 2.38845C40.7427 2.41723 40.6084 2.46013 40.4795 2.51646C40.4492 2.5232 40.4492 2.50804 40.4441 2.5013C40.3919 2.50635 40.37 2.54678 40.3431 2.52825C40.3144 2.53667 40.3245 2.54678 40.3245 2.56025C39.255 2.80954 38.2309 3.19021 37.2927 3.47992C37.264 3.49508 37.291 3.50856 37.2994 3.52035C37.7542 3.36707 38.2123 3.20874 38.6503 3.07567C38.6975 3.0556 38.7466 3.04037 38.7968 3.0302C38.8726 3.00998 38.9939 2.97124 39.0663 2.94766C39.7081 2.74722 40.4374 2.52657 41.1398 2.34465C42.7821 1.9303 44.266 1.61363 46.2216 1.28181C46.2536 1.27676 46.2367 1.28686 46.2401 1.2936C46.4362 1.24618 46.6355 1.21297 46.8364 1.19422L46.8498 1.17233C46.8818 1.16896 46.8667 1.17906 46.8667 1.18412C47.2238 1.1218 47.6533 1.06958 48.0255 1.02073C48.6285 0.938198 49.2231 0.862401 49.7318 0.81187C50.4746 0.712492 50.9395 0.697332 51.625 0.621535C51.7699 0.58111 52.1051 0.535632 52.1506 0.501944C52.1842 0.496891 52.2381 0.490154 52.2836 0.485101C52.2971 0.468257 52.3308 0.456466 52.4504 0.431201C52.3611 0.426148 52.3763 0.400882 52.543 0.382354C52.4955 0.363128 52.4442 0.355061 52.3931 0.358772C52.4908 0.336875 52.5733 0.298135 52.4891 0.277922C52.5784 0.25771 52.6087 0.239182 52.4942 0.240866C52.543 0.227391 52.5279 0.232444 52.5784 0.2156C52.474 0.200441 52.4352 0.171806 52.447 0.148225C52.4922 0.141422 52.5378 0.138044 52.5834 0.138119C52.5936 0.129697 52.4858 0.138119 52.479 0.13475C52.6239 0.0825345 52.5312 0.0555845 52.4672 0.0151594C52.3897 0.0202125 52.4133 0.0117906 52.3173 0.0168438C52.3291 0.0101063 52.3729 0.00673751 52.3779 0C52.031 0 51.4313 0.0336875 50.9193 0.0741126C50.8839 0.0741126 50.9024 0.0656907 50.9058 0.062322C50.8933 0.0618024 50.8807 0.0635133 50.8687 0.0673751C50.8485 0.0690595 50.8283 0.0690595 50.8047 0.0724282C50.7559 0.0909564 50.8755 0.0640063 50.8553 0.0741126C50.7849 0.0834791 50.7139 0.0862985 50.643 0.0825345C50.5227 0.106182 50.3993 0.11073 50.2775 0.0960095C50.1895 0.110094 50.1006 0.118533 50.0114 0.121275C49.9407 0.124644 50.0636 0.109485 50.0923 0.106116C50.0437 0.103107 49.9949 0.109983 49.9491 0.126328C49.8343 0.113313 49.7185 0.113313 49.6038 0.126328C49.5263 0.129697 49.5768 0.139803 49.5802 0.144856C49.5431 0.153278 49.4471 0.156647 49.3865 0.165069C49.3579 0.14991 49.5229 0.154963 49.528 0.141488C49.2208 0.141095 48.9138 0.157401 48.6083 0.190335C47.879 0.239182 47.185 0.293082 46.6544 0.331822C46.5989 0.345297 46.4826 0.355404 46.4254 0.368879C46.3883 0.390776 46.5197 0.368879 46.5399 0.375616C46.5197 0.387407 46.3698 0.390776 46.3765 0.405935C46.3475 0.401493 46.3182 0.400362 46.2889 0.402566C46.3294 0.39246 46.3816 0.384038 46.3664 0.370563C46.0891 0.376945 45.8134 0.414232 45.5444 0.481732C45.4693 0.484531 45.3947 0.495832 45.3221 0.515419C45.3356 0.501944 45.1991 0.518788 45.2749 0.485101C45.2126 0.493523 45.1503 0.50026 45.088 0.508682C45.1278 0.513262 45.1681 0.512128 45.2076 0.505313C44.9905 0.547852 44.7712 0.57766 44.5506 0.594585C44.4984 0.611429 44.554 0.599638 44.5456 0.618167C44.1599 0.621535 43.5653 0.739442 43.0987 0.786604C43.0481 0.809334 42.9957 0.827923 42.9421 0.842189C42.5828 0.864206 42.2254 0.910917 41.8725 0.981992C41.8792 0.987045 41.9062 0.983676 41.9045 0.990414C41.8658 0.993783 41.8405 0.992098 41.8405 0.980308C41.3116 1.07632 40.8147 1.19591 40.173 1.29023C40.1679 1.3155 40.2555 1.29866 40.3043 1.29866C40.2264 1.32285 40.1471 1.34253 40.0668 1.35761C40.0382 1.3374 40.1443 1.32729 40.114 1.30876C39.8731 1.34582 39.858 1.37108 39.6558 1.38793C39.5412 1.42848 39.4217 1.45396 39.3004 1.46372C39.292 1.51762 39.4554 1.43846 39.4638 1.47383C39.4621 1.48394 39.3156 1.49573 39.2263 1.51931C39.2196 1.51089 39.2297 1.50583 39.2482 1.4991C39.1657 1.48225 39.2331 1.5311 39.1371 1.53784C39.0899 1.53952 39.1404 1.52436 39.0933 1.51257C38.8826 1.54626 38.6739 1.59181 38.4684 1.64901C38.4835 1.66753 38.5778 1.64227 38.657 1.62711C38.4671 1.70842 38.2622 1.74861 38.0557 1.74502C38.1433 1.73659 38.2022 1.72817 38.2427 1.7248C38.2696 1.71975 38.2713 1.71301 38.2713 1.70796L38.2561 1.68606C38.0591 1.75175 37.8131 1.77197 37.6161 1.85113C37.7364 1.831 37.8556 1.80458 37.9732 1.77197C37.69 1.87009 37.3993 1.94501 37.104 1.99599C37.1158 1.9842 37.1647 1.97072 37.1428 1.95725C37.1696 1.9571 37.1963 1.96107 37.2219 1.96904C37.34 1.91745 37.4647 1.88286 37.5925 1.86629C37.3674 1.88769 37.1447 1.9294 36.9272 1.99093C36.9171 2.02799 37.0467 1.97577 37.0451 2.00946C36.7991 2.07515 36.5734 2.12232 36.3848 2.18969C36.4286 2.19723 36.4736 2.19197 36.5145 2.17453C36.4353 2.20822 36.5398 2.19811 36.4538 2.23012C36.4303 2.22506 36.3797 2.20822 36.3225 2.19474C36.2601 2.21833 35.9081 2.29581 35.9738 2.32276C35.8913 2.35308 35.9014 2.31602 35.8845 2.30423C35.7498 2.35308 35.6942 2.35644 35.519 2.41034C35.5493 2.41371 35.5746 2.42213 35.5847 2.44403C35.5106 2.46593 35.5679 2.39013 35.4651 2.43393C35.4772 2.4443 35.4884 2.45556 35.4988 2.46761C35.4213 2.49442 35.3377 2.49851 35.2579 2.4794C35.1148 2.5232 35.327 2.48951 35.3085 2.52657C35.2276 2.55183 35.204 2.52993 35.1788 2.50972C35.1333 2.51646 35.0407 2.56025 35.0272 2.54004C34.9564 2.56362 35.0811 2.54509 35.0642 2.57541C34.9531 2.5951 34.8475 2.63816 34.7543 2.70174C34.692 2.6849 34.8385 2.67142 34.7779 2.65121C34.7021 2.695 34.5438 2.69669 34.5387 2.74217C34.3837 2.76743 34.3804 2.72027 34.2119 2.78259C34.3989 2.78933 34.0317 2.8567 34.1917 2.86513C34.1075 2.90555 34.1429 2.84154 34.0789 2.86176C34.0705 2.82133 34.2322 2.83649 34.1917 2.79607C34.1277 2.80954 34.0182 2.86176 33.9845 2.8466C33.9744 2.88029 33.9239 2.91397 33.8346 2.94766C33.7723 2.92745 33.8414 2.90724 33.9205 2.88871C33.7609 2.91686 33.6034 2.95569 33.4489 3.00493C33.4893 3.0622 33.2586 3.10599 33.3074 3.14305C33.2401 3.15315 33.2401 3.09589 33.1878 3.16831C33.1306 3.17674 33.0464 3.17337 33.1323 3.18684C33.1001 3.18973 33.0684 3.19652 33.0379 3.20705C32.9571 3.18516 33.1592 3.16326 33.08 3.14305C32.8476 3.19358 32.7701 3.24074 32.5124 3.31149C32.5394 3.31991 32.5798 3.3098 32.6017 3.31991C32.6185 3.34012 32.4821 3.36033 32.4871 3.38223C32.3662 3.39089 32.2462 3.40948 32.1284 3.43781C32.1368 3.44455 32.1671 3.5035 32.2244 3.50856C32.1098 3.53888 32.1031 3.53719 32.0458 3.58099C31.9785 3.59615 31.9902 3.51866 32.0761 3.51866C32.0879 3.48835 32.0593 3.49845 32.0728 3.45634C32.0399 3.46448 32.0089 3.4791 31.9817 3.49935C31.9546 3.51959 31.9317 3.54506 31.9144 3.57425C31.8605 3.59446 31.8454 3.56246 31.7831 3.59446C31.8387 3.65173 31.6955 3.60457 31.522 3.69721C31.65 3.68036 31.5641 3.71742 31.5574 3.75111C31.4883 3.77301 31.5742 3.72416 31.5085 3.71574C31.382 3.73885 31.2623 3.79008 31.1582 3.86565C31.0638 3.85049 31.143 3.84038 31.1059 3.80501C31.0386 3.82185 31.0099 3.84206 31.0268 3.85891C30.9796 3.81848 30.7556 3.91449 30.6747 3.95997C30.7421 3.94987 30.7876 3.95997 30.6916 3.99534C30.6242 4.01387 30.7017 3.97008 30.6242 3.9785C30.5754 3.98861 30.5013 4.03914 30.4777 4.01724C30.4002 4.07282 30.5585 4.01219 30.572 4.02735C30.604 4.0644 30.4844 4.05261 30.4676 4.09135C30.444 4.08293 30.4221 4.07114 30.4507 4.05935C30.3622 4.07176 30.2763 4.0985 30.1964 4.13852C30.2205 4.13747 30.2445 4.14331 30.2654 4.15536C30.0915 4.17358 29.9216 4.21906 29.7618 4.29011C29.8056 4.30527 29.8814 4.29011 29.8612 4.32548C29.8395 4.33003 29.8172 4.33013 29.7954 4.32579C29.7737 4.32145 29.7531 4.31275 29.7349 4.30022C29.6793 4.32211 29.6287 4.34233 29.5782 4.36422C29.5951 4.38107 29.6254 4.36759 29.649 4.38107C29.5159 4.36085 29.3171 4.48718 29.2093 4.50908C29.1655 4.5714 29.3845 4.4636 29.4384 4.46192C29.4519 4.47876 29.4182 4.4956 29.4334 4.51076C29.1268 4.55793 29.0662 4.66741 28.7108 4.73142C28.6131 4.75668 28.7293 4.77521 28.6585 4.80048C28.7108 4.819 28.7579 4.76174 28.699 4.75163C28.7882 4.72973 28.7663 4.79205 28.8 4.80384C28.6737 4.79879 28.576 4.85438 28.5053 4.81732C28.4076 4.84427 28.5238 4.86111 28.4531 4.88638C28.4817 4.89817 28.5305 4.86785 28.5726 4.85438C28.5592 4.89143 28.4817 4.89649 28.5878 4.90996C28.5238 4.95375 28.4328 4.90491 28.3789 4.96891C28.416 4.97902 28.4076 4.94196 28.4463 4.95375C28.4547 5.01439 28.3284 4.97902 28.293 4.97397C28.1145 5.00765 27.941 5.10366 27.8214 5.11377C27.9073 5.12893 27.754 5.15588 27.8416 5.17272C27.6681 5.19125 27.7473 5.22494 27.5755 5.27715C27.5813 5.25589 27.5886 5.23506 27.5974 5.21483C27.5368 5.26873 27.4222 5.30242 27.3026 5.4018C27.1847 5.42033 27.2487 5.39001 27.2117 5.358C27.1123 5.39506 27.151 5.42706 27.1813 5.46075C27.0735 5.44559 27.1325 5.55676 26.9422 5.55676C26.9556 5.52644 26.9472 5.50118 27.0062 5.47086C26.8428 5.47928 26.9876 5.52981 26.7906 5.55339C26.9085 5.58203 26.7939 5.64435 26.927 5.6174C26.8714 5.66288 26.8462 5.66793 26.7704 5.73025C26.6205 5.68646 26.5564 5.8111 26.4049 5.72183C26.3577 5.75552 26.4032 5.76394 26.452 5.81279C26.4604 5.71509 26.4806 5.82626 26.5884 5.78247C26.4413 5.89225 26.279 5.98019 26.1067 6.04355C26.0225 6.00986 26.1185 6.02839 26.1589 5.99638C26.0427 5.97786 26.1455 5.94248 26.0848 5.9189C26.0191 5.99638 25.9181 5.98459 25.8658 6.0486C25.9147 6.06713 25.977 6.00144 26.0275 5.98459C26.0932 6.02502 25.9012 6.0705 26.0848 6.05365C26.0259 6.11261 25.9821 6.05365 25.9231 6.09745C25.9854 6.13619 25.7311 6.17661 25.8658 6.22546C25.8251 6.23903 25.7814 6.24118 25.7396 6.23168C25.6977 6.22218 25.6592 6.20138 25.6284 6.17156C25.5997 6.1884 25.5677 6.20356 25.5357 6.22041C25.6351 6.19682 25.6048 6.29789 25.6907 6.2423C25.5879 6.29046 25.48 6.32663 25.369 6.3501C25.4885 6.38716 25.3268 6.39221 25.3386 6.4478C25.2898 6.48148 25.2527 6.40063 25.2039 6.4579C25.2864 6.44948 25.2578 6.48991 25.2915 6.51686C25.1938 6.54381 25.2393 6.46296 25.1567 6.48317C25.1534 6.5118 25.1786 6.5337 25.086 6.54212C25.0422 6.61623 24.6514 6.70382 24.7222 6.78973C24.6935 6.81331 24.5537 6.75941 24.6565 6.74088C24.5571 6.73414 24.5857 6.75941 24.4729 6.79983C24.5038 6.80522 24.5357 6.80291 24.5655 6.79309C24.5773 6.91605 24.2775 6.89921 24.2 6.93458C24.3449 6.93795 24.2118 7.02385 24.0535 7.11144C23.9931 7.13477 23.926 7.13356 23.8665 7.10807C23.865 7.11503 23.862 7.12159 23.8578 7.12732C23.8535 7.13305 23.8482 7.13782 23.842 7.14132C23.8357 7.14482 23.8289 7.14696 23.8218 7.14762C23.8147 7.14828 23.8075 7.14743 23.8008 7.14513C23.757 7.17882 23.8109 7.19734 23.8766 7.21756C23.848 7.23103 23.8429 7.24282 23.8598 7.25293C23.6256 7.24956 23.6138 7.38768 23.4336 7.418C23.4656 7.42474 23.4723 7.43653 23.4622 7.44663C23.3528 7.42474 23.3881 7.54433 23.1961 7.56454C23.2146 7.51232 23.1574 7.52917 23.0647 7.49885C23.0007 7.5359 23.031 7.56117 23.0967 7.55275C23.0277 7.58138 22.8255 7.62518 22.9064 7.67571C22.8824 7.68251 22.8568 7.68073 22.834 7.67065C22.8929 7.74982 22.9721 7.60496 23.1001 7.57633C23.2669 7.63191 22.903 7.62518 23.122 7.68413C23.0551 7.70609 22.9852 7.71801 22.9148 7.7195C22.8912 7.73635 22.9418 7.74645 22.9687 7.75993C22.7631 7.8145 22.5721 7.91402 22.4095 8.05132C22.5678 8.09512 22.3472 8.14228 22.2461 8.16249C22.4061 8.19955 22.0777 8.37641 21.9682 8.30061C21.9682 8.32251 21.948 8.34777 21.8924 8.37978C21.9271 8.37729 21.9619 8.38129 21.9951 8.39157C21.8217 8.45894 21.8116 8.57011 21.6027 8.55664C21.6111 8.57517 21.5656 8.60212 21.5993 8.61559C21.5572 8.63412 21.5707 8.60212 21.5151 8.59032C21.4477 8.64591 21.4797 8.6577 21.377 8.69307C21.4056 8.69981 21.4326 8.70992 21.4612 8.71665C21.1984 8.92215 21.0367 9.00131 20.8548 9.14785C20.9003 9.18659 21.0199 9.11417 20.9913 9.16301C21.1125 9.15628 21.0654 9.12764 21.1614 9.09395C21.2304 9.10406 21.2288 9.12427 21.2591 9.13943C21.121 9.24218 20.7992 9.34998 20.9508 9.45273C20.7453 9.42914 20.6308 9.61443 20.5196 9.67338C20.5769 9.69359 20.6224 9.69359 20.646 9.66496C20.6797 9.68012 20.6359 9.70201 20.6763 9.7138C20.5836 9.71717 20.4775 9.7037 20.4152 9.76265C20.4758 9.76097 20.5483 9.78118 20.5786 9.7256C20.6426 9.74749 20.5095 9.8115 20.4725 9.81655C20.4135 9.80308 20.4287 9.78118 20.368 9.76939C20.2618 9.87047 20.1505 9.96604 20.0345 10.0557C20.2501 10.0675 20.0261 10.1416 20.1524 10.1652C20.2232 10.1046 20.2906 10.0456 20.3579 9.98499C20.4034 10.1029 20.1794 10.1669 20.1019 10.2494C20.0817 10.2713 20.2906 10.2983 20.3091 10.2427C20.3579 10.337 20.1524 10.3252 20.208 10.4095C20.0969 10.3859 20.1356 10.3387 20.1289 10.2949C20.0934 10.2853 20.0558 10.2868 20.0212 10.2991C19.9866 10.3115 19.9566 10.3341 19.9352 10.364C19.8897 10.3067 20.0497 10.2461 19.824 10.2427C19.893 10.1501 19.9773 10.2798 20.0211 10.2107C19.8375 10.1837 20.043 10.1736 19.9958 10.1282C19.8866 10.166 19.7876 10.2282 19.7061 10.3101C19.7482 10.3151 19.7633 10.2848 19.8055 10.2949C19.7566 10.3606 19.7482 10.3606 19.5915 10.4179C19.6892 10.4415 19.7954 10.4768 19.8358 10.4162C19.8594 10.4869 19.6269 10.4852 19.5899 10.4954C19.6623 10.524 19.7263 10.5391 19.7212 10.6048C19.696 10.6217 19.6471 10.6032 19.605 10.5964C19.5663 10.6318 19.6101 10.6537 19.5393 10.6958C19.6539 10.7126 19.5663 10.7615 19.7061 10.7733C19.4181 10.8844 19.5141 11.0243 19.2479 11.1506C19.5141 11.1961 19.5393 10.9063 19.6522 10.9906C19.6977 11.0259 19.6016 11.1304 19.4534 11.1961C19.5107 11.2011 19.4972 11.223 19.541 11.2314C19.4181 11.2331 19.4922 11.282 19.3642 11.2887C19.3557 11.3156 19.3945 11.2938 19.4315 11.3039C19.3827 11.3679 19.2513 11.3359 19.2075 11.4083C19.2429 11.4167 19.2766 11.4218 19.3136 11.4285C19.1502 11.474 19.2345 11.5986 19.0728 11.6458C19.1991 11.6643 19.2631 11.4891 19.4366 11.4757C19.5208 11.5043 19.413 11.5666 19.536 11.5885C19.487 11.5924 19.44 11.6095 19.3999 11.6379C19.3599 11.6664 19.3283 11.7052 19.3086 11.7502C19.3625 11.7536 19.3928 11.7334 19.445 11.7384C19.3962 11.8176 19.4029 11.8328 19.2631 11.8513C19.3709 11.8715 19.2564 11.9018 19.2665 11.9456C19.4248 11.8799 19.6084 11.7468 19.5915 11.6188C19.6724 11.6155 19.7583 11.6188 19.7819 11.5464C20.0059 11.6155 19.4164 11.7586 19.5848 11.8631C19.5208 11.858 19.4854 11.8984 19.4265 11.9035C19.5528 11.9759 19.4888 11.9288 19.4383 12.0366C19.4651 12.0429 19.4933 12.0398 19.5181 12.0279C19.5429 12.0159 19.5629 11.9958 19.5747 11.9709C19.6179 11.9616 19.662 11.9577 19.7061 11.9591C19.8307 12.0046 19.6673 12.0163 19.6539 12.0787C19.7263 12.0871 19.7583 12.1039 19.7313 12.1326C19.7684 12.1241 19.8307 12.1393 19.8627 12.1208C19.8139 12.1578 20.0244 12.2134 20.1171 12.264C20.1002 12.3044 19.9604 12.2218 19.9756 12.2892C20.0093 12.2976 20.043 12.3044 20.0783 12.3111C20.0025 12.3869 19.8358 12.4358 19.9672 12.5099C19.9688 12.4812 20.2906 12.4829 20.1693 12.5099C20.4169 12.4577 20.3765 12.3162 20.5988 12.2151C20.6746 12.2336 20.5617 12.2842 20.5634 12.3162C20.6948 12.36 20.5668 12.2319 20.7504 12.2842C20.8245 12.3852 20.5146 12.4358 20.5146 12.5958C20.6253 12.5501 20.7273 12.4857 20.8161 12.4054C20.8195 12.4897 20.7066 12.5419 20.774 12.6295C20.8363 12.6008 20.9778 12.6514 21.0553 12.6328C21.057 12.7693 21.0014 12.7962 20.9054 12.9074C20.971 12.9158 20.9643 12.9327 20.9559 12.9529C20.9811 12.96 21.0081 12.9572 21.0313 12.9449C21.0545 12.9327 21.0722 12.912 21.0805 12.8872C21.2658 12.9326 21.0199 12.9798 21.1496 13.0253C21.2675 13.0219 21.1951 12.9798 21.2726 12.9596C21.2796 12.9881 21.2797 13.0178 21.2726 13.0463C21.2656 13.0748 21.2517 13.1011 21.2321 13.123L21.5336 12.9562L21.5724 12.9647C21.6582 12.8732 21.7324 12.7713 21.793 12.6615C22.1215 12.5857 22.1703 12.1966 22.46 12.1191C22.5459 11.8715 23.0243 11.7014 23.1692 11.4672C23.2736 11.4672 23.314 11.5077 23.4269 11.4807C23.4353 11.4218 23.3494 11.4807 23.3191 11.4706V11.4706ZM25.1129 6.46632C25.0489 6.43264 24.9765 6.50507 24.9091 6.51349C25.0018 6.50507 25.0018 6.54212 24.9074 6.57918C24.9681 6.60107 25.0287 6.54718 25.086 6.54212C25.0489 6.52191 25.15 6.48822 25.1129 6.46632V6.46632ZM25.6115 11.4167C25.5441 11.3729 25.4667 11.4891 25.3959 11.506C25.4936 11.4841 25.4936 11.5397 25.3909 11.6037C25.4549 11.6289 25.5189 11.543 25.5829 11.5296C25.5424 11.5043 25.6519 11.4437 25.6115 11.4167ZM31.0049 7.7414C30.9459 7.67739 30.9392 7.73971 30.9021 7.77846C30.9005 7.7414 30.764 7.79193 30.8415 7.73129C30.8634 7.75151 30.9847 7.60496 31.0436 7.65213C30.9931 7.6875 31.0756 7.70434 31.0049 7.7414V7.7414ZM29.9926 8.44378C29.9589 8.41852 29.7955 8.44547 29.8342 8.40841C29.9033 8.45726 30.0599 8.26692 30.1273 8.31577C30.1138 8.35283 30.006 8.40504 29.9926 8.44378ZM41.6636 3.07904C41.6485 3.12789 41.507 3.16326 41.4649 3.14473C41.5283 3.11497 41.595 3.09292 41.6636 3.07904V3.07904ZM42.0729 2.97966C41.9399 3.01167 41.9011 3.05041 41.8354 3.03525C41.9104 3.002 41.991 2.98315 42.0729 2.97966V2.97966ZM46.0228 3.44961L46.0194 3.46813C45.9588 3.47824 45.8072 3.53719 45.8426 3.49845C45.8998 3.47992 45.9605 3.46645 46.0228 3.44961ZM46.1946 3.42097C46.1508 3.44624 46.0279 3.47824 46.0531 3.44287C46.0732 3.42821 46.0966 3.41857 46.1212 3.41476C46.1458 3.41095 46.171 3.41308 46.1946 3.42097V3.42097ZM46.5567 3.33001C46.4793 3.35023 46.3967 3.36876 46.3159 3.38897C46.3731 3.34012 46.5551 3.29633 46.5567 3.33001ZM47.4663 3.09589C47.148 3.19021 46.9728 3.21548 46.7353 3.28285C46.9723 3.19704 47.2172 3.13442 47.4663 3.09589V3.09589ZM34.1345 8.78066C34.254 8.70486 34.4056 8.67454 34.4579 8.54653C34.9733 8.29893 35.3354 8.00585 35.8559 7.70603C35.9081 7.67739 35.9654 7.66223 36.0193 7.62855C38.5176 6.14566 41.1778 4.95432 43.9476 4.07788C44.1582 4.0105 44.4058 3.91112 44.6248 3.8387C44.9381 3.73763 45.2817 3.66015 45.6034 3.57088C45.1419 3.75111 44.5456 3.86565 44.1531 4.04419C43.8516 4.12672 43.2082 4.34064 42.8494 4.47539C42.69 4.52065 42.5372 4.58632 42.3946 4.67078C42.361 4.6792 42.3643 4.65899 42.3593 4.64888C42.302 4.65562 42.2717 4.71457 42.2447 4.68931C42.2127 4.7011 42.2245 4.71794 42.2245 4.7331C41.0651 5.15397 39.9283 5.63466 38.8187 6.17324C38.7867 6.19009 38.8153 6.21198 38.8187 6.23051C39.3308 5.98796 39.8428 5.74373 40.333 5.5315C40.3178 5.53823 40.4138 5.49275 40.5014 5.46244C40.5856 5.42875 40.7204 5.3698 40.8046 5.33442C41.5255 5.02113 42.3492 4.68088 43.1391 4.40465C45.0123 3.75835 46.9259 3.23619 48.8677 2.84154C48.9014 2.83481 48.8829 2.84828 48.8829 2.85839C49.1023 2.79059 49.328 2.74544 49.5566 2.72364C49.5611 2.71156 49.5673 2.7002 49.5751 2.68995C49.6122 2.68321 49.592 2.70006 49.5903 2.70848C49.9962 2.62258 50.4763 2.55352 50.894 2.49119C51.5745 2.38676 52.2432 2.29075 52.8142 2.23517C53.6463 2.11052 54.1651 2.10884 54.9332 2.02967C55.1033 1.97577 55.4823 1.92187 55.5378 1.87977C55.58 1.87303 55.6372 1.86629 55.6911 1.85955C55.7113 1.83597 55.7518 1.82081 55.8865 1.78881C55.7888 1.7787 55.8124 1.74165 55.9994 1.72143C55.9926 1.69954 55.9269 1.68943 55.8377 1.68101C55.9522 1.65574 56.0533 1.60353 55.9657 1.56816C56.0684 1.54457 56.1089 1.51594 55.9825 1.51426C56.0151 1.50415 56.0472 1.49234 56.0785 1.47888C55.9657 1.45362 55.9303 1.40982 55.9505 1.37782C56.0006 1.36935 56.0514 1.36597 56.1021 1.36771C56.1156 1.35761 55.996 1.36266 55.9909 1.35592C56.1611 1.29023 56.0651 1.24307 56.0044 1.18243C55.9185 1.18749 55.9472 1.17233 55.8394 1.17738C55.8528 1.16896 55.9017 1.16559 55.9118 1.15717C55.5277 1.14032 54.8574 1.16559 54.283 1.19759C54.2442 1.19928 54.2661 1.18749 54.2729 1.18243C54.2442 1.18243 54.2341 1.18412 54.2291 1.18749C54.2055 1.18749 54.1853 1.18749 54.1567 1.18917C54.0994 1.21612 54.2341 1.18243 54.2122 1.19928C54.1339 1.20771 54.0548 1.20771 53.9764 1.19928C53.8426 1.23031 53.7036 1.23261 53.5688 1.20601C53.4704 1.22388 53.3707 1.23402 53.2707 1.23633C53.1932 1.23802 53.3296 1.2178 53.3633 1.21612C53.3296 1.19759 53.2302 1.2296 53.2016 1.2397C53.076 1.21697 52.9477 1.213 52.8209 1.22791C52.7334 1.23296 52.7873 1.24812 52.7923 1.25318C52.7451 1.26497 52.639 1.26834 52.57 1.27676C52.543 1.25318 52.7233 1.26834 52.7334 1.24812C52.3909 1.23884 52.0481 1.25291 51.7076 1.29023C50.8923 1.34413 50.1175 1.40814 49.5246 1.45699C49.4623 1.4772 49.3292 1.48899 49.2669 1.5092C49.2197 1.53952 49.3697 1.50752 49.3915 1.51931C49.368 1.53615 49.1995 1.53615 49.2029 1.56142C49.1715 1.55328 49.1388 1.55213 49.1069 1.55805C49.1541 1.54457 49.2164 1.5311 49.1995 1.5092C48.8847 1.51729 48.5725 1.56829 48.2714 1.6608C48.186 1.66626 48.1017 1.68267 48.0205 1.70964C48.039 1.6928 47.8857 1.71301 47.9733 1.66753C47.9042 1.67932 47.8335 1.68775 47.7644 1.69617C47.8072 1.70517 47.8514 1.70517 47.8941 1.69617C47.6524 1.75667 47.4063 1.79834 47.1581 1.82081C47.0957 1.84608 47.1597 1.8326 47.1496 1.85618C46.6044 1.91134 46.0624 1.99512 45.5259 2.10716C45.4687 2.13806 45.409 2.16398 45.3474 2.18464C44.9412 2.22274 44.5389 2.29486 44.1447 2.40024C44.1531 2.41034 44.1818 2.40529 44.1801 2.41371C44.138 2.41877 44.1093 2.41877 44.111 2.39855C43.5164 2.54678 42.9505 2.73038 42.2363 2.88365C42.2245 2.92071 42.3239 2.89208 42.3778 2.89208C42.2895 2.92887 42.1989 2.95982 42.1066 2.98472C42.078 2.95608 42.1959 2.93924 42.1689 2.91397C41.8978 2.97124 41.8775 3.0083 41.6535 3.03693C41.528 3.09887 41.3931 3.13984 41.2543 3.15821C41.2375 3.23569 41.4295 3.11778 41.4346 3.16663C41.4312 3.18516 41.2661 3.202 41.1667 3.24074C41.16 3.22895 41.1701 3.21885 41.1937 3.20874C41.1061 3.18684 41.1735 3.2559 41.0657 3.26769C41.0135 3.27443 41.0707 3.25085 41.0219 3.23569C40.7825 3.29211 40.5473 3.3647 40.3178 3.45297C40.333 3.47992 40.4374 3.44287 40.53 3.41423C40.3258 3.53558 40.0938 3.60228 39.8563 3.60794C39.954 3.59446 40.0197 3.57762 40.0618 3.57088C40.0955 3.56246 40.0955 3.55235 40.0955 3.54561L40.082 3.51361C39.8563 3.61804 39.5868 3.65341 39.3628 3.77637C39.4984 3.74345 39.6317 3.70182 39.762 3.65173C39.4472 3.80008 39.1204 3.92124 38.785 4.01387C38.8002 3.99029 38.8541 3.97345 38.8339 3.95323C38.862 3.95275 38.8899 3.95732 38.9164 3.96671C39.0465 3.88922 39.1881 3.83294 39.3358 3.79996C39.0814 3.84322 38.8323 3.91381 38.593 4.0105C38.5795 4.0644 38.7261 3.98355 38.721 4.0324C38.4431 4.1402 38.1904 4.21937 37.9799 4.32211C37.9984 4.33727 38.049 4.32885 38.1247 4.29516C38.0321 4.34906 38.1483 4.32548 38.049 4.38107C38.004 4.36285 37.9578 4.34766 37.9108 4.33559C37.8401 4.37096 37.4476 4.50234 37.515 4.53603C37.424 4.58319 37.4426 4.53266 37.419 4.51582C37.2691 4.5933 37.2051 4.60003 37.0114 4.68594C37.0265 4.68507 37.0414 4.68923 37.0539 4.69776C37.0664 4.70629 37.0757 4.71872 37.0804 4.7331C36.9962 4.77016 37.067 4.65393 36.9524 4.72299C36.9642 4.73815 36.9726 4.755 36.9827 4.77016C36.8598 4.81564 36.7671 4.83079 36.7217 4.80048C36.5633 4.8729 36.7941 4.81227 36.7688 4.86954C36.6796 4.90659 36.6577 4.87796 36.6324 4.84932C36.5835 4.8628 36.4774 4.93017 36.464 4.90154C36.3848 4.93859 36.5246 4.90491 36.4993 4.9487C36.3698 4.98975 36.2513 5.05941 36.1523 5.15251C36.085 5.13061 36.245 5.10366 36.1827 5.0784C36.0968 5.1424 35.9233 5.15588 35.9115 5.22157C35.7414 5.26705 35.7447 5.19967 35.5561 5.29737C35.7565 5.30074 35.3523 5.42033 35.5224 5.42033C35.4314 5.48939 35.4735 5.39001 35.4028 5.4237C35.3977 5.36643 35.5729 5.37653 35.5325 5.32095C35.4601 5.34285 35.3371 5.42706 35.3017 5.40685C35.2883 5.45738 35.2327 5.50791 35.1282 5.56181C35.0642 5.53655 35.1417 5.50455 35.2276 5.47086C35.049 5.52191 34.8754 5.58899 34.7088 5.6713C34.7425 5.75046 34.4899 5.82963 34.5404 5.88016C34.4696 5.89869 34.4713 5.81279 34.409 5.92732C34.3467 5.94248 34.2574 5.93911 34.3501 5.95427C34.3138 5.96054 34.2787 5.97188 34.2456 5.98796C34.1614 5.9627 34.3821 5.91722 34.2962 5.89364C34.0385 5.98291 33.9525 6.05702 33.6696 6.17661C33.6948 6.18503 33.7386 6.16987 33.7656 6.18503C33.7807 6.2103 33.6308 6.25072 33.6342 6.28104C33.5001 6.30047 33.3689 6.3361 33.2434 6.38716C33.2518 6.39895 33.2822 6.4798 33.3394 6.48485C33.2148 6.53707 33.2081 6.53538 33.144 6.60276C33.0682 6.62971 33.0868 6.51349 33.1828 6.50843C33.1946 6.46633 33.1609 6.47812 33.1828 6.41916C33.0581 6.48148 33.0598 6.51854 33.0042 6.60108C32.9419 6.63139 32.9284 6.58928 32.8577 6.63645C32.9133 6.71898 32.7634 6.66171 32.5697 6.80994C32.7095 6.77457 32.6152 6.8352 32.605 6.88405C32.5276 6.92279 32.6253 6.84194 32.5545 6.83689C32.344 6.94132 32.2749 6.95143 32.1654 7.08281C32.0677 7.06428 32.1519 7.04238 32.1132 6.99354C32.0425 7.02722 32.0054 7.05754 32.0239 7.08281C31.9785 7.02385 31.7275 7.18387 31.6416 7.25293C31.7157 7.23609 31.7612 7.24451 31.6534 7.30346C31.5809 7.33715 31.6668 7.2664 31.5826 7.28493C31.5304 7.30346 31.4479 7.38263 31.4226 7.35399C31.335 7.44158 31.5102 7.34052 31.5237 7.35904C31.5557 7.41463 31.4293 7.40284 31.4075 7.46516C31.3839 7.45 31.3603 7.43484 31.394 7.41463C31.2937 7.44255 31.1995 7.48881 31.1161 7.55106C31.1418 7.5489 31.1675 7.55607 31.1885 7.57128C30.9917 7.61397 30.8055 7.69589 30.6411 7.81214C30.6832 7.82562 30.7674 7.80035 30.7421 7.85257C30.7195 7.86087 30.695 7.86291 30.6713 7.85846C30.6476 7.85402 30.6255 7.84325 30.6074 7.8273C30.5501 7.86267 30.4928 7.89805 30.4373 7.93005C30.4524 7.95363 30.4861 7.93342 30.513 7.94858C30.3699 7.93173 30.1509 8.13217 30.0347 8.1726C29.9825 8.27029 30.2233 8.09007 30.284 8.0867C30.2958 8.11028 30.257 8.13554 30.2755 8.15576C29.9437 8.25008 29.873 8.41852 29.4889 8.53979C29.3845 8.58864 29.5058 8.60212 29.4266 8.64591C29.4839 8.66949 29.5395 8.57853 29.4772 8.57011C29.5732 8.53137 29.5445 8.6257 29.5799 8.64254C29.4468 8.64086 29.3407 8.73181 29.2632 8.68297C29.1605 8.73181 29.2851 8.74697 29.206 8.79077C29.238 8.80256 29.2902 8.75539 29.3357 8.73013C29.3205 8.7874 29.2363 8.80087 29.3508 8.81266C29.2801 8.88004 29.1841 8.8194 29.1234 8.91709C29.1622 8.93057 29.1571 8.87498 29.1959 8.89014C29.2026 8.97268 29.0679 8.93562 29.0325 8.93225C28.8405 8.99626 28.6518 9.15291 28.5238 9.17986C28.6164 9.19165 28.448 9.24723 28.5423 9.26408C28.357 9.30787 28.4396 9.34661 28.2543 9.43925C28.2596 9.40777 28.2674 9.37678 28.2779 9.34661C28.2122 9.43083 28.0909 9.49147 27.9595 9.64474C27.8332 9.68517 27.9023 9.63295 27.8618 9.58916C27.7574 9.65654 27.7978 9.69864 27.8298 9.74412C27.7136 9.73233 27.7759 9.88561 27.5704 9.90582C27.5856 9.86203 27.5755 9.82329 27.6429 9.77276C27.466 9.80308 27.6193 9.86203 27.4104 9.91761C27.5334 9.94793 27.4104 10.049 27.5519 9.9951C27.4946 10.0692 27.466 10.0793 27.3835 10.1736C27.2251 10.1248 27.1527 10.3151 26.9961 10.2006C26.9455 10.2562 26.991 10.2612 27.0415 10.3252C27.0533 10.1837 27.0702 10.3454 27.1898 10.2713C27.0381 10.4379 26.8634 10.582 26.671 10.6992C26.5851 10.6571 26.6845 10.6773 26.7266 10.6251C26.6053 10.6099 26.7148 10.5442 26.6508 10.5189C26.5817 10.6368 26.4722 10.6318 26.4133 10.7312C26.4655 10.7514 26.5312 10.6486 26.5884 10.6217C26.6541 10.6739 26.452 10.7581 26.6474 10.7143C26.5834 10.807 26.5379 10.7244 26.4773 10.7952C26.5396 10.844 26.2684 10.9299 26.4133 10.9889C26.372 11.0126 26.3234 11.02 26.277 11.0097C26.2306 10.9994 26.1897 10.9722 26.1623 10.9333C26.1286 10.9602 26.0949 10.9855 26.0612 11.0141C26.1674 10.972 26.1353 11.1203 26.2246 11.0293C26.1203 11.1091 26.0052 11.1738 25.8827 11.2213C26.0107 11.2617 25.8389 11.2887 25.8507 11.3662C25.7985 11.4201 25.758 11.3055 25.7075 11.3948C25.7934 11.3746 25.7648 11.4352 25.7985 11.4706C25.694 11.5195 25.7446 11.3982 25.6587 11.4369C25.6536 11.4773 25.6789 11.5094 25.5829 11.5296C25.534 11.6407 25.1214 11.8125 25.1972 11.9288C25.1651 11.9692 25.0203 11.9085 25.1264 11.8664C25.022 11.8664 25.0506 11.9035 24.9344 11.9709C24.9673 11.9733 25.0002 11.9657 25.0287 11.949C25.0405 12.1292 24.7255 12.1376 24.6447 12.1966C24.7963 12.1865 24.6565 12.3246 24.4897 12.4711C24.4611 12.4908 24.4278 12.5025 24.3932 12.5052C24.3586 12.5078 24.3239 12.5013 24.2926 12.4863C24.291 12.5099 24.2691 12.5621 24.2219 12.5503C24.1764 12.5991 24.2354 12.6227 24.3027 12.6446C24.2724 12.6682 24.2691 12.685 24.2825 12.6985C24.04 12.7221 24.0265 12.9209 23.8362 12.9849C23.8699 12.9933 23.8766 13.0084 23.8665 13.027C23.7503 13.0051 23.7907 13.1735 23.5903 13.2291C23.6071 13.1483 23.5481 13.1803 23.4521 13.1483C23.3831 13.2089 23.4151 13.2392 23.4858 13.2224C23.4209 13.2578 23.359 13.2984 23.3005 13.3436L23.3629 13.3571C23.3978 13.3138 23.4414 13.2782 23.4909 13.2527C23.6239 13.3032 23.4319 13.3335 23.437 13.374L23.7739 13.4481C23.816 13.4185 23.8618 13.3947 23.9103 13.3773C23.88 13.4043 23.8547 13.4312 23.8278 13.4582L27.5772 14.2802C28.1505 13.677 28.7537 13.1031 29.3845 12.5604C29.3694 12.5267 29.4148 12.4829 29.4401 12.4425C30.2334 11.7536 31.2424 10.9266 32.0374 10.268C32.8291 9.7576 33.3866 9.27081 34.1345 8.78066V8.78066ZM54.0691 4.28169C54.2992 4.21493 54.5358 4.17314 54.7748 4.15704C54.4649 4.22442 54.2981 4.23621 54.0691 4.28169ZM53.6614 4.3558C53.7255 4.30695 53.8989 4.27832 53.8956 4.31369C53.8181 4.32885 53.7423 4.34064 53.6614 4.3558ZM53.4122 4.38275C53.4762 4.35243 53.5334 4.35748 53.5469 4.37601C53.5014 4.39791 53.3818 4.41981 53.4122 4.38275ZM53.3751 4.40802C53.3195 4.41307 53.1679 4.46192 53.2083 4.42318C53.2656 4.41138 53.3229 4.39959 53.3818 4.38949L53.3751 4.40802ZM49.5718 3.57425C49.6454 3.54441 49.7249 3.53174 49.8042 3.53719C49.6762 3.5574 49.6341 3.59615 49.5718 3.57425ZM49.208 3.66184C49.2711 3.63551 49.3373 3.61739 49.405 3.60794C49.3795 3.63293 49.348 3.651 49.3135 3.66043C49.279 3.66986 49.2427 3.67035 49.208 3.66184V3.66184ZM38.8659 7.93847C38.8153 7.86941 38.8052 7.9351 38.7665 7.97553C38.7682 7.9351 38.6368 7.98395 38.7126 7.92331C38.7311 7.94689 38.8541 7.79361 38.9114 7.84583C38.8591 7.88289 38.9366 7.9031 38.8659 7.93847V7.93847ZM37.8687 8.64928C37.8384 8.62233 37.6834 8.64759 37.7239 8.60885C37.7845 8.66275 37.9428 8.46737 38.0035 8.52127C37.9883 8.56001 37.8822 8.61054 37.8687 8.64928V8.64928ZM31.3704 14.4536C31.3704 14.3391 31.5557 14.2785 31.5321 14.174C31.7595 14.1286 31.7544 13.8675 32.0593 13.7597C31.7814 14.0376 31.6466 14.3122 31.3704 14.4536ZM63.0182 3.36033C63.0333 3.35023 62.9222 3.34012 62.9188 3.33338C63.0923 3.28285 63.0165 3.22558 62.9794 3.15147C62.9003 3.14305 62.9272 3.13463 62.8312 3.12452C62.848 3.11778 62.8918 3.12115 62.9019 3.11441C62.4099 3.02867 61.9133 2.97187 61.4146 2.94429C61.3793 2.93924 61.4012 2.93082 61.4113 2.92239C61.3826 2.92071 61.3759 2.92071 61.3675 2.92576L61.3035 2.91734C61.2445 2.93755 61.3759 2.92071 61.3506 2.93587C61.2779 2.93409 61.2057 2.92449 61.135 2.90724C61.0101 2.92267 60.8832 2.90645 60.7662 2.86007C60.6724 2.86757 60.5781 2.86531 60.4849 2.85334C60.4141 2.8466 60.5421 2.84154 60.5741 2.8466C60.5489 2.81965 60.4495 2.84154 60.4209 2.84997C60.3111 2.80854 60.1946 2.78797 60.0772 2.78933C59.9964 2.78428 60.0419 2.80617 60.0452 2.81291C60.0014 2.81965 59.9021 2.80954 59.8381 2.81123C59.8178 2.78259 59.9779 2.81965 59.9913 2.80112C59.6792 2.7475 59.3631 2.72046 59.0464 2.72027C58.2868 2.68153 57.5591 2.65963 57.0033 2.64447C56.9426 2.65795 56.818 2.65795 56.7523 2.67142C56.7034 2.69669 56.85 2.68153 56.8668 2.695C56.8416 2.71353 56.6866 2.69332 56.6849 2.72027C56.6546 2.71522 56.6613 2.70174 56.599 2.70343C56.6445 2.695 56.7018 2.68658 56.6933 2.66469C56.3962 2.63852 56.0968 2.65841 55.8057 2.72364C55.7246 2.72177 55.6437 2.73026 55.5648 2.7489C55.5833 2.73206 55.4368 2.73711 55.5294 2.70006C55.4637 2.70174 55.3947 2.70679 55.329 2.71016C55.3681 2.72284 55.4093 2.72742 55.4503 2.72364C55.2167 2.7595 54.9808 2.77752 54.7445 2.77754C54.6822 2.79775 54.7428 2.78596 54.726 2.81291C54.2072 2.81657 53.6892 2.85144 53.1747 2.91734C53.1159 2.94447 53.055 2.96699 52.9927 2.98472C52.6041 2.98573 52.2165 3.02523 51.8356 3.10262C51.8423 3.10936 51.8693 3.10936 51.8642 3.11778C51.8255 3.11947 51.8002 3.11441 51.8036 3.09589C51.2225 3.19863 50.6633 3.34517 49.9693 3.44455C49.9541 3.48498 50.0518 3.46308 50.1024 3.46813C50.0151 3.49789 49.9263 3.52263 49.8362 3.54225C49.811 3.51361 49.9255 3.50182 49.9019 3.4715C49.7376 3.5114 49.5711 3.54176 49.4033 3.56246C49.2783 3.61799 49.1441 3.64996 49.0075 3.65678C48.9822 3.741 49.1793 3.62815 49.176 3.68205C49.1709 3.69889 49.0109 3.70731 48.9132 3.73932C48.9098 3.72753 48.9182 3.71742 48.9435 3.70731C48.8643 3.67868 48.9166 3.75785 48.8155 3.7629C48.765 3.7629 48.8239 3.74269 48.7768 3.72247C48.543 3.76456 48.3127 3.82425 48.0878 3.90102C48.0963 3.92965 48.2007 3.89765 48.29 3.87575C48.0879 3.98596 47.8597 4.0395 47.6297 4.03072C47.724 4.02229 47.788 4.00882 47.8301 4.00377C47.8588 3.99871 47.8638 3.99029 47.8655 3.98018C47.86 3.96982 47.8571 3.95825 47.8571 3.9465C47.628 4.04082 47.3703 4.05935 47.1429 4.17726C47.2762 4.14869 47.4078 4.1127 47.5371 4.06946C47.2244 4.20344 46.9002 4.30887 46.5685 4.38443C46.5871 4.36085 46.6393 4.34738 46.6207 4.32548C46.6468 4.32539 46.6724 4.33237 46.6949 4.34569C46.8248 4.2732 46.966 4.22309 47.1126 4.19747C46.8653 4.22536 46.6222 4.28247 46.3883 4.36759C46.3681 4.42318 46.5163 4.35075 46.5045 4.40128C46.2283 4.4956 45.9841 4.56298 45.7701 4.6573C45.787 4.67752 45.8341 4.67078 45.9083 4.63878C45.8156 4.68931 45.9285 4.67583 45.8274 4.72468C45.8072 4.71626 45.7567 4.68931 45.7011 4.66741C45.6337 4.7011 45.248 4.81564 45.3053 4.85774C45.2143 4.90154 45.2362 4.84595 45.2177 4.82743C45.0661 4.90154 45.0088 4.90491 44.8134 4.98576C44.8454 4.99081 44.869 5.00429 44.8724 5.03629C44.7881 5.07166 44.8707 4.95375 44.7545 5.02113C44.7638 5.03803 44.7706 5.05618 44.7747 5.07503C44.6551 5.11209 44.5675 5.12219 44.5271 5.0885C44.3687 5.15588 44.5944 5.10366 44.5641 5.1643C44.4782 5.19799 44.458 5.16599 44.4378 5.13567C44.389 5.14746 44.2812 5.20809 44.2727 5.18114C44.1936 5.21483 44.3283 5.18788 44.2997 5.23336C44.1704 5.27172 44.0512 5.33847 43.951 5.42875C43.8887 5.4018 44.0403 5.38159 43.9881 5.35127C43.8988 5.41527 43.7337 5.42201 43.7152 5.48939C43.5501 5.52644 43.5602 5.4557 43.3699 5.54834C43.5602 5.5635 43.1695 5.66793 43.3295 5.67804C43.2335 5.74541 43.2857 5.64098 43.2116 5.67804C43.2149 5.61235 43.3783 5.63593 43.348 5.5736C43.2789 5.59213 43.1543 5.67467 43.1206 5.65109C43.0819 5.72345 43.0185 5.77959 42.9421 5.80942C42.8831 5.7791 42.9606 5.7471 43.0448 5.71678C42.8663 5.7252 42.7282 5.84984 42.5328 5.90037C42.558 5.98796 42.3138 6.05871 42.3559 6.11429C42.2852 6.13113 42.297 6.04018 42.2279 6.1564C42.1656 6.17156 42.0797 6.16651 42.1673 6.18503C42.132 6.18796 42.0977 6.19768 42.0662 6.21367C41.987 6.18503 42.2009 6.14798 42.1218 6.11766C41.8708 6.19851 41.7815 6.27431 41.5036 6.38884C41.5272 6.40063 41.571 6.38379 41.5929 6.40063C41.608 6.42758 41.4649 6.46464 41.4632 6.49664C41.3251 6.54044 41.1785 6.52528 41.0842 6.59097C41.0893 6.60444 41.1111 6.69035 41.1667 6.69877C41.0909 6.71786 41.0223 6.75887 40.9697 6.81668C40.8972 6.84194 40.9259 6.7173 41.0135 6.71898C41.0286 6.67182 40.9983 6.68529 41.0219 6.62297C40.9006 6.68193 40.8972 6.72067 40.84 6.80657C40.7793 6.83857 40.7692 6.79309 40.6985 6.84194C40.744 6.92953 40.6058 6.86215 40.4121 7.00869C40.5452 6.97669 40.4526 7.0407 40.4391 7.09123C40.365 7.12829 40.461 7.04744 40.3953 7.03733C40.1881 7.14176 40.1224 7.15018 40.0096 7.28493C39.9169 7.26472 39.9995 7.24282 39.9675 7.18892C39.8967 7.22093 39.8613 7.24956 39.8748 7.27988C39.8344 7.21419 39.5885 7.3742 39.5026 7.44326C39.5699 7.42642 39.6137 7.44158 39.511 7.50053C39.4369 7.53254 39.5262 7.46011 39.4436 7.47695C39.3931 7.4938 39.3072 7.57633 39.287 7.54601C39.1994 7.63023 39.3712 7.53254 39.3813 7.55275C39.4082 7.61339 39.2887 7.59486 39.2651 7.66223C39.2432 7.6437 39.223 7.62855 39.255 7.60665C39.157 7.63515 39.0651 7.68139 38.9838 7.74308C38.9961 7.74167 39.0085 7.74306 39.0202 7.74714C39.0318 7.75123 39.0424 7.7579 39.0512 7.76666C38.8586 7.80757 38.6763 7.88723 38.5155 8.00079C38.5593 8.01764 38.6402 7.99406 38.6115 8.04796C38.5896 8.05536 38.5661 8.05627 38.5436 8.05059C38.5212 8.04492 38.5009 8.03289 38.4852 8.01595C38.4296 8.05301 38.3724 8.0867 38.3168 8.12207C38.3319 8.14733 38.3673 8.12544 38.3875 8.14228C38.2544 8.1187 38.0355 8.32588 37.9226 8.3663C37.8687 8.46737 38.1079 8.28377 38.1635 8.28208C38.1736 8.30566 38.1382 8.33262 38.1534 8.3562C37.8317 8.44378 37.7576 8.62064 37.387 8.73855C37.2876 8.78571 37.4022 8.80761 37.3264 8.84803C37.3769 8.87667 37.4325 8.78234 37.3769 8.77055C37.4678 8.73013 37.4375 8.82951 37.4695 8.84635C37.3432 8.84298 37.2371 8.93562 37.168 8.88509C37.067 8.93225 37.1849 8.95247 37.1091 8.99626C37.1394 9.01142 37.1916 8.96089 37.232 8.93562C37.2169 8.99626 37.1394 9.00973 37.2455 9.02489C37.1764 9.09564 37.0855 9.02489 37.0232 9.12764C37.0602 9.1428 37.0585 9.08216 37.0956 9.10406C37.0973 9.18996 36.9726 9.14785 36.9373 9.13943C36.752 9.20512 36.5701 9.36514 36.4471 9.3904C36.533 9.40725 36.373 9.46115 36.4589 9.47968C36.2837 9.5201 36.3595 9.56558 36.1843 9.6599C36.19 9.62685 36.1979 9.59421 36.2079 9.56221C36.1439 9.65148 36.0243 9.70875 35.8963 9.87214C35.775 9.91088 35.8424 9.85698 35.807 9.80981C35.7043 9.87887 35.743 9.92435 35.77 9.97488C35.6605 9.95635 35.7144 10.1214 35.5207 10.1383C35.5375 10.0945 35.5291 10.0524 35.5914 10.0001C35.423 10.0305 35.5695 10.0928 35.3657 10.1501C35.4853 10.1821 35.3641 10.2882 35.5022 10.2343C35.4432 10.3101 35.4163 10.3202 35.3371 10.4212C35.1906 10.364 35.1165 10.5627 34.9682 10.4398C34.9194 10.497 34.9632 10.5038 35.012 10.5745C35.0255 10.4229 35.0373 10.5947 35.1501 10.5156C35.0069 10.6871 34.8396 10.8369 34.6532 10.9602C34.5707 10.9165 34.6684 10.9383 34.7071 10.8828C34.5909 10.8676 34.697 10.8019 34.6381 10.7716C34.569 10.8962 34.4646 10.8878 34.409 10.9922C34.4579 11.0141 34.5219 10.9063 34.5775 10.8794C34.6381 10.935 34.4444 11.0226 34.628 10.9788C34.569 11.0765 34.5269 10.9872 34.4663 11.0596C34.5269 11.1135 34.2709 11.1994 34.4056 11.2651C34.3658 11.2878 34.3186 11.294 34.2742 11.2824C34.2298 11.2707 34.1917 11.2422 34.1681 11.2028C34.1345 11.2297 34.1058 11.2584 34.0721 11.287C34.1766 11.2415 34.1429 11.3999 34.2271 11.3039C34.1287 11.3856 34.0193 11.4531 33.902 11.5043C34.0216 11.5481 33.8599 11.5734 33.8717 11.6542C33.8228 11.7132 33.7841 11.5885 33.7369 11.6845C33.8178 11.6643 33.7875 11.7266 33.8212 11.7637C33.7235 11.8142 33.7706 11.6879 33.6881 11.7283C33.6847 11.7721 33.7083 11.8058 33.6174 11.8243C33.5702 11.9439 33.1811 12.1191 33.2518 12.2421C33.2232 12.2842 33.0851 12.2168 33.1845 12.1764C33.0851 12.1747 33.1154 12.2134 33.0042 12.2842C33.0354 12.2871 33.0667 12.28 33.0935 12.264C33.1036 12.4509 32.8089 12.4577 32.7331 12.52C32.8762 12.5099 32.7432 12.6564 32.5882 12.808C32.5259 12.84 32.4652 12.8686 32.4012 12.8248C32.3996 12.8484 32.3793 12.904 32.3355 12.8922C32.2934 12.9444 32.349 12.9663 32.413 12.9916C32.3861 13.0135 32.3793 13.032 32.3945 13.0472C32.1654 13.0691 32.1587 13.2813 31.9801 13.3487C32.0105 13.3554 32.0172 13.3723 32.0088 13.3908C31.8976 13.3706 31.938 13.5441 31.7511 13.603C31.7662 13.5188 31.7123 13.5525 31.6163 13.5171C31.554 13.5828 31.586 13.6148 31.6517 13.5963C31.5826 13.6468 31.3856 13.7412 31.4681 13.8068C31.4462 13.8304 31.4192 13.8119 31.394 13.8119C31.4597 13.9214 31.5304 13.6906 31.6567 13.63C31.8235 13.6957 31.463 13.731 31.682 13.7951C31.6129 13.8169 31.5523 13.8793 31.4765 13.8725C31.458 13.9012 31.5085 13.9096 31.5338 13.9247C31.318 14.0532 31.1351 14.2303 30.9998 14.4419C31.1582 14.4907 30.9442 14.5884 30.8449 14.6356C31.0049 14.6676 30.6933 14.9792 30.5804 14.8798C30.5806 14.899 30.5766 14.9179 30.5686 14.9354L30.8482 14.9977C30.8971 14.9219 30.9207 14.8427 30.887 14.8006C30.9291 14.8107 30.9779 14.8427 31.0116 14.8141C31.0386 14.7653 30.8937 14.7686 31.0083 14.6895C31.1245 14.7956 31.239 14.4671 31.4041 14.4941C31.2424 14.6911 31.0908 14.8579 30.9442 15.0196L34.6095 15.8214C34.6836 15.7136 34.7712 15.5957 34.8907 15.4491C34.9547 15.3699 35.3017 15.124 35.2899 14.9792C35.8836 14.2815 36.5121 13.6142 37.1731 12.9798C37.1596 12.9461 37.2034 12.9006 37.2253 12.8585C37.9664 12.1562 38.9299 11.3156 39.6996 10.6537C40.4576 10.145 41.0067 9.65485 41.7344 9.17144C41.8489 9.09732 41.9938 9.07374 42.051 8.93899C42.5479 8.70486 42.905 8.41178 43.4187 8.12375C43.4693 8.09343 43.5232 8.07996 43.5771 8.04796C46.0113 6.62882 48.6316 5.5562 51.3623 4.86111C51.5678 4.80721 51.8137 4.72636 52.0259 4.67078C52.3325 4.59161 52.6643 4.5394 52.9759 4.47539C52.5178 4.6253 51.9484 4.69099 51.5577 4.84259C51.2696 4.90322 50.6397 5.07503 50.286 5.1862C50.1299 5.22443 49.979 5.28097 49.8362 5.35464C49.8042 5.36306 49.811 5.34285 49.8076 5.32937C49.7537 5.33442 49.7166 5.39169 49.6964 5.36474C49.6627 5.37653 49.6728 5.39169 49.6678 5.40854C48.5281 5.76306 47.4115 6.18777 46.3243 6.68024C46.294 6.69877 46.3159 6.72067 46.3192 6.74256C46.8212 6.52022 47.3265 6.29452 47.8099 6.10755C47.8624 6.08409 47.9164 6.06439 47.9716 6.0486C48.0542 6.01828 48.1872 5.96775 48.2698 5.93406C48.9789 5.65614 49.7924 5.36306 50.5656 5.13735C52.3781 4.61558 54.2312 4.24709 56.1055 4.03577C56.1409 4.0324 56.1206 4.04587 56.119 4.05598C56.3303 4.00972 56.546 3.98601 56.7624 3.98524C56.7691 3.97418 56.7764 3.9635 56.7843 3.95323C56.8213 3.95155 56.7994 3.96671 56.7961 3.97345C57.1835 3.92965 57.6383 3.91112 58.0307 3.8926C58.6708 3.85891 59.3007 3.8387 59.8296 3.85049C60.6162 3.82017 61.0845 3.88417 61.7953 3.90439C61.9621 3.86565 62.3175 3.86059 62.3764 3.82354C62.4152 3.82185 62.4724 3.82354 62.5213 3.82185C62.5432 3.79996 62.5853 3.78816 62.7133 3.77301C62.6308 3.75111 62.6611 3.71237 62.8329 3.71742C62.8329 3.69721 62.779 3.67531 62.6998 3.6551C62.8093 3.64162 62.912 3.59951 62.843 3.55404C62.9407 3.53888 62.9845 3.5153 62.8716 3.49677C62.9255 3.48498 62.9104 3.49003 62.966 3.47487C62.8733 3.43276 62.8531 3.38223 62.8801 3.34854C62.9264 3.34746 62.9727 3.35141 63.0182 3.36033" fill="#58A66F"/>
  <path d="M11.9289 14.4435C11.998 14.4334 12.1782 14.4368 12.1311 14.4098C12.0637 14.4149 11.9929 14.4199 11.9205 14.4284C11.9222 14.4334 11.9289 14.4368 11.9289 14.4435ZM11.7234 14.4604C11.7773 14.4688 11.9222 14.4553 11.8851 14.4284C11.8291 14.4185 11.7715 14.4299 11.7234 14.4604ZM11.304 14.4974C11.3933 14.4907 11.4876 14.4806 11.582 14.4738C11.5062 14.4469 11.2956 14.4637 11.304 14.4974ZM10.2412 14.5833C10.6168 14.5648 10.8139 14.5328 11.0918 14.5143C10.8068 14.5137 10.5223 14.5368 10.2412 14.5833V14.5833ZM46.0662 18.8852C46.1083 18.9105 46.1488 18.9374 46.1875 18.9644C46.265 18.8768 46.4755 18.8886 46.3576 18.8364C46.2178 18.9644 46.1825 18.8128 46.0662 18.8852ZM46.1184 18.1306C45.95 18.2132 46.2128 18.1643 46.233 18.2468C46.4031 18.1559 46.1538 18.1593 46.1184 18.1306ZM39.4517 14.7753C39.7949 14.9131 40.1563 14.9999 40.5246 15.033C40.4808 14.9354 40.2349 14.9741 40.2282 14.873C39.9418 14.9455 39.8492 14.7214 39.4517 14.7753V14.7753ZM44.3953 16.6063C44.4795 16.5827 44.5503 16.5911 44.5452 16.6366C44.5789 16.6164 44.6109 16.5961 44.6463 16.5709C44.5924 16.4985 44.36 16.5709 44.3953 16.6063V16.6063ZM30.8563 12.8821C30.8832 12.9107 31.0231 12.9141 31.0449 12.9427C31.077 12.9057 31.2656 12.8619 31.2083 12.845C31.1511 12.9175 30.9169 12.8097 30.8563 12.8821ZM41.7677 15.2756C41.515 15.3514 41.1782 15.2082 41.2304 15.0869C41.1815 15.1173 41.1377 15.1712 41.0872 15.1627C41.035 15.1307 41.2102 15.0634 41.0434 15.0533C40.9457 15.2032 40.6846 14.9791 40.4994 15.0836C41.0114 15.252 41.4392 15.3379 41.8957 15.4878C42.204 15.5855 42.4617 15.8365 42.9383 15.7556C42.7345 15.5114 41.8822 15.5417 41.7677 15.2756V15.2756ZM29.6402 12.6564C29.7076 12.6682 29.6233 12.7187 29.7109 12.7221C29.7564 12.6379 29.7833 12.6918 29.8356 12.7137C29.8271 12.6783 29.9922 12.6682 29.8895 12.6446C29.8693 12.6732 29.6924 12.5873 29.6402 12.6564V12.6564ZM16.8945 12.5334C16.8152 12.5284 16.7356 12.5318 16.657 12.5435C16.6873 12.5823 16.8541 12.5637 16.8945 12.5334ZM16.1854 12.5991C16.3403 12.5806 16.3892 12.6025 16.4599 12.5637C16.3671 12.56 16.2742 12.572 16.1854 12.5991V12.5991ZM3.52558 14.681C3.6588 14.6204 3.79915 14.5768 3.9433 14.5513C4.041 14.526 3.98541 14.5597 3.97867 14.5665C4.03426 14.5631 4.15217 14.5328 4.22965 14.5193C4.2566 14.489 4.05952 14.5564 4.04436 14.5429C4.41964 14.428 4.80087 14.3335 5.18637 14.2599C6.09762 14.0561 6.96676 13.8675 7.63041 13.7226C7.70283 13.7192 7.85106 13.6889 7.92517 13.6872C7.98244 13.6973 7.80895 13.7192 7.79042 13.7361C7.82074 13.7462 8.00602 13.6906 8.00602 13.7175C8.03786 13.6977 8.07339 13.6845 8.11045 13.6788C8.05655 13.6805 7.98581 13.6889 7.99929 13.6636C8.34383 13.5688 8.69826 13.5146 9.05539 13.5019C9.14819 13.4799 9.24302 13.4675 9.33837 13.4649C9.31815 13.4531 9.48996 13.4228 9.38384 13.4093C9.46301 13.3941 9.54218 13.384 9.62134 13.3689C9.57489 13.3902 9.52549 13.4044 9.4748 13.411C9.75744 13.3865 10.0382 13.3437 10.3153 13.283C10.3877 13.2863 10.3153 13.2914 10.3338 13.3116C10.8038 13.1701 11.587 13.1028 12.1765 12.9949C12.2467 13.006 12.3178 13.0105 12.3888 13.0084C12.8411 12.9035 13.3005 12.832 13.7632 12.7945C13.7582 12.8029 13.7262 12.808 13.7312 12.8164C13.7784 12.8063 13.8087 12.7945 13.802 12.7777C14.4942 12.7069 15.1579 12.68 15.9832 12.5654C16.0018 12.5958 15.8889 12.6059 15.8283 12.6261C15.9345 12.6283 16.0408 12.6244 16.1466 12.6143C16.1719 12.5806 16.0371 12.6025 16.0641 12.5688C16.3757 12.5267 16.4077 12.5536 16.657 12.4997C16.8155 12.513 16.9751 12.5022 17.1303 12.4677C17.1674 12.5385 16.9299 12.493 16.9349 12.5402C16.9416 12.557 17.1286 12.5149 17.2465 12.5132C17.2516 12.4997 17.2381 12.4947 17.2095 12.4947C17.3021 12.4408 17.2448 12.5334 17.3661 12.5048C17.4251 12.4896 17.356 12.4896 17.4065 12.4543C17.681 12.421 17.9571 12.4035 18.2336 12.402C18.2251 12.4324 18.1005 12.4357 17.9944 12.4425C18.259 12.479 18.5284 12.4554 18.7827 12.3734C18.6732 12.397 18.5957 12.4054 18.5435 12.4155C18.5098 12.4206 18.5064 12.4122 18.5031 12.4054C18.5069 12.394 18.5092 12.3821 18.5098 12.37C18.7844 12.3852 19.0909 12.3161 19.3705 12.3498C19.2134 12.3679 19.0554 12.3781 18.8972 12.3802C19.287 12.4015 19.6779 12.3919 20.0662 12.3515C20.0426 12.338 19.9803 12.3414 19.9988 12.3145C19.9667 12.3233 19.9369 12.3388 19.9112 12.3599C19.7431 12.3355 19.5723 12.3355 19.4042 12.3599C19.6924 12.305 19.9851 12.2773 20.2784 12.2774C20.3054 12.3212 20.1268 12.3044 20.1437 12.3448C20.4755 12.3414 20.7753 12.3212 21.033 12.3364C21.0178 12.3566 20.9589 12.365 20.8696 12.365C20.9858 12.3802 20.8528 12.4037 20.9741 12.4155C20.9976 12.3987 21.0532 12.3599 21.1155 12.3195C21.2014 12.3279 21.6697 12.2993 21.604 12.3566C21.7185 12.3684 21.6849 12.3229 21.7034 12.301C21.8904 12.3145 21.9611 12.2993 22.2003 12.3027C22.1632 12.3212 22.138 12.3414 22.138 12.3717C22.2373 12.3751 22.1295 12.2959 22.2727 12.3161L22.2542 12.37C22.3574 12.378 22.4606 12.3533 22.5489 12.2993C22.7443 12.301 22.4731 12.3364 22.5153 12.3785C22.6231 12.3802 22.6416 12.3448 22.6618 12.3077C22.7191 12.301 22.8521 12.3212 22.8606 12.2926C22.9582 12.2959 22.7965 12.3161 22.8353 12.3498C22.9835 12.3354 23.133 12.3538 23.2732 12.4037C23.3423 12.3566 23.157 12.3919 23.2193 12.3465C23.3339 12.3734 23.5259 12.3178 23.5579 12.3734C23.7583 12.3465 23.7364 12.2875 23.9722 12.3044C23.7482 12.3852 24.23 12.338 24.0396 12.4054C24.1626 12.4307 24.0868 12.3566 24.1744 12.3633C24.1659 12.3044 23.9756 12.3835 24.0026 12.3161C24.0901 12.3077 24.2468 12.338 24.2839 12.3077C24.3108 12.3465 24.3866 12.3734 24.5163 12.3835C24.5803 12.333 24.4843 12.333 24.3815 12.3364C24.5907 12.3132 24.8013 12.3064 25.0115 12.3161C24.993 12.4054 25.2945 12.3751 25.2541 12.4425C25.3383 12.4324 25.313 12.3549 25.4124 12.4324C25.4865 12.4239 25.5859 12.3852 25.4882 12.4357C25.5284 12.4259 25.5699 12.4225 25.6111 12.4256C25.6987 12.3684 25.441 12.4155 25.5303 12.3599C25.8385 12.338 25.9548 12.3734 26.3051 12.3684C26.2765 12.3886 26.2226 12.3886 26.199 12.4155C26.1889 12.4442 26.3624 12.4239 26.3708 12.4509C26.5225 12.4174 26.677 12.3976 26.8323 12.3919C26.8273 12.4054 26.8188 12.4913 26.7548 12.52C26.8396 12.5077 26.926 12.5176 27.0058 12.5486C27.0968 12.5452 27.0412 12.4442 26.9368 12.4812C26.9115 12.4442 26.9485 12.4442 26.9115 12.397C27.0037 12.3946 27.0932 12.4285 27.1608 12.4913C27.2366 12.4964 27.2399 12.4509 27.3326 12.4677C27.2955 12.5637 27.4454 12.4492 27.7015 12.5065C27.5364 12.5334 27.6593 12.5503 27.6829 12.5907C27.7806 12.5941 27.6509 12.5604 27.725 12.525C27.8956 12.5096 28.0674 12.5338 28.227 12.5958C28.3331 12.5402 28.232 12.5536 28.2607 12.4913C28.3499 12.4913 28.3971 12.5065 28.3836 12.5351C28.419 12.4644 28.7424 12.5098 28.8586 12.5351C28.7744 12.5503 28.7239 12.5789 28.8603 12.5907C28.9513 12.589 28.8334 12.5587 28.9311 12.5419C28.9951 12.5385 29.1113 12.5772 29.1315 12.5402C29.2528 12.5823 29.0304 12.5621 29.0203 12.5856C29.0035 12.6497 29.1382 12.5873 29.1803 12.6328C29.2039 12.6109 29.2225 12.589 29.182 12.5806C29.2982 12.5671 29.4159 12.5717 29.5307 12.5941C29.5007 12.6004 29.4742 12.6179 29.4566 12.6429C29.6806 12.6007 29.9102 12.5973 30.1354 12.6328C30.0916 12.6665 29.9922 12.6783 30.0326 12.7153C30.0606 12.7125 30.0877 12.7041 30.1123 12.6904C30.137 12.6768 30.1585 12.6584 30.1758 12.6362C30.2516 12.6446 30.3257 12.6513 30.3965 12.6564C30.3864 12.6884 30.3426 12.685 30.3207 12.7069C30.4706 12.6328 30.7754 12.7221 30.9153 12.712C31.0045 12.781 30.6811 12.7187 30.6154 12.7372C30.6087 12.7642 30.6559 12.7743 30.6441 12.8012C31.0433 12.7457 31.1713 12.8703 31.6362 12.8198C31.7642 12.8198 31.6362 12.8855 31.7339 12.8905C31.6833 12.936 31.5924 12.8754 31.6581 12.8417C31.5385 12.845 31.5991 12.9208 31.5637 12.9495C31.7153 12.8922 31.8619 12.9326 31.9292 12.8568C32.0606 12.8568 31.9259 12.9208 32.0269 12.9293C31.9933 12.9545 31.9225 12.9326 31.8652 12.9276C31.9006 12.9747 31.9949 12.9528 31.872 13.0101C31.973 13.0421 32.0606 12.9444 32.1583 13.0084C32.1196 13.0371 32.1095 12.9848 32.0707 13.0168C32.0876 13.0943 32.2257 13.0034 32.2661 12.9848C32.4986 12.9613 32.7563 13.0236 32.9062 12.9933C32.8085 13.0455 33.0106 13.0236 32.9129 13.0792C33.1353 13.0387 33.0527 13.1112 33.2869 13.1145C33.2719 13.0883 33.2538 13.0639 33.233 13.0421C33.3323 13.0893 33.489 13.091 33.6827 13.1785C33.836 13.1566 33.7433 13.1415 33.772 13.0842C33.9134 13.0994 33.8764 13.155 33.8579 13.2105C33.9825 13.1499 33.9657 13.3167 34.1981 13.2476C34.1695 13.2139 34.1661 13.1735 34.0785 13.1566C34.2806 13.1078 34.1274 13.2257 34.3817 13.187C34.252 13.2695 34.4255 13.3082 34.2486 13.32C34.3379 13.3621 34.3733 13.3571 34.4946 13.411C34.6529 13.2965 34.7944 13.4379 34.9325 13.2645C35.0083 13.2931 34.9578 13.3183 34.9207 13.4009C34.8634 13.2762 34.8988 13.4295 34.7405 13.4127C34.9701 13.5013 35.2111 13.5569 35.4563 13.5777C35.5422 13.5019 35.4344 13.5626 35.3721 13.534C35.5035 13.4649 35.3603 13.4565 35.4226 13.4043C35.5389 13.4801 35.6585 13.4278 35.7562 13.4918C35.7039 13.5356 35.5961 13.4699 35.5237 13.4699C35.4664 13.5474 35.7225 13.5373 35.4917 13.5828C35.5928 13.6367 35.6147 13.5424 35.7073 13.5794C35.6534 13.6519 35.9819 13.6097 35.8421 13.7277C35.8968 13.7303 35.9512 13.7165 35.998 13.688C36.0448 13.6595 36.0821 13.6175 36.1048 13.5676C36.1503 13.5777 36.1941 13.5845 36.2396 13.598C36.1065 13.6047 36.1958 13.7243 36.0644 13.6822C36.2112 13.7074 36.3605 13.7147 36.5091 13.7041C36.3811 13.7984 36.5815 13.7462 36.595 13.8237C36.6691 13.8472 36.6775 13.726 36.7617 13.7849C36.6623 13.8051 36.7129 13.8472 36.6876 13.8944C36.819 13.8927 36.7213 13.8051 36.8325 13.8018C36.851 13.8371 36.8325 13.8776 36.9487 13.8506C36.9841 13.8119 36.8426 13.8051 36.8796 13.7613C36.9386 13.6923 37.0632 13.7613 37.1491 13.7479C37.0312 13.7714 37.0498 13.8203 37.1862 13.8338C37.1239 13.8877 37.0211 13.8355 36.9487 13.8506C37.0396 13.9331 37.5584 13.9011 37.513 14.0409C37.5618 14.0628 37.7033 13.9433 37.5719 13.9534C37.6881 13.9062 37.6679 13.9534 37.8212 13.9618C37.7866 13.9804 37.7476 13.9891 37.7083 13.987C37.7555 14.1538 38.1092 14.0191 38.2204 14.0376C38.0486 14.0982 38.2541 14.1589 38.4882 14.2161C38.5292 14.2212 38.5709 14.2171 38.6101 14.2043C38.6494 14.1915 38.6854 14.1702 38.7156 14.142C38.725 14.159 38.7408 14.1715 38.7594 14.1768C38.778 14.1822 38.798 14.18 38.815 14.1706C38.884 14.1925 38.8268 14.2397 38.7577 14.2902C38.7981 14.297 38.8133 14.3104 38.7981 14.3307C39.0777 14.2397 39.162 14.4166 39.3961 14.3862C39.3607 14.4098 39.359 14.4284 39.3759 14.4385C39.5005 14.366 39.5157 14.5378 39.7599 14.494C39.7094 14.4317 39.7886 14.4334 39.8846 14.3576C39.9839 14.3812 39.9587 14.425 39.8728 14.4418C39.9722 14.4503 40.2433 14.4368 40.1675 14.5311C40.2012 14.5378 40.2282 14.5143 40.2551 14.4991C40.2181 14.6221 40.0496 14.4637 39.8812 14.4721C39.706 14.6103 40.1456 14.4637 39.9115 14.6254C40.0018 14.6265 40.0918 14.6158 40.1793 14.5934C40.2164 14.6069 40.1591 14.6389 40.1339 14.6642C40.4178 14.6643 40.6985 14.7246 40.9575 14.841C40.7908 14.9589 41.0822 14.9387 41.2169 14.9269C41.0384 15.033 41.5285 15.1442 41.6228 15.0027C41.6363 15.033 41.6717 15.0617 41.7525 15.0802C41.71 15.09 41.6699 15.1083 41.6346 15.1341C41.8806 15.1577 41.9479 15.3025 42.1955 15.2065C42.1922 15.2335 42.2646 15.2503 42.2275 15.2823C42.2882 15.2908 42.2545 15.2503 42.3185 15.2166C42.4263 15.2638 42.396 15.2908 42.5391 15.3009C42.5071 15.3211 42.4768 15.343 42.4465 15.3649C42.8693 15.5367 43.1051 15.5805 43.4015 15.7017C43.3628 15.7742 43.1826 15.722 43.2432 15.7775C43.0916 15.8129 43.1354 15.7556 42.999 15.7489C42.9215 15.786 42.9367 15.8129 42.9047 15.8449C43.1236 15.9274 43.5683 15.951 43.4386 16.1397C43.6744 16.0336 43.9085 16.234 44.0719 16.2711C44.013 16.3165 43.9591 16.3368 43.9119 16.3081C43.8816 16.3384 43.9473 16.3536 43.9035 16.3805C44.018 16.3519 44.1393 16.2946 44.2454 16.3485C44.1713 16.3688 44.0921 16.4243 44.0281 16.362C43.9641 16.4176 44.1545 16.4513 44.1999 16.4412C44.2673 16.4041 44.2387 16.3789 44.3077 16.3418C44.5419 16.4681 44.5806 16.4698 44.8568 16.5961C44.5991 16.6888 44.9091 16.7023 44.7659 16.7814C44.6514 16.7275 44.5385 16.6753 44.424 16.6197C44.4307 16.7949 44.7339 16.7932 44.872 16.8741C44.9057 16.8926 44.6648 17.0071 44.616 16.9414C44.6025 17.0863 44.8467 16.992 44.8215 17.1267C44.9444 17.0509 44.8737 17.0021 44.8602 16.9465C44.9016 16.92 44.9503 16.9073 44.9994 16.9104C45.0485 16.9134 45.0953 16.932 45.1331 16.9633C45.1584 16.869 44.931 16.8505 45.2038 16.7595C45.0741 16.6652 45.0371 16.869 44.9512 16.7915C45.1567 16.6888 44.904 16.7545 44.9377 16.6736C45.0937 16.6832 45.2453 16.7288 45.3807 16.8067C45.3318 16.8286 45.2982 16.7949 45.2527 16.8235C45.3453 16.8926 45.3537 16.8909 45.5744 16.9061C45.4666 16.9734 45.3571 17.0594 45.2779 16.997C45.283 17.0947 45.5643 17.0055 45.6165 17.0055C45.5441 17.0695 45.4716 17.1133 45.5121 17.1992C45.5491 17.2109 45.6013 17.1688 45.6485 17.1453C45.7142 17.1789 45.6704 17.2244 45.7799 17.2531C45.6485 17.3187 45.7799 17.3491 45.6131 17.4148C46.0191 17.4552 45.9753 17.6742 46.3627 17.7432C46.0595 17.9015 45.8843 17.531 45.7917 17.6826C45.7513 17.7449 45.9247 17.8476 46.1353 17.8746C46.0679 17.9083 46.0949 17.9285 46.0477 17.9571C46.1959 17.9133 46.1302 18.006 46.2903 17.9655C46.3138 17.9992 46.2549 17.9841 46.2128 18.0127C46.3071 18.0767 46.4503 17.9858 46.5379 18.0683C46.4991 18.0902 46.4621 18.1104 46.4233 18.134C46.6457 18.1306 46.6019 18.326 46.8242 18.3277C46.681 18.4001 46.5143 18.1929 46.297 18.2384C46.206 18.3092 46.3711 18.3513 46.233 18.4271C46.2981 18.4149 46.3653 18.4202 46.4277 18.4424C46.4901 18.4645 46.5456 18.5029 46.5884 18.5534C46.5261 18.577 46.4789 18.5618 46.4183 18.5905C46.5176 18.6747 46.5176 18.6983 46.6979 18.6713C46.5766 18.737 46.7299 18.7319 46.74 18.7976C46.5126 18.769 46.2246 18.6629 46.1808 18.486C46.0797 18.5147 45.9786 18.5483 45.9146 18.4624C45.6738 18.6376 46.4637 18.6039 46.3105 18.8044C46.388 18.7757 46.4503 18.8145 46.5227 18.7993C46.4082 18.9408 46.4637 18.8549 46.5766 18.9795C46.5441 18.9973 46.5066 19.0034 46.4702 18.997C46.4337 18.9906 46.4006 18.9719 46.3762 18.9442C46.3202 18.9475 46.2651 18.9595 46.2128 18.9795C46.0848 19.0823 46.2886 19.0385 46.3374 19.1143C46.2515 19.153 46.2212 19.1884 46.27 19.212C46.2195 19.217 46.1505 19.2625 46.1067 19.249C46.1825 19.2777 45.9551 19.431 45.8675 19.532C45.9079 19.5792 46.0359 19.4192 46.0528 19.5118C46.0174 19.5354 45.9786 19.5556 45.9382 19.5792C46.0679 19.6533 46.2953 19.6533 46.1723 19.7981C46.1572 19.7628 45.7681 19.8874 45.9264 19.8773C45.6013 19.8975 45.5794 19.6988 45.2577 19.6499C45.1769 19.7005 45.3369 19.7274 45.3521 19.7678C45.2156 19.8739 45.3066 19.6583 45.1095 19.7931C45.0708 19.9548 45.4716 19.9076 45.5525 20.1199C45.3916 20.0985 45.2352 20.0513 45.0893 19.9801C45.128 20.0895 45.2914 20.1199 45.2544 20.258C45.1668 20.2445 45.0185 20.3607 44.9158 20.3675C44.9798 20.5494 45.064 20.5629 45.2342 20.6723C45.16 20.7043 45.1769 20.7279 45.1971 20.7515C45.1668 20.7693 45.1309 20.775 45.0966 20.7675C45.0622 20.76 45.032 20.7399 45.0118 20.7111C44.8097 20.8391 45.1331 20.8121 44.9983 20.9183C44.8501 20.9587 44.9192 20.8745 44.8164 20.8795C44.8131 21.0446 45.1129 21.1861 45.2173 21.277C45.0287 21.3461 44.7406 21.1642 44.6025 21.0884C44.3945 20.9808 44.2033 20.8435 44.0349 20.6808C43.5936 20.7043 43.3409 20.2075 42.9501 20.2125C42.7211 19.9211 42.054 19.8756 41.761 19.6213C41.6346 19.6634 41.6043 19.7291 41.4544 19.7341C41.414 19.6634 41.5487 19.7055 41.5807 19.6802C41.419 19.6853 41.2843 19.6112 41.4241 19.4899C41.3837 19.4175 41.0619 19.5118 41.2068 19.3973C41.0872 19.3888 41.0939 19.4596 40.9963 19.4747C40.4927 19.2916 40.0135 19.0472 39.5696 18.7471C39.6016 18.7269 39.6218 18.7471 39.6488 18.7522C39.6824 18.7185 39.6134 18.7016 39.5814 18.6747C39.5359 18.7185 39.4045 18.7707 39.5089 18.7909C39.1856 18.6876 38.88 18.5354 38.6028 18.3395C38.5419 18.3566 38.4771 18.353 38.4186 18.3292C38.36 18.3054 38.311 18.2628 38.2794 18.2081C38.0958 18.235 37.9054 18.0548 37.6932 18.0599C37.356 17.8532 36.9959 17.6865 36.6202 17.563C36.5108 17.5242 35.9937 17.4754 35.9616 17.344C34.9813 17.061 34.284 16.7545 33.0174 16.4547C33.0241 16.421 32.9584 16.3991 32.918 16.3721C31.8029 16.0841 30.4083 15.7489 29.3185 15.4727C28.2758 15.3312 27.5078 15.1105 26.5274 14.9606C26.3742 14.9387 26.1956 14.9724 26.0996 14.8747C25.4528 14.8511 24.9677 14.7231 24.3007 14.6524C24.235 14.6456 24.1676 14.6541 24.0986 14.6456C20.8701 14.2555 17.6144 14.1383 14.3662 14.2953C14.1153 14.3054 13.8188 14.3003 13.5594 14.3104C13.1889 14.3239 12.788 14.3677 12.414 14.3964C12.9648 14.4081 13.6554 14.3054 14.1287 14.3357C14.4825 14.3054 15.2472 14.2801 15.68 14.2768C15.8632 14.2627 16.0474 14.2689 16.2292 14.2953C16.2696 14.2902 16.2595 14.2734 16.2628 14.2616C16.3302 14.2481 16.3757 14.2919 16.401 14.2582C16.4414 14.2582 16.4296 14.2784 16.4363 14.2919C17.863 14.2229 19.2981 14.3391 20.585 14.3761C20.6271 14.3795 20.6001 14.4098 20.6001 14.4284C19.9685 14.398 19.3335 14.3593 18.7338 14.3458C18.754 14.3458 18.6344 14.3391 18.5317 14.3408C18.429 14.3425 18.2622 14.3391 18.1628 14.3357C17.2819 14.3088 16.2831 14.2902 15.3381 14.3155C13.135 14.3812 11.1743 14.5176 8.63598 14.8107C8.59555 14.8158 8.61577 14.8225 8.61745 14.8343C8.35745 14.8415 8.09867 14.8725 7.84432 14.9269C7.83662 14.9172 7.82754 14.9087 7.81737 14.9017C7.77526 14.9067 7.80053 14.9151 7.80221 14.9236C7.33732 14.9758 6.7899 15.0667 6.31322 15.1375C5.53672 15.2554 4.77707 15.3767 4.13532 15.503C3.18533 15.6445 2.60927 15.8011 1.74182 15.9578C1.54475 15.9578 1.11355 16.0201 1.04449 15.9965C0.997325 16.0032 0.929949 16.0134 0.870996 16.0235C0.845731 16.0066 0.796884 16.0032 0.641921 16.0134C0.748037 15.9746 0.716033 15.9477 0.50717 15.983C0.510539 15.9611 0.579599 15.9325 0.678977 15.8988C0.545911 15.9056 0.428005 15.887 0.518961 15.8298C0.401055 15.8348 0.352208 15.8197 0.492011 15.7792C0.428005 15.7792 0.446533 15.7792 0.379158 15.7775C0.498749 15.7186 0.530752 15.6664 0.503802 15.6394C0.446003 15.647 0.389043 15.6599 0.33368 15.6782C0.316836 15.6731 0.451586 15.6411 0.456639 15.6327C0.257883 15.6192 0.355576 15.5485 0.411161 15.4727C0.508855 15.4491 0.475167 15.4457 0.594758 15.4188C0.57623 15.4137 0.52233 15.4272 0.510539 15.4188C0.933318 15.2908 1.68118 15.1139 2.32125 14.9724C2.36672 14.9606 2.33809 14.9556 2.32967 14.9539C2.36167 14.9438 2.37009 14.9438 2.37851 14.9455C2.40715 14.9387 2.42905 14.9337 2.45936 14.9252C2.52842 14.9337 2.37009 14.9421 2.40041 14.9522C2.48934 14.9355 2.57668 14.9113 2.66149 14.8798C2.81717 14.8672 2.96942 14.8273 3.11122 14.7619C3.22552 14.7482 3.33867 14.7263 3.44978 14.6962C3.53568 14.676 3.38072 14.6979 3.34366 14.7063C3.40151 14.6838 3.4638 14.6752 3.52558 14.681V14.681ZM11.8934 19.9285C11.9574 19.9369 12.1258 19.9976 12.0837 19.9454C12.0197 19.9302 11.954 19.9201 11.8866 19.9066L11.8934 19.9285ZM11.6997 19.8931C11.7485 19.9235 11.8866 19.9487 11.853 19.8965C11.7805 19.8611 11.7165 19.8713 11.6997 19.8931ZM11.3055 19.8224C11.3914 19.8409 11.4773 19.8544 11.5666 19.8696C11.4992 19.8089 11.3022 19.7752 11.3055 19.8224ZM10.3101 19.6439C10.6587 19.723 10.8457 19.7314 11.1085 19.787C10.8497 19.7049 10.5813 19.6568 10.3101 19.6439V19.6439ZM38.8468 41.2089C38.862 41.2696 38.8771 41.3269 38.894 41.3858C38.9917 41.31 39.1365 41.4464 39.0776 41.3066C38.9159 41.401 38.9681 41.1753 38.8468 41.2089ZM39.2645 40.2135C39.1045 40.2286 39.3201 40.3112 39.2915 40.4341C39.4599 40.4072 39.2797 40.2707 39.2645 40.2135ZM35.7442 31.9129C36.0423 32.2868 36.1804 32.6624 36.4887 32.8443C36.4954 32.686 36.2865 32.6102 36.3219 32.4637C36.0642 32.4114 36.0844 32.0493 35.7442 31.9129ZM38.7558 37.1496C38.8283 37.1648 38.8771 37.2203 38.8535 37.2793C38.8889 37.2675 38.9209 37.2574 38.9597 37.2439C38.9546 37.1142 38.7441 37.0839 38.7558 37.1496ZM29.2442 24.9463C29.2576 24.9985 29.3772 25.0659 29.389 25.1215C29.4278 25.0827 29.6029 25.1097 29.5591 25.0575C29.4884 25.1349 29.3166 24.8688 29.2442 24.9463V24.9463ZM37.3578 33.8583C37.1304 33.8246 36.9266 33.4423 37.0209 33.3042C36.9721 33.3176 36.9148 33.3682 36.8761 33.3277C36.8474 33.2587 37.0159 33.2604 36.8896 33.1543C36.7481 33.3092 36.6386 32.8595 36.4466 32.905C36.7801 33.412 37.0782 33.764 37.3662 34.2221C37.5599 34.5287 37.6475 35.0155 38.0501 35.1671C38.0063 34.7157 37.3342 34.2895 37.3578 33.8583V33.8583ZM28.2453 24.0603C28.3009 24.1075 28.2133 24.1395 28.2908 24.1849C28.3531 24.0872 28.3615 24.1799 28.402 24.2321C28.402 24.1765 28.5502 24.2388 28.466 24.1597C28.4407 24.19 28.3127 23.9862 28.2453 24.0603V24.0603ZM16.6955 18.7629C16.6252 18.7299 16.5502 18.7077 16.4732 18.6972C16.499 18.7297 16.5342 18.7534 16.574 18.7651C16.6138 18.7769 16.6562 18.7761 16.6955 18.7629V18.7629ZM16.0218 18.6164C16.17 18.64 16.2155 18.6905 16.2829 18.6602C16.2009 18.6238 16.1111 18.6088 16.0218 18.6164ZM3.92796 18.0942C4.05227 18.0347 4.1877 18.002 4.32547 17.9982C4.41643 17.9881 4.36253 18.0218 4.35747 18.0302C4.40801 18.037 4.52254 18.0168 4.59666 18.0168C4.62024 17.978 4.43664 18.0353 4.4198 18.01C4.77618 17.9289 5.13931 17.881 5.50454 17.8668C6.37367 17.7826 7.20576 17.7304 7.84077 17.6883C7.9132 17.7035 8.05468 17.6967 8.12543 17.7136C8.17933 17.7473 8.01594 17.7321 7.99742 17.7506C8.02268 17.7725 8.20291 17.7422 8.20291 17.7776C8.23491 17.7691 8.22986 17.7506 8.3006 17.7523C8.25007 17.7405 8.18438 17.7338 8.19449 17.7018C8.38482 17.695 9.06363 17.631 9.20511 17.7489C9.29807 17.7413 9.39164 17.7504 9.48135 17.7759C9.45946 17.7506 9.62789 17.754 9.52178 17.7051C9.59757 17.7068 9.67674 17.7102 9.75254 17.7102C9.70826 17.7303 9.65946 17.7385 9.61105 17.7338C9.87744 17.7738 10.147 17.7891 10.4162 17.7793C10.4852 17.8062 10.4162 17.7944 10.4347 17.8281C11.0254 17.8112 11.6166 17.8382 12.2033 17.909C12.2404 17.946 12.3448 17.9629 12.4037 17.9915C12.8458 17.9783 13.2878 18.0167 13.7209 18.106C13.7142 18.1195 13.6856 18.1144 13.6872 18.1296C13.7327 18.1296 13.763 18.1229 13.7597 18.0959C14.4183 18.2121 15.0499 18.389 15.8348 18.5002C15.8517 18.5507 15.7405 18.5254 15.6832 18.5322C15.7806 18.5724 15.8816 18.6034 15.9847 18.6248C16.0134 18.5827 15.882 18.5743 15.9123 18.5322C16.0987 18.5779 16.2877 18.6122 16.4783 18.6349C16.6177 18.7032 16.7695 18.7427 16.9246 18.7511C16.9499 18.8623 16.7292 18.7158 16.7326 18.7882C16.736 18.8118 16.9162 18.8168 17.0274 18.8573C17.0341 18.8404 17.0223 18.8269 16.9937 18.8168C17.0863 18.7697 17.024 18.8825 17.1385 18.8859C17.1975 18.8825 17.1335 18.8573 17.1857 18.8286C17.4513 18.8752 17.7118 18.9468 17.9639 19.0425C17.9521 19.0863 17.8359 19.0442 17.7348 19.0173C17.9567 19.1572 18.2178 19.2216 18.4793 19.2009C18.3732 19.1941 18.3008 19.179 18.2519 19.1739C18.2199 19.1689 18.2149 19.1554 18.2149 19.1453C18.2216 19.1301 18.2216 19.1116 18.2266 19.0964C18.4997 19.1776 18.7684 19.2726 19.0318 19.3811C18.8794 19.3485 18.7296 19.3046 18.5837 19.2497C18.9322 19.419 19.2982 19.5495 19.6752 19.6388C19.6567 19.6102 19.5944 19.5916 19.6179 19.563C19.5864 19.5626 19.5556 19.5727 19.5304 19.5916C19.3874 19.4999 19.2277 19.4375 19.0604 19.408C19.2726 19.3609 19.6011 19.558 19.8824 19.6102C19.9009 19.6877 19.7375 19.5933 19.7476 19.6607C20.0559 19.7803 20.3355 19.8611 20.573 19.9824C20.5528 20.0094 20.4972 19.9993 20.4147 19.9622C20.5191 20.0262 20.3928 20.0094 20.5022 20.0734C20.5292 20.0599 20.5865 20.0245 20.6505 19.9892C20.7263 20.0346 21.1625 20.1728 21.0935 20.2317C21.1962 20.2907 21.1726 20.2182 21.1962 20.1913C21.3646 20.2856 21.432 20.2873 21.6493 20.3867C21.6314 20.3901 21.6151 20.3991 21.6027 20.4125C21.5903 20.4258 21.5824 20.4427 21.5802 20.4608C21.6712 20.5063 21.5853 20.3496 21.715 20.4338C21.7049 20.4574 21.6965 20.481 21.6864 20.5063C21.8245 20.5568 21.9239 20.5652 21.971 20.5181C22.1496 20.604 21.8952 20.5433 21.9255 20.6208C22.0215 20.668 22.0485 20.6208 22.0721 20.5787C22.126 20.5888 22.2456 20.673 22.2574 20.6343C22.3449 20.6781 22.1934 20.6444 22.2237 20.705C22.473 20.7808 22.4965 20.8751 22.6128 20.961C22.6835 20.9189 22.5083 20.8987 22.5723 20.8566C22.6717 20.9391 22.8604 20.9408 22.8772 21.0318C23.0642 21.0739 23.0574 20.9796 23.2663 21.0992C23.049 21.1278 23.492 21.2558 23.3084 21.2743C23.4145 21.3602 23.3606 21.2221 23.4398 21.2676C23.4448 21.18 23.2545 21.2154 23.2949 21.1329C23.3724 21.1547 23.5122 21.2609 23.5493 21.2289C23.585 21.3207 23.6551 21.395 23.7447 21.436C23.812 21.3939 23.7278 21.3535 23.6335 21.3148C23.8356 21.3215 23.9855 21.4849 24.2079 21.5472C24.1725 21.6651 24.4487 21.7527 24.3982 21.8302C24.4774 21.8504 24.4689 21.7274 24.5447 21.8858C24.6121 21.9009 24.7115 21.8875 24.6121 21.9195C24.6519 21.9242 24.6906 21.9356 24.7267 21.9531C24.8159 21.9093 24.5734 21.8706 24.666 21.8251C24.9025 21.9277 25.1336 22.0424 25.3583 22.1687C25.3297 22.1873 25.2808 22.1671 25.2539 22.1906C25.237 22.2294 25.4004 22.2732 25.3987 22.3153C25.5537 22.3709 25.7238 22.3456 25.8299 22.4298C25.8198 22.4467 25.7912 22.5679 25.7272 22.5831C25.8653 22.6437 25.872 22.6437 25.9445 22.733C26.027 22.765 26.0017 22.5966 25.899 22.6016C25.8838 22.5393 25.9209 22.5578 25.8939 22.4702C26.0337 22.5477 26.0337 22.6016 26.0961 22.7145C26.1618 22.7566 26.1769 22.6926 26.2561 22.7566C26.1988 22.8795 26.3605 22.7802 26.5711 22.9739C26.4211 22.9385 26.5273 23.0194 26.5374 23.0884C26.6216 23.1339 26.5155 23.0295 26.5896 23.0143C26.822 23.1474 26.8961 23.1575 27.0174 23.336C27.1269 23.304 27.0326 23.2771 27.073 23.2013C27.1505 23.2417 27.1892 23.2838 27.1724 23.3209C27.2212 23.2316 27.4975 23.4421 27.5901 23.5331C27.5126 23.5162 27.4638 23.5331 27.58 23.6123C27.6608 23.651 27.5615 23.5567 27.6541 23.5769C27.7114 23.5988 27.8023 23.7066 27.831 23.6628C27.927 23.7756 27.7366 23.6476 27.7198 23.6779C27.6878 23.7605 27.8242 23.7318 27.8495 23.8194C27.8748 23.7942 27.8983 23.774 27.8647 23.7453C27.977 23.7816 28.0803 23.8413 28.1678 23.9205C28.1528 23.9199 28.1378 23.9227 28.1241 23.9289C28.1104 23.935 28.0982 23.9442 28.0887 23.9559C28.3099 24.0043 28.5155 24.1074 28.6866 24.2557C28.6361 24.281 28.5468 24.2523 28.5755 24.3247C28.6018 24.3334 28.6303 24.3331 28.6564 24.324C28.6826 24.3149 28.7051 24.2974 28.7203 24.2742C28.7826 24.3231 28.8467 24.3702 28.9073 24.4123C28.8888 24.4494 28.85 24.4224 28.8264 24.4443C28.9814 24.4073 29.2189 24.6801 29.3452 24.7324C29.4008 24.8688 29.1397 24.6296 29.074 24.6263C29.0606 24.6616 29.101 24.6953 29.0825 24.729C29.4446 24.8351 29.5204 25.0743 29.9381 25.2208C30.0493 25.2815 29.9179 25.3168 30.0021 25.3707C29.9415 25.4095 29.8825 25.2815 29.9482 25.2629C29.8455 25.2158 29.8741 25.3488 29.8354 25.3741C29.9836 25.364 30.0981 25.4887 30.1807 25.4129C30.2935 25.4752 30.1554 25.5055 30.243 25.5628C30.2059 25.583 30.1487 25.519 30.1032 25.4853C30.1184 25.5678 30.2076 25.5813 30.0847 25.6066C30.1588 25.7009 30.2666 25.6015 30.3289 25.7413C30.2885 25.7598 30.2935 25.6824 30.2514 25.7093C30.243 25.8272 30.3879 25.7649 30.4283 25.7548C30.6388 25.8356 30.8393 26.0495 30.9774 26.0799C30.878 26.1051 31.0566 26.1708 30.9555 26.2028C31.1576 26.2517 31.065 26.3157 31.2637 26.4353C31.257 26.3932 31.2503 26.3511 31.2402 26.3039C31.3092 26.4235 31.4406 26.4993 31.5787 26.7166C31.7168 26.7637 31.641 26.6947 31.6848 26.629C31.7994 26.7182 31.7505 26.7823 31.7185 26.8513C31.8448 26.826 31.7707 27.0534 31.9914 27.0686C31.9779 27.0063 31.9897 26.9507 31.9206 26.8833C32.1127 26.9119 31.9409 27.0063 32.1682 27.0753C32.0301 27.1276 32.1632 27.269 32.0099 27.1983C32.0722 27.301 32.1026 27.3145 32.1885 27.4476C32.3586 27.365 32.431 27.6329 32.6079 27.4594C32.6601 27.5352 32.6096 27.5486 32.5506 27.6463C32.5439 27.4392 32.5203 27.675 32.3956 27.5739C32.544 27.798 32.7271 27.997 32.938 28.1634C33.0357 28.0994 32.9245 28.1314 32.8807 28.059C33.0155 28.0304 32.8976 27.9462 32.97 27.9007C33.0408 28.0674 33.1587 28.0556 33.2159 28.1938C33.1587 28.2291 33.0913 28.0843 33.0306 28.0455C32.9565 28.1264 33.1755 28.2392 32.965 28.1887C33.029 28.3184 33.0795 28.1954 33.1452 28.2931C33.0744 28.3689 33.3625 28.4767 33.2041 28.5711C33.3204 28.6587 33.4399 28.5492 33.4787 28.4767C33.5157 28.5121 33.5477 28.5492 33.5848 28.5862C33.4703 28.529 33.4989 28.7462 33.4063 28.6182C33.5109 28.7252 33.6334 28.813 33.7684 28.8776C33.6252 28.945 33.8088 28.9736 33.792 29.0848C33.8476 29.164 33.8964 28.9922 33.9469 29.1185C33.856 29.0983 33.8813 29.1808 33.8425 29.2347C33.9537 29.3021 33.9048 29.1269 33.9975 29.1808C34.0008 29.2414 33.9705 29.2886 34.075 29.3105C34.1204 29.2734 34.0042 29.1892 34.0497 29.1488C34.1255 29.0797 34.2047 29.2448 34.2788 29.2684C34.1727 29.2414 34.171 29.3172 34.2771 29.4082C34.2063 29.4486 34.1423 29.3257 34.075 29.3105C34.1221 29.4705 34.5584 29.6945 34.4657 29.8697C34.4977 29.9253 34.6611 29.8293 34.5466 29.7754C34.6611 29.7687 34.6274 29.8242 34.7504 29.9169C34.7138 29.9232 34.6763 29.9147 34.646 29.8933C34.6224 30.1527 34.9643 30.1476 35.0452 30.2319C34.8818 30.2234 35.0249 30.4171 35.1951 30.6243C35.2608 30.6614 35.3298 30.7001 35.4073 30.6378C35.409 30.6698 35.4258 30.7456 35.4764 30.7271C35.5235 30.7961 35.4578 30.8349 35.382 30.8686C35.4124 30.9006 35.4191 30.9241 35.3989 30.946C35.6633 30.9629 35.6583 31.2576 35.8587 31.3419C35.8217 31.3537 35.8116 31.3789 35.8233 31.4025C35.9497 31.3671 35.8941 31.613 36.1046 31.6855C36.0912 31.5709 36.1535 31.613 36.263 31.5642C36.3303 31.6484 36.2933 31.6939 36.2192 31.6703C36.2933 31.7377 36.5139 31.8623 36.4162 31.9533C36.4415 31.9836 36.4718 31.96 36.4988 31.9567C36.4196 32.1116 36.3506 31.795 36.2124 31.7158C36.0154 31.8185 36.428 31.8489 36.1737 31.9482C36.2478 31.9752 36.3186 32.0577 36.4011 32.0459C36.4247 32.0864 36.3657 32.0998 36.332 32.1234C36.5816 32.2995 36.7817 32.5367 36.9131 32.8123C36.7329 32.8848 36.9687 33.0145 37.0799 33.0734C36.8929 33.1256 37.2315 33.545 37.3662 33.3985C37.3658 33.4656 37.3904 33.5305 37.4353 33.5804C37.3969 33.5693 37.3559 33.5717 37.3191 33.5871C37.4993 33.7573 37.4875 33.9948 37.7233 33.9948C37.7098 34.0335 37.7553 34.0941 37.7166 34.1177C37.7587 34.1632 37.7503 34.0925 37.8126 34.0773C37.8783 34.2036 37.8412 34.2255 37.949 34.3131C37.9153 34.3249 37.8817 34.3401 37.848 34.3552C38.0973 34.8268 38.259 35.0155 38.4291 35.3524C38.3668 35.4282 38.2539 35.253 38.2741 35.3642C38.141 35.3288 38.2 35.2766 38.1006 35.1907C38.0231 35.2008 38.0215 35.2463 37.9827 35.2732C38.1141 35.509 38.4392 35.7853 38.2539 35.9739C38.4847 35.9604 38.5655 36.368 38.6716 36.5112C38.6043 36.5399 38.5571 36.5365 38.5335 36.4708C38.4948 36.4961 38.5402 36.5516 38.4914 36.5668C38.5925 36.5887 38.7104 36.5786 38.766 36.7133C38.7003 36.6982 38.6144 36.7336 38.5958 36.6089C38.5217 36.651 38.6497 36.8026 38.6868 36.8178C38.7558 36.8009 38.7457 36.7504 38.8148 36.7369C38.931 37.0452 38.9597 37.0704 39.1079 37.3972C38.8704 37.3787 39.0927 37.5741 38.9479 37.5993C38.8872 37.4629 38.83 37.3248 38.771 37.1867C38.6902 37.4292 38.9159 37.5993 38.9832 37.7863C38.9967 37.8318 38.7626 37.8537 38.7575 37.7358C38.6801 37.9261 38.9041 37.9345 38.8199 38.1046C38.9479 38.0693 38.9209 37.9648 38.9361 37.8789C39.0405 37.8621 39.1028 37.9244 39.1331 38.0558C39.1955 37.9429 39.0371 37.7863 39.2831 37.8183C39.2342 37.6145 39.1062 37.8705 39.0792 37.7189C39.2831 37.6953 39.0641 37.6431 39.1281 37.5488C39.2499 37.6696 39.3406 37.8181 39.3925 37.9817C39.3454 37.985 39.337 37.9177 39.2881 37.9311C39.3235 38.0811 39.3302 38.0827 39.4869 38.231C39.3723 38.2613 39.2494 38.3135 39.2207 38.1838C39.1769 38.327 39.4296 38.359 39.4667 38.3893C39.3808 38.4348 39.3083 38.4533 39.2948 38.5948C39.3184 38.6318 39.374 38.6049 39.4212 38.5965C39.4532 38.6807 39.3976 38.7178 39.4616 38.8188C39.3353 38.8357 39.4161 38.9502 39.2628 38.9502C39.5391 39.2332 39.3959 39.5044 39.6401 39.821C39.3403 39.8648 39.4026 39.2584 39.2561 39.4117C39.1972 39.4774 39.2713 39.7149 39.4077 39.8732C39.3437 39.8766 39.3538 39.9238 39.305 39.9339C39.4363 39.9575 39.3403 40.0467 39.4751 40.0855C39.4751 40.1411 39.4414 40.0888 39.3976 40.1023C39.4313 40.2455 39.5778 40.2034 39.6031 40.3634C39.5627 40.3718 39.5256 40.3785 39.4852 40.3853C39.6469 40.5099 39.5155 40.7525 39.6738 40.8788C39.534 40.8957 39.5206 40.5183 39.342 40.4594C39.2409 40.5049 39.3353 40.6531 39.2005 40.6817C39.2619 40.7216 39.3116 40.7771 39.3445 40.8425C39.3774 40.9079 39.3922 40.9809 39.3875 41.054C39.3319 41.0506 39.3066 41.0035 39.2477 41.0085C39.2763 41.182 39.2645 41.2089 39.4043 41.278C39.2864 41.2965 39.3959 41.3791 39.3706 41.47C39.2806 41.3711 39.2127 41.2542 39.1715 41.1269C39.1302 40.9997 39.1166 40.8652 39.1315 40.7323C39.0456 40.7121 38.9546 40.7019 38.9529 40.5504C38.6918 40.6531 39.2763 41.0489 39.0607 41.2393C39.1331 41.2443 39.1567 41.3302 39.2157 41.3488C39.0607 41.4818 39.1433 41.3959 39.1601 41.6267C39.0708 41.6401 39.0523 41.5542 39.0355 41.465C38.9952 41.44 38.9496 41.4249 38.9024 41.4212C38.7592 41.4902 38.9226 41.5458 38.9209 41.6772C38.8418 41.6806 38.803 41.7126 38.8215 41.7715C38.7862 41.7496 38.7154 41.7732 38.6902 41.726C38.7289 41.812 38.4897 41.8911 38.3752 41.9804C38.3802 42.0697 38.552 41.9231 38.5183 42.0596L38.4021 42.0848C38.4543 42.2583 38.6144 42.383 38.4543 42.5143C38.4594 42.4588 38.1242 42.4082 38.2421 42.4857C38.0012 42.3341 38.0905 42.0495 37.8867 41.8018C37.8042 41.8254 37.9019 41.9518 37.8951 42.0174C37.7435 42.0848 37.9153 41.8389 37.7098 41.9198C37.5987 42.1151 37.9069 42.2718 37.8564 42.6053C37.7457 42.4738 37.6591 42.3238 37.6004 42.1623C37.5734 42.3307 37.6728 42.4604 37.5751 42.6322C37.5212 42.5632 37.3578 42.6424 37.2871 42.5952C37.2502 42.7946 37.2737 43.0004 37.3544 43.1864C37.2837 43.1915 37.282 43.2319 37.2871 43.2723C37.1978 43.2858 37.1877 43.2049 37.1793 43.1173C36.9721 43.1814 37.213 43.3212 37.0647 43.3953C36.9418 43.3666 37.0327 43.2908 36.9586 43.2403C36.8727 43.4677 37.0091 43.8214 37.0327 44C36.8693 43.9932 36.7649 43.5873 36.706 43.4104C36.6105 43.1292 36.5461 42.8383 36.5139 42.543C36.1922 42.3392 36.2545 41.5222 35.9733 41.3184C35.9497 40.7946 35.4915 40.3785 35.3955 39.8732C35.2843 39.8631 35.2338 39.9372 35.121 39.8648C35.1243 39.7435 35.2035 39.8749 35.2389 39.8581C35.1193 39.7789 35.0519 39.6071 35.2102 39.5111C35.2119 39.3898 34.9357 39.3528 35.094 39.2669C35.0098 39.1944 34.9828 39.2955 34.9054 39.2685C34.6029 38.7091 34.3564 38.1212 34.1693 37.5134C34.2013 37.4999 34.208 37.5404 34.2249 37.5606C34.2653 37.532 34.2215 37.4713 34.2097 37.4208C34.1541 37.4562 34.0362 37.4629 34.1036 37.5421C33.8943 37.2 33.7296 36.8327 33.6134 36.4489C33.5482 36.4191 33.4943 36.3692 33.4597 36.3063C33.4251 36.2435 33.4117 36.1713 33.4214 36.1002C33.2698 36.043 33.1974 35.6943 33.0323 35.5932C32.8685 35.1586 32.6561 34.7438 32.399 34.3569C32.3299 34.2508 31.9442 33.9257 31.9678 33.7253C31.3399 32.7938 30.6606 31.898 29.9331 31.042C29.9516 30.9949 29.9061 30.9326 29.8809 30.8753C29.0724 29.9371 28.023 28.817 27.1808 27.9377C26.342 27.269 25.744 26.6172 24.9406 25.9839C24.8109 25.8862 24.6475 25.8609 24.5885 25.679C24.0344 25.3741 23.6419 24.9884 23.0726 24.6128C23.0136 24.5774 22.9547 24.5622 22.8957 24.5201C20.2328 22.6936 17.2832 21.325 14.169 20.4709C13.9382 20.4069 13.6603 20.3041 13.4211 20.2351C13.0741 20.1408 12.6985 20.0801 12.3465 20.0094C12.8619 20.1913 13.507 20.2603 13.945 20.4524C14.2751 20.5231 14.9842 20.7337 15.3817 20.8718C15.5593 20.9183 15.7295 20.9898 15.887 21.084C15.9241 21.0941 15.9157 21.0655 15.919 21.0486C15.9831 21.0503 16.0218 21.1295 16.0454 21.0907C16.0824 21.1042 16.0706 21.1278 16.074 21.1497C17.3634 21.59 18.6179 22.1265 19.8268 22.7549C19.8622 22.7785 19.8352 22.8122 19.8319 22.8374C19.2693 22.5545 18.7033 22.2681 18.1593 22.0323C18.1028 21.9996 18.0429 21.9731 17.9807 21.9531C17.8847 21.9195 17.7365 21.8538 17.6439 21.8133C16.8028 21.4349 15.9419 21.102 15.0651 20.8162C13.0229 20.1772 10.9213 19.7466 8.79244 19.531C8.75539 19.526 8.77728 19.5411 8.77897 19.558C8.53964 19.5011 8.29376 19.4768 8.04795 19.4855C8.04035 19.4707 8.03132 19.4566 8.021 19.4434C7.98057 19.4401 8.00584 19.4603 8.00921 19.4721C7.56958 19.4266 7.05248 19.4165 6.60275 19.4064C5.87173 19.3845 5.15418 19.3794 4.55118 19.4148C3.65509 19.4047 3.11777 19.5091 2.30085 19.5563C2.11725 19.5142 1.70963 19.5192 1.64226 19.4721C1.59678 19.4704 1.53614 19.4737 1.47887 19.4754C1.45361 19.4468 1.40644 19.4316 1.26159 19.4165C1.3576 19.3828 1.32559 19.3339 1.12852 19.3474C1.13021 19.3171 1.19253 19.2868 1.28517 19.2581C1.15884 19.2447 1.04262 19.1924 1.12515 19.1268C1.01398 19.1116 0.965136 19.0813 1.09652 19.0526C1.0342 19.0375 1.05272 19.0442 0.987033 19.0274C1.09652 18.9651 1.12347 18.896 1.09483 18.8522C1.04041 18.8538 0.986265 18.8605 0.933133 18.8724C0.919658 18.8623 1.0443 18.8455 1.05104 18.8337C0.855652 18.7764 0.941555 18.6939 0.990402 18.5928C1.08473 18.5793 1.05104 18.5692 1.16052 18.5507C1.14536 18.5423 1.09146 18.5507 1.08136 18.5389C1.64426 18.4093 2.21468 18.3147 2.78932 18.2559C2.82806 18.2475 2.80448 18.2374 2.79606 18.229C2.81143 18.2243 2.82785 18.2243 2.84322 18.229C2.86848 18.2256 2.8887 18.2206 2.91733 18.2172C2.98471 18.2425 2.8348 18.2239 2.86006 18.2425C2.97291 18.2509 3.01502 18.2054 3.10935 18.1953C3.25438 18.2091 3.40044 18.1835 3.53213 18.1212C3.64035 18.1266 3.74882 18.1198 3.85553 18.101C3.93806 18.0875 3.78984 18.0875 3.75447 18.0909C3.7831 18.0589 3.89595 18.0858 3.92796 18.0942V18.0942ZM11.8951 17.028C11.9641 17.0247 12.1444 17.0533 12.1006 17.0162C12.0332 17.0145 11.9608 17.0112 11.8883 17.0095L11.8951 17.028V17.028ZM11.6828 17.0196C11.7367 17.0364 11.8866 17.0415 11.8513 17.0061C11.8239 16.9961 11.7947 16.9921 11.7656 16.9945C11.7365 16.9968 11.7083 17.0054 11.6828 17.0196V17.0196ZM11.2584 17.0044C11.351 17.0112 11.4453 17.0112 11.543 17.0162C11.4689 16.9758 11.255 16.9691 11.2584 17.0044ZM10.1804 16.9691C10.5594 16.9943 10.7632 16.9825 11.0445 16.9977C10.7579 16.9614 10.4687 16.9518 10.1804 16.9691V16.9691ZM43.4553 29.1572C43.4856 29.1993 43.5125 29.2414 43.5412 29.2836C43.6355 29.2027 43.8191 29.2768 43.7298 29.1808C43.5698 29.2903 43.5799 29.105 43.4553 29.1572V29.1572ZM43.7079 28.3083C43.5378 28.3555 43.7854 28.3757 43.7803 28.4751C43.9589 28.4178 43.7332 28.3521 43.7079 28.3083ZM38.4998 22.7061C38.8721 22.9335 39.0725 23.1928 39.4296 23.2703C39.4161 23.1474 39.1786 23.1322 39.1955 23.0143C38.9125 23.0244 38.8855 22.7431 38.4998 22.7061V22.7061ZM42.5693 26.0917C42.6535 26.0866 42.7158 26.1169 42.699 26.1691C42.736 26.1523 42.7697 26.1371 42.8085 26.1186C42.7798 26.0209 42.5491 26.0428 42.5693 26.0917V26.0917ZM30.7972 18.5389C30.8157 18.576 30.9488 18.6097 30.9673 18.6484C31.001 18.6147 31.193 18.6046 31.1425 18.5709C31.0717 18.6417 30.8696 18.4682 30.7972 18.5389ZM40.5194 23.8716C40.2684 23.8902 39.9905 23.6392 40.0713 23.5162C40.0208 23.5365 39.9652 23.587 39.9198 23.5617C39.8793 23.5162 40.0612 23.4842 39.9063 23.4287C39.7799 23.5735 39.5947 23.2518 39.3942 23.3242C39.8288 23.6459 40.201 23.8548 40.5817 24.1462C40.8394 24.3399 41.0112 24.6953 41.4694 24.7273C41.3498 24.3938 40.5581 24.2052 40.5194 23.8716V23.8716ZM29.6686 18.0235C29.7293 18.0504 29.6383 18.0875 29.7225 18.1128C29.7848 18.0252 29.8 18.0959 29.8455 18.1279C29.8438 18.0858 30.0072 18.1077 29.9112 18.0605C29.8876 18.0892 29.7326 17.9544 29.6686 18.0235V18.0235ZM17.1369 15.5626C17.0587 15.5463 16.9791 15.5384 16.8994 15.539C16.9229 15.5879 17.0914 15.5929 17.1369 15.5626ZM16.4143 15.5323C16.5726 15.5323 16.6214 15.5677 16.6939 15.5323C16.6015 15.5146 16.5066 15.5146 16.4143 15.5323V15.5323ZM3.34685 16.3391C3.48847 16.2839 3.63693 16.2482 3.78815 16.233C3.88753 16.2162 3.82858 16.2465 3.82016 16.2549C3.87574 16.2549 4.00039 16.2313 4.07787 16.2263C4.10987 16.1926 3.90438 16.2515 3.8909 16.2347C4.28312 16.1411 4.68087 16.0725 5.08176 16.0292C6.03006 15.8877 6.93626 15.7698 7.62685 15.6788C7.70265 15.6856 7.85593 15.667 7.93172 15.6704C7.98899 15.6923 7.81213 15.699 7.79024 15.7142C7.81887 15.7277 8.01257 15.6856 8.01089 15.7159C8.04482 15.6981 8.08214 15.6878 8.12037 15.6856C8.06479 15.6822 7.99236 15.6822 8.00921 15.6536C8.36894 15.5867 8.73584 15.5669 9.10068 15.5946C9.19722 15.581 9.29502 15.5788 9.39208 15.5879C9.37355 15.5727 9.5521 15.5592 9.4443 15.5289C9.52515 15.5256 9.60768 15.5188 9.68853 15.5121C9.64074 15.5309 9.58999 15.5412 9.53862 15.5424C9.82787 15.5472 10.1171 15.5326 10.4044 15.4986C10.4785 15.5121 10.4027 15.5104 10.4212 15.534C10.9148 15.4346 11.7165 15.4582 12.3246 15.4144C12.3951 15.4342 12.4673 15.4478 12.5402 15.4548C13.0089 15.3968 13.4817 15.3793 13.9534 15.4026C13.9466 15.411 13.9146 15.411 13.918 15.4228C13.9669 15.4194 13.9972 15.4077 13.9921 15.3891C14.7012 15.406 15.3716 15.4717 16.2172 15.4632C16.234 15.5003 16.1161 15.4952 16.0538 15.507C16.1602 15.5251 16.2677 15.5369 16.3755 15.5424C16.4075 15.5053 16.2677 15.5138 16.2997 15.4801C16.6164 15.4784 16.6433 15.5121 16.9061 15.4919C17.0615 15.529 17.2219 15.541 17.3811 15.5272C17.408 15.6098 17.1739 15.5239 17.1739 15.5795C17.1806 15.5963 17.3743 15.5795 17.4923 15.5963C17.499 15.5811 17.4855 15.5744 17.4586 15.5694C17.5563 15.5239 17.4855 15.6165 17.6118 15.603C17.6742 15.5946 17.6051 15.5845 17.659 15.5559C17.9389 15.557 18.2182 15.5801 18.4945 15.6249C18.481 15.6586 18.3563 15.6384 18.2485 15.6317C18.5061 15.7159 18.7808 15.7333 19.0469 15.6822C18.9358 15.6889 18.8566 15.6873 18.8044 15.6923C18.769 15.6889 18.7656 15.6788 18.7656 15.6704C18.77 15.6584 18.7734 15.646 18.7758 15.6334C19.0503 15.694 19.3653 15.6654 19.6365 15.7496C19.4774 15.7462 19.3187 15.7321 19.1615 15.7075C19.5464 15.7942 19.938 15.8477 20.3321 15.8675C20.3085 15.8473 20.2445 15.8405 20.2681 15.8119C20.2353 15.8187 20.2039 15.8313 20.1755 15.849C20.0125 15.7951 19.8418 15.7678 19.6702 15.7681C19.9653 15.7527 20.2612 15.769 20.5528 15.817C20.573 15.8725 20.3961 15.822 20.4079 15.8725C20.7381 15.9248 21.0379 15.9517 21.2939 16.0123C21.2737 16.0359 21.2164 16.0359 21.1271 16.0174C21.2366 16.0561 21.1019 16.0595 21.2181 16.0932C21.2484 16.0797 21.3091 16.0427 21.3798 16.009C21.4623 16.0326 21.9289 16.0831 21.8548 16.1353C21.9676 16.1673 21.9407 16.1117 21.9626 16.0898C22.1445 16.1404 22.2186 16.1319 22.4544 16.1825C22.4369 16.1845 22.4203 16.1916 22.4068 16.203C22.3933 16.2144 22.3835 16.2295 22.3786 16.2465C22.478 16.2684 22.3854 16.1589 22.5252 16.2077C22.5151 16.2263 22.5066 16.2448 22.4965 16.2667C22.6431 16.2852 22.7509 16.2802 22.7997 16.2347C22.9951 16.2751 22.7189 16.2667 22.7526 16.3223C22.8587 16.3425 22.8823 16.3054 22.9092 16.2701C22.9682 16.2701 23.0979 16.3172 23.1097 16.2852C23.2057 16.3071 23.0406 16.3021 23.0726 16.3442C23.2236 16.3566 23.3694 16.4057 23.4971 16.4873C23.5729 16.4469 23.3825 16.4536 23.455 16.4115C23.5611 16.4638 23.7615 16.4368 23.7834 16.5059C23.9838 16.5126 23.9754 16.4402 24.2045 16.5025C23.9704 16.5547 24.4504 16.5867 24.25 16.6305C24.3696 16.6827 24.3072 16.5817 24.3915 16.6069C24.3948 16.5379 24.191 16.5951 24.2315 16.5227C24.3174 16.5294 24.4673 16.5918 24.5094 16.5598C24.5279 16.6137 24.6003 16.6575 24.7216 16.6928C24.7957 16.6507 24.7031 16.6305 24.6003 16.6137C24.8104 16.6283 25.0188 16.6604 25.2236 16.7097C25.1915 16.8091 25.4914 16.8326 25.4375 16.9017C25.52 16.9051 25.5116 16.8124 25.5941 16.9219C25.6699 16.9219 25.7743 16.8983 25.6682 16.9371C25.7096 16.9351 25.751 16.9391 25.7912 16.9489C25.8889 16.9017 25.6261 16.9051 25.7238 16.8579C26.0321 16.8933 26.1365 16.9539 26.4784 17.0196C26.4481 17.0364 26.3942 17.028 26.3656 17.0516C26.3521 17.0836 26.5273 17.092 26.5273 17.1257C26.6957 17.1459 26.8759 17.0971 26.9921 17.1493C26.9837 17.1645 26.9585 17.2605 26.8911 17.279C26.9775 17.2822 27.0609 17.3116 27.1303 17.3632C27.2179 17.3767 27.1842 17.2504 27.0764 17.2706C27.0578 17.2251 27.0949 17.2318 27.0679 17.1695C27.2179 17.2083 27.2179 17.2487 27.292 17.3278C27.3661 17.3481 27.3779 17.2975 27.4655 17.3329C27.4099 17.439 27.5783 17.3363 27.8158 17.4542C27.6491 17.4491 27.7653 17.4946 27.7821 17.5468C27.8748 17.5687 27.7552 17.5047 27.836 17.4811C28.0904 17.5468 28.1695 17.5434 28.311 17.6597C28.4239 17.6176 28.3228 17.6125 28.3632 17.5502C28.4491 17.567 28.4929 17.594 28.4761 17.6243C28.5232 17.5485 28.8281 17.6664 28.9359 17.722C28.85 17.7203 28.7978 17.7422 28.9275 17.7826C29.0151 17.8012 28.9056 17.7422 29.005 17.7439C29.0673 17.7523 29.1717 17.823 29.1987 17.7809C29.3099 17.8567 29.0976 17.7877 29.0825 17.8129C29.0538 17.8837 29.1953 17.8382 29.229 17.9022C29.2526 17.8786 29.2778 17.8567 29.2391 17.8416C29.3557 17.8493 29.4699 17.8784 29.576 17.9275C29.5598 17.9285 29.5441 17.9327 29.5296 17.9399C29.5151 17.9472 29.5022 17.9573 29.4918 17.9696C29.7192 17.9667 29.9447 18.0114 30.1537 18.101C30.1015 18.1279 30.0055 18.1195 30.0375 18.1734C30.0661 18.1751 30.0947 18.1704 30.1212 18.1596C30.1477 18.1488 30.1715 18.1322 30.1908 18.1111C30.2632 18.138 30.3306 18.1599 30.3996 18.1835C30.3811 18.2155 30.3407 18.2004 30.3137 18.2222C30.4771 18.17 30.75 18.3368 30.8881 18.357C30.9589 18.453 30.6607 18.3115 30.5917 18.3216C30.5816 18.3503 30.6287 18.3705 30.6068 18.3991C31.001 18.4227 31.1003 18.5928 31.5602 18.6349C31.6831 18.6619 31.5433 18.709 31.6393 18.7377C31.5787 18.7781 31.5063 18.6905 31.5753 18.6636C31.4608 18.645 31.5012 18.7444 31.4642 18.768C31.6191 18.736 31.7505 18.8118 31.8331 18.741C31.9577 18.768 31.8145 18.8168 31.9105 18.8455C31.8735 18.869 31.8095 18.8269 31.7573 18.8101C31.7792 18.869 31.8768 18.8674 31.7471 18.9061C31.8331 18.9651 31.9425 18.8724 32.02 18.9667C31.9779 18.9886 31.9779 18.9263 31.9341 18.9566C31.9358 19.0476 32.0857 18.9752 32.1278 18.9617C32.3569 18.987 32.591 19.115 32.7409 19.115C32.6348 19.152 32.8336 19.1739 32.7291 19.2143C32.9481 19.216 32.8555 19.2817 33.0778 19.339C33.0689 19.3062 33.0576 19.2741 33.0441 19.243C33.1267 19.3221 33.2732 19.3575 33.4399 19.499C33.5932 19.5108 33.5073 19.4704 33.5477 19.4114C33.6774 19.4619 33.632 19.5209 33.6033 19.5782C33.7347 19.5361 33.6774 19.723 33.9166 19.6944C33.8981 19.6523 33.9048 19.6051 33.8223 19.5664C34.0295 19.5563 33.856 19.6573 34.1053 19.6691C33.9621 19.7348 34.1204 19.8174 33.9486 19.7938C34.0227 19.8611 34.0581 19.8645 34.1625 19.9504C34.3377 19.8595 34.4405 20.0532 34.6123 19.8847C34.678 19.9369 34.6258 19.9538 34.5702 20.0397C34.5432 19.8814 34.5398 20.0666 34.3967 20.0111C34.5901 20.1632 34.8068 20.2832 35.0384 20.3665C35.1361 20.2974 35.0199 20.3446 34.9677 20.2974C35.1075 20.2502 34.9727 20.2048 35.0452 20.161C35.1361 20.2738 35.2624 20.2435 35.3382 20.3395C35.2827 20.3766 35.1934 20.2772 35.1243 20.2603C35.0553 20.3345 35.2995 20.3816 35.0704 20.3799C35.1513 20.4675 35.1934 20.3631 35.2726 20.4254C35.2035 20.4962 35.5286 20.5282 35.3669 20.6275C35.4213 20.6418 35.4789 20.6376 35.5307 20.6157C35.5825 20.5937 35.6256 20.5553 35.6532 20.5063C35.6936 20.5282 35.7324 20.5501 35.7745 20.572C35.6465 20.5484 35.7004 20.7084 35.5892 20.6275C35.7202 20.692 35.8597 20.7374 36.0036 20.7623C35.8604 20.8381 36.0608 20.828 36.0558 20.9156C36.1198 20.9627 36.1552 20.8246 36.2242 20.9139C36.1215 20.9122 36.1619 20.9745 36.1265 21.02C36.2495 21.0486 36.1804 20.9257 36.2849 20.9493C36.2916 20.993 36.268 21.0368 36.3792 21.0352C36.4247 20.9981 36.2916 20.956 36.3354 20.9139C36.4112 20.8482 36.5139 20.9594 36.5965 20.9644C36.4803 20.9627 36.4853 21.0234 36.6116 21.0705C36.5375 21.116 36.455 21.0335 36.3792 21.0352C36.4499 21.148 36.9435 21.239 36.8677 21.3889C36.9098 21.4259 37.0698 21.3232 36.9435 21.3013C37.0647 21.2743 37.0327 21.3249 37.1793 21.372C37.1414 21.3838 37.1009 21.3838 37.063 21.372C37.0698 21.5758 37.4353 21.5068 37.533 21.5573C37.3561 21.5809 37.533 21.7022 37.7419 21.8251C37.7791 21.8413 37.82 21.8472 37.8603 21.8421C37.9006 21.8371 37.9388 21.8213 37.9709 21.7965C37.976 21.8234 38.0046 21.8757 38.0585 21.8538C38.1141 21.8976 38.0501 21.938 37.9743 21.9784C38.0097 21.9969 38.0181 22.0155 38.0029 22.0323C38.2876 21.9986 38.3196 22.2226 38.547 22.2479C38.5099 22.2648 38.5032 22.2833 38.5167 22.3018C38.6497 22.2496 38.6194 22.45 38.8569 22.4618C38.8266 22.3776 38.9007 22.3978 39.0102 22.3372C39.0944 22.3894 39.0607 22.4332 38.9782 22.4298C39.0675 22.4652 39.3218 22.5157 39.2292 22.6067C39.2561 22.6252 39.2898 22.5999 39.3201 22.5915C39.2527 22.7246 39.1365 22.4989 38.9765 22.4652C38.7794 22.5797 39.2258 22.5258 38.9664 22.6488C39.0506 22.6572 39.1365 22.7044 39.2224 22.6791C39.2544 22.7061 39.1921 22.728 39.1618 22.7515C39.4333 22.8255 39.6814 22.9675 39.8827 23.1642C39.6974 23.2552 39.9737 23.3057 40.0983 23.3259C39.9046 23.4051 40.3341 23.6577 40.4571 23.5196C40.4604 23.5584 40.4874 23.5988 40.5564 23.6443C40.5138 23.6425 40.4715 23.6518 40.4335 23.6712C40.6541 23.7672 40.6777 23.9458 40.9304 23.9003C40.9203 23.9323 40.9826 23.9693 40.9405 23.998C40.9961 24.0232 40.9725 23.9693 41.0415 23.9458C41.1291 24.0283 41.0938 24.0536 41.2235 24.0974C41.1898 24.1142 41.1561 24.131 41.1207 24.1513C41.4643 24.4595 41.6698 24.569 41.909 24.7896C41.8534 24.8604 41.7035 24.7509 41.7439 24.8317C41.5957 24.8317 41.6496 24.7812 41.5266 24.7357C41.4458 24.7593 41.4525 24.7896 41.4155 24.8216C41.594 24.9749 41.9932 25.1147 41.8231 25.2983C42.0707 25.241 42.2273 25.5358 42.3688 25.62C42.3015 25.6588 42.2492 25.6655 42.2122 25.62C42.1751 25.647 42.2324 25.679 42.1852 25.7009C42.2964 25.6958 42.4194 25.6655 42.5053 25.7548C42.4312 25.7598 42.3453 25.8019 42.3031 25.711C42.229 25.7582 42.3958 25.8474 42.4379 25.8508C42.5086 25.8238 42.4901 25.7902 42.5625 25.7649C42.6988 25.9186 42.8427 26.0653 42.9937 26.2045C42.736 26.2399 43.0106 26.3426 42.859 26.3932C42.7697 26.3005 42.6821 26.2079 42.5945 26.1136C42.5524 26.3157 42.827 26.3965 42.9314 26.5262C42.955 26.5599 42.7091 26.6222 42.6804 26.5346C42.6316 26.6963 42.8758 26.6559 42.8169 26.8025C42.9466 26.7503 42.8994 26.6761 42.9011 26.6071C42.9459 26.5888 42.996 26.5884 43.0412 26.6059C43.0863 26.6235 43.123 26.6576 43.1437 26.7014C43.1908 26.602 42.9921 26.5178 43.2616 26.4858C43.1723 26.3443 43.0813 26.565 43.0257 26.4572C43.2397 26.3932 42.9921 26.3982 43.046 26.3157C43.1882 26.3747 43.3133 26.4686 43.4098 26.5886C43.3609 26.602 43.339 26.5532 43.2885 26.5751C43.3559 26.6778 43.3609 26.6795 43.558 26.7587C43.4418 26.8058 43.3205 26.8732 43.2632 26.7789C43.243 26.8934 43.5226 26.8665 43.5698 26.885C43.4839 26.9355 43.4081 26.9659 43.4216 27.0737C43.4519 27.0972 43.5108 27.0652 43.558 27.0501C43.6085 27.1073 43.5563 27.1478 43.6473 27.2101C43.5125 27.2488 43.6203 27.3196 43.4553 27.3516C43.8073 27.5082 43.7079 27.7457 44.0347 27.931C43.7214 28.0304 43.6658 27.5571 43.5412 27.7053C43.4873 27.7676 43.6136 27.931 43.7955 28.022C43.7264 28.0422 43.7467 28.0708 43.6944 28.091C43.841 28.0843 43.7551 28.1685 43.91 28.1702C43.9218 28.214 43.873 28.1786 43.8292 28.2005C43.8949 28.2999 44.0465 28.2359 44.1021 28.3521C44.0633 28.3673 44.0195 28.3824 43.9825 28.3959C44.1812 28.4532 44.0903 28.6688 44.2857 28.7328C44.1374 28.7749 44.0465 28.4902 43.841 28.4835C43.7416 28.5391 43.8747 28.6334 43.7315 28.6789C43.7972 28.6875 43.8589 28.7152 43.9089 28.7586C43.9589 28.8021 43.9951 28.8593 44.0128 28.9231C43.9505 28.9349 43.9151 28.9029 43.8511 28.9197C43.9168 29.0444 43.91 29.068 44.0768 29.0898C43.9522 29.1286 44.0903 29.169 44.0802 29.2431C43.8881 29.1471 43.6591 28.9484 43.6692 28.7328C43.5715 28.7378 43.4671 28.7479 43.4351 28.63C43.1723 28.7648 43.8881 28.945 43.6944 29.1336C43.7736 29.1235 43.8174 29.1842 43.8848 29.1859C43.745 29.3156 43.8174 29.2364 43.8848 29.4082C43.7905 29.4351 43.7534 29.3762 43.7163 29.3122C43.665 29.3002 43.6117 29.2985 43.5597 29.3071C43.4165 29.3897 43.6102 29.3947 43.6338 29.4958C43.5479 29.516 43.5108 29.548 43.5479 29.5884C43.5007 29.58 43.4266 29.6137 43.3913 29.5851C43.4519 29.6406 43.2077 29.7501 43.1032 29.8428C43.1251 29.9101 43.2835 29.7619 43.2733 29.8731C43.2346 29.8882 43.1942 29.9034 43.1504 29.9169C43.2447 30.0398 43.4502 30.0988 43.2986 30.2319C43.2952 30.1897 42.9163 30.2201 43.0594 30.2538C42.763 30.1897 42.8017 29.9556 42.5255 29.8091C42.4413 29.8445 42.5777 29.9202 42.5794 29.9725C42.4261 30.0533 42.5659 29.831 42.3554 29.9337C42.2779 30.1089 42.6468 30.1628 42.6619 30.4289C42.5199 30.3571 42.3921 30.26 42.2846 30.1426C42.2914 30.2773 42.4295 30.3548 42.3587 30.5064C42.2829 30.4643 42.1195 30.5603 42.0303 30.5384C42.037 30.7641 42.1078 30.8029 42.2307 30.9747C42.1549 30.9898 42.165 31.0218 42.1751 31.0555C42.0808 31.0825 42.0522 31.0218 42.0235 30.9578C41.8096 31.0505 42.1027 31.1061 41.9545 31.192C41.8147 31.197 41.8972 31.1212 41.8046 31.0976C41.7591 31.2863 41.9848 31.5288 42.0555 31.6602C41.8686 31.6888 41.6631 31.3991 41.562 31.2779C41.3998 31.0906 41.2648 30.8814 41.1611 30.6563C40.7636 30.567 40.6642 29.932 40.3139 29.8327C40.1842 29.4385 39.5964 29.2111 39.3959 28.8473C39.2696 28.8557 39.2292 28.9265 39.091 28.8945C39.0725 28.8018 39.1837 28.8844 39.2191 28.8641C39.0708 28.8271 38.9664 28.7075 39.1247 28.6048C39.1045 28.5104 38.7895 28.5391 38.9512 28.4414C38.8451 28.4026 38.8333 28.4835 38.7407 28.4801C38.3499 28.0472 37.8075 27.6884 37.6273 27.2825C37.6576 27.2674 37.6728 27.2943 37.6964 27.3078C37.7351 27.2775 37.6762 27.2387 37.6543 27.205C37.6004 27.2404 37.469 27.269 37.5599 27.3179C37.2816 27.1108 37.0387 26.86 36.8407 26.5751C36.7763 26.5749 36.7141 26.5517 36.6653 26.5097C36.6165 26.4677 36.5843 26.4096 36.5746 26.346C36.4011 26.3308 36.2663 26.0765 36.0693 26.0293C35.8145 25.7173 35.5207 25.4394 35.1951 25.2023C35.1041 25.1332 34.6359 24.953 34.6375 24.7981C33.7903 24.2405 33.2092 23.7302 32.079 23.1002C32.0958 23.0615 32.0385 23.0227 32.0049 22.9823C31.0195 22.4012 29.768 21.7173 28.781 21.1766C27.8124 20.7977 27.1151 20.3917 26.2005 20.0245C26.0556 19.9689 25.8771 19.974 25.803 19.8426C25.1831 19.6927 24.7334 19.4518 24.0984 19.2447C24.0344 19.2261 23.967 19.2228 23.903 19.1992C20.8125 18.1507 17.6071 17.4777 14.3559 17.1948C14.105 17.1695 13.8085 17.124 13.5474 17.0954C13.1752 17.0617 12.7693 17.0567 12.3852 17.0415C12.9377 17.1257 13.6435 17.1072 14.1117 17.2083C14.4705 17.2251 15.2386 17.3059 15.6698 17.3666C15.8552 17.3786 16.0384 17.4131 16.2155 17.4693C16.2559 17.471 16.2475 17.4525 16.2542 17.439C16.3182 17.434 16.3604 17.4895 16.389 17.4559C16.4277 17.4609 16.4176 17.4811 16.421 17.498C17.7976 17.6794 19.1634 17.9352 20.5123 18.2644C20.5511 18.2778 20.5191 18.3065 20.5157 18.3267C19.9009 18.1835 19.2794 18.037 18.6898 17.9224C18.6245 17.9059 18.5581 17.8941 18.4911 17.8871C18.3883 17.8685 18.2266 17.8382 18.1256 17.818C17.2581 17.6462 16.2694 17.471 15.3261 17.3615C13.0711 17.1008 10.8011 16.9905 8.53136 17.0314C8.48925 17.0331 8.51115 17.0432 8.51452 17.055C8.25016 17.0346 7.98443 17.0402 7.72118 17.0718C7.71454 17.0589 7.70537 17.0474 7.69423 17.0381C7.65212 17.0415 7.67738 17.0533 7.67738 17.0634C7.2007 17.0684 6.63475 17.1089 6.14628 17.1409C5.34789 17.1914 4.56465 17.2487 3.89764 17.3295C2.9207 17.3969 2.32106 17.5215 1.4216 17.6209C1.21948 17.6024 0.776486 17.6361 0.705742 17.6058C0.658579 17.6074 0.587835 17.6159 0.527198 17.6209C0.503616 17.5973 0.453085 17.5906 0.293069 17.5906C0.405923 17.5552 0.375604 17.5215 0.156635 17.5434C0.161688 17.5215 0.2358 17.4929 0.338547 17.4626C0.203797 17.4609 0.0825219 17.4306 0.180216 17.3716C0.0589406 17.3666 0.0100936 17.3481 0.158319 17.3144C0.0892594 17.3093 0.109472 17.311 0.0387281 17.3026C0.168425 17.2453 0.203797 17.1897 0.176847 17.1577C0.117836 17.1621 0.0592612 17.1711 0.00167175 17.1847C-0.0168564 17.1779 0.124631 17.1544 0.129685 17.1459C-0.0741253 17.1122 0.0286218 17.0432 0.0959969 16.9606C0.195375 16.9438 0.161688 16.9354 0.284647 16.9152C0.267804 16.9084 0.20885 16.9169 0.198744 16.9084C0.64342 16.7989 1.42329 16.6608 2.0903 16.5581C2.13578 16.5497 2.10714 16.5429 2.09872 16.5362C2.13409 16.5311 2.1442 16.5311 2.15094 16.5345C2.17806 16.5271 2.20563 16.5215 2.23347 16.5177C2.30422 16.5311 2.1442 16.5294 2.17115 16.5429C2.26386 16.5325 2.35528 16.5127 2.44402 16.484C2.60619 16.4846 2.76694 16.4537 2.91733 16.393C3.03495 16.3882 3.15205 16.3747 3.26768 16.3526C3.35864 16.3341 3.19525 16.3458 3.15483 16.3526C3.21659 16.3316 3.28275 16.3269 3.34685 16.3391" fill="#58A66F"/>
</g>
</svg>
