<svg width="64" height="44" viewBox="0 0 64 44" fill="none" xmlns="http://www.w3.org/2000/svg">
  <g id="logo-mark">
    <path d="M33.64 11.7c-.06-.04-.13.08-.2.1.1-.02.1.03 0 .1.06.03.12-.06.18-.08-.04-.02.06-.08.02-.11ZM22.8 8.1c0-.07.19-.1.17-.17.23-.01.23-.18.54-.23-.22.17-.46.3-.71.4Zm-.89.6c-.2.13-.32.35-.69.4.08-.21.72-.37.73-.57.2 0 .41-.17.34-.24.04 0 .1.03.13.02.03-.03-.12-.04 0-.09.11.08.24-.12.4-.09-.32.22-.61.37-.9.57Zm-1.62 1.33-.1-.02c.02-.06.21-.06.2-.03-.07 0-.12.02-.1.05Zm-.56 1.93c-.08-.05-.23 0-.16-.06.14.06.12-.05.23-.02l-.07.08Zm-.23-.48c-.16-.03.03-.08.05-.1.14.01-.06.04-.05.1Zm9.8-6.88c-.01.03-.1.06-.12.08-.03-.02-.18 0-.15-.03.06.04.2-.09.27-.05Zm.65-.36c.02.01.13-.08.19-.05-.05.02.02.04-.04.06-.06-.04-.06 0-.1.03 0-.03-.12 0-.05-.04Zm9.72-2.83c-.01.03-.14.05-.18.04l.18-.04Zm.36-.07c-.11.03-.15.05-.2.04a.7.7 0 0 1 .2-.04Zm3.66.36v.01c-.05 0-.19.05-.16.02l.16-.03Zm.16-.02c-.04.02-.15.04-.13.01a.2.2 0 0 1 .13-.01Zm.32-.06-.22.04c.05-.04.21-.07.22-.04Zm.8-.17-.64.14a4 4 0 0 1 .64-.14ZM23.32 11.47c.12-.03.2-.1.06-.16.01-.06.27-.06.13-.11.09-.03.1.02.18.01.3-.29.72-.54.85-.8-.03 0-.04.02-.06.03-.04-.02.01-.05.03-.07.04.02.15.03.08.06.2-.13.4-.3.54-.5.13 0 .2-.07.2-.15.15-.02.24-.18.4-.22.19-.22.4-.4.64-.57.08-.04.44-.19.43-.28.64-.4 1.07-.75 1.92-1.22-.02-.02.03-.05.05-.08l2.4-1.36c.72-.31 1.23-.62 1.9-.93.11-.05.26-.06.3-.15.47-.15.8-.34 1.26-.52l.15-.05c2.3-.95 4.66-1.7 7.07-2.27l.6-.16c.28-.07.58-.12.87-.18-.4.12-.94.2-1.28.32a24.27 24.27 0 0 0-1.56.4h-.04c-.05 0-.07.04-.1.02-.03 0-.02.02-.02.03-1.06.25-2.09.63-3.03.92-.03.02 0 .03 0 .04.46-.15.92-.31 1.36-.44l.15-.05.27-.08c.64-.2 1.37-.42 2.07-.6 1.64-.42 3.13-.74 5.08-1.07.03 0 .02 0 .02.01.2-.04.4-.08.6-.1l.01-.02c.03 0 .02 0 .02.01.35-.06.78-.11 1.16-.16.6-.08 1.2-.16 1.7-.2.74-.1 1.21-.12 1.9-.2.14-.04.48-.08.52-.12l.13-.01c.02-.02.05-.03.17-.06-.09 0-.07-.03.1-.05a.33.33 0 0 0-.16-.02c.1-.02.18-.06.1-.08.09-.02.12-.04 0-.04l.09-.02c-.1-.02-.14-.05-.13-.07a.9.9 0 0 1 .13-.01h-.1c.14-.06.05-.08-.01-.12h-.15l.06-.02c-.35 0-.95.03-1.46.07h-.01a.1.1 0 0 0-.04 0h-.07c-.04.02.08 0 .06 0-.08.01-.15.02-.22.01a1.1 1.1 0 0 1-.36.02L50 .12l.08-.01c-.05 0-.1 0-.14.02a1.53 1.53 0 0 0-.35 0c-.07 0-.02.01-.02.01l-.2.03c-.02-.02.14-.02.15-.03-.3 0-.62.02-.92.05l-1.96.14c-.05.02-.17.03-.22.04-.04.02.09 0 .11 0-.02.02-.17.02-.16.04h-.1c.05-.02.1-.03.09-.04-.28 0-.56.04-.83.11a1 1 0 0 0-.22.04c.02-.02-.12 0-.05-.03L45.1.5h.12c-.22.04-.44.07-.66.08-.05.02 0 .01 0 .03-.39 0-.98.12-1.45.17l-.16.05a7.84 7.84 0 0 0-1.04.15l-.06-.01c-.53.1-1.03.22-1.67.31 0 .03.09 0 .13 0l-.23.07c-.03-.02.07-.03.04-.05-.24.04-.25.06-.45.08a1.4 1.4 0 0 1-.36.07c0 .06.16-.02.16.01l-.23.05.02-.02c-.08-.02-.02.03-.11.04-.05 0 0-.02-.05-.03-.2.04-.42.08-.62.14.01.02.1 0 .19-.02-.2.08-.4.12-.6.12l.18-.03.03-.01-.01-.02c-.2.06-.45.08-.64.16l.35-.08c-.28.1-.57.18-.87.23.02-.02.06-.03.04-.04h.08c.12-.04.24-.08.37-.1-.22.03-.45.07-.66.13-.01.04.12-.01.12.02-.25.07-.48.11-.67.18.05 0 .1 0 .13-.02-.07.04.03.03-.06.06l-.13-.04c-.06.03-.41.1-.35.13-.08.03-.07 0-.09-.02l-.36.11c.03 0 .05.01.06.03-.07.03-.01-.05-.11 0l.03.03a.43.43 0 0 1-.24 0c-.15.05.07.02.05.06-.08.02-.1 0-.13-.02-.05 0-.14.05-.15.03-.07.02.05 0 .03.04a.8.8 0 0 0-.3.12c-.07-.02.08-.03.02-.05-.08.04-.24.05-.24.1-.16.02-.16-.03-.33.03.19 0-.18.08-.02.09-.08.04-.05-.03-.11 0 0-.05.15-.03.11-.07-.06.01-.17.06-.2.05-.02.03-.07.06-.16.1-.06-.02.01-.04.09-.06l-.47.11c.04.06-.2.1-.14.14-.07.01-.07-.04-.12.03-.06 0-.14 0-.06.02a.4.4 0 0 0-.1.02c-.07-.02.13-.05.05-.07-.23.05-.31.1-.57.17l.1.01c0 .02-.13.04-.12.06l-.36.06s.04.06.1.07c-.12.03-.13.03-.18.07-.07.02-.06-.06.03-.06 0-.03-.02-.02 0-.06a.26.26 0 0 0-.17.11c-.05.02-.06 0-.13.02.06.06-.08.01-.26.1.13-.01.04.03.04.06-.07.02.01-.03-.05-.03a.86.86 0 0 0-.35.15c-.1-.02-.02-.03-.05-.06-.07.01-.1.03-.08.05-.05-.04-.27.05-.36.1.07-.01.12 0 .02.04-.07.01.01-.03-.07-.02-.04 0-.12.06-.14.04-.08.05.08 0 .1 0 .02.04-.1.03-.11.07-.03 0-.05-.02-.02-.03a.82.82 0 0 0-.25.08.1.1 0 0 1 .07.02c-.18.01-.35.06-.5.13.04.02.11 0 .1.04a.16.16 0 0 1-.14-.03l-.15.06c.02.02.05 0 .07.02-.13-.02-.33.1-.44.13-.04.06.17-.05.23-.05.01.02-.02.04 0 .05-.31.05-.37.16-.73.22-.1.03.02.05-.05.07.05.02.1-.04.04-.05.09-.02.07.04.1.05-.13 0-.22.05-.3.02-.1.02.02.04-.05.07l.12-.04c-.01.04-.09.05.02.06-.07.04-.16 0-.21.06.04 0 .03-.03.07-.02 0 .06-.12.03-.16.02-.18.04-.35.13-.47.14.09.02-.07.05.02.06-.17.02-.1.05-.26.1l.02-.06c-.06.06-.18.1-.3.2-.12.01-.05-.02-.09-.05-.1.04-.06.07-.03.1-.1-.01-.05.1-.24.1.02-.03 0-.06.07-.09-.17 0-.02.06-.22.08.12.03 0 .1.14.07l-.16.11c-.15-.04-.21.08-.37 0-.04.03 0 .03.05.08.01-.1.03.02.14-.03-.15.11-.31.2-.48.26-.09-.03 0-.01.05-.04-.12-.02-.01-.06-.08-.08-.06.08-.16.06-.21.13.04.02.1-.05.16-.07.06.05-.13.09.05.07-.05.06-.1 0-.16.05.07.04-.19.08-.05.13a.23.23 0 0 1-.24-.06l-.1.05c.1-.02.07.08.16.02-.1.05-.21.09-.32.11.12.04-.04.04-.03.1-.05.03-.09-.05-.14 0 .09 0 .06.04.1.07-.1.02-.06-.06-.14-.04 0 .03.02.05-.07.06-.05.08-.44.16-.37.25-.03.02-.17-.03-.06-.05-.1 0-.07.02-.19.06a.2.2 0 0 0 .1 0c0 .12-.3.1-.37.13.14 0 .01.1-.15.18a.25.25 0 0 1-.18 0 .05.05 0 0 1-.07.04c-.04.03.01.05.08.07-.03.01-.04.02-.02.03-.23 0-.25.14-.43.17.04 0 .04.02.03.03-.1-.03-.07.1-.26.11.01-.05-.04-.03-.14-.06-.06.04-.03.06.04.05-.07.03-.27.08-.2.13a.1.1 0 0 1-.07 0c.06.07.14-.08.27-.1.17.05-.2.05.02.1a.71.71 0 0 1-.2.04c-.03.02.02.03.05.04-.2.05-.4.15-.56.3.16.04-.06.08-.16.1.16.04-.17.22-.28.14 0 .02-.02.05-.08.08l.1.01c-.17.07-.18.18-.39.17.01.02-.03.04 0 .06-.04.01-.03-.02-.08-.03-.07.06-.04.07-.14.1l.08.03c-.26.2-.42.28-.6.43.04.04.16-.04.13.01.12 0 .08-.03.17-.07.07.01.07.03.1.05-.14.1-.46.21-.3.31-.21-.02-.33.16-.44.22.06.02.1.02.13 0 .03.01-.01.03.03.04-.1 0-.2 0-.26.05.06 0 .13.02.16-.03.06.02-.07.08-.1.09-.07-.02-.05-.04-.11-.05-.1.1-.22.2-.34.29.22 0 0 .08.12.1.07-.06.14-.11.2-.18.05.12-.17.19-.25.27-.02.02.2.05.2 0 .06.09-.15.08-.1.16-.1-.02-.06-.07-.07-.12a.18.18 0 0 0-.2.07c-.04-.05.12-.11-.1-.12.06-.09.15.04.2-.03-.2-.03.01-.04-.03-.08a.92.92 0 0 0-.3.18c.05 0 .06-.03.1-.02-.04.07-.05.07-.2.13.09.02.2.06.24 0 .02.07-.21.07-.25.08.07.02.14.04.13.1-.02.02-.07 0-.11 0-.04.03 0 .05-.07.1.11.01.03.06.17.07-.3.11-.2.25-.46.38.26.05.29-.24.4-.16.05.04-.05.14-.2.2.06.01.05.03.1.04-.13 0-.06.05-.19.06 0 .03.03 0 .07.01-.05.07-.18.04-.22.1.03.02.07.02.1.03-.16.04-.08.17-.24.22.13.01.2-.16.37-.17.08.02-.03.09.1.1a.27.27 0 0 0-.23.17c.05 0 .08-.02.14-.01-.05.08-.05.1-.19.11.11.02 0 .05 0 .1.16-.07.35-.2.33-.33.08 0 .17 0 .2-.07.22.07-.37.2-.2.31-.07 0-.1.04-.16.04.12.08.06.03 0 .14a.12.12 0 0 0 .14-.07l.14-.01c.12.04-.04.06-.06.12.08 0 .1.02.08.05h.13c-.05.03.16.08.26.13-.02.04-.16-.04-.14.03l.1.02c-.08.08-.24.13-.11.2 0-.03.32-.03.2 0 .25-.05.2-.2.43-.3.07.02-.04.07-.04.1.13.05 0-.08.19-.03.07.1-.24.16-.24.32a.8.8 0 0 0 .3-.2c.01.09-.1.14-.04.23.07-.03.2.02.29 0 0 .14-.06.17-.15.28.06 0 .05.02.05.04a.1.1 0 0 0 .12-.06c.19.04-.06.09.07.14.12 0 .05-.05.12-.07a.18.18 0 0 1-.04.16l.3-.16h.04c.09-.09.16-.19.22-.3.33-.07.38-.46.67-.54.09-.25.56-.42.7-.65.11 0 .15.04.27.01 0-.06-.08 0-.11 0Zm1.8-5c-.07-.04-.14.04-.21.04.1 0 .1.03 0 .07.06.02.12-.03.18-.04-.04-.02.06-.05.02-.07Zm.5 4.95c-.08-.05-.15.07-.22.09.1-.03.1.03 0 .1.05.02.12-.07.18-.08-.04-.03.07-.09.03-.11ZM31 7.74c-.05-.06-.06 0-.1.04 0-.04-.14.01-.06-.05.02.02.14-.13.2-.08-.05.04.04.05-.04.1Zm-1 .7c-.04-.02-.2 0-.17-.03.07.05.23-.14.3-.1-.02.04-.12.1-.14.13Zm11.66-5.36c-.01.05-.15.08-.2.06a.88.88 0 0 1 .2-.06Zm.41-.1c-.13.03-.17.07-.23.06a.65.65 0 0 1 .23-.06Zm3.95.47v.02c-.06 0-.21.07-.18.03l.18-.05Zm.17-.03c-.04.03-.16.06-.14.02a.16.16 0 0 1 .14-.02Zm.37-.09-.24.06c.05-.05.24-.1.24-.06Zm.9-.23c-.31.09-.49.12-.72.18.23-.08.48-.15.73-.18ZM34.14 8.78c.12-.08.28-.1.33-.23.51-.25.88-.54 1.4-.84l.16-.08a37.98 37.98 0 0 1 7.93-3.55l.67-.24c.32-.1.66-.18.98-.27-.46.18-1.05.3-1.45.47a19.88 19.88 0 0 0-1.76.63c-.03 0-.03-.01-.03-.02-.06 0-.09.06-.12.04-.03.01-.02.03-.02.04-1.15.42-2.3.9-3.4 1.44-.03.02 0 .04 0 .06.51-.24 1.02-.49 1.51-.7l.17-.07.3-.13a35.1 35.1 0 0 1 2.34-.93 45.11 45.11 0 0 1 5.73-1.56c.03 0 .01 0 .01.02.22-.07.45-.11.68-.14 0 0 0-.02.02-.03.03 0 .01.01.01.02.4-.09.89-.16 1.3-.22.68-.1 1.35-.2 1.92-.25.84-.13 1.36-.13 2.12-.21.17-.05.55-.1.6-.15l.16-.02c.02-.02.06-.04.2-.07-.1-.01-.08-.05.1-.07 0-.02-.06-.03-.15-.04.11-.02.21-.08.13-.11.1-.03.14-.05.01-.06a.97.97 0 0 0 .1-.03c-.11-.03-.15-.07-.13-.1l.15-.01c.02-.01-.1 0-.1-.01.16-.07.07-.12 0-.18h-.16l.07-.02c-.38-.02-1.05 0-1.63.04-.04 0-.01-.01 0-.02h-.14c-.06.04.07 0 .05.02h-.23a.97.97 0 0 1-.41 0l-.3.04c-.08 0 .06-.02.1-.02-.04-.02-.14.01-.17.02a1.3 1.3 0 0 0-.38-.01c-.09 0-.03.02-.03.02l-.22.03c-.03-.03.15-.01.16-.03-.34-.01-.68 0-1.02.04-.82.05-1.6.12-2.19.17l-.25.05c-.05.03.1 0 .12 0-.02.03-.2.03-.19.05h-.1c.05-.02.12-.03.1-.05-.32 0-.63.06-.93.15a1 1 0 0 0-.25.05c.02-.02-.13 0-.05-.04-.07 0-.14.02-.2.03h.12c-.24.06-.48.1-.73.12-.06.03 0 .01-.01.04-.55.05-1.09.14-1.62.25l-.18.07c-.4.04-.81.11-1.2.22l.03.01-.07-.01c-.6.15-1.16.33-1.87.48-.02.04.08.01.14.01l-.27.1c-.03-.03.09-.05.06-.08-.27.06-.3.1-.52.13-.12.06-.26.1-.4.12-.01.08.18-.04.18 0 0 .03-.16.04-.26.08-.01-.01 0-.02.02-.03-.08-.02-.02.05-.12.06-.06 0 0-.02-.05-.03-.24.05-.47.12-.7.21.01.03.12 0 .21-.04-.2.13-.44.2-.67.2l.2-.04c.04 0 .04-.02.04-.02l-.02-.04c-.22.1-.5.14-.72.27l.4-.13a6.1 6.1 0 0 1-.98.36c.02-.02.07-.04.05-.06.03 0 .06 0 .09.02.13-.08.27-.14.42-.17-.26.04-.5.11-.75.21-.01.05.14-.03.13.02-.28.11-.53.19-.74.3.02 0 .07 0 .14-.03-.09.05.03.03-.07.08a1.1 1.1 0 0 0-.14-.04c-.07.03-.46.16-.4.2-.09.04-.07 0-.1-.02l-.4.17a.07.07 0 0 1 .07.04c-.08.04-.01-.08-.13 0l.03.04c-.12.05-.21.06-.26.03-.16.07.07.01.05.07-.09.04-.11 0-.14-.02-.05.01-.15.08-.17.05-.08.04.06 0 .04.05a.9.9 0 0 0-.35.2c-.06-.02.1-.05.03-.07-.08.06-.26.08-.27.14-.17.05-.17-.02-.35.08.2 0-.2.12-.04.12-.09.07-.05-.03-.12 0 0-.05.17-.04.13-.1-.07.02-.2.1-.23.09-.01.05-.07.1-.17.15-.07-.02.01-.06.1-.09-.18.05-.35.12-.52.2.03.08-.22.16-.17.21-.07.02-.07-.07-.13.05-.06.01-.15 0-.06.02a.4.4 0 0 0-.1.04c-.09-.03.13-.07.05-.1-.26.1-.35.17-.63.29h.1c.01.03-.14.07-.14.1a2.8 2.8 0 0 0-.39.1c.01.02.04.1.1.1-.13.06-.13.06-.2.12-.07.03-.05-.09.04-.1.01-.03-.02-.02 0-.08-.12.06-.12.1-.18.18-.06.03-.07-.01-.14.04.05.08-.1.02-.29.17.14-.04.05.03.03.07-.07.04.03-.04-.05-.04-.2.1-.28.11-.38.24-.1-.02-.02-.04-.06-.09-.07.04-.1.07-.09.1-.04-.07-.3.1-.38.16.08-.01.12 0 .01.05-.07.04.02-.03-.07-.02-.05.02-.13.1-.16.07-.09.1.09 0 .1 0 .04.06-.1.05-.11.12-.03-.02-.05-.04-.02-.06-.1.03-.2.08-.27.14a.1.1 0 0 1 .07.02c-.2.04-.38.13-.55.24.04.02.13-.01.1.04a.13.13 0 0 1-.13-.02l-.17.1c.01.02.05 0 .07.02-.14-.02-.36.18-.48.22-.05.1.2-.08.25-.08.02.02-.02.05 0 .07-.34.09-.4.26-.8.38-.1.05.03.06-.05.1.05.03.11-.06.05-.07.1-.04.06.06.1.07-.13 0-.24.1-.32.04-.1.05.03.07-.05.11.03.01.08-.03.13-.06-.02.06-.1.07.01.08-.07.07-.17 0-.23.1.04.02.04-.04.08-.02 0 .08-.13.05-.17.04-.19.07-.38.22-.5.25.09.01-.08.07.01.08-.18.05-.1.09-.29.18l.03-.1c-.07.1-.19.15-.32.3-.13.05-.06 0-.1-.05-.1.07-.06.1-.03.15-.12 0-.05.15-.26.17.02-.05 0-.09.07-.14-.17.03-.02.1-.23.15.12.03 0 .13.14.08l-.17.17c-.15-.05-.23.15-.38.03-.05.06 0 .06.04.13.01-.15.03.02.15-.06-.15.17-.33.31-.52.43-.08-.04.01-.02.06-.07-.12-.02-.02-.09-.08-.11-.07.12-.18.11-.24.21.06.02.12-.08.18-.1.06.04-.14.13.06.08-.07.1-.11.01-.17.09.06.04-.21.13-.07.19a.2.2 0 0 1-.25-.06l-.1.08c.1-.04.08.11.16.02-.1.08-.21.14-.34.2.13.03-.04.06-.03.14-.05.05-.1-.06-.14.02.08-.02.05.05.09.08-.1.05-.06-.07-.14-.03 0 .04.02.07-.08.09-.05.11-.46.28-.38.4-.03.04-.18-.02-.07-.06-.1 0-.08.03-.2.1.04 0 .07 0 .1-.02.01.18-.3.19-.39.25.16-.01.02.12-.15.27a.2.2 0 0 1-.2.02c0 .02-.02.07-.07.06-.04.05.02.07.08.1-.03.02-.03.04-.02.05-.24.02-.25.22-.44.28.03.01.04.03.03.05-.12-.02-.08.14-.28.2.02-.08-.04-.05-.14-.08-.07.06-.03.09.04.07a1.4 1.4 0 0 0-.19.12l.06.02a.4.4 0 0 1 .13-.1c.13.04-.06.07-.05.11l.33.08a.57.57 0 0 1 .14-.07l-.08.08 3.75.82c.57-.6 1.17-1.18 1.8-1.72-.01-.03.03-.08.06-.12.8-.69 1.8-1.51 2.6-2.17.79-.51 1.35-1 2.1-1.49Zm19.94-4.5c.23-.07.47-.1.7-.12l-.7.12Zm-.4.08c.06-.05.23-.08.23-.05l-.24.05Zm-.26.02c.07-.03.12-.02.14 0-.05.02-.17.04-.14 0Zm-.03.03c-.06 0-.21.05-.17.01.06 0 .11-.02.17-.03v.02Zm-3.8-.84a.52.52 0 0 1 .22-.03c-.12.02-.17.06-.23.03Zm-.37.1a.8.8 0 0 1 .2-.06.21.21 0 0 1-.2.05ZM38.87 7.93c-.05-.07-.06 0-.1.04 0-.04-.13 0-.06-.06.02.03.14-.13.2-.07-.05.03.03.05-.04.09Zm-1 .7c-.03-.02-.19 0-.15-.03.06.05.22-.14.28-.09-.01.04-.12.1-.13.13Zm-6.5 5.81c0-.11.19-.17.16-.28.23-.04.22-.3.53-.41-.28.28-.41.55-.69.7ZM63.02 3.36c.01-.01-.1-.02-.1-.03.17-.05.1-.1.06-.18-.08 0-.05-.02-.15-.03h.07c-.49-.1-.99-.15-1.49-.18-.03 0 0 0 0-.02h-.11c-.06.02.08 0 .05.02l-.22-.03a.75.75 0 0 1-.36-.05h-.29c-.07-.01.06-.02.1-.01-.03-.03-.13 0-.16 0a.94.94 0 0 0-.34-.06c-.08 0-.04.02-.03.02h-.21c-.02-.03.14.01.15 0a5.6 5.6 0 0 0-.94-.09c-.76-.04-1.5-.06-2.05-.08-.06.02-.18.02-.25.03-.05.03.1.01.12.02-.03.02-.18 0-.19.03-.03 0-.02-.02-.08-.02.04 0 .1-.01.1-.04-.3-.02-.6 0-.9.06l-.24.03c.02-.02-.12-.01-.03-.05l-.2.01a.3.3 0 0 0 .12.01c-.23.04-.47.06-.7.06-.07.02 0 0-.02.03-.52 0-1.04.04-1.56.1a.56.56 0 0 1-.18.07 6.32 6.32 0 0 0-1.13.14c-.03 0-.06 0-.06-.02-.58.1-1.14.25-1.83.34-.02.04.08.02.13.03l-.26.07c-.03-.03.09-.04.06-.07a4.4 4.4 0 0 1-.5.1 1.3 1.3 0 0 1-.4.09c-.02.08.18-.03.18.02 0 .02-.17.03-.27.06 0-.01 0-.02.03-.03-.08-.03-.02.05-.12.05-.05 0 0-.02-.04-.04-.24.04-.47.1-.7.18.02.03.12 0 .21-.02-.2.1-.43.16-.66.15.1 0 .16-.02.2-.03.03 0 .03-.01.04-.02l-.01-.03c-.23.1-.49.1-.72.23l.4-.11c-.32.13-.64.24-.97.31.02-.02.07-.03.05-.05.03 0 .05 0 .07.02.13-.08.28-.13.42-.15-.24.03-.49.08-.72.17-.02.05.13-.02.11.03-.27.1-.52.16-.73.26.02.02.06.01.14-.02-.1.05.02.04-.08.08l-.13-.05c-.07.03-.45.15-.4.19-.09.04-.06-.01-.08-.03-.15.07-.21.07-.4.16.03 0 .05.01.05.05-.08.03 0-.09-.12-.02l.02.06c-.11.03-.2.04-.24 0-.16.08.06.02.03.08-.08.04-.1 0-.12-.02-.05 0-.16.07-.17.04-.08.03.06 0 .03.05a.9.9 0 0 0-.35.2c-.06-.03.09-.05.04-.08-.1.07-.26.07-.27.14-.17.04-.16-.03-.35.06.19.01-.2.12-.04.13-.1.07-.04-.04-.12 0 0-.07.17-.04.14-.1-.07.01-.2.1-.23.07a.34.34 0 0 1-.18.16c-.06-.03.02-.06.1-.1-.17.02-.31.14-.5.19.02.09-.23.16-.18.21-.07.02-.06-.07-.13.05-.06.01-.15 0-.06.03a.27.27 0 0 0-.1.02c-.08-.02.13-.06.05-.1-.25.09-.34.16-.62.28l.1.01c0 .03-.14.06-.14.1-.13.04-.28.03-.38.1 0 0 .03.09.09.1a.4.4 0 0 0-.2.12c-.07.02-.04-.1.04-.1.02-.05-.01-.03.01-.1-.12.06-.12.1-.18.19-.06.03-.07-.02-.14.03.04.09-.1.02-.29.17.14-.03.04.03.03.08-.07.04.02-.04-.04-.05-.21.1-.28.11-.39.24-.1-.02-.01-.04-.04-.1-.07.04-.1.07-.1.1-.04-.07-.28.1-.37.16.07-.01.11 0 .01.06-.07.03.02-.04-.07-.02-.05.01-.13.1-.15.07-.1.08.08-.02.1 0 .02.06-.1.04-.12.11-.03-.02-.05-.03-.02-.05a.83.83 0 0 0-.27.13.08.08 0 0 1 .07.03c-.2.04-.37.12-.53.23.04.02.12 0 .1.05a.12.12 0 0 1-.13-.03l-.17.1c.01.03.05 0 .07.02-.14-.02-.35.19-.47.23-.05.1.19-.09.24-.09.01.03-.02.05 0 .08-.33.08-.4.26-.77.38-.1.05.01.07-.06.1.05.04.1-.06.05-.07.09-.04.06.06.09.08-.13 0-.23.09-.3.04-.1.04.01.06-.06.1.03.02.08-.03.12-.05-.01.06-.1.07.02.08-.07.08-.16 0-.23.1.04.02.04-.04.08-.02 0 .09-.13.05-.16.04-.19.07-.37.23-.5.25.1.02-.07.07.02.09-.18.04-.1.09-.28.18l.03-.1c-.07.1-.19.15-.31.31-.13.04-.06-.01-.1-.06-.1.07-.06.11-.03.16-.11-.01-.06.15-.25.17.02-.05 0-.09.07-.14-.17.03-.02.1-.22.15.12.03 0 .14.13.08l-.16.2c-.15-.07-.22.13-.37.01-.05.06 0 .06.04.13.02-.15.03.02.14-.05a2.3 2.3 0 0 1-.5.44c-.08-.04.02-.02.06-.08-.12-.01-.01-.08-.07-.1-.07.12-.18.1-.23.21.05.02.11-.08.17-.11.06.05-.14.14.05.1-.06.1-.1 0-.16.08.06.05-.2.14-.06.2a.18.18 0 0 1-.24-.06l-.1.09c.1-.05.07.11.16.01-.1.09-.21.15-.33.2.12.05-.04.07-.03.15-.05.06-.09-.06-.13.03.08-.02.05.05.08.08-.1.05-.05-.07-.13-.03 0 .04.02.08-.07.1-.05.11-.44.29-.37.41-.03.04-.16-.02-.07-.06-.1 0-.06.03-.18.1.04 0 .07 0 .1-.02 0 .2-.3.2-.37.26.15-.01.01.14-.14.29-.06.03-.12.06-.19.01 0 .03-.02.08-.06.07-.05.05 0 .08.07.1-.02.02-.03.04-.02.06-.22.02-.23.23-.41.3.03 0 .04.02.03.04-.11-.02-.07.15-.26.21.02-.08-.04-.05-.13-.08-.07.06-.03.1.03.08-.07.05-.26.14-.18.2-.02.03-.05.01-.08.01.07.11.14-.12.27-.18.16.07-.2.1.02.17-.07.02-.13.08-.2.07-.02.03.03.04.05.05-.21.13-.4.31-.53.52.16.05-.06.15-.16.2.16.03-.15.34-.26.24l-.01.06.28.06c.05-.08.07-.16.04-.2.04.01.09.04.12.01.03-.04-.12-.04 0-.12.11.1.23-.22.4-.2l-.47.53 3.67.8.28-.37c.06-.08.41-.33.4-.47.6-.7 1.22-1.37 1.88-2-.01-.03.03-.08.06-.12.74-.7 1.7-1.54 2.47-2.2.76-.52 1.3-1 2.03-1.49.12-.07.26-.1.32-.23.5-.24.86-.53 1.37-.82l.16-.07a30.3 30.3 0 0 1 7.78-3.19l.67-.19c.3-.08.63-.13.95-.2-.46.16-1.03.22-1.42.37a18.23 18.23 0 0 0-1.72.51c-.04.01-.03 0-.03-.02-.06 0-.1.06-.11.03-.04.02-.03.03-.03.05-1.14.35-2.26.78-3.35 1.27-.03.02 0 .04 0 .06.5-.22 1-.45 1.49-.63a10.81 10.81 0 0 0 .46-.17 28 28 0 0 1 2.3-.8c1.8-.52 3.66-.9 5.54-1.1.03 0 .01 0 0 .02.22-.05.44-.07.65-.07l.02-.04c.04 0 .02.02.02.02.38-.04.84-.06 1.23-.08.64-.03 1.27-.05 1.8-.04.79-.03 1.25.03 1.97.05.16-.03.52-.04.58-.08h.14c.02-.02.07-.03.2-.05-.09-.02-.06-.06.11-.05 0-.02-.05-.04-.13-.06.1-.02.21-.06.14-.1.1-.02.14-.04.03-.06l.1-.03c-.1-.04-.12-.09-.09-.12l.14.01" fill="#58A66F"/>
    <path d="M11.93 14.44c.07 0 .25 0 .2-.03l-.21.02v.01Zm-.2.02c.05 0 .2 0 .16-.03a.23.23 0 0 0-.17.03Zm-.43.04c.1 0 .19-.02.28-.03-.07-.02-.28 0-.28.03Zm-1.06.08c.38-.02.57-.05.85-.07-.28 0-.57.03-.85.07Zm35.83 4.3.12.08c.08-.08.29-.07.17-.12-.14.12-.18-.03-.3.05Zm.05-.75c-.17.08.1.03.11.12.17-.1-.08-.1-.11-.12Zm-6.67-3.35c.34.13.7.22 1.07.25-.04-.1-.29-.06-.3-.16-.28.08-.37-.15-.77-.1Zm4.95 1.83c.08-.03.15-.02.15.03l.1-.07c-.06-.07-.29 0-.25.04Zm-13.54-3.73c.02.03.16.03.18.06.04-.03.23-.08.17-.1-.06.08-.3-.03-.35.04Zm10.9 2.4c-.24.07-.58-.07-.53-.2-.05.04-.1.1-.14.08-.06-.03.12-.1-.05-.1-.1.14-.36-.08-.54.02.51.17.94.26 1.4.4.3.1.56.36 1.04.28-.2-.25-1.06-.22-1.17-.48Zm-12.12-2.62c.07 0-.02.06.07.06.05-.08.07-.03.13 0-.01-.04.15-.05.05-.08-.02.03-.2-.05-.25.02Zm-12.75-.13-.23.01c.03.04.2.02.23 0Zm-.7.07c.15-.02.2 0 .27-.04-.1 0-.19.01-.27.04ZM3.53 14.68c.13-.06.27-.1.41-.13.1-.02.05.01.04.02l.25-.05c.03-.03-.17.04-.19.02.38-.11.76-.2 1.15-.28l2.44-.54.3-.03c.05 0-.12.03-.14.05.03 0 .22-.05.22-.02a.28.28 0 0 1 .1-.04c-.05 0-.12 0-.11-.02.34-.1.7-.15 1.06-.16l.28-.04c-.02 0 .15-.04.04-.05l.24-.04a.5.5 0 0 1-.15.04c.29-.02.57-.07.85-.13.07 0 0 .01.01.03.47-.14 1.26-.2 1.85-.32.07.02.14.02.2.02a11 11 0 0 1 1.38-.22l-.03.03c.05-.01.08-.03.07-.04.7-.07 1.36-.1 2.18-.21.02.03-.1.04-.15.06.1 0 .21 0 .32-.02.02-.03-.11 0-.09-.04.32-.04.35-.02.6-.07.16.01.32 0 .47-.03.04.07-.2.02-.2.07.01.02.2-.03.32-.03 0-.01-.01-.02-.04-.02.1-.05.03.04.16.01.06-.01-.01-.01.04-.05.27-.03.55-.05.82-.05 0 .03-.13.04-.24.04.27.04.54.02.8-.07l-.25.05-.04-.01.01-.04c.27.02.58-.05.86-.02a3.7 3.7 0 0 1-.47.03c.39.02.78.01 1.17-.03-.03-.01-.09 0-.07-.04a.24.24 0 0 0-.09.05 1.76 1.76 0 0 0-.5 0c.28-.05.58-.08.87-.08.03.04-.15.02-.14.06.34 0 .64-.02.9 0-.02.02-.08.03-.17.03.12.01-.02.03.1.05l.15-.1c.08 0 .55-.02.48.04.12 0 .08-.04.1-.06h.5c-.04.02-.06.04-.06.07.1 0-.01-.07.13-.05l-.02.05c.1 0 .21-.02.3-.07.2 0-.08.04-.03.08.1 0 .12-.04.14-.07.06 0 .2.01.2-.02.1 0-.06.03-.02.06.14-.01.3 0 .43.05.07-.04-.11 0-.05-.05.11.02.3-.03.34.02.2-.02.18-.08.41-.07-.22.09.26.04.07.1.12.03.05-.04.13-.04 0-.06-.2.02-.17-.04.09-.01.25.02.28-.01.03.04.1.06.24.07.06-.05-.04-.05-.14-.04.21-.03.42-.03.63-.02-.02.09.28.06.24.12.09 0 .06-.09.16 0 .08-.02.18-.05.08 0a.4.4 0 0 1 .12-.01c.09-.06-.17-.01-.08-.07.3-.02.42.01.78 0-.03.03-.09.03-.11.06-.01.02.16 0 .17.03.15-.03.3-.05.46-.06 0 .02-.01.1-.08.13a.5.5 0 0 1 .26.03c.09 0 .03-.1-.07-.07-.03-.04 0-.04-.03-.08.1 0 .18.03.25.1.08 0 .08-.05.17-.03-.03.1.12-.02.37.04-.16.02-.04.04-.02.08.1 0-.03-.03.05-.06.17-.02.34 0 .5.07.1-.06 0-.05.03-.1.09 0 .14 0 .12.04.04-.08.36-.03.48 0-.09.01-.14.04 0 .05.1 0-.03-.03.07-.05.07 0 .18.04.2 0 .12.04-.1.02-.11.05-.02.06.12 0 .16.04.02-.02.04-.04 0-.05.12-.01.24 0 .35.01a.12.12 0 0 0-.07.05 2 2 0 0 1 .68 0c-.05.03-.15.04-.1.08a.2.2 0 0 0 .14-.08l.22.02c-.01.03-.06.03-.08.05.15-.08.46.01.6 0 .08.07-.24 0-.3.03-.01.02.04.03.02.06.4-.05.53.07 1 .02.12 0 0 .07.1.07-.06.05-.15-.01-.08-.05-.12 0-.06.08-.1.11.16-.06.3-.02.37-.1.13 0 0 .07.1.08-.04.02-.1 0-.16 0 .03.04.12.02 0 .08.1.03.2-.07.29 0-.04.03-.05-.03-.09 0 .02.08.16 0 .2-.03.23-.02.49.04.64.01-.1.06.1.03 0 .09.23-.04.14.03.38.03a.37.37 0 0 0-.06-.07c.1.05.26.05.45.14.16-.02.06-.04.1-.1.13.02.1.07.08.13.12-.06.1.1.34.04-.03-.04-.03-.08-.12-.1.2-.04.05.08.3.04-.13.08.05.12-.13.13l.24.1c.16-.12.3.02.44-.16.08.03.03.06 0 .14-.07-.12-.03.03-.19.01.23.1.47.15.72.17.08-.08-.03-.02-.09-.05.13-.07-.01-.07.05-.13.12.08.24.03.34.1-.06.04-.16-.03-.24-.03-.05.08.2.07-.03.11.1.06.12-.04.22 0-.06.07.27.03.13.15a.27.27 0 0 0 .26-.16c.05 0 .1.01.14.03-.13 0-.04.12-.18.08.15.03.3.03.45.02-.13.1.07.05.09.12.07.03.08-.1.16-.04-.1.03-.05.07-.07.11.13 0 .03-.08.14-.09.02.04 0 .08.12.05.03-.04-.1-.04-.07-.09.06-.07.18 0 .27-.01-.12.02-.1.07.04.08-.07.06-.17 0-.24.02.09.08.6.05.56.2.05.01.2-.1.06-.1.12-.04.1 0 .25.01a.21.21 0 0 1-.11.03c.05.16.4.03.51.05-.17.06.03.12.27.18a.28.28 0 0 0 .23-.08.07.07 0 0 0 .1.03c.06.02 0 .07-.06.12.04 0 .05.02.04.04.28-.09.36.09.6.06-.04.02-.04.04-.02.05.12-.07.14.1.38.05-.05-.06.03-.06.12-.13.1.02.08.07 0 .08.1.01.36 0 .29.1.03 0 .06-.03.09-.04-.04.12-.21-.04-.38-.03-.17.14.27 0 .03.16a.8.8 0 0 0 .27-.04c.04.02-.02.05-.05.07.29 0 .57.06.83.18-.17.12.12.1.26.09-.18.1.3.21.4.07.02.03.05.06.13.08a.32.32 0 0 0-.12.05c.25.03.32.17.57.08 0 .02.06.04.03.07.06.01.02-.03.09-.06.1.04.08.07.22.08l-.1.06c.43.18.67.22.96.34-.04.07-.22.02-.16.08-.15.03-.1-.02-.24-.03-.08.04-.06.06-.1.1.22.08.67.1.54.29.23-.1.47.1.63.13-.06.05-.11.07-.16.04-.03.03.04.04 0 .07.1-.03.23-.09.34-.03-.08.02-.16.07-.22.01-.07.06.12.1.17.08.07-.04.04-.06.1-.1.24.13.28.13.56.26-.26.09.05.1-.1.18l-.34-.16c.01.17.31.17.45.25.04.02-.2.14-.25.07-.02.15.23.05.2.19.12-.08.05-.13.04-.18a.23.23 0 0 1 .27.01c.03-.1-.2-.11.07-.2-.13-.1-.16.1-.25.03.2-.1-.05-.04-.01-.12.15.01.3.06.44.14-.05.02-.08-.02-.13.01.1.07.1.07.32.09-.1.06-.21.15-.3.09.01.1.3 0 .35 0-.08.07-.15.11-.1.2.03.01.08-.03.13-.05.06.03.02.07.13.1-.13.07 0 .1-.17.16.4.05.37.26.75.33-.3.16-.48-.2-.57-.06-.04.06.13.17.35.2-.07.03-.05.05-.1.08.16-.05.09.05.25 0 .02.04-.04.02-.08.05.1.07.24-.02.33.06l-.12.06c.23 0 .18.2.4.2-.14.07-.3-.14-.52-.1-.1.08.07.12-.07.2a.37.37 0 0 1 .36.12c-.06.03-.11.01-.17.04.1.08.1.1.28.08-.12.07.03.06.04.13-.23-.03-.52-.14-.56-.31-.1.02-.2.06-.27-.03-.24.18.55.14.4.34.08-.02.14.01.21 0-.11.14-.06.05.06.18a.16.16 0 0 1-.2-.04.55.55 0 0 0-.17.04c-.13.1.08.06.13.13-.09.04-.12.08-.07.1-.05 0-.12.05-.16.04.07.03-.15.18-.24.28.04.05.17-.11.18-.02l-.11.07c.13.07.36.07.23.22-.01-.04-.4.09-.24.08-.33.02-.35-.18-.67-.23-.08.05.08.08.1.12-.14.1-.05-.11-.25.02-.04.16.36.12.44.33a1.51 1.51 0 0 1-.46-.14c.04.11.2.14.16.28-.08-.02-.23.1-.33.1.06.19.14.2.31.31-.07.03-.05.06-.03.08a.14.14 0 0 1-.19-.04c-.2.13.12.1-.01.2-.15.05-.08-.04-.18-.03 0 .16.3.3.4.4-.2.07-.48-.12-.62-.2-.2-.1-.4-.24-.57-.4-.44.02-.69-.47-1.08-.47-.23-.29-.9-.33-1.19-.59-.13.04-.16.1-.3.11-.05-.07.09-.02.12-.05-.16 0-.3-.07-.16-.19-.04-.07-.36.02-.21-.1-.12 0-.12.07-.21.08a6.4 6.4 0 0 1-1.43-.72c.03-.02.05 0 .08 0 .03-.03-.04-.05-.07-.08-.04.05-.18.1-.07.12-.32-.1-.63-.25-.9-.45a.28.28 0 0 1-.33-.13c-.18.02-.37-.16-.59-.15a5.1 5.1 0 0 0-1.07-.5c-.1-.04-.63-.08-.66-.22-.98-.28-1.68-.59-2.94-.89 0-.03-.06-.05-.1-.08l-3.6-.9c-1.04-.14-1.81-.36-2.8-.5-.15-.03-.32 0-.42-.1-.65-.02-1.13-.15-1.8-.22h-.2c-3.23-.4-6.49-.51-9.73-.35l-.81.01c-.37.01-.77.06-1.15.09.55 0 1.25-.1 1.72-.06a26.77 26.77 0 0 1 2.1-.04c.04-.01.03-.03.03-.04.07-.01.12.03.14 0 .04 0 .03.02.04.03 1.42-.07 2.86.05 4.14.09.05 0 .02.03.02.05-.63-.03-1.27-.07-1.87-.08h-.2l-.37-.01a50.5 50.5 0 0 0-2.82-.02 70 70 0 0 0-6.7.5c-.04 0-.02 0-.02.01-.26.01-.52.04-.78.1a.12.12 0 0 0-.02-.03c-.04 0-.02.02-.02.02l-1.49.22c-.77.12-1.53.24-2.17.36-.95.14-1.53.3-2.4.46-.2 0-.63.06-.7.04l-.17.02c-.02-.01-.07-.02-.23 0 .1-.05.08-.07-.13-.04 0-.02.07-.05.17-.08-.13 0-.25-.01-.16-.07-.12 0-.17-.01-.03-.05H.38c.12-.06.15-.11.12-.14a.93.93 0 0 0-.17.04l.13-.05c-.2-.01-.1-.08-.05-.16l.18-.05H.51c.42-.13 1.17-.3 1.81-.45.05 0 .02-.01.01-.02h.05l.08-.02c.07 0-.09.01-.06.02.09-.01.18-.04.26-.07.16-.01.3-.05.45-.12.12-.01.23-.03.34-.06.09-.02-.07 0-.1 0a.4.4 0 0 1 .18-.02Zm8.36 5.25c.07 0 .24.07.2.02l-.2-.04v.02Zm-.19-.04c.05.03.19.06.15 0-.07-.03-.13-.02-.15 0Zm-.4-.07.27.05c-.07-.06-.27-.1-.26-.05Zm-.99-.18c.35.08.54.1.8.15a3.13 3.13 0 0 0-.8-.15Zm28.54 21.57.04.18c.1-.08.25.06.19-.08-.16.1-.11-.13-.23-.1Zm.41-1c-.16.02.06.1.03.22.17-.02-.01-.16-.03-.22Zm-3.52-8.3c.3.38.44.75.75.93 0-.15-.2-.23-.17-.38-.26-.05-.24-.41-.58-.55Zm3.02 5.24c.07.01.12.07.1.13l.1-.04c0-.13-.22-.16-.2-.09Zm-9.52-12.2c.02.05.14.12.15.17.04-.04.21-.01.17-.06-.07.07-.24-.2-.32-.11Zm8.12 8.9c-.23-.03-.43-.4-.34-.55-.05.02-.1.07-.14.03-.03-.07.14-.07.01-.18-.14.16-.25-.3-.44-.24.33.5.63.85.92 1.31.19.3.28.8.68.95-.04-.45-.72-.88-.7-1.31Zm-9.11-9.79c.05.05-.04.08.04.12.06-.1.07 0 .11.05 0-.05.15 0 .07-.07-.03.03-.16-.17-.22-.1Zm-11.55-5.3a.77.77 0 0 0-.23-.06.2.2 0 0 0 .23.06Zm-.68-.14c.15.02.2.07.26.04a.53.53 0 0 0-.26-.04Zm-12.1-.53c.13-.06.27-.09.4-.1.1 0 .04.03.04.04l.24-.01c.02-.04-.16.02-.18-.01a5.7 5.7 0 0 1 1.08-.14c.87-.09 1.7-.14 2.34-.18.07.01.21 0 .29.02.05.04-.11.02-.13.04.02.02.2 0 .2.03.03-.01.03-.03.1-.03-.05 0-.12-.02-.1-.05.18 0 .86-.07 1 .05.1 0 .2 0 .28.03-.02-.03.15-.03.04-.07h.23a.28.28 0 0 1-.14.02c.27.04.54.06.8.05.08.03 0 .01.02.05.6-.02 1.19 0 1.77.08.04.04.14.05.2.08.45-.01.89.03 1.32.12 0 0-.03 0-.03.02.04 0 .07 0 .07-.03.66.11 1.29.29 2.07.4.02.05-.09.03-.15.03l.3.1c.03-.05-.1-.06-.07-.1.19.05.38.08.57.1.14.07.29.11.44.12.03.11-.2-.03-.19.04 0 .02.19.03.3.07 0-.02 0-.03-.04-.04.1-.05.03.06.15.07.06 0 0-.03.05-.06.26.05.52.12.77.21 0 .05-.12 0-.23-.02.23.14.49.2.75.18-.1 0-.18-.02-.23-.03-.03 0-.04-.01-.04-.02l.02-.05c.27.08.54.17.8.28-.15-.03-.3-.08-.45-.13.35.17.72.3 1.1.39-.02-.03-.09-.05-.06-.08a.14.14 0 0 0-.09.03c-.14-.09-.3-.15-.47-.18.21-.05.54.15.82.2.02.08-.14-.02-.13.05.3.12.59.2.82.32-.02.03-.07.02-.16-.02.1.07-.02.05.1.11l.14-.08c.08.04.51.18.44.24.1.06.08-.01.1-.04.17.1.24.1.46.2a.09.09 0 0 0-.07.07c.1.05 0-.11.14-.03l-.03.08c.13.05.23.06.28 0 .18.1-.07.03-.04.11.1.05.12 0 .14-.04.06 0 .18.1.19.05.08.05-.07.01-.04.07.25.08.28.18.4.26.06-.04-.11-.06-.05-.1.1.08.29.08.3.17.2.04.19-.05.4.07-.22.03.22.16.04.17.1.09.05-.05.13 0 0-.09-.19-.05-.15-.14.08.02.22.13.26.1.04.1.1.16.2.2.06-.04-.02-.08-.12-.12.2.01.36.17.58.24-.04.12.24.2.19.28.08.02.07-.1.14.06.07.01.17 0 .07.03l.12.03c.09-.04-.16-.08-.06-.12.23.1.46.21.69.34-.03.02-.08 0-.1.02-.02.04.14.08.14.13.15.05.32.03.43.11-.01.02-.04.14-.1.15.14.06.14.06.21.15.09.04.06-.13-.04-.13-.02-.06.02-.04 0-.13.13.08.13.13.2.24.06.05.08-.02.16.05-.06.12.1.02.31.21-.15-.03-.04.05-.03.12.08.04-.02-.06.05-.08.23.14.3.15.43.33.1-.04.01-.06.05-.14.08.04.12.08.1.12.05-.09.33.12.42.21-.08-.01-.13 0-.01.08.08.04-.02-.05.07-.03.06.02.15.13.18.08.1.12-.1-.01-.11.02-.03.08.1.05.13.14.02-.03.05-.05.01-.07.12.03.22.1.3.17a.1.1 0 0 0-.07.04c.22.04.43.15.6.3-.05.02-.14 0-.11.06a.13.13 0 0 0 .14-.05l.19.14c-.02.04-.06.01-.08.03.15-.03.39.24.52.3.05.13-.21-.11-.28-.11 0 .03.03.07.01.1.36.1.44.34.86.5.1.05-.02.09.06.14-.06.04-.12-.09-.05-.1-.1-.05-.08.08-.11.1.14 0 .26.12.34.04.11.07-.02.1.06.15-.03.02-.1-.04-.14-.07.02.08.1.1-.02.12.08.1.19 0 .25.13-.04.02-.04-.06-.08-.03 0 .12.14.05.18.04.2.09.4.3.55.33-.1.03.08.1-.02.12.2.05.1.12.3.24l-.02-.14c.07.12.2.2.34.42.14.04.06-.03.1-.1.12.1.07.16.04.23.12-.02.05.2.27.22-.01-.06 0-.12-.07-.19.2.03.02.13.25.2-.14.05 0 .19-.16.12.06.1.1.11.18.25.17-.09.24.18.42 0 .05.09 0 .1-.06.2 0-.21-.03.03-.15-.08.14.23.33.43.54.6.1-.07-.02-.04-.06-.11.14-.03.02-.11.09-.16.07.17.19.16.25.3-.06.03-.13-.12-.19-.15-.07.08.15.19-.06.14.06.13.11 0 .18.1-.08.08.21.19.05.28.12.09.24-.02.28-.1l.1.12c-.11-.06-.08.16-.17.03.1.1.22.2.36.26-.14.07.04.1.02.2.06.08.1-.09.16.04-.1-.02-.07.06-.1.11.1.07.05-.1.15-.05 0 .06-.03.1.08.13.04-.04-.08-.12-.03-.16.08-.07.15.1.23.12-.1-.03-.1.05 0 .14-.07.04-.14-.08-.2-.1.04.16.48.38.39.56.03.06.2-.04.08-.1.11 0 .08.05.2.15-.04 0-.07 0-.1-.03-.03.26.31.26.4.34-.17 0-.03.19.15.4.06.03.13.07.2 0 0 .04.03.12.08.1.04.07-.02.1-.1.14.03.03.04.05.02.08.26.01.26.3.46.4-.04 0-.05.03-.04.05.13-.03.07.21.28.29 0-.12.05-.08.16-.13.07.09.03.13-.04.11.07.07.3.2.2.28.02.03.05.01.08 0-.08.16-.15-.15-.29-.23-.2.1.22.13-.04.23.08.03.15.1.23.1.02.04-.03.05-.07.07.25.18.45.42.58.7-.18.06.06.2.17.25-.19.06.15.48.29.33 0 .07.02.13.07.18a.18.18 0 0 0-.12 0c.18.18.17.41.4.41-.01.04.04.1 0 .13.04.04.03-.03.1-.04.06.12.02.15.13.23l-.1.05c.25.47.4.66.58 1-.06.07-.18-.1-.16 0-.13-.03-.07-.08-.17-.17-.08.01-.08.06-.12.08.13.24.46.52.27.7.23-.01.32.4.42.54-.07.03-.11.03-.14-.04-.04.03.01.08-.04.1.1.02.22 0 .28.14-.07-.01-.16.02-.17-.1-.08.04.05.2.09.2.07 0 .06-.06.12-.07.12.3.15.33.3.66-.24-.02-.02.17-.16.2l-.18-.41c-.08.24.15.4.21.6.02.04-.22.06-.22-.05-.08.19.14.2.06.36.13-.03.1-.14.12-.22.1-.02.16.04.2.18.06-.12-.1-.27.14-.24-.05-.2-.17.05-.2-.1.2-.02-.02-.08.05-.17.12.12.21.27.26.43-.04 0-.05-.06-.1-.05.03.15.04.15.2.3-.12.03-.24.08-.27-.05-.04.15.21.18.25.2-.09.05-.16.07-.18.21.03.04.08.01.13 0 .03.1-.02.13.04.23-.12.02-.04.13-.2.13.28.28.14.55.38.87-.3.04-.24-.56-.38-.4-.06.06.01.3.15.45-.07 0-.06.05-.1.06.13.03.03.12.17.16 0 .05-.04 0-.08.01.03.15.18.1.2.26l-.11.03c.16.12.03.36.18.49-.14.02-.15-.36-.33-.42-.1.04 0 .2-.14.22a.41.41 0 0 1 .19.37c-.06 0-.08-.05-.14-.04.03.17.01.2.15.27-.11.02 0 .1-.03.19a.94.94 0 0 1-.24-.74c-.08-.02-.18-.03-.18-.18-.26.1.33.5.11.69.07 0 .1.09.16.1-.16.14-.08.06-.06.29-.09.01-.1-.08-.12-.16a.3.3 0 0 0-.14-.05c-.14.07.02.13.02.26-.08 0-.12.03-.1.1-.03-.03-.1 0-.13-.05.04.08-.2.16-.31.25 0 .09.17-.06.14.08l-.12.02c.05.18.21.3.05.43 0-.05-.33-.1-.2-.02-.25-.16-.16-.44-.36-.69-.09.03.01.15 0 .22-.15.06.03-.18-.18-.1-.11.2.2.35.15.69a1.7 1.7 0 0 1-.26-.45c-.03.17.07.3-.02.47-.06-.07-.22.01-.3-.03-.03.2 0 .4.07.59-.07 0-.07.04-.06.08-.1.02-.1-.07-.11-.15-.2.06.03.2-.12.28-.12-.03-.03-.1-.1-.16-.09.23.05.58.07.76-.16 0-.27-.41-.32-.59-.1-.28-.16-.57-.2-.87-.32-.2-.26-1.02-.54-1.22-.02-.53-.48-.94-.57-1.45-.12 0-.17.07-.28 0 0-.13.08 0 .12-.01-.12-.08-.19-.25-.03-.35 0-.12-.27-.16-.12-.24-.08-.08-.1.03-.18 0a9.67 9.67 0 0 1-.74-1.76c.03-.01.04.03.05.05.05-.03 0-.09-.01-.14-.06.04-.17.04-.1.12a4.7 4.7 0 0 1-.5-1.1.33.33 0 0 1-.19-.34c-.15-.06-.22-.4-.39-.5a6.16 6.16 0 0 0-.63-1.24c-.07-.1-.46-.43-.43-.63-.63-.94-1.3-1.83-2.04-2.69.02-.05-.02-.1-.05-.16-.8-.94-1.86-2.06-2.7-2.94-.84-.67-1.44-1.32-2.24-1.96-.13-.1-.3-.12-.35-.3-.56-.3-.95-.7-1.52-1.07-.06-.03-.12-.05-.17-.09a28.98 28.98 0 0 0-8.73-4.05c-.23-.06-.51-.17-.75-.23-.35-.1-.72-.16-1.07-.23.51.18 1.16.25 1.6.44.33.07 1.03.28 1.43.42.18.05.35.12.5.21.04.01.04-.01.04-.03.06 0 .1.08.13.04.03.01.02.04.02.06 1.3.44 2.55.98 3.76 1.6.03.03 0 .06 0 .09-.56-.29-1.13-.57-1.67-.8a.92.92 0 0 0-.18-.09c-.1-.03-.24-.1-.34-.14a25.7 25.7 0 0 0-2.57-1 31.7 31.7 0 0 0-6.28-1.28c-.03 0-.01.01-.01.03a2.74 2.74 0 0 0-.73-.07.26.26 0 0 0-.03-.05c-.04 0-.01.02-.01.03-.44-.04-.96-.05-1.4-.06-.74-.03-1.46-.03-2.06 0-.9 0-1.43.1-2.25.15-.18-.05-.59-.04-.66-.09h-.16c-.03-.02-.07-.04-.22-.05.1-.04.07-.09-.13-.07 0-.03.06-.06.16-.1-.13 0-.25-.06-.16-.12-.12-.02-.16-.05-.03-.08l-.11-.02c.1-.06.13-.13.1-.18l-.16.02c-.01 0 .11-.02.12-.04-.2-.05-.1-.14-.06-.24.1-.01.06-.02.17-.04l-.08-.01a12.3 12.3 0 0 1 1.7-.28c.05-.01.02-.02.02-.03h.04l.08-.01c.06.02-.09 0-.06.02.11.01.16-.03.25-.04a.8.8 0 0 0 .42-.08c.11 0 .22 0 .33-.02h-.1c.02-.04.14-.01.17 0Zm7.98-1.06c.06 0 .24.02.2-.01l-.2-.02v.02Zm-.22-.01c.06.02.2.02.17-.01a.2.2 0 0 0-.17.01Zm-.42-.02.28.02c-.07-.04-.28-.05-.28-.02Zm-1.08-.03c.38.02.58.01.86.03a4.66 4.66 0 0 0-.86-.03Zm33.28 12.19.08.12c.1-.08.28 0 .19-.1-.16.11-.15-.07-.27-.02Zm.25-.85c-.17.05.08.07.07.17.18-.06-.05-.13-.07-.17Zm-5.21-5.6c.37.22.57.48.93.56-.01-.12-.25-.14-.23-.26-.29.01-.31-.27-.7-.3Zm4.07 3.38c.08 0 .15.03.13.08l.1-.05c-.02-.1-.25-.08-.23-.03ZM30.8 18.54c.02.04.15.07.17.1.03-.03.22-.04.17-.07-.07.07-.27-.1-.34-.03Zm9.72 5.33c-.25.02-.53-.23-.45-.35-.05.02-.1.07-.15.04-.04-.04.14-.08-.01-.13-.13.14-.32-.18-.52-.1.44.32.81.52 1.2.82.25.19.42.55.88.58-.12-.34-.91-.52-.95-.86Zm-10.85-5.85c.06.03-.03.07.05.1.06-.1.08-.02.13 0 0-.03.16-.01.06-.06-.02.03-.18-.1-.24-.04Zm-12.53-2.46a1.12 1.12 0 0 0-.24-.02c.02.05.2.05.24.02Zm-.73-.03c.16 0 .21.04.28 0a.74.74 0 0 0-.28 0Zm-13.06.8c.14-.05.29-.08.44-.1.1-.01.04.02.03.02l.26-.02c.03-.04-.18.02-.19 0a141.46 141.46 0 0 1 3.74-.55l.3-.01c.06.02-.12.03-.14.04.03.02.22-.02.22 0a.27.27 0 0 1 .11-.02c-.06 0-.13 0-.11-.04.36-.06.73-.08 1.1-.06.09 0 .19-.01.28 0-.02-.02.16-.03.05-.06a5.89 5.89 0 0 0 .1.01c.29 0 .58 0 .86-.04.08.01 0 .01.02.03.5-.1 1.3-.07 1.9-.12.08.02.15.04.22.04a8.2 8.2 0 0 1 1.41-.05c0 .01-.04.01-.03.02.05 0 .08-.01.07-.03.71.02 1.38.08 2.23.07.01.04-.1.04-.17.05l.33.03c.03-.03-.11-.03-.08-.06.32 0 .34.03.6.01.16.04.32.05.48.04.03.08-.2 0-.2.05 0 .02.2 0 .31.02 0-.02 0-.03-.03-.03.1-.05.03.05.15.03.06 0 0-.02.05-.04.28 0 .56.02.83.06 0 .04-.13.02-.24.01.26.09.53.1.8.05l-.25.01c-.03 0-.03-.01-.03-.02v-.04c.28.06.6.04.87.12-.16 0-.32-.02-.48-.04.39.08.78.14 1.17.16-.02-.02-.09-.03-.06-.06a.28.28 0 0 0-.1.04 1.6 1.6 0 0 0-.5-.08c.3-.02.6 0 .88.05.02.05-.15 0-.14.05.33.05.63.08.88.14-.02.03-.07.03-.16 0 .1.05-.03.05.09.08l.16-.08c.08.02.55.07.47.13.12.03.1-.03.11-.05.18.05.26.04.5.1a.09.09 0 0 0-.08.06c.1.02 0-.1.15-.04l-.03.06c.14.02.25.01.3-.04.2.05-.08.04-.05.1.1.01.13-.02.16-.06.06 0 .19.05.2.02.1.02-.07.01-.04.05.15.02.3.07.43.15.07-.04-.12-.04-.05-.08.11.05.31.03.33.1.2 0 .2-.07.42 0-.23.04.25.08.05.12.12.05.06-.05.14-.02 0-.07-.2-.01-.16-.09.09 0 .24.07.28.04.02.05.09.1.21.13.08-.04-.02-.06-.12-.08.21.02.42.05.62.1-.03.1.27.12.22.2.08 0 .07-.1.15.01.08 0 .18-.02.08.02h.12c.1-.04-.16-.03-.07-.08.31.03.42.1.76.16-.03.02-.09 0-.11.03-.02.03.16.04.16.08.17.02.35-.03.46.02 0 .01-.03.11-.1.13a.4.4 0 0 1 .24.08c.09.02.05-.11-.05-.09-.02-.04.01-.04-.01-.1.15.04.15.08.22.16.08.02.09-.03.18 0-.06.1.1 0 .35.12-.17 0-.05.04-.04.1.1.02-.02-.05.06-.07.25.07.33.06.47.18.11-.04.01-.05.05-.11.09.02.13.04.12.07.04-.07.35.05.46.1-.09 0-.14.02-.01.06.09.02-.02-.04.07-.04.07.01.17.08.2.04.11.08-.1 0-.12.03-.03.07.12.03.15.1.02-.03.05-.05 0-.07.13 0 .24.04.35.09a.12.12 0 0 0-.09.04c.23 0 .45.04.66.13-.05.03-.14.02-.11.07a.2.2 0 0 0 .15-.06l.21.07c-.02.04-.06.02-.09.04.17-.05.44.12.58.14.07.1-.23-.05-.3-.04 0 .03.04.05.02.08.4.02.49.2.95.23.12.03-.02.08.08.1-.06.05-.13-.04-.06-.07-.12-.02-.08.08-.12.1.16-.02.29.05.37-.02.13.03-.02.08.08.1-.04.03-.1-.01-.15-.03.02.06.12.06-.01.1.08.06.2-.04.27.06-.04.02-.04-.04-.09-.01 0 .09.16.02.2 0 .23.03.46.15.61.15-.1.04.1.06-.01.1.22 0 .13.07.35.13a.7.7 0 0 0-.04-.1c.09.08.23.12.4.26.15.01.07-.03.1-.09.14.05.1.11.06.17.13-.04.08.14.32.11-.02-.04-.02-.08-.1-.12.2-.01.04.09.29.1-.15.06.01.15-.16.12.07.07.1.07.21.16.18-.09.28.1.45-.07.07.06.02.07-.04.16-.03-.16-.03.03-.17-.03.19.15.4.27.64.36.1-.07-.02-.03-.07-.07.14-.05 0-.1.08-.14.09.11.21.08.29.18-.06.04-.15-.06-.22-.08-.06.07.18.12-.05.12.08.09.12-.02.2.05-.07.07.26.1.1.2a.25.25 0 0 0 .28-.12l.12.06c-.12-.02-.07.14-.18.06.13.06.27.1.41.13-.14.08.06.07.06.16.06.04.1-.1.16 0-.1 0-.06.05-.1.1.13.03.06-.1.16-.07.01.04-.01.09.1.09.04-.04-.09-.08-.04-.13.07-.06.17.05.26.05-.12 0-.11.06.01.11-.07.05-.16-.04-.23-.03.07.1.56.2.49.35.04.04.2-.07.07-.09.12-.03.1.02.24.07a.2.2 0 0 1-.12 0c.01.2.38.14.47.19-.17.02 0 .14.21.27a.23.23 0 0 0 .23-.03c0 .02.03.08.09.05.05.05-.01.09-.09.13.04.02.05.04.03.05.29-.03.32.2.55.22-.04.01-.05.03-.03.05.13-.05.1.15.34.16-.03-.08.04-.06.15-.12.08.05.05.1-.03.09.09.04.34.09.25.18.03.02.06-.01.09-.02-.07.13-.18-.1-.34-.12-.2.11.25.06-.01.18.08 0 .17.05.25.03.03.03-.03.05-.06.07.27.08.52.22.72.41-.18.1.1.15.22.17-.2.08.23.33.36.19 0 .04.03.08.1.12a.28.28 0 0 0-.13.03c.22.1.25.28.5.23-.01.03.05.07.01.1.06.02.03-.03.1-.05.09.08.05.1.18.15l-.1.05c.34.3.55.42.79.64-.06.07-.2-.04-.17.04-.14 0-.09-.05-.21-.1-.08.03-.08.06-.11.1.17.14.57.28.4.47.25-.06.4.24.55.32-.07.04-.12.05-.16 0-.03.03.02.06-.02.08.1 0 .23-.03.32.05-.08.01-.16.05-.2-.04-.08.05.09.14.13.14.07-.03.05-.06.12-.09.14.16.28.3.43.44-.25.04.02.14-.13.2l-.27-.29c-.04.2.24.29.34.42.02.03-.22.1-.25 0-.05.17.2.13.14.27.13-.05.08-.12.08-.2a.19.19 0 0 1 .24.1c.05-.1-.15-.18.12-.21-.09-.15-.18.08-.23-.03.21-.07-.04-.06.02-.14.14.05.26.15.36.27-.05.01-.07-.04-.12-.01.07.1.07.1.27.18-.12.05-.24.11-.3.02-.02.11.26.09.31.1-.09.06-.16.09-.15.2.03.02.1-.01.14-.03.05.06 0 .1.09.16-.14.04-.03.11-.2.14.36.16.26.4.58.58-.3.1-.36-.37-.49-.22-.05.06.07.22.26.31-.07.02-.05.05-.1.07.14 0 .06.08.21.08.01.04-.04 0-.08.03.06.1.22.04.27.15l-.12.05c.2.05.11.27.3.33-.14.04-.23-.24-.44-.25-.1.06.03.15-.1.2a.34.34 0 0 1 .27.24c-.06.01-.1-.02-.16 0 .07.12.06.15.23.17-.13.04.01.08 0 .15-.2-.1-.42-.3-.41-.5-.1 0-.2 0-.23-.11-.27.13.45.32.25.5.08 0 .13.05.2.06-.15.13-.07.05 0 .22-.1.03-.14-.03-.17-.1a.4.4 0 0 0-.16 0c-.14.08.05.08.07.19-.08.02-.12.05-.08.09-.05-.01-.12.02-.16 0 .06.05-.18.16-.29.25.03.07.18-.08.17.03l-.12.05c.1.12.3.18.15.31 0-.04-.38-.01-.24.02-.3-.06-.26-.3-.53-.44-.09.03.05.11.05.16-.15.08-.01-.14-.22-.04-.08.18.29.23.3.5a1.32 1.32 0 0 1-.38-.29c.01.14.15.21.08.37-.08-.05-.24.05-.33.03 0 .22.08.26.2.43-.08.02-.06.05-.05.09-.1.02-.13-.04-.16-.1-.21.09.08.15-.07.23-.14 0-.05-.07-.15-.1-.04.2.18.44.26.57-.2.03-.4-.26-.5-.38-.16-.19-.3-.4-.4-.62-.4-.1-.5-.73-.85-.83-.13-.4-.71-.62-.91-.98-.13 0-.17.08-.3.04-.03-.09.08 0 .12-.03-.15-.03-.25-.15-.1-.26-.02-.09-.33-.06-.17-.16-.1-.04-.12.04-.2.04-.4-.43-.94-.8-1.12-1.2.03-.01.04.01.07.03.04-.03-.02-.07-.05-.1-.05.03-.18.06-.09.1a3.2 3.2 0 0 1-.72-.73.27.27 0 0 1-.27-.23c-.17-.02-.3-.27-.5-.32a4.7 4.7 0 0 0-.87-.83c-.1-.07-.56-.25-.56-.4-.85-.56-1.43-1.07-2.56-1.7.02-.04-.04-.08-.08-.12-.98-.58-2.23-1.26-3.22-1.8-.97-.38-1.66-.79-2.58-1.16-.14-.05-.32-.05-.4-.18-.62-.15-1.07-.39-1.7-.6l-.2-.04a40.7 40.7 0 0 0-9.54-2c-.25-.03-.55-.08-.81-.1-.37-.04-.78-.04-1.16-.06.55.09 1.25.07 1.72.17a22.46 22.46 0 0 1 2.1.26c.05 0 .04-.02.04-.03.07 0 .11.05.14.02.04 0 .03.02.03.04 1.38.18 2.74.44 4.1.76.03.02 0 .05 0 .07-.62-.15-1.24-.3-1.83-.4a51.14 51.14 0 0 0-10.16-.9c-.04 0-.02.01-.02.02a4.05 4.05 0 0 0-.79.02.1.1 0 0 0-.03-.03c-.04 0-.01.01-.01.02-.48 0-1.05.05-1.53.08-.8.05-1.59.1-2.25.19-.98.07-1.58.2-2.48.3-.2-.03-.64 0-.71-.02l-.18.01C.5 17.6.45 17.6.29 17.6c.12-.03.09-.07-.13-.05 0-.02.08-.05.18-.08-.14 0-.26-.03-.16-.09-.12 0-.17-.02-.02-.06H.04c.13-.06.16-.12.14-.15l-.18.02.13-.03c-.2-.04-.1-.1-.03-.19l.18-.04-.08-.01a23.64 23.64 0 0 1 1.89-.37h.06l.08-.02c.07.01-.09 0-.06.02.1 0 .19-.03.27-.06.17 0 .33-.03.48-.09.11 0 .23-.02.35-.04.09-.02-.07 0-.12 0a.38.38 0 0 1 .2-.01" fill="#58A66F"/>
  </g>
</svg>
