<svg width="282" height="103" viewBox="0 0 282 103" fill="none" xmlns="http://www.w3.org/2000/svg">
<path d="M280.5 80L273.5 78L278.5 73L280.5 80Z" stroke="#58A66F" stroke-width="2" stroke-linecap="round" stroke-linejoin="round"/>
<path d="M239 63C239 63 259.5 63 271 71" stroke="#58A66F" stroke-width="3" stroke-linecap="round" stroke-dasharray="4 8"/>
<path d="M97.674 65.8568C97.674 66.8828 97.368 67.1348 96.486 67.1348V67.9988H101.94V67.1348C101.04 67.1348 100.752 66.8828 100.752 65.8568V57.6668C100.752 56.6408 101.04 56.3888 101.94 56.3888V55.4708H96.486V56.3888C97.368 56.3888 97.674 56.6408 97.674 57.6668V65.8568ZM106.188 57.5048C106.8 56.7308 107.268 56.4428 108.024 56.3528V55.4708H103.938V56.3528C104.424 56.3528 104.658 56.5688 104.658 56.8388C104.658 56.9468 104.604 57.1088 104.478 57.2708L101.04 61.8248L104.388 67.9988H108.33V67.1348C107.592 67.0808 107.25 66.9548 106.854 66.2528L103.704 60.6188L106.188 57.5048ZM114.215 66.5588C112.523 66.5588 111.893 65.7488 111.821 63.8408H117.221V62.9948C117.221 60.2408 116.105 58.5308 113.153 58.5308C110.453 58.5308 108.671 60.2948 108.671 63.3548C108.671 66.4508 110.327 68.2328 113.171 68.2328C114.845 68.2328 116.051 67.7468 117.059 66.7388L116.609 65.9648C115.799 66.3788 114.971 66.5588 114.215 66.5588ZM113.189 59.7188C114.035 59.7188 114.341 60.3668 114.341 62.5268H111.839C111.965 60.3668 112.343 59.7188 113.189 59.7188ZM123.936 66.5588C122.244 66.5588 121.614 65.7488 121.542 63.8408H126.942V62.9948C126.942 60.2408 125.826 58.5308 122.874 58.5308C120.174 58.5308 118.392 60.2948 118.392 63.3548C118.392 66.4508 120.048 68.2328 122.892 68.2328C124.566 68.2328 125.772 67.7468 126.78 66.7388L126.33 65.9648C125.52 66.3788 124.692 66.5588 123.936 66.5588ZM122.91 59.7188C123.756 59.7188 124.062 60.3668 124.062 62.5268H121.56C121.686 60.3668 122.064 59.7188 122.91 59.7188ZM135.024 63.6428C135.024 66.0908 134.322 66.7028 133.296 66.7028C132.774 66.7028 132.288 66.5588 131.91 66.1268V61.0868C132.378 60.6368 132.882 60.4748 133.422 60.4748C134.412 60.4748 135.024 61.1588 135.024 63.6428ZM131.802 60.0608C131.748 59.3228 131.37 58.6748 131.28 58.5308H131.01L127.968 59.2508V60.0968C128.832 60.1328 128.994 60.3128 128.994 61.6268V69.4028C128.994 70.4288 128.814 70.6628 127.932 70.6628V71.5268H132.99V70.6628C132.09 70.6628 131.91 70.4288 131.91 69.4028V67.4588C132.378 68.0168 133.098 68.2148 133.836 68.2148C136.284 68.2148 138.12 66.8288 138.12 63.3188C138.12 60.0428 136.68 58.5488 134.502 58.5488C133.206 58.5488 132.252 59.2508 131.802 60.0608ZM143.279 67.9988H152.837V64.6328H151.343C151.199 66.3068 150.731 66.7208 149.579 66.7208H147.545V62.3468H148.535C149.651 62.3468 149.921 62.6528 149.993 63.6248H151.289V59.7548H149.993C149.921 60.7808 149.633 61.0328 148.517 61.0328H147.545V56.8388H149.255C150.569 56.8388 150.767 57.2168 151.163 58.5848H152.621L152.423 55.4708H143.279V56.3888C144.161 56.3888 144.467 56.6408 144.467 57.6668V65.8568C144.467 66.8828 144.161 67.1348 143.279 67.1348V67.9988ZM158.05 64.4708H158.122L159.328 66.2168C159.436 66.3788 159.508 66.5588 159.508 66.7028C159.508 66.9728 159.256 67.1348 158.878 67.1348V67.9988H163.81V67.1348C163.072 67.0628 162.91 66.8288 162.28 65.9288L160.3 63.0848L162.028 60.7448C162.568 60.0068 162.784 59.7368 163.54 59.6468V58.7648H159.976V59.6468C160.426 59.6468 160.624 59.8268 160.624 60.0788C160.624 60.2588 160.57 60.4028 160.462 60.5468L159.544 61.8968H159.472L158.572 60.5468C158.446 60.3488 158.374 60.1688 158.374 60.0248C158.374 59.7908 158.554 59.6468 158.95 59.6468V58.7648H154.036V59.6468C154.666 59.7368 154.774 59.8628 155.386 60.7088L157.294 63.3728L155.314 66.0548C154.738 66.8468 154.558 67.0628 153.856 67.1348V67.9988H157.438V67.1348C156.916 67.1348 156.7 66.9548 156.7 66.6488C156.7 66.5048 156.754 66.3428 156.88 66.1628L158.05 64.4708ZM171.376 63.6428C171.376 66.0908 170.674 66.7028 169.648 66.7028C169.126 66.7028 168.64 66.5588 168.262 66.1268V61.0868C168.73 60.6368 169.234 60.4748 169.774 60.4748C170.764 60.4748 171.376 61.1588 171.376 63.6428ZM168.154 60.0608C168.1 59.3228 167.722 58.6748 167.632 58.5308H167.362L164.32 59.2508V60.0968C165.184 60.1328 165.346 60.3128 165.346 61.6268V69.4028C165.346 70.4288 165.166 70.6628 164.284 70.6628V71.5268H169.342V70.6628C168.442 70.6628 168.262 70.4288 168.262 69.4028V67.4588C168.73 68.0168 169.45 68.2148 170.188 68.2148C172.636 68.2148 174.472 66.8288 174.472 63.3188C174.472 60.0428 173.032 58.5488 170.854 58.5488C169.558 58.5488 168.604 59.2508 168.154 60.0608ZM179.422 56.5508C179.422 55.3988 179.152 54.8948 179.062 54.7688H178.792L175.39 55.2368V56.0828C176.254 56.1188 176.506 56.2988 176.506 57.6128V65.8748C176.506 66.9008 176.326 67.1348 175.444 67.1348V67.9988H180.484V67.1348C179.602 67.1348 179.422 66.9008 179.422 65.8748V56.5508ZM190.769 63.1928C190.769 59.9528 188.825 58.5308 186.215 58.5308C183.245 58.5308 181.427 60.5108 181.427 63.4088C181.427 66.4688 183.101 68.2328 186.035 68.2328C188.555 68.2328 190.769 66.7568 190.769 63.1928ZM187.565 63.0848C187.565 65.9648 187.079 67.0628 186.125 67.0628C184.937 67.0628 184.631 65.9828 184.631 63.4988C184.631 60.5108 185.117 59.7368 186.089 59.7368C187.061 59.7368 187.565 60.5288 187.565 63.0848ZM195.806 60.8888C195.752 59.6468 195.32 58.7468 195.194 58.5308H194.924L191.882 59.2508V60.0968C192.746 60.1328 192.908 60.3128 192.908 61.6268V65.8748C192.908 66.9008 192.728 67.1348 191.846 67.1348V67.9988H197.228V67.1348C196.04 67.1348 195.824 66.9008 195.824 65.8748V63.1568C195.824 61.8428 196.166 61.4288 197.516 61.4288C197.984 61.4288 198.236 61.4828 198.596 61.5908L199.136 58.6568C198.992 58.6028 198.722 58.5308 198.434 58.5308C197.444 58.5308 196.202 59.2688 195.806 60.8888ZM204.498 67.9988V67.1348C203.616 67.1348 203.436 66.9008 203.436 65.8748V58.6388H203.022L199.494 59.2508V60.0968C200.358 60.1328 200.52 60.3128 200.52 61.6268V65.8748C200.52 66.9008 200.34 67.1348 199.458 67.1348V67.9988H204.498ZM203.58 56.2808C203.58 55.3628 202.86 54.6068 201.906 54.6068C200.952 54.6068 200.178 55.3628 200.178 56.2808C200.178 57.2168 200.952 57.9548 201.87 57.9548C202.824 57.9548 203.58 57.2168 203.58 56.2808ZM214.979 61.3388C214.979 59.4128 213.809 58.5488 212.333 58.5488C210.911 58.5488 209.939 59.2688 209.165 60.1688C209.111 59.4308 208.733 58.7108 208.607 58.5308H208.337L205.295 59.2508V60.0968C206.159 60.1328 206.321 60.3128 206.321 61.6268V65.8748C206.321 66.9008 206.141 67.1348 205.259 67.1348V67.9988H210.299V67.1348C209.417 67.1348 209.237 66.9008 209.237 65.8928V61.1588C209.651 60.8708 210.155 60.5828 210.893 60.5828C211.631 60.5828 212.063 60.9428 212.063 62.0408V65.8928C212.063 66.9008 211.883 67.1348 211.001 67.1348V67.9988H216.023V67.1348C215.159 67.1348 214.979 66.9008 214.979 65.8748V61.3388ZM220.79 71.5988C223.544 71.5988 225.542 70.6808 225.542 68.2688C225.542 66.3248 224.336 65.6948 221.996 65.5688L220.232 65.4788C219.908 65.4608 219.782 65.2988 219.782 65.0828C219.782 64.8128 219.98 64.6508 220.304 64.4708H220.466C223.922 64.4528 224.624 62.9948 224.624 61.7528C224.624 61.0148 224.3 60.5288 223.85 60.2408C224.264 60.4028 224.606 60.4568 225.038 60.4568C225.578 60.4568 226.082 60.2588 226.568 59.8988L225.56 58.0628C225.056 58.5128 224.3 58.9988 223.652 58.9988C223.148 58.9988 223.076 58.9448 222.698 58.8548C222.158 58.7288 221.546 58.5308 220.718 58.5308C218.306 58.5308 216.74 59.6108 216.74 61.5728C216.74 62.9948 217.622 63.9308 219.134 64.2368C217.856 64.5608 217.064 65.2988 217.064 66.2348C217.064 67.0448 217.46 67.7828 218.612 67.8548L220.628 67.9808C222.41 68.0888 222.914 68.2868 222.914 69.1328C222.914 69.9968 222.374 70.4468 220.898 70.4468C219.656 70.4468 219.152 70.1408 219.152 69.2948C219.152 68.9708 219.206 68.7548 219.368 68.4488L217.334 68.4668C216.83 68.6648 216.398 69.1328 216.398 69.7268C216.398 71.0228 218.216 71.5988 220.79 71.5988ZM220.7 63.3548C219.998 63.3548 219.62 62.8328 219.62 61.5548C219.62 60.1868 219.98 59.7008 220.7 59.7008C221.474 59.7008 221.816 60.1688 221.816 61.6088C221.816 62.8508 221.456 63.3548 220.7 63.3548Z" fill="#58A66F"/>
<path fill-rule="evenodd" clip-rule="evenodd" d="M52.7263 0.699978C54.3096 0.696586 55.8565 1.01712 57.2835 1.67864C58.0351 2.02705 58.3619 2.91879 58.0135 3.67038C57.6651 4.42198 56.7734 4.74883 56.0218 4.40042C55.015 3.93369 53.904 3.69746 52.7327 3.69997C51.9043 3.70175 51.2312 3.03161 51.2295 2.20319C51.2277 1.37476 51.8978 0.701753 52.7263 0.699978ZM46.4421 4.00064C46.9344 4.66693 46.7933 5.60614 46.127 6.09843C45.1924 6.78901 44.2832 7.6313 43.4282 8.62756C42.8887 9.25625 41.9418 9.32855 41.3131 8.78906C40.6844 8.24957 40.6121 7.30258 41.1516 6.6739C42.1466 5.51436 43.2201 4.5162 44.3443 3.68559C45.0106 3.1933 45.9498 3.33435 46.4421 4.00064ZM61.2869 7.59086C62.0641 7.30413 62.9266 7.70176 63.2133 8.47898C63.6852 9.75801 64.0209 11.1813 64.2047 12.7444C64.3015 13.5671 63.7129 14.3125 62.8902 14.4093C62.0674 14.506 61.322 13.9175 61.2252 13.0948C61.0661 11.7419 60.7805 10.552 60.3988 9.51732C60.112 8.74009 60.5097 7.87759 61.2869 7.59086ZM38.7725 13.2227C39.5473 13.5159 39.9376 14.3817 39.6444 15.1565C39.215 16.2909 38.8438 17.5106 38.5431 18.8156C38.3571 19.6228 37.5519 20.1264 36.7446 19.9404C35.9373 19.7544 35.4337 18.9492 35.6197 18.1419C35.9499 16.7091 36.3599 15.3594 36.8386 14.0945C37.1319 13.3197 37.9977 12.9294 38.7725 13.2227ZM62.6422 19.4934C63.4591 19.6308 64.01 20.4044 63.8726 21.2214C63.7577 21.9042 63.6222 22.6037 63.4652 23.3199C63.3158 24.0016 63.156 24.6726 62.9859 25.333C62.7793 26.1352 61.9615 26.6181 61.1593 26.4116C60.357 26.205 59.8741 25.3871 60.0807 24.5849C60.2416 23.9601 60.393 23.3244 60.5348 22.6776C60.6816 22.0076 60.8077 21.3564 60.9141 20.7238C61.0516 19.9068 61.8252 19.356 62.6422 19.4934ZM36.1887 25.0293C37.0171 25.036 37.6832 25.713 37.6765 26.5414C37.6664 27.7911 37.7121 29.0922 37.8195 30.4446C37.885 31.2704 37.2687 31.993 36.4428 32.0586C35.617 32.1241 34.8944 31.5078 34.8289 30.6819C34.7148 29.2452 34.6658 27.8568 34.6766 26.5171C34.6833 25.6887 35.3603 25.0226 36.1887 25.0293ZM59.5507 31.1209C60.3091 31.4541 60.6539 32.3391 60.3207 33.0975C59.7555 34.3842 59.1436 35.6202 58.4873 36.8073C58.0865 37.5324 57.1739 37.7952 56.4488 37.3944C55.7238 36.9936 55.461 36.081 55.8618 35.356C56.4734 34.2495 57.0451 33.0952 57.574 31.891C57.9072 31.1325 58.7922 30.7877 59.5507 31.1209ZM37.2335 37.0915C38.0415 36.9087 38.8447 37.4155 39.0275 38.2235C39.3096 39.4703 39.6391 40.7504 40.0193 42.0637C40.2496 42.8595 39.7912 43.6913 38.9955 43.9216C38.1997 44.152 37.3679 43.6936 37.1376 42.8978C36.7414 41.5292 36.397 40.1917 36.1014 38.8856C35.9186 38.0776 36.4254 37.2744 37.2335 37.0915ZM53.6329 41.5088C54.2678 42.0409 54.3511 42.987 53.819 43.6219C52.9254 44.6882 51.9876 45.7009 51.009 46.6626C50.4182 47.2433 49.4685 47.235 48.8878 46.6442C48.3071 46.0533 48.3154 45.1036 48.9062 44.5229C49.8172 43.6277 50.6893 42.6858 51.5197 41.6949C52.0518 41.06 52.9979 40.9767 53.6329 41.5088ZM34.5741 55.6268C34.8804 56.3965 34.5049 57.2688 33.7352 57.5752C32.477 58.0761 31.1971 58.5412 29.8987 58.9732C29.1127 59.2347 28.2634 58.8094 28.0019 58.0234C27.7404 57.2373 28.1656 56.3881 28.9517 56.1266C30.1984 55.7118 31.4239 55.2663 32.6256 54.7879C33.3953 54.4816 34.2677 54.8571 34.5741 55.6268ZM23.1935 59.3542C23.3785 60.1617 22.8739 60.9663 22.0664 61.1514C20.7539 61.4522 19.4292 61.7267 18.0951 61.9773C17.2809 62.1302 16.4969 61.5941 16.344 60.7799C16.1911 59.9657 16.7271 59.1817 17.5413 59.0288C18.8388 58.7852 20.1246 58.5186 21.3963 58.2272C22.2038 58.0421 23.0084 58.5467 23.1935 59.3542ZM44.8793 59.277C45.6621 59.0058 46.5165 59.4205 46.7877 60.2033C47.2139 61.4334 47.6069 62.6332 47.968 63.8029C48.2124 64.5945 47.7689 65.4343 46.9773 65.6787C46.1858 65.9231 45.346 65.4795 45.1016 64.688C44.7508 63.5518 44.3685 62.3844 43.953 61.1853C43.6818 60.4026 44.0966 59.5482 44.8793 59.277ZM11.4104 61.5287C11.5097 62.3512 10.9234 63.0984 10.1009 63.1976C8.76664 63.3587 7.42799 63.5008 6.08754 63.6261C5.26271 63.7032 4.53155 63.0971 4.45445 62.2722C4.37735 61.4474 4.9835 60.7162 5.80833 60.6391C7.12375 60.5162 8.43559 60.3768 9.74147 60.2192C10.5639 60.12 11.3111 60.7062 11.4104 61.5287ZM-0.525299 62.6193C-0.484482 63.4468 -1.12215 64.1506 -1.94957 64.1914C-3.29285 64.2577 -4.63322 64.311 -5.9681 64.3535C-6.79611 64.3798 -7.48868 63.7299 -7.51501 62.9019C-7.54133 62.0739 -6.89144 61.3813 -6.06343 61.355C-4.74457 61.313 -3.42175 61.2604 -2.09738 61.1951C-1.26996 61.1542 -0.566116 61.7919 -0.525299 62.6193ZM-12.5065 62.9864C-12.5023 63.8149 -13.1705 64.4898 -13.999 64.4939C-14.6688 64.4972 -15.336 64.4988 -16 64.4988C-16.8284 64.4988 -17.5 63.8272 -17.5 62.9988C-17.5 62.1703 -16.8284 61.4988 -16 61.4988C-15.3406 61.4988 -14.6785 61.4973 -14.0139 61.4939C-13.1855 61.4898 -12.5106 62.158 -12.5065 62.9864ZM84 64.4985C83.3473 64.4985 82.6832 64.5125 82.0091 64.5405C81.1814 64.5747 80.4826 63.9315 80.4483 63.1038C80.4141 62.2761 81.0573 61.5773 81.885 61.543C82.5988 61.5135 83.3043 61.4985 84 61.4985C84.8284 61.4985 85.5 62.1701 85.5 62.9985C85.5 63.8269 84.8284 64.4985 84 64.4985ZM75.2588 63.6961C75.4037 64.5117 74.86 65.2904 74.0443 65.4353C72.74 65.6671 71.423 65.9404 70.1018 66.2537C69.2958 66.4449 68.4873 65.9464 68.2962 65.1403C68.105 64.3343 68.6035 63.5259 69.4096 63.3347C70.785 63.0085 72.1578 62.7235 73.5195 62.4816C74.3352 62.3367 75.1139 62.8804 75.2588 63.6961ZM63.2846 66.6205C63.5617 67.4012 63.1534 68.2588 62.3727 68.5358C61.1049 68.9858 59.8497 69.4701 58.6146 69.9871C57.8504 70.307 56.9716 69.9468 56.6517 69.1826C56.3318 68.4185 56.692 67.5397 57.4562 67.2198C58.7434 66.6809 60.0504 66.1767 61.3693 65.7086C62.15 65.4315 63.0075 65.8398 63.2846 66.6205ZM47.8059 75.7563C49.6954 74.4988 50.3754 74.1172 51.4042 73.5274C52.1229 73.1154 52.3715 72.1987 51.9595 71.48C51.5475 70.7613 50.6309 70.5127 49.9122 70.9247L47.1613 72.6032C47.1613 72.6032 46.6024 72.97 46.327 73.1563C45.6409 73.6206 45.461 74.5531 45.9252 75.2393C46.3452 75.86 47.1485 76.0664 47.8059 75.7563ZM41.8671 78.5349C42.4554 79.1181 42.4595 80.0679 41.8762 80.6562C40.93 81.6106 40.0714 82.5934 39.3106 83.6012C38.8115 84.2624 37.8709 84.3937 37.2097 83.8946C36.5485 83.3954 36.4171 82.4548 36.9163 81.7936C37.7655 80.6687 38.7139 79.5848 39.7458 78.544C40.329 77.9557 41.2788 77.9516 41.8671 78.5349ZM49.845 80.9748C50.6732 80.9544 51.3611 81.6092 51.3815 82.4374C51.4152 83.8003 51.3853 85.0888 51.2985 86.3043C51.2395 87.1306 50.5217 87.7527 49.6954 87.6936C48.8691 87.6346 48.2471 86.9169 48.3061 86.0905C48.3857 84.9764 48.4139 83.7842 48.3825 82.5114C48.362 81.6832 49.0168 80.9953 49.845 80.9748ZM34.8114 88.5394C35.6111 88.7558 36.0839 89.5795 35.8675 90.3792C35.7033 90.9857 35.575 91.5982 35.484 92.2167C35.3983 92.7999 35.3607 93.3464 35.3639 93.8555C35.3691 94.6839 34.7018 95.3597 33.8734 95.365C33.045 95.3702 32.3692 94.7029 32.3639 93.8745C32.3597 93.2041 32.4093 92.5052 32.516 91.7802C32.6246 91.0417 32.7774 90.3132 32.9716 89.5955C33.188 88.7958 34.0117 88.323 34.8114 88.5394ZM48.841 92.0637C49.6154 92.358 50.0047 93.2243 49.7104 93.9987C49.1897 95.3694 48.5641 96.5723 47.8574 97.6093C47.3909 98.2939 46.4577 98.4706 45.7732 98.0041C45.0886 97.5376 44.9118 96.6044 45.3783 95.9199C45.9411 95.094 46.4614 94.1035 46.906 92.9332C47.2002 92.1588 48.0665 91.7695 48.841 92.0637ZM35.7679 99.4573C36.1753 98.736 37.0903 98.4815 37.8117 98.889C38.5809 99.3235 39.4953 99.5057 40.4734 99.3779C41.2948 99.2705 42.0478 99.8494 42.1551 100.671C42.2625 101.492 41.6836 102.245 40.8621 102.353C39.2681 102.561 37.6956 102.269 36.3362 101.501C35.6149 101.094 35.3605 100.179 35.7679 99.4573Z" fill="#58A66F"/>
<path d="M44.7109 47.2016C44.9256 46.6921 44.654 46.0947 44.129 45.9214C43.8807 45.8283 43.6143 45.8464 43.3867 45.9498C43.1307 46.0662 42.9419 46.255 42.8488 46.5033L41.2194 50.8482L36.846 49.2317C36.5978 49.1386 36.3314 49.1567 36.1038 49.2602C35.8477 49.3766 35.6589 49.5654 35.5658 49.8136C35.3512 50.3231 35.6227 50.9206 36.1477 51.0939L40.5056 52.7517L38.8762 57.0966C38.6615 57.6061 38.9331 58.2035 39.4581 58.3768C39.9676 58.5915 40.565 58.3199 40.7383 57.7949L42.3961 53.4371L46.7411 55.0664C47.2505 55.2811 47.848 55.0096 48.0213 54.4845C48.2359 53.975 47.9644 53.3776 47.4394 53.2043L43.0815 51.5465L44.7109 47.2016Z" fill="#58A66F"/>
</svg>
